ply
format ascii 1.0
comment Created by Blender 2.76 (sub 0) - www.blender.org, source file: 'biped_rig.blend'
element vertex 258
property float x
property float y
property float z
property float nx
property float ny
property float nz
element face 256
property list uchar uint vertex_indices
end_header
0.058060 -0.010903 1.298430 0.036164 -0.021088 -0.999115
0.030011 -0.013574 1.300326 -0.064486 -0.021119 -0.997681
0.029971 0.019821 1.305372 -0.076540 0.338603 -0.937773
0.057630 0.020859 1.303427 0.018464 0.348369 -0.937162
0.030264 0.046749 1.321554 -0.063021 0.719443 -0.691671
0.057798 0.046672 1.319315 0.037965 0.717093 -0.695883
0.000000 -0.014817 1.302461 0.000000 -0.021973 -0.999756
0.000000 0.018910 1.307486 0.000000 0.336863 -0.941527
0.000000 0.045977 1.323609 0.000000 0.722251 -0.691580
0.080665 0.020332 1.306051 0.300974 0.346171 -0.888546
0.082186 -0.007861 1.301279 0.336344 -0.016266 -0.941588
0.098579 0.020493 1.316842 0.669179 0.323496 -0.668935
0.101395 -0.005358 1.313009 0.720481 -0.003845 -0.693411
0.079872 0.043352 1.320817 0.296213 0.678793 -0.671926
0.093407 0.037378 1.325886 0.578356 0.570940 -0.582659
0.081439 -0.037206 1.307677 0.383129 -0.350200 -0.854701
0.058299 -0.043657 1.304879 0.104678 -0.369213 -0.923399
0.081318 -0.062613 1.324476 0.452559 -0.613330 -0.647298
0.059031 -0.072181 1.322843 0.202185 -0.681387 -0.703391
0.099424 -0.032610 1.318933 0.714011 -0.304086 -0.630604
0.094797 -0.052443 1.329603 0.674520 -0.499832 -0.543260
0.030351 -0.048014 1.306766 -0.022797 -0.364208 -0.931028
0.000000 -0.049669 1.308880 0.000000 -0.363445 -0.931578
0.030961 -0.078079 1.325039 0.044374 -0.697012 -0.715659
0.000000 -0.080110 1.327094 0.000000 -0.699179 -0.714896
0.087373 0.012289 1.638003 0.274056 0.031373 0.961180
0.120875 0.014254 1.624817 0.525498 0.038209 0.849910
0.117496 0.047934 1.619474 0.511765 0.347240 0.785791
0.085845 0.050550 1.631889 0.263833 0.343547 0.901303
0.112564 0.073360 1.604748 0.473128 0.692038 0.545122
0.083077 0.079244 1.615203 0.228523 0.740959 0.631428
0.143717 0.014616 1.604981 0.827967 0.041871 0.559191
0.138621 0.044993 1.600772 0.789483 0.345866 0.507004
0.128999 0.064051 1.593809 0.694296 0.590472 0.411389
0.045177 0.050208 1.639005 0.099704 0.335704 0.936644
0.045723 0.009976 1.645408 0.111881 0.027497 0.993316
0.000000 0.049297 1.641238 0.000000 0.332011 0.943266
0.000000 0.008733 1.647665 0.000000 0.025636 0.999664
0.043949 0.080175 1.621570 0.069124 0.748619 0.659352
0.000000 0.079403 1.623732 0.000000 0.746605 0.665242
0.045557 -0.032820 1.641032 0.124363 -0.238777 0.963073
0.086513 -0.028442 1.633944 0.294778 -0.239906 0.924924
0.044646 -0.070482 1.626132 0.141179 -0.552934 0.821162
0.084310 -0.064267 1.619759 0.326395 -0.543290 0.773461
0.000000 -0.034475 1.643266 0.000000 -0.238838 0.971038
0.000000 -0.072513 1.628294 0.000000 -0.553117 0.833064
0.118270 -0.021928 1.621614 0.531724 -0.236702 0.813135
0.139465 -0.018240 1.603285 0.797296 -0.236702 0.555223
0.114010 -0.053750 1.609288 0.553240 -0.499954 0.666280
0.130389 -0.042426 1.598221 0.739128 -0.428083 0.520005
0.124017 -0.003811 1.372673 0.976074 0.007508 -0.217170
0.114694 -0.004298 1.337755 0.926084 0.002655 -0.377239
0.110879 0.023595 1.339398 0.871456 0.303232 -0.385479
0.119513 0.027555 1.372059 0.927122 0.297708 -0.227485
0.100302 0.045530 1.343047 0.664693 0.635884 -0.392163
0.107309 0.052089 1.373592 0.708792 0.666311 -0.231483
0.126429 0.030288 1.413166 0.939879 0.296060 -0.170049
0.131298 -0.003026 1.414920 0.986694 0.008454 -0.162236
0.133260 0.033438 1.457998 0.936399 0.296335 -0.187872
0.138357 -0.001040 1.460063 0.984741 0.005463 -0.173772
0.113280 0.056163 1.413617 0.716910 0.677145 -0.165716
0.119427 0.060144 1.458160 0.708182 0.680319 -0.188574
0.127696 -0.038337 1.418440 0.956175 -0.249886 -0.152501
0.120720 -0.037001 1.376224 0.942503 -0.254494 -0.216529
0.115434 -0.070199 1.423287 0.827174 -0.544664 -0.138096
0.109365 -0.066918 1.381192 0.810083 -0.543138 -0.220740
0.134527 -0.037594 1.463866 0.954863 -0.255501 -0.151372
0.121581 -0.070524 1.468919 0.825892 -0.552110 -0.114200
0.111907 -0.033817 1.342418 0.890530 -0.269967 -0.366131
0.102065 -0.060277 1.348449 0.760033 -0.533067 -0.371654
0.153330 0.007890 1.543582 0.997070 0.014374 -0.075076
0.147011 0.003051 1.503672 0.984710 0.006378 -0.174017
0.141635 0.038645 1.501839 0.932737 0.303354 -0.194800
0.147727 0.043192 1.541751 0.941954 0.322001 -0.094943
0.126965 0.066419 1.502258 0.702017 0.683309 -0.200568
0.132588 0.071033 1.542149 0.717338 0.690359 -0.093905
0.147710 0.044360 1.574796 0.929441 0.339030 0.145329
0.153383 0.012120 1.577627 0.984252 0.028443 0.174322
0.132994 0.070030 1.574069 0.727866 0.670888 0.141575
0.148738 -0.022337 1.578204 0.942656 -0.253975 0.216498
0.148934 -0.029383 1.546249 0.964232 -0.263985 -0.023011
0.134757 -0.053123 1.580193 0.807642 -0.511338 0.293558
0.134644 -0.062756 1.550366 0.828669 -0.556261 0.062075
0.142902 -0.034539 1.507303 0.955412 -0.261391 -0.137272
0.129119 -0.068300 1.512277 0.824580 -0.560717 -0.074984
0.078632 -0.101579 1.562907 0.346019 -0.909665 0.229591
0.081805 -0.087812 1.595493 0.344310 -0.796808 0.496506
0.042959 -0.095309 1.600960 0.150822 -0.824763 0.544939
0.040793 -0.109813 1.567575 0.151585 -0.950407 0.271523
0.000000 -0.097566 1.603003 0.000000 -0.828486 0.559984
0.000000 -0.112183 1.569486 0.000000 -0.958403 0.285348
0.038445 -0.116507 1.528036 0.150670 -0.984497 0.089419
0.074424 -0.108075 1.523764 0.345408 -0.936674 0.057283
0.036212 -0.117900 1.484402 0.151433 -0.988433 -0.006745
0.070097 -0.109551 1.480246 0.348430 -0.936888 -0.028443
0.000000 -0.118914 1.529834 0.000000 -0.994995 0.099643
0.000000 -0.120308 1.486140 0.000000 -1.000000 0.000122
0.105471 -0.092409 1.518137 0.586932 -0.809595 -0.000061
0.110563 -0.086358 1.556545 0.589526 -0.792291 0.157079
0.099329 -0.094135 1.474732 0.590503 -0.804254 -0.066500
0.112425 -0.074349 1.587263 0.581164 -0.705405 0.405713
0.063596 -0.102677 1.390597 0.327372 -0.919614 -0.217017
0.066568 -0.108264 1.434536 0.346690 -0.932920 -0.097110
0.034390 -0.116507 1.438730 0.149571 -0.985015 -0.085604
0.032937 -0.110573 1.394575 0.136357 -0.966826 -0.215827
0.000000 -0.118914 1.440496 0.000000 -0.996643 -0.081515
0.000000 -0.112943 1.396425 0.000000 -0.976623 -0.214881
0.031809 -0.098348 1.355493 0.103885 -0.898679 -0.426099
0.060940 -0.091252 1.352391 0.282601 -0.862850 -0.418989
0.000000 -0.100605 1.357450 0.000000 -0.904538 -0.426344
0.084718 -0.078991 1.350908 0.526963 -0.751549 -0.396802
0.089698 -0.088468 1.386060 0.572497 -0.790002 -0.219337
0.094320 -0.093169 1.429020 0.590808 -0.798364 -0.116245
0.061821 0.069231 1.380077 0.060579 0.984863 -0.162297
0.064731 0.073274 1.420911 0.051363 0.993652 -0.099826
0.092039 0.069154 1.416713 0.324198 0.936766 -0.131718
0.087509 0.064783 1.376479 0.331858 0.922025 -0.199194
0.068260 0.077384 1.465086 0.041536 0.989563 -0.137761
0.097048 0.073380 1.461039 0.310953 0.936705 -0.160772
0.082803 0.057176 1.344403 0.320139 0.866024 -0.384014
0.059353 0.061580 1.345538 0.058199 0.929502 -0.364147
0.030922 0.061791 1.348524 -0.042085 0.937254 -0.346049
0.031955 0.069027 1.383741 -0.036103 0.989074 -0.142766
0.000000 0.060849 1.350480 0.000000 0.940245 -0.340434
0.000000 0.067761 1.385591 0.000000 0.990539 -0.136998
0.033377 0.072535 1.424665 -0.041017 0.995453 -0.085757
0.035198 0.076396 1.468753 -0.046236 0.989959 -0.133335
0.000000 0.070951 1.426431 0.000000 0.996551 -0.082644
0.000000 0.074654 1.470491 0.000000 0.990814 -0.135014
0.076857 0.091610 1.551499 0.082553 0.993683 -0.075747
0.072587 0.085239 1.509647 0.048585 0.984802 -0.166662
0.037431 0.084690 1.513465 -0.040315 0.984558 -0.170263
0.039811 0.091817 1.555823 -0.019593 0.996307 -0.083285
0.000000 0.083106 1.515262 0.000000 0.984527 -0.175176
0.000000 0.090552 1.557734 0.000000 0.996033 -0.088717
0.042072 0.092179 1.592851 0.017914 0.980193 0.197180
0.080218 0.091271 1.587545 0.148839 0.968902 0.197577
0.000000 0.091236 1.594894 0.000000 0.980773 0.195074
0.110511 0.084778 1.579802 0.407117 0.896695 0.173589
0.108374 0.085927 1.546170 0.347911 0.934111 -0.079867
0.103190 0.080550 1.505387 0.312723 0.932524 -0.180364
-0.058060 -0.010903 1.298430 -0.036164 -0.021088 -0.999115
-0.057630 0.020859 1.303427 -0.018464 0.348369 -0.937162
-0.029971 0.019821 1.305372 0.076540 0.338603 -0.937773
-0.030011 -0.013574 1.300326 0.064486 -0.021119 -0.997681
-0.057798 0.046672 1.319315 -0.037965 0.717093 -0.695883
-0.030264 0.046749 1.321554 0.063021 0.719443 -0.691671
-0.030351 -0.048014 1.306766 0.022797 -0.364208 -0.931028
-0.058299 -0.043657 1.304879 -0.104678 -0.369213 -0.923399
-0.030961 -0.078079 1.325039 -0.044374 -0.697012 -0.715659
-0.059031 -0.072181 1.322843 -0.202185 -0.681387 -0.703391
-0.081439 -0.037206 1.307677 -0.383129 -0.350200 -0.854701
-0.082186 -0.007861 1.301279 -0.336344 -0.016266 -0.941588
-0.099424 -0.032610 1.318933 -0.714011 -0.304086 -0.630604
-0.101395 -0.005358 1.313009 -0.720481 -0.003845 -0.693411
-0.081318 -0.062613 1.324476 -0.452559 -0.613330 -0.647298
-0.094797 -0.052443 1.329603 -0.674520 -0.499832 -0.543260
-0.080665 0.020332 1.306051 -0.300974 0.346171 -0.888546
-0.079872 0.043352 1.320817 -0.296213 0.678793 -0.671926
-0.098579 0.020493 1.316842 -0.669179 0.323496 -0.668935
-0.093407 0.037378 1.325886 -0.578356 0.570940 -0.582659
-0.087373 0.012289 1.638003 -0.274056 0.031373 0.961180
-0.085845 0.050550 1.631889 -0.263833 0.343547 0.901303
-0.117496 0.047934 1.619474 -0.511734 0.347240 0.785791
-0.120875 0.014254 1.624817 -0.525498 0.038209 0.849910
-0.138621 0.044993 1.600772 -0.789483 0.345866 0.507004
-0.143717 0.014616 1.604981 -0.827967 0.041871 0.559191
-0.083077 0.079244 1.615203 -0.228523 0.740959 0.631428
-0.112564 0.073360 1.604748 -0.473128 0.692038 0.545122
-0.128999 0.064051 1.593809 -0.694296 0.590472 0.411389
-0.118270 -0.021928 1.621614 -0.531724 -0.236732 0.813135
-0.086513 -0.028442 1.633944 -0.294778 -0.239906 0.924924
-0.114010 -0.053750 1.609288 -0.553240 -0.499954 0.666280
-0.084310 -0.064268 1.619759 -0.326395 -0.543290 0.773461
-0.139465 -0.018240 1.603285 -0.797296 -0.236702 0.555223
-0.130388 -0.042426 1.598221 -0.739128 -0.428083 0.520005
-0.045557 -0.032820 1.641032 -0.124363 -0.238777 0.963073
-0.045723 0.009976 1.645408 -0.111881 0.027497 0.993316
-0.044646 -0.070482 1.626132 -0.141179 -0.552934 0.821162
-0.045177 0.050208 1.639005 -0.099704 0.335704 0.936644
-0.043949 0.080175 1.621570 -0.069124 0.748619 0.659352
-0.124017 -0.003811 1.372673 -0.976074 0.007508 -0.217170
-0.119513 0.027555 1.372059 -0.927122 0.297708 -0.227485
-0.110879 0.023595 1.339398 -0.871456 0.303232 -0.385479
-0.114694 -0.004298 1.337755 -0.926084 0.002655 -0.377239
-0.107309 0.052089 1.373592 -0.708792 0.666311 -0.231483
-0.100302 0.045530 1.343047 -0.664693 0.635884 -0.392163
-0.111907 -0.033817 1.342418 -0.890530 -0.269967 -0.366100
-0.120720 -0.037001 1.376224 -0.942503 -0.254494 -0.216529
-0.102065 -0.060276 1.348449 -0.760033 -0.533067 -0.371654
-0.109365 -0.066918 1.381192 -0.810083 -0.543138 -0.220740
-0.127696 -0.038337 1.418440 -0.956175 -0.249886 -0.152501
-0.131298 -0.003026 1.414920 -0.986694 0.008454 -0.162236
-0.134527 -0.037594 1.463866 -0.954863 -0.255501 -0.151372
-0.138357 -0.001040 1.460063 -0.984741 0.005463 -0.173772
-0.115434 -0.070199 1.423287 -0.827174 -0.544664 -0.138096
-0.121581 -0.070524 1.468919 -0.825892 -0.552110 -0.114200
-0.126429 0.030288 1.413166 -0.939879 0.296060 -0.170049
-0.113280 0.056163 1.413617 -0.716910 0.677145 -0.165716
-0.133260 0.033438 1.457998 -0.936399 0.296335 -0.187872
-0.119427 0.060144 1.458160 -0.708182 0.680319 -0.188574
-0.153330 0.007890 1.543582 -0.997070 0.014374 -0.075076
-0.147727 0.043192 1.541751 -0.941954 0.322001 -0.094943
-0.141635 0.038645 1.501839 -0.932737 0.303354 -0.194800
-0.147011 0.003051 1.503672 -0.984710 0.006378 -0.174017
-0.132588 0.071033 1.542149 -0.717338 0.690359 -0.093905
-0.126965 0.066419 1.502258 -0.702017 0.683309 -0.200568
-0.142902 -0.034539 1.507303 -0.955412 -0.261391 -0.137272
-0.148934 -0.029383 1.546249 -0.964232 -0.263985 -0.023011
-0.129119 -0.068300 1.512277 -0.824580 -0.560686 -0.074984
-0.134644 -0.062756 1.550366 -0.828669 -0.556261 0.062075
-0.148738 -0.022337 1.578204 -0.942656 -0.253975 0.216498
-0.153383 0.012120 1.577627 -0.984252 0.028443 0.174322
-0.134757 -0.053123 1.580193 -0.807642 -0.511338 0.293558
-0.147710 0.044360 1.574796 -0.929472 0.339030 0.145329
-0.132994 0.070030 1.574069 -0.727866 0.670888 0.141575
-0.078632 -0.101579 1.562907 -0.346019 -0.909665 0.229591
-0.040793 -0.109813 1.567575 -0.151585 -0.950407 0.271523
-0.042959 -0.095309 1.600960 -0.150822 -0.824763 0.544939
-0.081805 -0.087812 1.595493 -0.344310 -0.796808 0.496506
-0.112425 -0.074349 1.587263 -0.581164 -0.705405 0.405713
-0.110563 -0.086358 1.556545 -0.589526 -0.792291 0.157079
-0.105471 -0.092409 1.518137 -0.586932 -0.809595 -0.000061
-0.074424 -0.108075 1.523764 -0.345408 -0.936674 0.057283
-0.099329 -0.094135 1.474732 -0.590503 -0.804254 -0.066530
-0.070097 -0.109551 1.480246 -0.348430 -0.936888 -0.028443
-0.038445 -0.116507 1.528036 -0.150670 -0.984497 0.089419
-0.036212 -0.117900 1.484402 -0.151433 -0.988433 -0.006745
-0.063596 -0.102677 1.390597 -0.327372 -0.919614 -0.217017
-0.032937 -0.110573 1.394575 -0.136357 -0.966826 -0.215827
-0.034390 -0.116507 1.438730 -0.149571 -0.985015 -0.085604
-0.066568 -0.108264 1.434536 -0.346690 -0.932920 -0.097110
-0.094320 -0.093169 1.429020 -0.590808 -0.798364 -0.116245
-0.089698 -0.088468 1.386060 -0.572497 -0.790002 -0.219337
-0.084718 -0.078991 1.350908 -0.526963 -0.751549 -0.396802
-0.060940 -0.091252 1.352391 -0.282601 -0.862850 -0.418989
-0.031809 -0.098348 1.355493 -0.103885 -0.898679 -0.426099
-0.061821 0.069231 1.380077 -0.060579 0.984863 -0.162297
-0.087509 0.064783 1.376479 -0.331858 0.922025 -0.199194
-0.092039 0.069154 1.416713 -0.324198 0.936766 -0.131718
-0.064731 0.073274 1.420911 -0.051363 0.993652 -0.099826
-0.097048 0.073380 1.461039 -0.310953 0.936705 -0.160772
-0.068260 0.077384 1.465086 -0.041536 0.989563 -0.137761
-0.033377 0.072535 1.424665 0.041017 0.995453 -0.085757
-0.031955 0.069027 1.383741 0.036103 0.989074 -0.142766
-0.035198 0.076396 1.468753 0.046236 0.989959 -0.133335
-0.030922 0.061791 1.348524 0.042085 0.937254 -0.346049
-0.059353 0.061580 1.345538 -0.058199 0.929502 -0.364147
-0.082803 0.057176 1.344403 -0.320139 0.866024 -0.384014
-0.076857 0.091610 1.551499 -0.082553 0.993683 -0.075747
-0.039811 0.091817 1.555823 0.019593 0.996307 -0.083285
-0.037431 0.084690 1.513465 0.040315 0.984558 -0.170263
-0.072587 0.085239 1.509647 -0.048585 0.984802 -0.166662
-0.103190 0.080550 1.505387 -0.312723 0.932524 -0.180364
-0.108374 0.085927 1.546170 -0.347911 0.934111 -0.079867
-0.110511 0.084778 1.579802 -0.407117 0.896695 0.173589
-0.080218 0.091271 1.587545 -0.148839 0.968902 0.197577
-0.042072 0.092179 1.592851 -0.017914 0.980193 0.197180
4 0 1 2 3
4 3 2 4 5
4 1 6 7 2
4 2 7 8 4
4 0 3 9 10
4 10 9 11 12
4 3 5 13 9
4 9 13 14 11
4 0 10 15 16
4 16 15 17 18
4 10 12 19 15
4 15 19 20 17
4 0 16 21 1
4 1 21 22 6
4 16 18 23 21
4 21 23 24 22
4 25 26 27 28
4 28 27 29 30
4 26 31 32 27
4 27 32 33 29
4 25 28 34 35
4 35 34 36 37
4 28 30 38 34
4 34 38 39 36
4 25 35 40 41
4 41 40 42 43
4 35 37 44 40
4 40 44 45 42
4 25 41 46 26
4 26 46 47 31
4 41 43 48 46
4 46 48 49 47
4 50 51 52 53
4 53 52 54 55
4 51 12 11 52
4 52 11 14 54
4 50 53 56 57
4 57 56 58 59
4 53 55 60 56
4 56 60 61 58
4 50 57 62 63
4 63 62 64 65
4 57 59 66 62
4 62 66 67 64
4 50 63 68 51
4 51 68 19 12
4 63 65 69 68
4 68 69 20 19
4 70 71 72 73
4 73 72 74 75
4 71 59 58 72
4 72 58 61 74
4 70 73 76 77
4 77 76 32 31
4 73 75 78 76
4 76 78 33 32
4 70 77 79 80
4 80 79 81 82
4 77 31 47 79
4 79 47 49 81
4 70 80 83 71
4 71 83 66 59
4 80 82 84 83
4 83 84 67 66
4 85 86 87 88
4 88 87 89 90
4 86 43 42 87
4 87 42 45 89
4 85 88 91 92
4 92 91 93 94
4 88 90 95 91
4 91 95 96 93
4 85 92 97 98
4 98 97 84 82
4 92 94 99 97
4 97 99 67 84
4 85 98 100 86
4 86 100 48 43
4 98 82 81 100
4 100 81 49 48
4 101 102 103 104
4 104 103 105 106
4 102 94 93 103
4 103 93 96 105
4 101 104 107 108
4 108 107 23 18
4 104 106 109 107
4 107 109 24 23
4 101 108 110 111
4 111 110 69 65
4 108 18 17 110
4 110 17 20 69
4 101 111 112 102
4 102 112 99 94
4 111 65 64 112
4 112 64 67 99
4 113 114 115 116
4 116 115 60 55
4 114 117 118 115
4 115 118 61 60
4 113 116 119 120
4 120 119 13 5
4 116 55 54 119
4 119 54 14 13
4 113 120 121 122
4 122 121 123 124
4 120 5 4 121
4 121 4 8 123
4 113 122 125 114
4 114 125 126 117
4 122 124 127 125
4 125 127 128 126
4 129 130 131 132
4 132 131 133 134
4 130 117 126 131
4 131 126 128 133
4 129 132 135 136
4 136 135 38 30
4 132 134 137 135
4 135 137 39 38
4 129 136 138 139
4 139 138 78 75
4 136 30 29 138
4 138 29 33 78
4 129 139 140 130
4 130 140 118 117
4 139 75 74 140
4 140 74 61 118
4 141 142 143 144
4 144 143 7 6
4 142 145 146 143
4 143 146 8 7
4 141 144 147 148
4 148 147 149 150
4 144 6 22 147
4 147 22 24 149
4 141 148 151 152
4 152 151 153 154
4 148 150 155 151
4 151 155 156 153
4 141 152 157 142
4 142 157 158 145
4 152 154 159 157
4 157 159 160 158
4 161 162 163 164
4 164 163 165 166
4 162 167 168 163
4 163 168 169 165
4 161 164 170 171
4 171 170 172 173
4 164 166 174 170
4 170 174 175 172
4 161 171 176 177
4 177 176 44 37
4 171 173 178 176
4 176 178 45 44
4 161 177 179 162
4 162 179 180 167
4 177 37 36 179
4 179 36 39 180
4 181 182 183 184
4 184 183 159 154
4 182 185 186 183
4 183 186 160 159
4 181 184 187 188
4 188 187 189 190
4 184 154 153 187
4 187 153 156 189
4 181 188 191 192
4 192 191 193 194
4 188 190 195 191
4 191 195 196 193
4 181 192 197 182
4 182 197 198 185
4 192 194 199 197
4 197 199 200 198
4 201 202 203 204
4 204 203 199 194
4 202 205 206 203
4 203 206 200 199
4 201 204 207 208
4 208 207 209 210
4 204 194 193 207
4 207 193 196 209
4 201 208 211 212
4 212 211 174 166
4 208 210 213 211
4 211 213 175 174
4 201 212 214 202
4 202 214 215 205
4 212 166 165 214
4 214 165 169 215
4 216 217 218 219
4 219 218 178 173
4 217 90 89 218
4 218 89 45 178
4 216 219 220 221
4 221 220 213 210
4 219 173 172 220
4 220 172 175 213
4 216 221 222 223
4 223 222 224 225
4 221 210 209 222
4 222 209 196 224
4 216 223 226 217
4 217 226 95 90
4 223 225 227 226
4 226 227 96 95
4 228 229 230 231
4 231 230 227 225
4 229 106 105 230
4 230 105 96 227
4 228 231 232 233
4 233 232 195 190
4 231 225 224 232
4 232 224 196 195
4 228 233 234 235
4 235 234 155 150
4 233 190 189 234
4 234 189 156 155
4 228 235 236 229
4 229 236 109 106
4 235 150 149 236
4 236 149 24 109
4 237 238 239 240
4 240 239 241 242
4 238 185 198 239
4 239 198 200 241
4 237 240 243 244
4 244 243 127 124
4 240 242 245 243
4 243 245 128 127
4 237 244 246 247
4 247 246 146 145
4 244 124 123 246
4 246 123 8 146
4 237 247 248 238
4 238 248 186 185
4 247 145 158 248
4 248 158 160 186
4 249 250 251 252
4 252 251 245 242
4 250 134 133 251
4 251 133 128 245
4 249 252 253 254
4 254 253 206 205
4 252 242 241 253
4 253 241 200 206
4 249 254 255 256
4 256 255 168 167
4 254 205 215 255
4 255 215 169 168
4 249 256 257 250
4 250 257 137 134
4 256 167 180 257
4 257 180 39 137
