G75*
%MOIN*%
%OFA0B0*%
%FSLAX25Y25*%
%IPPOS*%
%LPD*%
%AMOC8*
5,1,8,0,0,1.08239X$1,22.5*
%
%ADD10C,0.00300*%
%ADD11C,0.00500*%
%ADD12C,0.00700*%
%ADD13C,0.00600*%
%ADD14C,0.00800*%
%ADD15C,0.01000*%
%ADD16C,0.02600*%
%ADD17R,0.02600X0.03000*%
%ADD18R,0.02600X0.02600*%
%ADD19C,0.00000*%
D10*
X0099454Y0085463D02*
X0102590Y0088599D01*
X0102590Y0087031D02*
X0099454Y0087031D01*
X0099454Y0088599D02*
X0102590Y0085463D01*
X0101022Y0085463D02*
X0101022Y0088599D01*
X0134090Y0129067D02*
X0137226Y0132203D01*
X0137226Y0130635D02*
X0134090Y0130635D01*
X0134090Y0132203D02*
X0137226Y0129067D01*
X0135658Y0129067D02*
X0135658Y0132203D01*
X0147090Y0189083D02*
X0147090Y0191986D01*
X0148541Y0191986D01*
X0149025Y0191502D01*
X0149025Y0190534D01*
X0148541Y0190051D01*
X0147090Y0190051D01*
X0150036Y0189567D02*
X0150036Y0191502D01*
X0150520Y0191986D01*
X0151487Y0191986D01*
X0151971Y0191502D01*
X0151971Y0189567D01*
X0151487Y0189083D01*
X0150520Y0189083D01*
X0150036Y0189567D01*
X0152983Y0191986D02*
X0154918Y0191986D01*
X0153950Y0191986D02*
X0153950Y0189083D01*
X0123832Y0254083D02*
X0123832Y0254700D01*
X0122618Y0254700D02*
X0122000Y0254083D01*
X0120149Y0254083D01*
X0120149Y0252849D02*
X0120149Y0256552D01*
X0122000Y0256552D01*
X0122618Y0255935D01*
X0122618Y0254700D01*
X0123832Y0255935D02*
X0123832Y0258403D01*
X0118934Y0257786D02*
X0118934Y0254700D01*
X0118317Y0254083D01*
X0117083Y0254083D01*
X0116466Y0254700D01*
X0116466Y0257786D01*
X0115248Y0260083D02*
X0113396Y0261317D01*
X0115248Y0262552D01*
X0113396Y0263786D02*
X0113396Y0260083D01*
X0112182Y0260083D02*
X0110330Y0260083D01*
X0109713Y0260700D01*
X0109713Y0261935D01*
X0110330Y0262552D01*
X0112182Y0262552D01*
X0110340Y0266083D02*
X0108489Y0266083D01*
X0107872Y0266700D01*
X0107872Y0267935D01*
X0108489Y0268552D01*
X0110340Y0268552D01*
X0110340Y0269786D02*
X0110340Y0266083D01*
X0107875Y0264403D02*
X0107875Y0263786D01*
X0107875Y0262552D02*
X0107875Y0260083D01*
X0107258Y0260083D02*
X0108492Y0260083D01*
X0108489Y0258403D02*
X0108489Y0257786D01*
X0108489Y0256552D02*
X0107872Y0256552D01*
X0108489Y0256552D02*
X0108489Y0254083D01*
X0107872Y0254083D02*
X0109106Y0254083D01*
X0110944Y0254700D02*
X0111561Y0254083D01*
X0110944Y0254700D02*
X0110944Y0257169D01*
X0110327Y0256552D02*
X0111561Y0256552D01*
X0106657Y0256552D02*
X0106657Y0254083D01*
X0104806Y0254083D01*
X0104189Y0254700D01*
X0104189Y0256552D01*
X0102974Y0257169D02*
X0102357Y0257786D01*
X0101123Y0257786D01*
X0100505Y0257169D01*
X0100505Y0256552D01*
X0101123Y0255935D01*
X0102357Y0255935D01*
X0102974Y0255317D01*
X0102974Y0254700D01*
X0102357Y0254083D01*
X0101123Y0254083D01*
X0100505Y0254700D01*
X0100505Y0260083D02*
X0100505Y0263786D01*
X0102974Y0263786D01*
X0104189Y0262552D02*
X0104189Y0260083D01*
X0104189Y0261317D02*
X0105423Y0262552D01*
X0106040Y0262552D01*
X0107258Y0262552D02*
X0107875Y0262552D01*
X0106657Y0266083D02*
X0106657Y0267935D01*
X0106040Y0268552D01*
X0104189Y0268552D01*
X0104189Y0266083D01*
X0102974Y0266083D02*
X0101123Y0266083D01*
X0100505Y0266700D01*
X0101123Y0267317D01*
X0102974Y0267317D01*
X0102974Y0267935D02*
X0102974Y0266083D01*
X0102974Y0267935D02*
X0102357Y0268552D01*
X0101123Y0268552D01*
X0099291Y0268552D02*
X0098674Y0267935D01*
X0096822Y0267935D01*
X0096822Y0269786D02*
X0098674Y0269786D01*
X0099291Y0269169D01*
X0099291Y0268552D01*
X0098674Y0267935D02*
X0099291Y0267317D01*
X0099291Y0266700D01*
X0098674Y0266083D01*
X0096822Y0266083D01*
X0096822Y0269786D01*
X0091925Y0269169D02*
X0091308Y0269786D01*
X0090073Y0269786D01*
X0089456Y0269169D01*
X0089456Y0266700D01*
X0090073Y0266083D01*
X0091308Y0266083D01*
X0091925Y0266700D01*
X0091925Y0267935D01*
X0090690Y0267935D01*
X0088242Y0267935D02*
X0085773Y0267935D01*
X0085773Y0268552D02*
X0087007Y0269786D01*
X0088242Y0268552D01*
X0088242Y0266083D01*
X0085773Y0266083D02*
X0085773Y0268552D01*
X0084558Y0269786D02*
X0084558Y0266083D01*
X0083324Y0267317D01*
X0082090Y0266083D01*
X0082090Y0269786D01*
X0082707Y0263786D02*
X0082090Y0263169D01*
X0082090Y0260700D01*
X0082707Y0260083D01*
X0083941Y0260083D01*
X0084558Y0260700D01*
X0085773Y0260083D02*
X0085773Y0263786D01*
X0084558Y0263169D02*
X0083941Y0263786D01*
X0082707Y0263786D01*
X0083324Y0257786D02*
X0083324Y0254083D01*
X0085773Y0254700D02*
X0085773Y0255935D01*
X0086390Y0256552D01*
X0087624Y0256552D01*
X0088242Y0255935D01*
X0088242Y0255317D01*
X0085773Y0255317D01*
X0085773Y0254700D02*
X0086390Y0254083D01*
X0087624Y0254083D01*
X0089456Y0254700D02*
X0090073Y0255317D01*
X0091925Y0255317D01*
X0091925Y0255935D02*
X0091925Y0254083D01*
X0090073Y0254083D01*
X0089456Y0254700D01*
X0090073Y0256552D02*
X0091308Y0256552D01*
X0091925Y0255935D01*
X0093139Y0256552D02*
X0093139Y0254083D01*
X0094373Y0254083D02*
X0094373Y0255935D01*
X0094991Y0256552D01*
X0095608Y0255935D01*
X0095608Y0254083D01*
X0094373Y0255935D02*
X0093756Y0256552D01*
X0093139Y0256552D01*
X0093139Y0260083D02*
X0094991Y0260083D01*
X0095608Y0260700D01*
X0094991Y0261317D01*
X0093756Y0261317D01*
X0093139Y0261935D01*
X0093756Y0262552D01*
X0095608Y0262552D01*
X0091925Y0261935D02*
X0091925Y0260083D01*
X0090073Y0260083D01*
X0089456Y0260700D01*
X0090073Y0261317D01*
X0091925Y0261317D01*
X0091925Y0261935D02*
X0091308Y0262552D01*
X0090073Y0262552D01*
X0088242Y0261935D02*
X0088242Y0260083D01*
X0088242Y0261935D02*
X0087624Y0262552D01*
X0086390Y0262552D01*
X0085773Y0261935D01*
X0084558Y0257786D02*
X0082090Y0257786D01*
X0084371Y0239858D02*
X0085338Y0239858D01*
X0085822Y0239374D01*
X0085822Y0237923D01*
X0085822Y0238890D02*
X0086790Y0239858D01*
X0086790Y0237923D02*
X0083887Y0237923D01*
X0083887Y0239374D01*
X0084371Y0239858D01*
X0084371Y0236911D02*
X0083887Y0236427D01*
X0083887Y0235460D01*
X0084371Y0234976D01*
X0086306Y0234976D01*
X0086790Y0235460D01*
X0086790Y0236427D01*
X0086306Y0236911D01*
X0085338Y0236911D01*
X0085338Y0235944D01*
X0085338Y0233965D02*
X0085338Y0232030D01*
X0084371Y0231018D02*
X0083887Y0230534D01*
X0083887Y0229567D01*
X0084371Y0229083D01*
X0086306Y0229083D01*
X0086790Y0229567D01*
X0086790Y0230534D01*
X0086306Y0231018D01*
X0086790Y0232030D02*
X0083887Y0232030D01*
X0083887Y0233965D02*
X0086790Y0233965D01*
X0100505Y0261935D02*
X0101740Y0261935D01*
X0064918Y0274486D02*
X0062983Y0274486D01*
X0063950Y0274486D02*
X0063950Y0271583D01*
X0061971Y0271583D02*
X0061971Y0273518D01*
X0061004Y0274486D01*
X0060036Y0273518D01*
X0060036Y0271583D01*
X0059025Y0272067D02*
X0058541Y0271583D01*
X0057090Y0271583D01*
X0057090Y0274486D01*
X0058541Y0274486D01*
X0059025Y0274002D01*
X0059025Y0273518D01*
X0058541Y0273034D01*
X0057090Y0273034D01*
X0058541Y0273034D02*
X0059025Y0272551D01*
X0059025Y0272067D01*
X0060036Y0273034D02*
X0061971Y0273034D01*
D11*
X0056940Y0276433D02*
X0051940Y0276433D01*
X0051940Y0271433D01*
X0053259Y0267594D02*
X0048928Y0267594D01*
X0053259Y0267594D02*
X0053259Y0250665D01*
X0048928Y0250665D01*
X0048928Y0250272D01*
X0047137Y0235114D02*
X0058554Y0235114D01*
X0058554Y0232752D01*
X0047137Y0232752D01*
X0067825Y0257752D02*
X0079243Y0257752D01*
X0079243Y0260114D02*
X0067825Y0260114D01*
X0067825Y0257752D01*
X0073121Y0242201D02*
X0077451Y0242201D01*
X0077451Y0242594D01*
X0073121Y0242201D02*
X0073121Y0225272D01*
X0077451Y0225272D01*
X0080773Y0277183D02*
X0080190Y0277767D01*
X0080190Y0280102D01*
X0080773Y0280686D01*
X0081941Y0280686D01*
X0082525Y0280102D01*
X0082525Y0277767D01*
X0081941Y0277183D01*
X0080773Y0277183D01*
X0081357Y0278351D02*
X0082525Y0277183D01*
X0083873Y0277767D02*
X0084457Y0277183D01*
X0085624Y0277183D01*
X0086208Y0277767D01*
X0086208Y0278351D01*
X0085624Y0278935D01*
X0085040Y0278935D01*
X0085624Y0278935D02*
X0086208Y0279518D01*
X0086208Y0280102D01*
X0085624Y0280686D01*
X0084457Y0280686D01*
X0083873Y0280102D01*
X0086940Y0276433D02*
X0096940Y0276433D01*
X0096373Y0277183D02*
X0098708Y0279518D01*
X0098708Y0280102D01*
X0098124Y0280686D01*
X0096957Y0280686D01*
X0096373Y0280102D01*
X0095025Y0280102D02*
X0095025Y0277767D01*
X0094441Y0277183D01*
X0093273Y0277183D01*
X0092690Y0277767D01*
X0092690Y0280102D01*
X0093273Y0280686D01*
X0094441Y0280686D01*
X0095025Y0280102D01*
X0093857Y0278351D02*
X0095025Y0277183D01*
X0096373Y0277183D02*
X0098708Y0277183D01*
X0107690Y0277767D02*
X0108273Y0277183D01*
X0109441Y0277183D01*
X0110025Y0277767D01*
X0110025Y0280102D01*
X0109441Y0280686D01*
X0108273Y0280686D01*
X0107690Y0280102D01*
X0107690Y0277767D01*
X0108857Y0278351D02*
X0110025Y0277183D01*
X0111373Y0277767D02*
X0111957Y0277183D01*
X0113124Y0277183D01*
X0113708Y0277767D01*
X0113708Y0278935D01*
X0113124Y0279518D01*
X0112540Y0279518D01*
X0111373Y0278935D01*
X0111373Y0280686D01*
X0113708Y0280686D01*
X0122690Y0280102D02*
X0122690Y0277767D01*
X0123273Y0277183D01*
X0124441Y0277183D01*
X0125025Y0277767D01*
X0125025Y0280102D01*
X0124441Y0280686D01*
X0123273Y0280686D01*
X0122690Y0280102D01*
X0123857Y0278351D02*
X0125025Y0277183D01*
X0126373Y0277183D02*
X0128708Y0277183D01*
X0127540Y0277183D02*
X0127540Y0280686D01*
X0126373Y0279518D01*
X0134440Y0278933D02*
X0134440Y0208933D01*
X0154440Y0208933D01*
X0154440Y0278933D01*
X0134440Y0278933D01*
X0135190Y0277767D02*
X0135190Y0280102D01*
X0135773Y0280686D01*
X0136941Y0280686D01*
X0137525Y0280102D01*
X0137525Y0277767D01*
X0136941Y0277183D01*
X0135773Y0277183D01*
X0135190Y0277767D01*
X0136357Y0278351D02*
X0137525Y0277183D01*
X0138873Y0277767D02*
X0138873Y0278935D01*
X0140624Y0278935D01*
X0141208Y0278351D01*
X0141208Y0277767D01*
X0140624Y0277183D01*
X0139457Y0277183D01*
X0138873Y0277767D01*
X0138873Y0278935D02*
X0140040Y0280102D01*
X0141208Y0280686D01*
X0141187Y0302183D02*
X0140436Y0302183D01*
X0139686Y0302934D01*
X0139686Y0304435D01*
X0140436Y0305186D01*
X0143439Y0305186D01*
X0144190Y0304435D01*
X0144190Y0302934D01*
X0143439Y0302183D01*
X0141938Y0302934D02*
X0141938Y0305186D01*
X0141938Y0302934D02*
X0141187Y0302183D01*
X0134190Y0302934D02*
X0133439Y0302183D01*
X0132688Y0302183D01*
X0131938Y0302934D01*
X0131938Y0304435D01*
X0132688Y0305186D01*
X0133439Y0305186D01*
X0134190Y0304435D01*
X0134190Y0302934D01*
X0131938Y0302934D02*
X0131187Y0302183D01*
X0130436Y0302183D01*
X0129686Y0302934D01*
X0129686Y0304435D01*
X0130436Y0305186D01*
X0131187Y0305186D01*
X0131938Y0304435D01*
X0124190Y0302183D02*
X0123439Y0302183D01*
X0120436Y0305186D01*
X0119686Y0305186D01*
X0119686Y0302183D01*
X0114190Y0302934D02*
X0114190Y0304435D01*
X0113439Y0305186D01*
X0112688Y0305186D01*
X0111938Y0304435D01*
X0111938Y0302183D01*
X0113439Y0302183D01*
X0114190Y0302934D01*
X0111938Y0302183D02*
X0110436Y0303684D01*
X0109686Y0305186D01*
X0104190Y0304435D02*
X0104190Y0302934D01*
X0103439Y0302183D01*
X0101938Y0302183D02*
X0101187Y0303684D01*
X0101187Y0304435D01*
X0101938Y0305186D01*
X0103439Y0305186D01*
X0104190Y0304435D01*
X0101938Y0302183D02*
X0099686Y0302183D01*
X0099686Y0305186D01*
X0094190Y0304435D02*
X0089686Y0304435D01*
X0091938Y0302183D01*
X0091938Y0305186D01*
X0084190Y0304435D02*
X0084190Y0302934D01*
X0083439Y0302183D01*
X0081938Y0303684D02*
X0081938Y0304435D01*
X0082688Y0305186D01*
X0083439Y0305186D01*
X0084190Y0304435D01*
X0081938Y0304435D02*
X0081187Y0305186D01*
X0080436Y0305186D01*
X0079686Y0304435D01*
X0079686Y0302934D01*
X0080436Y0302183D01*
X0074190Y0302183D02*
X0071187Y0305186D01*
X0070436Y0305186D01*
X0069686Y0304435D01*
X0069686Y0302934D01*
X0070436Y0302183D01*
X0074190Y0302183D02*
X0074190Y0305186D01*
X0064190Y0305186D02*
X0064190Y0302183D01*
X0064190Y0303684D02*
X0059686Y0303684D01*
X0061187Y0302183D01*
X0068273Y0280686D02*
X0067690Y0280102D01*
X0067690Y0277767D01*
X0068273Y0277183D01*
X0069441Y0277183D01*
X0070025Y0277767D01*
X0070025Y0280102D01*
X0069441Y0280686D01*
X0068273Y0280686D01*
X0068857Y0278351D02*
X0070025Y0277183D01*
X0071373Y0278935D02*
X0073708Y0278935D01*
X0073124Y0280686D02*
X0071373Y0278935D01*
X0073124Y0277183D02*
X0073124Y0280686D01*
X0126940Y0203933D02*
X0176940Y0203933D01*
X0176940Y0173933D01*
X0126940Y0173933D01*
X0126940Y0203933D01*
X0123249Y0167378D02*
X0123249Y0099878D01*
X0179499Y0099878D01*
X0179499Y0167378D01*
X0123249Y0167378D01*
X0123249Y0099878D02*
X0123249Y0069878D01*
X0179499Y0069878D01*
X0179499Y0099878D01*
X0062842Y0140102D02*
X0060507Y0137767D01*
X0060507Y0137183D01*
X0059159Y0137183D02*
X0057991Y0138351D01*
X0057407Y0137183D02*
X0056823Y0137767D01*
X0056823Y0140102D01*
X0057407Y0140686D01*
X0058575Y0140686D01*
X0059159Y0140102D01*
X0059159Y0137767D01*
X0058575Y0137183D01*
X0057407Y0137183D01*
X0060507Y0140686D02*
X0062842Y0140686D01*
X0062842Y0140102D01*
X0062258Y0152183D02*
X0061090Y0152183D01*
X0060507Y0152767D01*
X0060507Y0153351D01*
X0061090Y0153935D01*
X0062258Y0153935D01*
X0062842Y0153351D01*
X0062842Y0152767D01*
X0062258Y0152183D01*
X0062258Y0153935D02*
X0062842Y0154518D01*
X0062842Y0155102D01*
X0062258Y0155686D01*
X0061090Y0155686D01*
X0060507Y0155102D01*
X0060507Y0154518D01*
X0061090Y0153935D01*
X0059159Y0155102D02*
X0059159Y0152767D01*
X0058575Y0152183D01*
X0057407Y0152183D01*
X0056823Y0152767D01*
X0056823Y0155102D01*
X0057407Y0155686D01*
X0058575Y0155686D01*
X0059159Y0155102D01*
X0057991Y0153351D02*
X0059159Y0152183D01*
X0151187Y0301683D02*
X0149686Y0303184D01*
X0154190Y0303184D01*
X0154190Y0301683D02*
X0154190Y0304686D01*
X0153439Y0306287D02*
X0150436Y0309290D01*
X0153439Y0309290D01*
X0154190Y0308539D01*
X0154190Y0307038D01*
X0153439Y0306287D01*
X0150436Y0306287D01*
X0149686Y0307038D01*
X0149686Y0308539D01*
X0150436Y0309290D01*
X0159686Y0308288D02*
X0164190Y0308288D01*
X0164190Y0306787D02*
X0164190Y0309790D01*
X0161187Y0306787D02*
X0159686Y0308288D01*
X0159686Y0303684D02*
X0164190Y0303684D01*
X0164190Y0302183D02*
X0164190Y0305186D01*
X0161187Y0302183D02*
X0159686Y0303684D01*
X0169686Y0303184D02*
X0174190Y0303184D01*
X0174190Y0301683D02*
X0174190Y0304686D01*
X0174190Y0306287D02*
X0171187Y0309290D01*
X0170436Y0309290D01*
X0169686Y0308539D01*
X0169686Y0307038D01*
X0170436Y0306287D01*
X0169686Y0303184D02*
X0171187Y0301683D01*
X0174190Y0306287D02*
X0174190Y0309290D01*
D12*
X0079024Y0237831D02*
X0075755Y0237831D01*
X0077390Y0236196D02*
X0077390Y0239466D01*
X0076602Y0231927D02*
X0076602Y0228657D01*
X0050620Y0253848D02*
X0047351Y0253848D01*
X0048986Y0252213D02*
X0048986Y0255483D01*
X0049773Y0259753D02*
X0049773Y0263022D01*
D13*
X0051940Y0251433D02*
X0051940Y0241433D01*
X0054440Y0221433D02*
X0059440Y0221433D01*
X0061940Y0218933D01*
X0064440Y0221433D01*
X0069440Y0221433D01*
X0071940Y0218933D01*
X0074440Y0221433D01*
X0079440Y0221433D01*
X0081940Y0218933D01*
X0084440Y0221433D01*
X0089440Y0221433D01*
X0091940Y0218933D01*
X0094440Y0221433D01*
X0099440Y0221433D01*
X0101940Y0218933D01*
X0104440Y0221433D01*
X0109440Y0221433D01*
X0111940Y0218933D01*
X0114440Y0221433D01*
X0119440Y0221433D01*
X0121940Y0218933D01*
X0124440Y0221433D01*
X0129440Y0221433D01*
X0131940Y0218933D01*
X0131940Y0213933D01*
X0129440Y0211433D01*
X0124440Y0211433D01*
X0121940Y0213933D01*
X0119440Y0211433D01*
X0114440Y0211433D01*
X0111940Y0213933D01*
X0109440Y0211433D01*
X0104440Y0211433D01*
X0101940Y0213933D01*
X0099440Y0211433D01*
X0094440Y0211433D01*
X0091940Y0213933D01*
X0089440Y0211433D01*
X0084440Y0211433D01*
X0081940Y0213933D01*
X0079440Y0211433D01*
X0074440Y0211433D01*
X0071940Y0213933D01*
X0069440Y0211433D01*
X0064440Y0211433D01*
X0061940Y0213933D01*
X0059440Y0211433D01*
X0054440Y0211433D01*
X0051940Y0213933D01*
X0051940Y0218933D01*
X0054440Y0221433D01*
X0056940Y0299933D02*
X0056940Y0310933D01*
X0066940Y0310933D01*
X0076940Y0310933D01*
X0076940Y0299933D01*
X0066940Y0299933D01*
X0056940Y0299933D01*
X0066940Y0299933D02*
X0066940Y0310933D01*
X0076940Y0310933D02*
X0086940Y0310933D01*
X0096940Y0310933D01*
X0106940Y0310933D01*
X0106940Y0299933D01*
X0096940Y0299933D01*
X0086940Y0299933D01*
X0076940Y0299933D01*
X0086940Y0299933D02*
X0086940Y0310933D01*
X0096940Y0310933D02*
X0096940Y0299933D01*
X0106940Y0299933D02*
X0116940Y0299933D01*
X0126940Y0299933D01*
X0126940Y0310933D01*
X0116940Y0310933D01*
X0106940Y0310933D01*
X0116940Y0310933D02*
X0116940Y0299933D01*
X0126940Y0299933D02*
X0136940Y0299933D01*
X0136940Y0310933D01*
X0126940Y0310933D01*
X0136940Y0310933D02*
X0146940Y0310933D01*
X0156940Y0310933D01*
X0166940Y0310933D01*
X0176940Y0310933D01*
X0176940Y0299933D01*
X0166940Y0299933D01*
X0156940Y0299933D01*
X0146940Y0299933D01*
X0136940Y0299933D01*
X0146940Y0299933D02*
X0146940Y0310933D01*
X0156940Y0310933D02*
X0156940Y0299933D01*
X0166940Y0299933D02*
X0166940Y0310933D01*
X0156940Y0273933D02*
X0156943Y0274178D01*
X0156952Y0274424D01*
X0156967Y0274669D01*
X0156988Y0274913D01*
X0157015Y0275157D01*
X0157048Y0275400D01*
X0157087Y0275643D01*
X0157132Y0275884D01*
X0157183Y0276124D01*
X0157240Y0276363D01*
X0157302Y0276600D01*
X0157371Y0276836D01*
X0157445Y0277070D01*
X0157525Y0277302D01*
X0157610Y0277532D01*
X0157701Y0277760D01*
X0157798Y0277985D01*
X0157900Y0278209D01*
X0158008Y0278429D01*
X0158121Y0278647D01*
X0158239Y0278862D01*
X0158363Y0279074D01*
X0158491Y0279283D01*
X0158625Y0279489D01*
X0158764Y0279691D01*
X0158908Y0279890D01*
X0159057Y0280085D01*
X0159210Y0280277D01*
X0159368Y0280465D01*
X0159530Y0280649D01*
X0159698Y0280828D01*
X0159869Y0281004D01*
X0160045Y0281175D01*
X0160224Y0281343D01*
X0160408Y0281505D01*
X0160596Y0281663D01*
X0160788Y0281816D01*
X0160983Y0281965D01*
X0161182Y0282109D01*
X0161384Y0282248D01*
X0161590Y0282382D01*
X0161799Y0282510D01*
X0162011Y0282634D01*
X0162226Y0282752D01*
X0162444Y0282865D01*
X0162664Y0282973D01*
X0162888Y0283075D01*
X0163113Y0283172D01*
X0163341Y0283263D01*
X0163571Y0283348D01*
X0163803Y0283428D01*
X0164037Y0283502D01*
X0164273Y0283571D01*
X0164510Y0283633D01*
X0164749Y0283690D01*
X0164989Y0283741D01*
X0165230Y0283786D01*
X0165473Y0283825D01*
X0165716Y0283858D01*
X0165960Y0283885D01*
X0166204Y0283906D01*
X0166449Y0283921D01*
X0166695Y0283930D01*
X0166940Y0283933D01*
X0167185Y0283930D01*
X0167431Y0283921D01*
X0167676Y0283906D01*
X0167920Y0283885D01*
X0168164Y0283858D01*
X0168407Y0283825D01*
X0168650Y0283786D01*
X0168891Y0283741D01*
X0169131Y0283690D01*
X0169370Y0283633D01*
X0169607Y0283571D01*
X0169843Y0283502D01*
X0170077Y0283428D01*
X0170309Y0283348D01*
X0170539Y0283263D01*
X0170767Y0283172D01*
X0170992Y0283075D01*
X0171216Y0282973D01*
X0171436Y0282865D01*
X0171654Y0282752D01*
X0171869Y0282634D01*
X0172081Y0282510D01*
X0172290Y0282382D01*
X0172496Y0282248D01*
X0172698Y0282109D01*
X0172897Y0281965D01*
X0173092Y0281816D01*
X0173284Y0281663D01*
X0173472Y0281505D01*
X0173656Y0281343D01*
X0173835Y0281175D01*
X0174011Y0281004D01*
X0174182Y0280828D01*
X0174350Y0280649D01*
X0174512Y0280465D01*
X0174670Y0280277D01*
X0174823Y0280085D01*
X0174972Y0279890D01*
X0175116Y0279691D01*
X0175255Y0279489D01*
X0175389Y0279283D01*
X0175517Y0279074D01*
X0175641Y0278862D01*
X0175759Y0278647D01*
X0175872Y0278429D01*
X0175980Y0278209D01*
X0176082Y0277985D01*
X0176179Y0277760D01*
X0176270Y0277532D01*
X0176355Y0277302D01*
X0176435Y0277070D01*
X0176509Y0276836D01*
X0176578Y0276600D01*
X0176640Y0276363D01*
X0176697Y0276124D01*
X0176748Y0275884D01*
X0176793Y0275643D01*
X0176832Y0275400D01*
X0176865Y0275157D01*
X0176892Y0274913D01*
X0176913Y0274669D01*
X0176928Y0274424D01*
X0176937Y0274178D01*
X0176940Y0273933D01*
X0176937Y0273688D01*
X0176928Y0273442D01*
X0176913Y0273197D01*
X0176892Y0272953D01*
X0176865Y0272709D01*
X0176832Y0272466D01*
X0176793Y0272223D01*
X0176748Y0271982D01*
X0176697Y0271742D01*
X0176640Y0271503D01*
X0176578Y0271266D01*
X0176509Y0271030D01*
X0176435Y0270796D01*
X0176355Y0270564D01*
X0176270Y0270334D01*
X0176179Y0270106D01*
X0176082Y0269881D01*
X0175980Y0269657D01*
X0175872Y0269437D01*
X0175759Y0269219D01*
X0175641Y0269004D01*
X0175517Y0268792D01*
X0175389Y0268583D01*
X0175255Y0268377D01*
X0175116Y0268175D01*
X0174972Y0267976D01*
X0174823Y0267781D01*
X0174670Y0267589D01*
X0174512Y0267401D01*
X0174350Y0267217D01*
X0174182Y0267038D01*
X0174011Y0266862D01*
X0173835Y0266691D01*
X0173656Y0266523D01*
X0173472Y0266361D01*
X0173284Y0266203D01*
X0173092Y0266050D01*
X0172897Y0265901D01*
X0172698Y0265757D01*
X0172496Y0265618D01*
X0172290Y0265484D01*
X0172081Y0265356D01*
X0171869Y0265232D01*
X0171654Y0265114D01*
X0171436Y0265001D01*
X0171216Y0264893D01*
X0170992Y0264791D01*
X0170767Y0264694D01*
X0170539Y0264603D01*
X0170309Y0264518D01*
X0170077Y0264438D01*
X0169843Y0264364D01*
X0169607Y0264295D01*
X0169370Y0264233D01*
X0169131Y0264176D01*
X0168891Y0264125D01*
X0168650Y0264080D01*
X0168407Y0264041D01*
X0168164Y0264008D01*
X0167920Y0263981D01*
X0167676Y0263960D01*
X0167431Y0263945D01*
X0167185Y0263936D01*
X0166940Y0263933D01*
X0166695Y0263936D01*
X0166449Y0263945D01*
X0166204Y0263960D01*
X0165960Y0263981D01*
X0165716Y0264008D01*
X0165473Y0264041D01*
X0165230Y0264080D01*
X0164989Y0264125D01*
X0164749Y0264176D01*
X0164510Y0264233D01*
X0164273Y0264295D01*
X0164037Y0264364D01*
X0163803Y0264438D01*
X0163571Y0264518D01*
X0163341Y0264603D01*
X0163113Y0264694D01*
X0162888Y0264791D01*
X0162664Y0264893D01*
X0162444Y0265001D01*
X0162226Y0265114D01*
X0162011Y0265232D01*
X0161799Y0265356D01*
X0161590Y0265484D01*
X0161384Y0265618D01*
X0161182Y0265757D01*
X0160983Y0265901D01*
X0160788Y0266050D01*
X0160596Y0266203D01*
X0160408Y0266361D01*
X0160224Y0266523D01*
X0160045Y0266691D01*
X0159869Y0266862D01*
X0159698Y0267038D01*
X0159530Y0267217D01*
X0159368Y0267401D01*
X0159210Y0267589D01*
X0159057Y0267781D01*
X0158908Y0267976D01*
X0158764Y0268175D01*
X0158625Y0268377D01*
X0158491Y0268583D01*
X0158363Y0268792D01*
X0158239Y0269004D01*
X0158121Y0269219D01*
X0158008Y0269437D01*
X0157900Y0269657D01*
X0157798Y0269881D01*
X0157701Y0270106D01*
X0157610Y0270334D01*
X0157525Y0270564D01*
X0157445Y0270796D01*
X0157371Y0271030D01*
X0157302Y0271266D01*
X0157240Y0271503D01*
X0157183Y0271742D01*
X0157132Y0271982D01*
X0157087Y0272223D01*
X0157048Y0272466D01*
X0157015Y0272709D01*
X0156988Y0272953D01*
X0156967Y0273197D01*
X0156952Y0273442D01*
X0156943Y0273688D01*
X0156940Y0273933D01*
X0131940Y0271433D02*
X0131940Y0276433D01*
X0126940Y0276433D01*
X0131940Y0251433D02*
X0131940Y0241433D01*
X0156940Y0223933D02*
X0156943Y0224178D01*
X0156952Y0224424D01*
X0156967Y0224669D01*
X0156988Y0224913D01*
X0157015Y0225157D01*
X0157048Y0225400D01*
X0157087Y0225643D01*
X0157132Y0225884D01*
X0157183Y0226124D01*
X0157240Y0226363D01*
X0157302Y0226600D01*
X0157371Y0226836D01*
X0157445Y0227070D01*
X0157525Y0227302D01*
X0157610Y0227532D01*
X0157701Y0227760D01*
X0157798Y0227985D01*
X0157900Y0228209D01*
X0158008Y0228429D01*
X0158121Y0228647D01*
X0158239Y0228862D01*
X0158363Y0229074D01*
X0158491Y0229283D01*
X0158625Y0229489D01*
X0158764Y0229691D01*
X0158908Y0229890D01*
X0159057Y0230085D01*
X0159210Y0230277D01*
X0159368Y0230465D01*
X0159530Y0230649D01*
X0159698Y0230828D01*
X0159869Y0231004D01*
X0160045Y0231175D01*
X0160224Y0231343D01*
X0160408Y0231505D01*
X0160596Y0231663D01*
X0160788Y0231816D01*
X0160983Y0231965D01*
X0161182Y0232109D01*
X0161384Y0232248D01*
X0161590Y0232382D01*
X0161799Y0232510D01*
X0162011Y0232634D01*
X0162226Y0232752D01*
X0162444Y0232865D01*
X0162664Y0232973D01*
X0162888Y0233075D01*
X0163113Y0233172D01*
X0163341Y0233263D01*
X0163571Y0233348D01*
X0163803Y0233428D01*
X0164037Y0233502D01*
X0164273Y0233571D01*
X0164510Y0233633D01*
X0164749Y0233690D01*
X0164989Y0233741D01*
X0165230Y0233786D01*
X0165473Y0233825D01*
X0165716Y0233858D01*
X0165960Y0233885D01*
X0166204Y0233906D01*
X0166449Y0233921D01*
X0166695Y0233930D01*
X0166940Y0233933D01*
X0167185Y0233930D01*
X0167431Y0233921D01*
X0167676Y0233906D01*
X0167920Y0233885D01*
X0168164Y0233858D01*
X0168407Y0233825D01*
X0168650Y0233786D01*
X0168891Y0233741D01*
X0169131Y0233690D01*
X0169370Y0233633D01*
X0169607Y0233571D01*
X0169843Y0233502D01*
X0170077Y0233428D01*
X0170309Y0233348D01*
X0170539Y0233263D01*
X0170767Y0233172D01*
X0170992Y0233075D01*
X0171216Y0232973D01*
X0171436Y0232865D01*
X0171654Y0232752D01*
X0171869Y0232634D01*
X0172081Y0232510D01*
X0172290Y0232382D01*
X0172496Y0232248D01*
X0172698Y0232109D01*
X0172897Y0231965D01*
X0173092Y0231816D01*
X0173284Y0231663D01*
X0173472Y0231505D01*
X0173656Y0231343D01*
X0173835Y0231175D01*
X0174011Y0231004D01*
X0174182Y0230828D01*
X0174350Y0230649D01*
X0174512Y0230465D01*
X0174670Y0230277D01*
X0174823Y0230085D01*
X0174972Y0229890D01*
X0175116Y0229691D01*
X0175255Y0229489D01*
X0175389Y0229283D01*
X0175517Y0229074D01*
X0175641Y0228862D01*
X0175759Y0228647D01*
X0175872Y0228429D01*
X0175980Y0228209D01*
X0176082Y0227985D01*
X0176179Y0227760D01*
X0176270Y0227532D01*
X0176355Y0227302D01*
X0176435Y0227070D01*
X0176509Y0226836D01*
X0176578Y0226600D01*
X0176640Y0226363D01*
X0176697Y0226124D01*
X0176748Y0225884D01*
X0176793Y0225643D01*
X0176832Y0225400D01*
X0176865Y0225157D01*
X0176892Y0224913D01*
X0176913Y0224669D01*
X0176928Y0224424D01*
X0176937Y0224178D01*
X0176940Y0223933D01*
X0176937Y0223688D01*
X0176928Y0223442D01*
X0176913Y0223197D01*
X0176892Y0222953D01*
X0176865Y0222709D01*
X0176832Y0222466D01*
X0176793Y0222223D01*
X0176748Y0221982D01*
X0176697Y0221742D01*
X0176640Y0221503D01*
X0176578Y0221266D01*
X0176509Y0221030D01*
X0176435Y0220796D01*
X0176355Y0220564D01*
X0176270Y0220334D01*
X0176179Y0220106D01*
X0176082Y0219881D01*
X0175980Y0219657D01*
X0175872Y0219437D01*
X0175759Y0219219D01*
X0175641Y0219004D01*
X0175517Y0218792D01*
X0175389Y0218583D01*
X0175255Y0218377D01*
X0175116Y0218175D01*
X0174972Y0217976D01*
X0174823Y0217781D01*
X0174670Y0217589D01*
X0174512Y0217401D01*
X0174350Y0217217D01*
X0174182Y0217038D01*
X0174011Y0216862D01*
X0173835Y0216691D01*
X0173656Y0216523D01*
X0173472Y0216361D01*
X0173284Y0216203D01*
X0173092Y0216050D01*
X0172897Y0215901D01*
X0172698Y0215757D01*
X0172496Y0215618D01*
X0172290Y0215484D01*
X0172081Y0215356D01*
X0171869Y0215232D01*
X0171654Y0215114D01*
X0171436Y0215001D01*
X0171216Y0214893D01*
X0170992Y0214791D01*
X0170767Y0214694D01*
X0170539Y0214603D01*
X0170309Y0214518D01*
X0170077Y0214438D01*
X0169843Y0214364D01*
X0169607Y0214295D01*
X0169370Y0214233D01*
X0169131Y0214176D01*
X0168891Y0214125D01*
X0168650Y0214080D01*
X0168407Y0214041D01*
X0168164Y0214008D01*
X0167920Y0213981D01*
X0167676Y0213960D01*
X0167431Y0213945D01*
X0167185Y0213936D01*
X0166940Y0213933D01*
X0166695Y0213936D01*
X0166449Y0213945D01*
X0166204Y0213960D01*
X0165960Y0213981D01*
X0165716Y0214008D01*
X0165473Y0214041D01*
X0165230Y0214080D01*
X0164989Y0214125D01*
X0164749Y0214176D01*
X0164510Y0214233D01*
X0164273Y0214295D01*
X0164037Y0214364D01*
X0163803Y0214438D01*
X0163571Y0214518D01*
X0163341Y0214603D01*
X0163113Y0214694D01*
X0162888Y0214791D01*
X0162664Y0214893D01*
X0162444Y0215001D01*
X0162226Y0215114D01*
X0162011Y0215232D01*
X0161799Y0215356D01*
X0161590Y0215484D01*
X0161384Y0215618D01*
X0161182Y0215757D01*
X0160983Y0215901D01*
X0160788Y0216050D01*
X0160596Y0216203D01*
X0160408Y0216361D01*
X0160224Y0216523D01*
X0160045Y0216691D01*
X0159869Y0216862D01*
X0159698Y0217038D01*
X0159530Y0217217D01*
X0159368Y0217401D01*
X0159210Y0217589D01*
X0159057Y0217781D01*
X0158908Y0217976D01*
X0158764Y0218175D01*
X0158625Y0218377D01*
X0158491Y0218583D01*
X0158363Y0218792D01*
X0158239Y0219004D01*
X0158121Y0219219D01*
X0158008Y0219437D01*
X0157900Y0219657D01*
X0157798Y0219881D01*
X0157701Y0220106D01*
X0157610Y0220334D01*
X0157525Y0220564D01*
X0157445Y0220796D01*
X0157371Y0221030D01*
X0157302Y0221266D01*
X0157240Y0221503D01*
X0157183Y0221742D01*
X0157132Y0221982D01*
X0157087Y0222223D01*
X0157048Y0222466D01*
X0157015Y0222709D01*
X0156988Y0222953D01*
X0156967Y0223197D01*
X0156952Y0223442D01*
X0156943Y0223688D01*
X0156940Y0223933D01*
X0152340Y0128733D02*
X0148140Y0128733D01*
X0145740Y0128733D01*
X0141540Y0128733D01*
X0141540Y0109133D02*
X0152340Y0109133D01*
X0094240Y0112133D02*
X0094240Y0085733D01*
X0079640Y0085733D01*
X0079640Y0112133D01*
X0094240Y0112133D01*
D14*
X0046940Y0068933D02*
X0046940Y0208933D01*
X0116940Y0208933D01*
X0116940Y0068933D01*
X0086940Y0068933D01*
X0086940Y0073933D01*
X0076940Y0073933D01*
X0076940Y0068933D01*
X0046940Y0068933D01*
X0066802Y0136736D02*
X0066802Y0141236D01*
X0077302Y0141236D01*
X0077302Y0136736D01*
X0066802Y0136736D01*
X0066802Y0151736D02*
X0066802Y0156236D01*
X0077302Y0156236D01*
X0077302Y0151736D01*
X0066802Y0151736D01*
X0119652Y0089486D02*
X0119652Y0080278D01*
X0125790Y0080278D01*
X0128859Y0081813D02*
X0130394Y0080278D01*
X0133463Y0080278D01*
X0134998Y0081813D01*
X0134998Y0083347D01*
X0133463Y0084882D01*
X0130394Y0084882D01*
X0128859Y0086417D01*
X0128859Y0087951D01*
X0130394Y0089486D01*
X0133463Y0089486D01*
X0134998Y0087951D01*
X0138067Y0089486D02*
X0142671Y0089486D01*
X0144206Y0087951D01*
X0144206Y0084882D01*
X0142671Y0083347D01*
X0138067Y0083347D01*
X0138067Y0080278D02*
X0138067Y0089486D01*
X0147275Y0084882D02*
X0153414Y0084882D01*
X0156483Y0081813D02*
X0156483Y0087951D01*
X0158018Y0089486D01*
X0161087Y0089486D01*
X0162622Y0087951D01*
X0156483Y0081813D01*
X0158018Y0080278D01*
X0161087Y0080278D01*
X0162622Y0081813D01*
X0162622Y0087951D01*
X0165691Y0086417D02*
X0168760Y0089486D01*
X0168760Y0080278D01*
X0165691Y0080278D02*
X0171829Y0080278D01*
X0125790Y0089486D02*
X0119652Y0089486D01*
X0119652Y0084882D02*
X0122721Y0084882D01*
X0156940Y0216433D02*
X0156940Y0231433D01*
X0156940Y0266433D02*
X0156940Y0281433D01*
X0132077Y0281130D02*
X0132077Y0276630D01*
X0121577Y0276630D01*
X0121577Y0281130D01*
X0132077Y0281130D01*
X0119577Y0281130D02*
X0119577Y0276630D01*
X0109077Y0276630D01*
X0109077Y0281130D01*
X0119577Y0281130D01*
X0104577Y0281130D02*
X0104577Y0276630D01*
X0094077Y0276630D01*
X0094077Y0281130D01*
X0104577Y0281130D01*
X0089577Y0281130D02*
X0089577Y0276630D01*
X0079077Y0276630D01*
X0079077Y0281130D01*
X0089577Y0281130D01*
X0077077Y0281130D02*
X0077077Y0276630D01*
X0066577Y0276630D01*
X0066577Y0281130D01*
X0077077Y0281130D01*
X0064577Y0281130D02*
X0064577Y0276630D01*
X0054077Y0276630D01*
X0054077Y0281130D01*
X0064577Y0281130D01*
D15*
X0156940Y0281433D02*
X0157127Y0281676D01*
X0157319Y0281914D01*
X0157518Y0282147D01*
X0157722Y0282375D01*
X0157931Y0282598D01*
X0158146Y0282816D01*
X0158366Y0283029D01*
X0158591Y0283236D01*
X0158822Y0283438D01*
X0159057Y0283634D01*
X0159297Y0283824D01*
X0159541Y0284008D01*
X0159790Y0284186D01*
X0160044Y0284358D01*
X0160301Y0284524D01*
X0160562Y0284684D01*
X0160827Y0284837D01*
X0161096Y0284983D01*
X0161369Y0285123D01*
X0161644Y0285256D01*
X0161923Y0285382D01*
X0162205Y0285502D01*
X0162490Y0285614D01*
X0162777Y0285719D01*
X0163067Y0285818D01*
X0163359Y0285909D01*
X0163654Y0285993D01*
X0163950Y0286070D01*
X0164248Y0286140D01*
X0164548Y0286202D01*
X0164849Y0286257D01*
X0165151Y0286304D01*
X0165455Y0286344D01*
X0165759Y0286377D01*
X0166064Y0286402D01*
X0166370Y0286420D01*
X0166676Y0286430D01*
X0166982Y0286433D01*
X0167288Y0286428D01*
X0167594Y0286416D01*
X0167900Y0286396D01*
X0168204Y0286369D01*
X0168509Y0286334D01*
X0168812Y0286292D01*
X0169114Y0286243D01*
X0169415Y0286186D01*
X0169714Y0286121D01*
X0170012Y0286050D01*
X0170307Y0285971D01*
X0170601Y0285885D01*
X0170893Y0285792D01*
X0171182Y0285691D01*
X0171469Y0285584D01*
X0171753Y0285469D01*
X0172034Y0285348D01*
X0172312Y0285220D01*
X0172587Y0285085D01*
X0172858Y0284943D01*
X0173126Y0284795D01*
X0173390Y0284640D01*
X0173650Y0284479D01*
X0173906Y0284312D01*
X0174159Y0284138D01*
X0174406Y0283958D01*
X0174650Y0283772D01*
X0174888Y0283581D01*
X0175122Y0283383D01*
X0175351Y0283180D01*
X0175575Y0282971D01*
X0175794Y0282757D01*
X0176007Y0282537D01*
X0176215Y0282313D01*
X0176418Y0282083D01*
X0176614Y0281849D01*
X0176805Y0281609D01*
X0176990Y0281366D01*
X0177169Y0281117D01*
X0177342Y0280865D01*
X0177509Y0280608D01*
X0177669Y0280347D01*
X0177823Y0280082D01*
X0177970Y0279814D01*
X0178111Y0279542D01*
X0178245Y0279267D01*
X0178372Y0278988D01*
X0178493Y0278707D01*
X0178606Y0278422D01*
X0178712Y0278135D01*
X0178812Y0277846D01*
X0178904Y0277554D01*
X0178989Y0277260D01*
X0179067Y0276964D01*
X0179138Y0276666D01*
X0179201Y0276366D01*
X0179257Y0276065D01*
X0179305Y0275763D01*
X0179346Y0275460D01*
X0179380Y0275156D01*
X0179406Y0274851D01*
X0179425Y0274545D01*
X0179436Y0274239D01*
X0179440Y0273933D01*
X0179436Y0273627D01*
X0179425Y0273321D01*
X0179406Y0273015D01*
X0179380Y0272710D01*
X0179346Y0272406D01*
X0179305Y0272103D01*
X0179257Y0271801D01*
X0179201Y0271500D01*
X0179138Y0271200D01*
X0179067Y0270902D01*
X0178989Y0270606D01*
X0178904Y0270312D01*
X0178812Y0270020D01*
X0178712Y0269731D01*
X0178606Y0269444D01*
X0178493Y0269159D01*
X0178372Y0268878D01*
X0178245Y0268599D01*
X0178111Y0268324D01*
X0177970Y0268052D01*
X0177823Y0267784D01*
X0177669Y0267519D01*
X0177509Y0267258D01*
X0177342Y0267001D01*
X0177169Y0266749D01*
X0176990Y0266500D01*
X0176805Y0266257D01*
X0176614Y0266017D01*
X0176418Y0265783D01*
X0176215Y0265553D01*
X0176007Y0265329D01*
X0175794Y0265109D01*
X0175575Y0264895D01*
X0175351Y0264686D01*
X0175122Y0264483D01*
X0174888Y0264285D01*
X0174650Y0264094D01*
X0174406Y0263908D01*
X0174159Y0263728D01*
X0173906Y0263554D01*
X0173650Y0263387D01*
X0173390Y0263226D01*
X0173126Y0263071D01*
X0172858Y0262923D01*
X0172587Y0262781D01*
X0172312Y0262646D01*
X0172034Y0262518D01*
X0171753Y0262397D01*
X0171469Y0262282D01*
X0171182Y0262175D01*
X0170893Y0262074D01*
X0170601Y0261981D01*
X0170307Y0261895D01*
X0170012Y0261816D01*
X0169714Y0261745D01*
X0169415Y0261680D01*
X0169114Y0261623D01*
X0168812Y0261574D01*
X0168509Y0261532D01*
X0168204Y0261497D01*
X0167900Y0261470D01*
X0167594Y0261450D01*
X0167288Y0261438D01*
X0166982Y0261433D01*
X0166676Y0261436D01*
X0166370Y0261446D01*
X0166064Y0261464D01*
X0165759Y0261489D01*
X0165455Y0261522D01*
X0165151Y0261562D01*
X0164849Y0261609D01*
X0164548Y0261664D01*
X0164248Y0261726D01*
X0163950Y0261796D01*
X0163654Y0261873D01*
X0163359Y0261957D01*
X0163067Y0262048D01*
X0162777Y0262147D01*
X0162490Y0262252D01*
X0162205Y0262364D01*
X0161923Y0262484D01*
X0161644Y0262610D01*
X0161369Y0262743D01*
X0161096Y0262883D01*
X0160827Y0263029D01*
X0160562Y0263182D01*
X0160301Y0263342D01*
X0160044Y0263508D01*
X0159790Y0263680D01*
X0159541Y0263858D01*
X0159297Y0264042D01*
X0159057Y0264232D01*
X0158822Y0264428D01*
X0158591Y0264630D01*
X0158366Y0264837D01*
X0158146Y0265050D01*
X0157931Y0265268D01*
X0157722Y0265491D01*
X0157518Y0265719D01*
X0157319Y0265952D01*
X0157127Y0266190D01*
X0156940Y0266433D01*
X0156940Y0231433D02*
X0157127Y0231676D01*
X0157319Y0231914D01*
X0157518Y0232147D01*
X0157722Y0232375D01*
X0157931Y0232598D01*
X0158146Y0232816D01*
X0158366Y0233029D01*
X0158591Y0233236D01*
X0158822Y0233438D01*
X0159057Y0233634D01*
X0159297Y0233824D01*
X0159541Y0234008D01*
X0159790Y0234186D01*
X0160044Y0234358D01*
X0160301Y0234524D01*
X0160562Y0234684D01*
X0160827Y0234837D01*
X0161096Y0234983D01*
X0161369Y0235123D01*
X0161644Y0235256D01*
X0161923Y0235382D01*
X0162205Y0235502D01*
X0162490Y0235614D01*
X0162777Y0235719D01*
X0163067Y0235818D01*
X0163359Y0235909D01*
X0163654Y0235993D01*
X0163950Y0236070D01*
X0164248Y0236140D01*
X0164548Y0236202D01*
X0164849Y0236257D01*
X0165151Y0236304D01*
X0165455Y0236344D01*
X0165759Y0236377D01*
X0166064Y0236402D01*
X0166370Y0236420D01*
X0166676Y0236430D01*
X0166982Y0236433D01*
X0167288Y0236428D01*
X0167594Y0236416D01*
X0167900Y0236396D01*
X0168204Y0236369D01*
X0168509Y0236334D01*
X0168812Y0236292D01*
X0169114Y0236243D01*
X0169415Y0236186D01*
X0169714Y0236121D01*
X0170012Y0236050D01*
X0170307Y0235971D01*
X0170601Y0235885D01*
X0170893Y0235792D01*
X0171182Y0235691D01*
X0171469Y0235584D01*
X0171753Y0235469D01*
X0172034Y0235348D01*
X0172312Y0235220D01*
X0172587Y0235085D01*
X0172858Y0234943D01*
X0173126Y0234795D01*
X0173390Y0234640D01*
X0173650Y0234479D01*
X0173906Y0234312D01*
X0174159Y0234138D01*
X0174406Y0233958D01*
X0174650Y0233772D01*
X0174888Y0233581D01*
X0175122Y0233383D01*
X0175351Y0233180D01*
X0175575Y0232971D01*
X0175794Y0232757D01*
X0176007Y0232537D01*
X0176215Y0232313D01*
X0176418Y0232083D01*
X0176614Y0231849D01*
X0176805Y0231609D01*
X0176990Y0231366D01*
X0177169Y0231117D01*
X0177342Y0230865D01*
X0177509Y0230608D01*
X0177669Y0230347D01*
X0177823Y0230082D01*
X0177970Y0229814D01*
X0178111Y0229542D01*
X0178245Y0229267D01*
X0178372Y0228988D01*
X0178493Y0228707D01*
X0178606Y0228422D01*
X0178712Y0228135D01*
X0178812Y0227846D01*
X0178904Y0227554D01*
X0178989Y0227260D01*
X0179067Y0226964D01*
X0179138Y0226666D01*
X0179201Y0226366D01*
X0179257Y0226065D01*
X0179305Y0225763D01*
X0179346Y0225460D01*
X0179380Y0225156D01*
X0179406Y0224851D01*
X0179425Y0224545D01*
X0179436Y0224239D01*
X0179440Y0223933D01*
X0179436Y0223627D01*
X0179425Y0223321D01*
X0179406Y0223015D01*
X0179380Y0222710D01*
X0179346Y0222406D01*
X0179305Y0222103D01*
X0179257Y0221801D01*
X0179201Y0221500D01*
X0179138Y0221200D01*
X0179067Y0220902D01*
X0178989Y0220606D01*
X0178904Y0220312D01*
X0178812Y0220020D01*
X0178712Y0219731D01*
X0178606Y0219444D01*
X0178493Y0219159D01*
X0178372Y0218878D01*
X0178245Y0218599D01*
X0178111Y0218324D01*
X0177970Y0218052D01*
X0177823Y0217784D01*
X0177669Y0217519D01*
X0177509Y0217258D01*
X0177342Y0217001D01*
X0177169Y0216749D01*
X0176990Y0216500D01*
X0176805Y0216257D01*
X0176614Y0216017D01*
X0176418Y0215783D01*
X0176215Y0215553D01*
X0176007Y0215329D01*
X0175794Y0215109D01*
X0175575Y0214895D01*
X0175351Y0214686D01*
X0175122Y0214483D01*
X0174888Y0214285D01*
X0174650Y0214094D01*
X0174406Y0213908D01*
X0174159Y0213728D01*
X0173906Y0213554D01*
X0173650Y0213387D01*
X0173390Y0213226D01*
X0173126Y0213071D01*
X0172858Y0212923D01*
X0172587Y0212781D01*
X0172312Y0212646D01*
X0172034Y0212518D01*
X0171753Y0212397D01*
X0171469Y0212282D01*
X0171182Y0212175D01*
X0170893Y0212074D01*
X0170601Y0211981D01*
X0170307Y0211895D01*
X0170012Y0211816D01*
X0169714Y0211745D01*
X0169415Y0211680D01*
X0169114Y0211623D01*
X0168812Y0211574D01*
X0168509Y0211532D01*
X0168204Y0211497D01*
X0167900Y0211470D01*
X0167594Y0211450D01*
X0167288Y0211438D01*
X0166982Y0211433D01*
X0166676Y0211436D01*
X0166370Y0211446D01*
X0166064Y0211464D01*
X0165759Y0211489D01*
X0165455Y0211522D01*
X0165151Y0211562D01*
X0164849Y0211609D01*
X0164548Y0211664D01*
X0164248Y0211726D01*
X0163950Y0211796D01*
X0163654Y0211873D01*
X0163359Y0211957D01*
X0163067Y0212048D01*
X0162777Y0212147D01*
X0162490Y0212252D01*
X0162205Y0212364D01*
X0161923Y0212484D01*
X0161644Y0212610D01*
X0161369Y0212743D01*
X0161096Y0212883D01*
X0160827Y0213029D01*
X0160562Y0213182D01*
X0160301Y0213342D01*
X0160044Y0213508D01*
X0159790Y0213680D01*
X0159541Y0213858D01*
X0159297Y0214042D01*
X0159057Y0214232D01*
X0158822Y0214428D01*
X0158591Y0214630D01*
X0158366Y0214837D01*
X0158146Y0215050D01*
X0157931Y0215268D01*
X0157722Y0215491D01*
X0157518Y0215719D01*
X0157319Y0215952D01*
X0157127Y0216190D01*
X0156940Y0216433D01*
D16*
X0161940Y0313933D02*
X0161940Y0332433D01*
X0171940Y0332433D02*
X0171940Y0313933D01*
X0151940Y0313933D02*
X0151940Y0332433D01*
X0141940Y0332433D02*
X0141940Y0313933D01*
X0131940Y0313933D02*
X0131940Y0332433D01*
X0121940Y0332433D02*
X0121940Y0313933D01*
X0111940Y0313933D02*
X0111940Y0332433D01*
X0101940Y0332433D02*
X0101940Y0313933D01*
X0091940Y0313933D02*
X0091940Y0332433D01*
X0081940Y0332433D02*
X0081940Y0313933D01*
X0071940Y0313933D02*
X0071940Y0332433D01*
X0061940Y0332433D02*
X0061940Y0313933D01*
D17*
X0061940Y0312433D03*
X0071940Y0312433D03*
X0081940Y0312433D03*
X0091940Y0312433D03*
X0101940Y0312433D03*
X0111940Y0312433D03*
X0121940Y0312433D03*
X0131940Y0312433D03*
X0141940Y0312433D03*
X0151940Y0312433D03*
X0161940Y0312433D03*
X0171940Y0312433D03*
D18*
X0171940Y0298633D03*
X0161940Y0298633D03*
X0151940Y0298633D03*
X0141940Y0298633D03*
X0131940Y0298633D03*
X0121940Y0298633D03*
X0111940Y0298633D03*
X0101940Y0298633D03*
X0091940Y0298633D03*
X0081940Y0298633D03*
X0071940Y0298633D03*
X0061940Y0298633D03*
D19*
X0145740Y0128733D02*
X0145742Y0128664D01*
X0145748Y0128596D01*
X0145758Y0128528D01*
X0145771Y0128461D01*
X0145789Y0128395D01*
X0145810Y0128330D01*
X0145835Y0128266D01*
X0145863Y0128204D01*
X0145895Y0128143D01*
X0145930Y0128084D01*
X0145969Y0128028D01*
X0146011Y0127973D01*
X0146056Y0127922D01*
X0146104Y0127872D01*
X0146154Y0127826D01*
X0146207Y0127783D01*
X0146263Y0127742D01*
X0146320Y0127705D01*
X0146380Y0127672D01*
X0146442Y0127641D01*
X0146505Y0127615D01*
X0146569Y0127592D01*
X0146635Y0127572D01*
X0146702Y0127557D01*
X0146769Y0127545D01*
X0146837Y0127537D01*
X0146906Y0127533D01*
X0146974Y0127533D01*
X0147043Y0127537D01*
X0147111Y0127545D01*
X0147178Y0127557D01*
X0147245Y0127572D01*
X0147311Y0127592D01*
X0147375Y0127615D01*
X0147438Y0127641D01*
X0147500Y0127672D01*
X0147560Y0127705D01*
X0147617Y0127742D01*
X0147673Y0127783D01*
X0147726Y0127826D01*
X0147776Y0127872D01*
X0147824Y0127922D01*
X0147869Y0127973D01*
X0147911Y0128028D01*
X0147950Y0128084D01*
X0147985Y0128143D01*
X0148017Y0128204D01*
X0148045Y0128266D01*
X0148070Y0128330D01*
X0148091Y0128395D01*
X0148109Y0128461D01*
X0148122Y0128528D01*
X0148132Y0128596D01*
X0148138Y0128664D01*
X0148140Y0128733D01*
M02*
