G75*
%MOIN*%
%OFA0B0*%
%FSLAX25Y25*%
%IPPOS*%
%LPD*%
%AMOC8*
5,1,8,0,0,1.08239X$1,22.5*
%
%ADD10C,0.05600*%
%ADD11C,0.06400*%
%ADD12OC8,0.05600*%
%ADD13C,0.06200*%
%ADD14R,0.05550X0.05550*%
%ADD15C,0.05550*%
%ADD16C,0.11811*%
%ADD17C,0.00800*%
%ADD18C,0.04000*%
%ADD19C,0.01600*%
D10*
X0071940Y0229996D03*
X0071940Y0237870D03*
X0054440Y0254996D03*
X0054440Y0262870D03*
D11*
X0061940Y0290733D02*
X0061940Y0297133D01*
X0071940Y0297133D02*
X0071940Y0290733D01*
X0081940Y0290733D02*
X0081940Y0297133D01*
X0091940Y0297133D02*
X0091940Y0290733D01*
X0101940Y0290733D02*
X0101940Y0297133D01*
X0111940Y0297133D02*
X0111940Y0290733D01*
X0121940Y0290733D02*
X0121940Y0297133D01*
X0131940Y0297133D02*
X0131940Y0290733D01*
X0141940Y0290733D02*
X0141940Y0297133D01*
X0151940Y0297133D02*
X0151940Y0290733D01*
X0161940Y0290733D02*
X0161940Y0297133D01*
X0171940Y0297133D02*
X0171940Y0290733D01*
X0126940Y0219633D02*
X0126940Y0213233D01*
X0116940Y0213233D02*
X0116940Y0219633D01*
X0106940Y0219633D02*
X0106940Y0213233D01*
X0096940Y0213233D02*
X0096940Y0219633D01*
X0086940Y0219633D02*
X0086940Y0213233D01*
X0076940Y0213233D02*
X0076940Y0219633D01*
X0066940Y0219633D02*
X0066940Y0213233D01*
X0056940Y0213233D02*
X0056940Y0219633D01*
D12*
X0161940Y0223933D03*
X0171940Y0223933D03*
X0171940Y0273933D03*
X0161940Y0273933D03*
D13*
X0051940Y0073933D03*
X0051940Y0083933D03*
X0051940Y0093933D03*
X0051940Y0103933D03*
X0051940Y0113933D03*
X0051940Y0123933D03*
X0051940Y0133933D03*
X0051940Y0143933D03*
X0051940Y0153933D03*
X0051940Y0163933D03*
X0051940Y0173933D03*
X0051940Y0183933D03*
X0051940Y0193933D03*
X0051940Y0203933D03*
X0061940Y0123933D03*
X0061940Y0113933D03*
X0061940Y0103933D03*
X0061940Y0083933D03*
X0111940Y0083933D03*
X0111940Y0073933D03*
X0111940Y0093933D03*
X0111940Y0103933D03*
X0111940Y0113933D03*
X0111940Y0123933D03*
X0111940Y0133933D03*
X0111940Y0143933D03*
X0111940Y0153933D03*
X0111940Y0163933D03*
X0111940Y0173933D03*
X0111940Y0183933D03*
X0111940Y0193933D03*
X0111940Y0203933D03*
D14*
X0131940Y0188933D03*
X0136999Y0151128D03*
X0166999Y0151128D03*
X0171940Y0178933D03*
X0171940Y0198933D03*
D15*
X0166999Y0161128D03*
X0156999Y0161128D03*
X0156999Y0151128D03*
X0146999Y0151128D03*
X0146999Y0161128D03*
X0136999Y0161128D03*
D16*
X0144440Y0225433D03*
X0144440Y0243933D03*
X0144440Y0262433D03*
D17*
X0144540Y0262533D01*
X0144540Y0280133D01*
X0150140Y0285733D01*
X0162140Y0285733D01*
X0162140Y0293733D01*
X0161940Y0293933D01*
X0162140Y0285733D02*
X0162140Y0284133D01*
X0171740Y0274533D01*
X0171940Y0273933D01*
X0171740Y0273733D01*
X0171740Y0224133D01*
X0171940Y0223933D01*
X0171740Y0223333D01*
X0171740Y0206533D01*
X0167740Y0202533D01*
X0167740Y0181733D01*
X0147740Y0161733D01*
X0146999Y0161128D01*
X0136999Y0161128D02*
X0136540Y0160933D01*
X0132540Y0156933D01*
X0132540Y0124133D01*
X0122940Y0114533D01*
X0125340Y0114533D01*
X0122940Y0114533D02*
X0117340Y0108933D01*
X0110140Y0108933D01*
X0075740Y0074533D01*
X0052540Y0074533D01*
X0051940Y0073933D01*
X0051940Y0103933D02*
X0052540Y0104133D01*
X0056540Y0108133D01*
X0056540Y0124933D01*
X0091740Y0160133D01*
X0091740Y0230533D01*
X0117340Y0256133D01*
X0117340Y0272133D01*
X0110140Y0279333D01*
X0055740Y0279333D01*
X0054140Y0282533D02*
X0109340Y0282533D01*
X0143740Y0248133D01*
X0143740Y0244133D01*
X0144440Y0243933D01*
X0145340Y0251333D02*
X0155740Y0251333D01*
X0170140Y0236933D01*
X0170140Y0228133D01*
X0166140Y0224133D01*
X0166140Y0196133D01*
X0129340Y0159333D01*
X0129340Y0123333D01*
X0120540Y0114533D01*
X0112540Y0114533D01*
X0111940Y0113933D01*
X0109340Y0119333D02*
X0120540Y0119333D01*
X0127740Y0126533D01*
X0127740Y0196133D01*
X0166940Y0235333D01*
X0144440Y0225433D02*
X0143740Y0225733D01*
X0140540Y0228933D01*
X0122140Y0228933D01*
X0118940Y0224133D02*
X0122140Y0220933D01*
X0122140Y0176133D01*
X0126140Y0172133D01*
X0126140Y0148133D01*
X0111940Y0133933D01*
X0106940Y0128933D02*
X0111940Y0123933D01*
X0109340Y0119333D02*
X0094140Y0134533D01*
X0106940Y0128933D02*
X0106940Y0205733D01*
X0111740Y0210533D01*
X0111740Y0220933D01*
X0115740Y0224933D01*
X0115740Y0249733D01*
X0118940Y0241733D02*
X0118940Y0224133D01*
X0145340Y0251333D02*
X0126940Y0269733D01*
X0126940Y0278533D01*
X0121940Y0293933D02*
X0114140Y0301733D01*
X0109340Y0301733D01*
X0102140Y0294533D01*
X0101940Y0293933D01*
X0094140Y0301733D01*
X0089340Y0301733D01*
X0082140Y0294533D01*
X0081940Y0293933D01*
X0074140Y0301733D01*
X0069340Y0301733D01*
X0062140Y0294533D01*
X0061940Y0293933D01*
X0061340Y0293733D01*
X0050140Y0282533D01*
X0050140Y0252933D01*
X0056540Y0246533D01*
X0056540Y0216933D01*
X0056940Y0216433D01*
X0071740Y0220933D02*
X0071740Y0174533D01*
X0086940Y0184933D02*
X0056540Y0154533D01*
X0052540Y0154533D01*
X0051940Y0153933D01*
X0086940Y0184933D02*
X0086940Y0216433D01*
X0076540Y0225733D02*
X0071740Y0220933D01*
X0076540Y0225733D02*
X0076540Y0239333D01*
X0068540Y0247333D01*
X0058940Y0244933D02*
X0058940Y0258533D01*
X0070940Y0270533D01*
X0114140Y0270533D01*
X0121940Y0293933D02*
X0122140Y0294533D01*
X0129340Y0301733D01*
X0134140Y0301733D01*
X0141940Y0293933D01*
X0150140Y0285733D01*
X0071740Y0232133D02*
X0071740Y0230533D01*
X0071940Y0229996D01*
X0071740Y0232133D02*
X0058940Y0244933D01*
X0058940Y0258533D02*
X0054940Y0262533D01*
X0054440Y0262870D01*
X0059740Y0266533D02*
X0059740Y0270533D01*
X0052540Y0277733D01*
X0052540Y0280933D01*
X0054140Y0282533D01*
X0111940Y0183933D02*
X0122940Y0172933D01*
X0122940Y0166533D01*
X0166999Y0151128D02*
X0166940Y0150533D01*
X0166940Y0128933D01*
X0111940Y0073933D01*
D18*
X0125340Y0114533D03*
X0120540Y0119333D03*
X0094140Y0134533D03*
X0122940Y0166533D03*
X0122140Y0228933D03*
X0118940Y0241733D03*
X0115740Y0249733D03*
X0114140Y0270533D03*
X0126940Y0278533D03*
X0166940Y0235333D03*
X0071740Y0174533D03*
X0068540Y0247333D03*
X0059740Y0266533D03*
X0055740Y0279333D03*
D19*
X0058803Y0276740D02*
X0109339Y0276740D01*
X0109146Y0276933D02*
X0114940Y0271139D01*
X0114940Y0257127D01*
X0090380Y0232568D01*
X0089705Y0231893D01*
X0089340Y0231010D01*
X0089340Y0224267D01*
X0087974Y0224833D01*
X0085905Y0224833D01*
X0083994Y0224041D01*
X0082531Y0222579D01*
X0081940Y0221150D01*
X0081348Y0222579D01*
X0079885Y0224041D01*
X0078649Y0224554D01*
X0078940Y0225256D01*
X0078940Y0239810D01*
X0078574Y0240693D01*
X0077899Y0241368D01*
X0072540Y0246727D01*
X0072540Y0248129D01*
X0071931Y0249599D01*
X0070805Y0250724D01*
X0069335Y0251333D01*
X0067744Y0251333D01*
X0066274Y0250724D01*
X0065149Y0249599D01*
X0064540Y0248129D01*
X0064540Y0246537D01*
X0065149Y0245067D01*
X0066274Y0243942D01*
X0067744Y0243333D01*
X0069146Y0243333D01*
X0070153Y0242326D01*
X0069221Y0241939D01*
X0067870Y0240589D01*
X0067140Y0238825D01*
X0067140Y0236915D01*
X0067870Y0235151D01*
X0069221Y0233801D01*
X0069303Y0233767D01*
X0068943Y0233505D01*
X0068431Y0232993D01*
X0068005Y0232407D01*
X0067677Y0231762D01*
X0067453Y0231073D01*
X0067340Y0230358D01*
X0067340Y0229996D01*
X0067340Y0229634D01*
X0067453Y0228919D01*
X0067677Y0228230D01*
X0068005Y0227585D01*
X0068431Y0226999D01*
X0068943Y0226487D01*
X0069529Y0226062D01*
X0070174Y0225733D01*
X0070862Y0225509D01*
X0071578Y0225396D01*
X0071940Y0225396D01*
X0072302Y0225396D01*
X0072904Y0225491D01*
X0070528Y0223116D01*
X0070197Y0223447D01*
X0069560Y0223909D01*
X0068859Y0224267D01*
X0068110Y0224510D01*
X0067333Y0224633D01*
X0067140Y0224633D01*
X0067140Y0216633D01*
X0066740Y0216633D01*
X0066740Y0224633D01*
X0066546Y0224633D01*
X0065769Y0224510D01*
X0065020Y0224267D01*
X0064319Y0223909D01*
X0063682Y0223447D01*
X0063126Y0222890D01*
X0062663Y0222254D01*
X0062306Y0221552D01*
X0062072Y0220831D01*
X0061348Y0222579D01*
X0059885Y0224041D01*
X0058940Y0224433D01*
X0058940Y0247010D01*
X0058574Y0247893D01*
X0056014Y0250453D01*
X0057159Y0250927D01*
X0058509Y0252277D01*
X0059240Y0254041D01*
X0059240Y0255951D01*
X0058509Y0257715D01*
X0057159Y0259065D01*
X0057076Y0259100D01*
X0057436Y0259361D01*
X0057948Y0259873D01*
X0058374Y0260459D01*
X0058703Y0261104D01*
X0058926Y0261793D01*
X0059040Y0262508D01*
X0059040Y0262533D01*
X0060535Y0262533D01*
X0062005Y0263142D01*
X0063131Y0264267D01*
X0063740Y0265737D01*
X0063740Y0267329D01*
X0063131Y0268799D01*
X0062140Y0269790D01*
X0062140Y0271010D01*
X0061774Y0271893D01*
X0057807Y0275860D01*
X0058005Y0275942D01*
X0058997Y0276933D01*
X0109146Y0276933D01*
X0110938Y0275141D02*
X0058526Y0275141D01*
X0060124Y0273543D02*
X0112536Y0273543D01*
X0114135Y0271944D02*
X0061723Y0271944D01*
X0062140Y0270345D02*
X0114940Y0270345D01*
X0114940Y0268747D02*
X0063152Y0268747D01*
X0063740Y0267148D02*
X0114940Y0267148D01*
X0114940Y0265550D02*
X0063662Y0265550D01*
X0062815Y0263951D02*
X0114940Y0263951D01*
X0114940Y0262353D02*
X0059015Y0262353D01*
X0058524Y0260754D02*
X0114940Y0260754D01*
X0114940Y0259156D02*
X0057154Y0259156D01*
X0058574Y0257557D02*
X0114940Y0257557D01*
X0113771Y0255959D02*
X0059236Y0255959D01*
X0059240Y0254360D02*
X0112173Y0254360D01*
X0110574Y0252762D02*
X0058710Y0252762D01*
X0057395Y0251163D02*
X0067334Y0251163D01*
X0069745Y0251163D02*
X0108976Y0251163D01*
X0107377Y0249565D02*
X0071945Y0249565D01*
X0072540Y0247966D02*
X0105779Y0247966D01*
X0104180Y0246368D02*
X0072899Y0246368D01*
X0074498Y0244769D02*
X0102582Y0244769D01*
X0100983Y0243171D02*
X0076096Y0243171D01*
X0077695Y0241572D02*
X0099385Y0241572D01*
X0097786Y0239974D02*
X0078872Y0239974D01*
X0078940Y0238375D02*
X0096188Y0238375D01*
X0094589Y0236777D02*
X0078940Y0236777D01*
X0078940Y0235178D02*
X0092991Y0235178D01*
X0091392Y0233580D02*
X0078940Y0233580D01*
X0078940Y0231981D02*
X0089794Y0231981D01*
X0089340Y0230383D02*
X0078940Y0230383D01*
X0078940Y0228784D02*
X0089340Y0228784D01*
X0089340Y0227186D02*
X0078940Y0227186D01*
X0078940Y0225587D02*
X0089340Y0225587D01*
X0083941Y0223989D02*
X0079938Y0223989D01*
X0081426Y0222390D02*
X0082453Y0222390D01*
X0071940Y0225396D02*
X0071940Y0229996D01*
X0071940Y0229996D01*
X0071940Y0225396D01*
X0071940Y0225587D02*
X0071940Y0225587D01*
X0070623Y0225587D02*
X0058940Y0225587D01*
X0058940Y0227186D02*
X0068296Y0227186D01*
X0067497Y0228784D02*
X0058940Y0228784D01*
X0058940Y0230383D02*
X0067344Y0230383D01*
X0067340Y0229996D02*
X0071940Y0229996D01*
X0067340Y0229996D01*
X0067788Y0231981D02*
X0058940Y0231981D01*
X0058940Y0233580D02*
X0069046Y0233580D01*
X0067859Y0235178D02*
X0058940Y0235178D01*
X0058940Y0236777D02*
X0067197Y0236777D01*
X0067140Y0238375D02*
X0058940Y0238375D01*
X0058940Y0239974D02*
X0067616Y0239974D01*
X0068854Y0241572D02*
X0058940Y0241572D01*
X0058940Y0243171D02*
X0069308Y0243171D01*
X0065447Y0244769D02*
X0058940Y0244769D01*
X0058940Y0246368D02*
X0064610Y0246368D01*
X0064540Y0247966D02*
X0058500Y0247966D01*
X0056902Y0249565D02*
X0065135Y0249565D01*
X0054140Y0245539D02*
X0054140Y0224102D01*
X0053994Y0224041D01*
X0052531Y0222579D01*
X0051740Y0220667D01*
X0051740Y0212199D01*
X0052531Y0210287D01*
X0053994Y0208825D01*
X0055905Y0208033D01*
X0057974Y0208033D01*
X0059885Y0208825D01*
X0061348Y0210287D01*
X0062072Y0212035D01*
X0062306Y0211314D01*
X0062663Y0210612D01*
X0063126Y0209976D01*
X0063682Y0209419D01*
X0064319Y0208957D01*
X0065020Y0208599D01*
X0065769Y0208356D01*
X0066546Y0208233D01*
X0066740Y0208233D01*
X0066740Y0216233D01*
X0067140Y0216233D01*
X0067140Y0208233D01*
X0067333Y0208233D01*
X0068110Y0208356D01*
X0068859Y0208599D01*
X0069340Y0208844D01*
X0069340Y0177790D01*
X0068349Y0176799D01*
X0067740Y0175329D01*
X0067740Y0173737D01*
X0068349Y0172267D01*
X0069474Y0171142D01*
X0069672Y0171060D01*
X0055849Y0157236D01*
X0054829Y0158257D01*
X0053196Y0158933D01*
X0054829Y0159609D01*
X0056263Y0161044D01*
X0057040Y0162919D01*
X0057040Y0164948D01*
X0056263Y0166822D01*
X0054829Y0168257D01*
X0053196Y0168933D01*
X0054829Y0169609D01*
X0056263Y0171044D01*
X0057040Y0172919D01*
X0057040Y0174948D01*
X0056263Y0176822D01*
X0054829Y0178257D01*
X0053196Y0178933D01*
X0054829Y0179609D01*
X0056263Y0181044D01*
X0057040Y0182919D01*
X0057040Y0184948D01*
X0056263Y0186822D01*
X0054829Y0188257D01*
X0053196Y0188933D01*
X0054829Y0189609D01*
X0056263Y0191044D01*
X0057040Y0192919D01*
X0057040Y0194948D01*
X0056263Y0196822D01*
X0054829Y0198257D01*
X0053196Y0198933D01*
X0054829Y0199609D01*
X0056263Y0201044D01*
X0057040Y0202919D01*
X0057040Y0204948D01*
X0056263Y0206822D01*
X0054829Y0208257D01*
X0052954Y0209033D01*
X0050925Y0209033D01*
X0049740Y0208542D01*
X0049740Y0249939D01*
X0054140Y0245539D01*
X0054140Y0244769D02*
X0049740Y0244769D01*
X0049740Y0243171D02*
X0054140Y0243171D01*
X0054140Y0241572D02*
X0049740Y0241572D01*
X0049740Y0239974D02*
X0054140Y0239974D01*
X0054140Y0238375D02*
X0049740Y0238375D01*
X0049740Y0236777D02*
X0054140Y0236777D01*
X0054140Y0235178D02*
X0049740Y0235178D01*
X0049740Y0233580D02*
X0054140Y0233580D01*
X0054140Y0231981D02*
X0049740Y0231981D01*
X0049740Y0230383D02*
X0054140Y0230383D01*
X0054140Y0228784D02*
X0049740Y0228784D01*
X0049740Y0227186D02*
X0054140Y0227186D01*
X0054140Y0225587D02*
X0049740Y0225587D01*
X0049740Y0223989D02*
X0053941Y0223989D01*
X0052453Y0222390D02*
X0049740Y0222390D01*
X0049740Y0220792D02*
X0051791Y0220792D01*
X0051740Y0219193D02*
X0049740Y0219193D01*
X0049740Y0217595D02*
X0051740Y0217595D01*
X0051740Y0215996D02*
X0049740Y0215996D01*
X0049740Y0214398D02*
X0051740Y0214398D01*
X0051740Y0212799D02*
X0049740Y0212799D01*
X0049740Y0211201D02*
X0052153Y0211201D01*
X0053217Y0209602D02*
X0049740Y0209602D01*
X0055082Y0208004D02*
X0069340Y0208004D01*
X0069340Y0206405D02*
X0056436Y0206405D01*
X0057040Y0204807D02*
X0069340Y0204807D01*
X0069340Y0203208D02*
X0057040Y0203208D01*
X0056497Y0201610D02*
X0069340Y0201610D01*
X0069340Y0200011D02*
X0055230Y0200011D01*
X0054452Y0198412D02*
X0069340Y0198412D01*
X0069340Y0196814D02*
X0056267Y0196814D01*
X0056929Y0195215D02*
X0069340Y0195215D01*
X0069340Y0193617D02*
X0057040Y0193617D01*
X0056667Y0192018D02*
X0069340Y0192018D01*
X0069340Y0190420D02*
X0055639Y0190420D01*
X0053465Y0188821D02*
X0069340Y0188821D01*
X0069340Y0187223D02*
X0055862Y0187223D01*
X0056759Y0185624D02*
X0069340Y0185624D01*
X0069340Y0184026D02*
X0057040Y0184026D01*
X0056836Y0182427D02*
X0069340Y0182427D01*
X0069340Y0180829D02*
X0056048Y0180829D01*
X0053913Y0179230D02*
X0069340Y0179230D01*
X0069182Y0177632D02*
X0055453Y0177632D01*
X0056590Y0176033D02*
X0068032Y0176033D01*
X0067740Y0174435D02*
X0057040Y0174435D01*
X0057006Y0172836D02*
X0068113Y0172836D01*
X0069378Y0171238D02*
X0056343Y0171238D01*
X0054858Y0169639D02*
X0068252Y0169639D01*
X0066653Y0168041D02*
X0055044Y0168041D01*
X0056421Y0166442D02*
X0065055Y0166442D01*
X0063456Y0164844D02*
X0057040Y0164844D01*
X0057040Y0163245D02*
X0061858Y0163245D01*
X0060259Y0161647D02*
X0056513Y0161647D01*
X0055267Y0160048D02*
X0058661Y0160048D01*
X0057062Y0158450D02*
X0054362Y0158450D01*
X0072670Y0137669D02*
X0091619Y0137669D01*
X0091874Y0137924D02*
X0090749Y0136799D01*
X0090140Y0135329D01*
X0090140Y0133737D01*
X0090749Y0132267D01*
X0091874Y0131142D01*
X0093344Y0130533D01*
X0094746Y0130533D01*
X0107305Y0117974D01*
X0107980Y0117298D01*
X0108060Y0117266D01*
X0107616Y0116822D01*
X0106840Y0114948D01*
X0106840Y0112919D01*
X0107616Y0111044D01*
X0108236Y0110424D01*
X0108105Y0110293D01*
X0074746Y0076933D01*
X0056152Y0076933D01*
X0054829Y0078257D01*
X0052954Y0079033D01*
X0050925Y0079033D01*
X0049740Y0078542D01*
X0049740Y0079555D01*
X0050059Y0079392D01*
X0050792Y0079154D01*
X0051554Y0079033D01*
X0051790Y0079033D01*
X0051790Y0083783D01*
X0052090Y0083783D01*
X0052090Y0084083D01*
X0056840Y0084083D01*
X0056840Y0084319D01*
X0056719Y0085080D01*
X0056481Y0085814D01*
X0056131Y0086501D01*
X0055677Y0087125D01*
X0055132Y0087671D01*
X0054508Y0088124D01*
X0053821Y0088474D01*
X0053087Y0088712D01*
X0052325Y0088833D01*
X0052090Y0088833D01*
X0052090Y0084083D01*
X0051790Y0084083D01*
X0051790Y0088833D01*
X0051554Y0088833D01*
X0050792Y0088712D01*
X0050059Y0088474D01*
X0049740Y0088311D01*
X0049740Y0089324D01*
X0050925Y0088833D01*
X0052954Y0088833D01*
X0054829Y0089609D01*
X0056263Y0091044D01*
X0057040Y0092919D01*
X0057040Y0094948D01*
X0056263Y0096822D01*
X0054829Y0098257D01*
X0053196Y0098933D01*
X0054829Y0099609D01*
X0056263Y0101044D01*
X0056940Y0102677D01*
X0057616Y0101044D01*
X0059051Y0099609D01*
X0060925Y0098833D01*
X0062954Y0098833D01*
X0064829Y0099609D01*
X0066263Y0101044D01*
X0067040Y0102919D01*
X0067040Y0104948D01*
X0066263Y0106822D01*
X0064829Y0108257D01*
X0063196Y0108933D01*
X0064829Y0109609D01*
X0066263Y0111044D01*
X0067040Y0112919D01*
X0067040Y0114948D01*
X0066263Y0116822D01*
X0064829Y0118257D01*
X0063196Y0118933D01*
X0064829Y0119609D01*
X0066263Y0121044D01*
X0067040Y0122919D01*
X0067040Y0124948D01*
X0066263Y0126822D01*
X0064829Y0128257D01*
X0063718Y0128717D01*
X0093774Y0158774D01*
X0094140Y0159656D01*
X0094140Y0208764D01*
X0095905Y0208033D01*
X0097974Y0208033D01*
X0099885Y0208825D01*
X0101348Y0210287D01*
X0101940Y0211716D01*
X0102531Y0210287D01*
X0103994Y0208825D01*
X0105863Y0208051D01*
X0105580Y0207768D01*
X0104905Y0207093D01*
X0104540Y0206210D01*
X0104540Y0128456D01*
X0104905Y0127574D01*
X0107042Y0125436D01*
X0106922Y0125145D01*
X0098140Y0133927D01*
X0098140Y0135329D01*
X0097531Y0136799D01*
X0096405Y0137924D01*
X0094935Y0138533D01*
X0093344Y0138533D01*
X0091874Y0137924D01*
X0090447Y0136071D02*
X0071071Y0136071D01*
X0069473Y0134472D02*
X0090140Y0134472D01*
X0090497Y0132874D02*
X0067874Y0132874D01*
X0066276Y0131275D02*
X0091741Y0131275D01*
X0095602Y0129677D02*
X0064677Y0129677D01*
X0065007Y0128078D02*
X0097201Y0128078D01*
X0098799Y0126479D02*
X0066405Y0126479D01*
X0067040Y0124881D02*
X0100398Y0124881D01*
X0101996Y0123282D02*
X0067040Y0123282D01*
X0066528Y0121684D02*
X0103595Y0121684D01*
X0105193Y0120085D02*
X0065305Y0120085D01*
X0064273Y0118487D02*
X0106792Y0118487D01*
X0107683Y0116888D02*
X0066197Y0116888D01*
X0066898Y0115290D02*
X0106981Y0115290D01*
X0106840Y0113691D02*
X0067040Y0113691D01*
X0066698Y0112093D02*
X0107182Y0112093D01*
X0108166Y0110494D02*
X0065713Y0110494D01*
X0063285Y0108896D02*
X0106708Y0108896D01*
X0105110Y0107297D02*
X0065788Y0107297D01*
X0066728Y0105699D02*
X0103511Y0105699D01*
X0101913Y0104100D02*
X0067040Y0104100D01*
X0066867Y0102502D02*
X0100314Y0102502D01*
X0098716Y0100903D02*
X0066122Y0100903D01*
X0064093Y0099305D02*
X0097117Y0099305D01*
X0095519Y0097706D02*
X0055379Y0097706D01*
X0056559Y0096108D02*
X0093920Y0096108D01*
X0092322Y0094509D02*
X0057040Y0094509D01*
X0057036Y0092911D02*
X0090723Y0092911D01*
X0089125Y0091312D02*
X0056374Y0091312D01*
X0054933Y0089714D02*
X0087526Y0089714D01*
X0085928Y0088115D02*
X0064970Y0088115D01*
X0064829Y0088257D02*
X0062954Y0089033D01*
X0060925Y0089033D01*
X0059051Y0088257D01*
X0057616Y0086822D01*
X0056840Y0084948D01*
X0056840Y0082919D01*
X0057616Y0081044D01*
X0059051Y0079609D01*
X0060925Y0078833D01*
X0062954Y0078833D01*
X0064829Y0079609D01*
X0066263Y0081044D01*
X0067040Y0082919D01*
X0067040Y0084948D01*
X0066263Y0086822D01*
X0064829Y0088257D01*
X0066390Y0086517D02*
X0084329Y0086517D01*
X0082731Y0084918D02*
X0067040Y0084918D01*
X0067040Y0083320D02*
X0081132Y0083320D01*
X0079534Y0081721D02*
X0066544Y0081721D01*
X0065342Y0080123D02*
X0077935Y0080123D01*
X0076337Y0078524D02*
X0054183Y0078524D01*
X0053821Y0079392D02*
X0054508Y0079742D01*
X0055132Y0080196D01*
X0055677Y0080741D01*
X0056131Y0081365D01*
X0056481Y0082052D01*
X0056719Y0082786D01*
X0056840Y0083547D01*
X0056840Y0083783D01*
X0052090Y0083783D01*
X0052090Y0079033D01*
X0052325Y0079033D01*
X0053087Y0079154D01*
X0053821Y0079392D01*
X0055031Y0080123D02*
X0058538Y0080123D01*
X0057336Y0081721D02*
X0056312Y0081721D01*
X0056804Y0083320D02*
X0056840Y0083320D01*
X0056840Y0084918D02*
X0056745Y0084918D01*
X0056119Y0086517D02*
X0057490Y0086517D01*
X0058909Y0088115D02*
X0054520Y0088115D01*
X0052090Y0088115D02*
X0051790Y0088115D01*
X0051790Y0086517D02*
X0052090Y0086517D01*
X0052090Y0084918D02*
X0051790Y0084918D01*
X0051790Y0083320D02*
X0052090Y0083320D01*
X0052090Y0081721D02*
X0051790Y0081721D01*
X0051790Y0080123D02*
X0052090Y0080123D01*
X0056714Y0072133D02*
X0076217Y0072133D01*
X0077099Y0072498D01*
X0107039Y0102438D01*
X0107616Y0101044D01*
X0109051Y0099609D01*
X0110684Y0098933D01*
X0109051Y0098257D01*
X0107616Y0096822D01*
X0106840Y0094948D01*
X0106840Y0092919D01*
X0107616Y0091044D01*
X0109051Y0089609D01*
X0110684Y0088933D01*
X0109051Y0088257D01*
X0107616Y0086822D01*
X0106840Y0084948D01*
X0106840Y0082919D01*
X0107616Y0081044D01*
X0109051Y0079609D01*
X0110925Y0078833D01*
X0112954Y0078833D01*
X0114829Y0079609D01*
X0116263Y0081044D01*
X0117040Y0082919D01*
X0117040Y0084948D01*
X0116263Y0086822D01*
X0114829Y0088257D01*
X0113196Y0088933D01*
X0114829Y0089609D01*
X0116263Y0091044D01*
X0117040Y0092919D01*
X0117040Y0094948D01*
X0116263Y0096822D01*
X0114829Y0098257D01*
X0113196Y0098933D01*
X0114829Y0099609D01*
X0116263Y0101044D01*
X0117040Y0102919D01*
X0117040Y0104948D01*
X0116383Y0106533D01*
X0117817Y0106533D01*
X0118699Y0106898D01*
X0123008Y0111208D01*
X0123074Y0111142D01*
X0124544Y0110533D01*
X0126135Y0110533D01*
X0127605Y0111142D01*
X0128731Y0112267D01*
X0129340Y0113737D01*
X0129340Y0115329D01*
X0128731Y0116799D01*
X0128665Y0116864D01*
X0133899Y0122098D01*
X0134574Y0122774D01*
X0134940Y0123656D01*
X0134940Y0146353D01*
X0140602Y0146353D01*
X0141774Y0147525D01*
X0141774Y0154731D01*
X0140602Y0155903D01*
X0134940Y0155903D01*
X0134940Y0155939D01*
X0135557Y0156557D01*
X0136049Y0156353D01*
X0137948Y0156353D01*
X0139703Y0157080D01*
X0141047Y0158423D01*
X0141774Y0160178D01*
X0141774Y0162078D01*
X0141047Y0163833D01*
X0139703Y0165176D01*
X0138907Y0165506D01*
X0165340Y0191939D01*
X0165340Y0182727D01*
X0148349Y0165737D01*
X0147948Y0165903D01*
X0146049Y0165903D01*
X0144294Y0165176D01*
X0142951Y0163833D01*
X0142224Y0162078D01*
X0142224Y0160178D01*
X0142951Y0158423D01*
X0144294Y0157080D01*
X0146049Y0156353D01*
X0147948Y0156353D01*
X0149703Y0157080D01*
X0151047Y0158423D01*
X0151774Y0160178D01*
X0151774Y0162078D01*
X0151687Y0162286D01*
X0152751Y0163350D01*
X0152224Y0162078D01*
X0152224Y0160178D01*
X0152951Y0158423D01*
X0154294Y0157080D01*
X0156049Y0156353D01*
X0157948Y0156353D01*
X0159703Y0157080D01*
X0161047Y0158423D01*
X0161774Y0160178D01*
X0161774Y0162078D01*
X0161047Y0163833D01*
X0159703Y0165176D01*
X0157948Y0165903D01*
X0156049Y0165903D01*
X0154776Y0165376D01*
X0167365Y0177964D01*
X0167365Y0175921D01*
X0167488Y0175463D01*
X0167724Y0175053D01*
X0168060Y0174718D01*
X0168470Y0174481D01*
X0168928Y0174358D01*
X0171940Y0174358D01*
X0174951Y0174358D01*
X0175409Y0174481D01*
X0175820Y0174718D01*
X0176155Y0175053D01*
X0176392Y0175463D01*
X0176514Y0175921D01*
X0176514Y0178933D01*
X0171940Y0178933D01*
X0171940Y0178933D01*
X0176514Y0178933D01*
X0176514Y0181945D01*
X0176392Y0182403D01*
X0176155Y0182813D01*
X0175820Y0183148D01*
X0175409Y0183385D01*
X0174951Y0183508D01*
X0171940Y0183508D01*
X0171940Y0178933D01*
X0171940Y0174358D01*
X0171940Y0178933D01*
X0171940Y0178933D01*
X0171940Y0178933D01*
X0171940Y0183508D01*
X0170140Y0183508D01*
X0170140Y0194158D01*
X0175543Y0194158D01*
X0176714Y0195330D01*
X0176714Y0202536D01*
X0175543Y0203708D01*
X0172309Y0203708D01*
X0173774Y0205174D01*
X0174140Y0206056D01*
X0174140Y0219345D01*
X0176740Y0221945D01*
X0176740Y0225921D01*
X0174140Y0228521D01*
X0174140Y0269345D01*
X0176740Y0271945D01*
X0176740Y0275921D01*
X0173928Y0278733D01*
X0170934Y0278733D01*
X0164540Y0285127D01*
X0164540Y0286182D01*
X0164885Y0286325D01*
X0166348Y0287788D01*
X0166940Y0289216D01*
X0167531Y0287788D01*
X0168994Y0286325D01*
X0170905Y0285533D01*
X0172974Y0285533D01*
X0174885Y0286325D01*
X0176348Y0287788D01*
X0177140Y0289699D01*
X0177140Y0298167D01*
X0176348Y0300079D01*
X0174885Y0301541D01*
X0172974Y0302333D01*
X0170905Y0302333D01*
X0168994Y0301541D01*
X0167531Y0300079D01*
X0166940Y0298650D01*
X0166348Y0300079D01*
X0164885Y0301541D01*
X0162974Y0302333D01*
X0160905Y0302333D01*
X0158994Y0301541D01*
X0157531Y0300079D01*
X0156940Y0298650D01*
X0156348Y0300079D01*
X0154885Y0301541D01*
X0152974Y0302333D01*
X0150905Y0302333D01*
X0148994Y0301541D01*
X0147531Y0300079D01*
X0146940Y0298650D01*
X0146348Y0300079D01*
X0144885Y0301541D01*
X0142974Y0302333D01*
X0140905Y0302333D01*
X0138994Y0301541D01*
X0138360Y0300907D01*
X0135499Y0303768D01*
X0134617Y0304133D01*
X0128862Y0304133D01*
X0127980Y0303768D01*
X0127305Y0303093D01*
X0125320Y0301107D01*
X0124885Y0301541D01*
X0122974Y0302333D01*
X0120905Y0302333D01*
X0118994Y0301541D01*
X0118360Y0300907D01*
X0116174Y0303093D01*
X0115499Y0303768D01*
X0114617Y0304133D01*
X0108862Y0304133D01*
X0107980Y0303768D01*
X0105320Y0301107D01*
X0104885Y0301541D01*
X0102974Y0302333D01*
X0100905Y0302333D01*
X0098994Y0301541D01*
X0098360Y0300907D01*
X0095499Y0303768D01*
X0094617Y0304133D01*
X0088862Y0304133D01*
X0087980Y0303768D01*
X0087305Y0303093D01*
X0085320Y0301107D01*
X0084885Y0301541D01*
X0082974Y0302333D01*
X0080905Y0302333D01*
X0078994Y0301541D01*
X0078360Y0300907D01*
X0076174Y0303093D01*
X0075499Y0303768D01*
X0074617Y0304133D01*
X0068862Y0304133D01*
X0067980Y0303768D01*
X0065320Y0301107D01*
X0064885Y0301541D01*
X0062974Y0302333D01*
X0060905Y0302333D01*
X0058994Y0301541D01*
X0057531Y0300079D01*
X0056740Y0298167D01*
X0056740Y0292527D01*
X0049740Y0285527D01*
X0049740Y0316133D01*
X0179140Y0316133D01*
X0179140Y0071733D01*
X0116318Y0071733D01*
X0116481Y0072052D01*
X0116719Y0072786D01*
X0116840Y0073547D01*
X0116840Y0073783D01*
X0112090Y0073783D01*
X0112090Y0074083D01*
X0116840Y0074083D01*
X0116840Y0074319D01*
X0116719Y0075080D01*
X0116481Y0075814D01*
X0116131Y0076501D01*
X0115677Y0077125D01*
X0115132Y0077671D01*
X0114508Y0078124D01*
X0113821Y0078474D01*
X0113087Y0078712D01*
X0112325Y0078833D01*
X0112090Y0078833D01*
X0112090Y0074083D01*
X0111790Y0074083D01*
X0111790Y0078833D01*
X0111554Y0078833D01*
X0110792Y0078712D01*
X0110059Y0078474D01*
X0109371Y0078124D01*
X0108748Y0077671D01*
X0108202Y0077125D01*
X0107749Y0076501D01*
X0107399Y0075814D01*
X0107160Y0075080D01*
X0107040Y0074319D01*
X0107040Y0074083D01*
X0111790Y0074083D01*
X0111790Y0073783D01*
X0107040Y0073783D01*
X0107040Y0073547D01*
X0107160Y0072786D01*
X0107399Y0072052D01*
X0107561Y0071733D01*
X0056549Y0071733D01*
X0056714Y0072133D01*
X0056713Y0072130D02*
X0107373Y0072130D01*
X0107040Y0073729D02*
X0078329Y0073729D01*
X0079928Y0075327D02*
X0107240Y0075327D01*
X0108057Y0076926D02*
X0081526Y0076926D01*
X0083125Y0078524D02*
X0110213Y0078524D01*
X0111790Y0078524D02*
X0112090Y0078524D01*
X0113666Y0078524D02*
X0179140Y0078524D01*
X0179140Y0076926D02*
X0115822Y0076926D01*
X0116639Y0075327D02*
X0179140Y0075327D01*
X0179140Y0073729D02*
X0116840Y0073729D01*
X0116506Y0072130D02*
X0179140Y0072130D01*
X0179140Y0080123D02*
X0115342Y0080123D01*
X0116544Y0081721D02*
X0179140Y0081721D01*
X0179140Y0083320D02*
X0117040Y0083320D01*
X0117040Y0084918D02*
X0179140Y0084918D01*
X0179140Y0086517D02*
X0116390Y0086517D01*
X0114970Y0088115D02*
X0179140Y0088115D01*
X0179140Y0089714D02*
X0114933Y0089714D01*
X0116374Y0091312D02*
X0179140Y0091312D01*
X0179140Y0092911D02*
X0117036Y0092911D01*
X0117040Y0094509D02*
X0179140Y0094509D01*
X0179140Y0096108D02*
X0116559Y0096108D01*
X0115379Y0097706D02*
X0179140Y0097706D01*
X0179140Y0099305D02*
X0114093Y0099305D01*
X0116122Y0100903D02*
X0179140Y0100903D01*
X0179140Y0102502D02*
X0116867Y0102502D01*
X0117040Y0104100D02*
X0179140Y0104100D01*
X0179140Y0105699D02*
X0116728Y0105699D01*
X0119098Y0107297D02*
X0179140Y0107297D01*
X0179140Y0108896D02*
X0120697Y0108896D01*
X0122295Y0110494D02*
X0179140Y0110494D01*
X0179140Y0112093D02*
X0128556Y0112093D01*
X0129321Y0113691D02*
X0179140Y0113691D01*
X0179140Y0115290D02*
X0129340Y0115290D01*
X0128689Y0116888D02*
X0179140Y0116888D01*
X0179140Y0118487D02*
X0130288Y0118487D01*
X0131886Y0120085D02*
X0179140Y0120085D01*
X0179140Y0121684D02*
X0133485Y0121684D01*
X0134785Y0123282D02*
X0179140Y0123282D01*
X0179140Y0124881D02*
X0134940Y0124881D01*
X0134940Y0126479D02*
X0179140Y0126479D01*
X0179140Y0128078D02*
X0134940Y0128078D01*
X0134940Y0129677D02*
X0179140Y0129677D01*
X0179140Y0131275D02*
X0134940Y0131275D01*
X0134940Y0132874D02*
X0179140Y0132874D01*
X0179140Y0134472D02*
X0134940Y0134472D01*
X0134940Y0136071D02*
X0179140Y0136071D01*
X0179140Y0137669D02*
X0134940Y0137669D01*
X0134940Y0139268D02*
X0179140Y0139268D01*
X0179140Y0140866D02*
X0134940Y0140866D01*
X0134940Y0142465D02*
X0179140Y0142465D01*
X0179140Y0144063D02*
X0134940Y0144063D01*
X0134940Y0145662D02*
X0179140Y0145662D01*
X0179140Y0147260D02*
X0171221Y0147260D01*
X0171214Y0147248D02*
X0171451Y0147658D01*
X0171574Y0148116D01*
X0171574Y0151128D01*
X0171574Y0154140D01*
X0171451Y0154598D01*
X0171214Y0155008D01*
X0170879Y0155343D01*
X0170468Y0155580D01*
X0170010Y0155703D01*
X0166999Y0155703D01*
X0166999Y0151128D01*
X0171574Y0151128D01*
X0166999Y0151128D01*
X0166999Y0151128D01*
X0166999Y0151128D01*
X0166999Y0146553D01*
X0170010Y0146553D01*
X0170468Y0146676D01*
X0170879Y0146913D01*
X0171214Y0147248D01*
X0171574Y0148859D02*
X0179140Y0148859D01*
X0179140Y0150457D02*
X0171574Y0150457D01*
X0171574Y0152056D02*
X0179140Y0152056D01*
X0179140Y0153654D02*
X0171574Y0153654D01*
X0170969Y0155253D02*
X0179140Y0155253D01*
X0179140Y0156851D02*
X0169151Y0156851D01*
X0169703Y0157080D02*
X0171047Y0158423D01*
X0171774Y0160178D01*
X0171774Y0162078D01*
X0171047Y0163833D01*
X0169703Y0165176D01*
X0167948Y0165903D01*
X0166049Y0165903D01*
X0164294Y0165176D01*
X0162951Y0163833D01*
X0162224Y0162078D01*
X0162224Y0160178D01*
X0162951Y0158423D01*
X0164294Y0157080D01*
X0166049Y0156353D01*
X0167948Y0156353D01*
X0169703Y0157080D01*
X0171058Y0158450D02*
X0179140Y0158450D01*
X0179140Y0160048D02*
X0171720Y0160048D01*
X0171774Y0161647D02*
X0179140Y0161647D01*
X0179140Y0163245D02*
X0171290Y0163245D01*
X0170035Y0164844D02*
X0179140Y0164844D01*
X0179140Y0166442D02*
X0155843Y0166442D01*
X0157441Y0168041D02*
X0179140Y0168041D01*
X0179140Y0169639D02*
X0159040Y0169639D01*
X0160638Y0171238D02*
X0179140Y0171238D01*
X0179140Y0172836D02*
X0162237Y0172836D01*
X0163836Y0174435D02*
X0168642Y0174435D01*
X0167365Y0176033D02*
X0165434Y0176033D01*
X0167033Y0177632D02*
X0167365Y0177632D01*
X0163441Y0180829D02*
X0154230Y0180829D01*
X0155828Y0182427D02*
X0165040Y0182427D01*
X0165340Y0184026D02*
X0157427Y0184026D01*
X0159025Y0185624D02*
X0165340Y0185624D01*
X0165340Y0187223D02*
X0160624Y0187223D01*
X0162222Y0188821D02*
X0165340Y0188821D01*
X0165340Y0190420D02*
X0163821Y0190420D01*
X0170140Y0190420D02*
X0179140Y0190420D01*
X0179140Y0192018D02*
X0170140Y0192018D01*
X0170140Y0193617D02*
X0179140Y0193617D01*
X0179140Y0195215D02*
X0176600Y0195215D01*
X0176714Y0196814D02*
X0179140Y0196814D01*
X0179140Y0198412D02*
X0176714Y0198412D01*
X0176714Y0200011D02*
X0179140Y0200011D01*
X0179140Y0201610D02*
X0176714Y0201610D01*
X0176043Y0203208D02*
X0179140Y0203208D01*
X0179140Y0204807D02*
X0173407Y0204807D01*
X0174140Y0206405D02*
X0179140Y0206405D01*
X0179140Y0208004D02*
X0174140Y0208004D01*
X0174140Y0209602D02*
X0179140Y0209602D01*
X0179140Y0211201D02*
X0174140Y0211201D01*
X0174140Y0212799D02*
X0179140Y0212799D01*
X0179140Y0214398D02*
X0174140Y0214398D01*
X0174140Y0215996D02*
X0179140Y0215996D01*
X0179140Y0217595D02*
X0174140Y0217595D01*
X0174140Y0219193D02*
X0179140Y0219193D01*
X0179140Y0220792D02*
X0175586Y0220792D01*
X0176740Y0222390D02*
X0179140Y0222390D01*
X0179140Y0223989D02*
X0176740Y0223989D01*
X0176740Y0225587D02*
X0179140Y0225587D01*
X0179140Y0227186D02*
X0175475Y0227186D01*
X0174140Y0228784D02*
X0179140Y0228784D01*
X0179140Y0230383D02*
X0174140Y0230383D01*
X0174140Y0231981D02*
X0179140Y0231981D01*
X0179140Y0233580D02*
X0174140Y0233580D01*
X0174140Y0235178D02*
X0179140Y0235178D01*
X0179140Y0236777D02*
X0174140Y0236777D01*
X0174140Y0238375D02*
X0179140Y0238375D01*
X0179140Y0239974D02*
X0174140Y0239974D01*
X0174140Y0241572D02*
X0179140Y0241572D01*
X0179140Y0243171D02*
X0174140Y0243171D01*
X0174140Y0244769D02*
X0179140Y0244769D01*
X0179140Y0246368D02*
X0174140Y0246368D01*
X0174140Y0247966D02*
X0179140Y0247966D01*
X0179140Y0249565D02*
X0174140Y0249565D01*
X0174140Y0251163D02*
X0179140Y0251163D01*
X0179140Y0252762D02*
X0174140Y0252762D01*
X0174140Y0254360D02*
X0179140Y0254360D01*
X0179140Y0255959D02*
X0174140Y0255959D01*
X0174140Y0257557D02*
X0179140Y0257557D01*
X0179140Y0259156D02*
X0174140Y0259156D01*
X0174140Y0260754D02*
X0179140Y0260754D01*
X0179140Y0262353D02*
X0174140Y0262353D01*
X0174140Y0263951D02*
X0179140Y0263951D01*
X0179140Y0265550D02*
X0174140Y0265550D01*
X0174140Y0267148D02*
X0179140Y0267148D01*
X0179140Y0268747D02*
X0174140Y0268747D01*
X0175140Y0270345D02*
X0179140Y0270345D01*
X0179140Y0271944D02*
X0176739Y0271944D01*
X0176740Y0273543D02*
X0179140Y0273543D01*
X0179140Y0275141D02*
X0176740Y0275141D01*
X0175921Y0276740D02*
X0179140Y0276740D01*
X0179140Y0278338D02*
X0174323Y0278338D01*
X0169730Y0279937D02*
X0179140Y0279937D01*
X0179140Y0281535D02*
X0168132Y0281535D01*
X0166533Y0283134D02*
X0179140Y0283134D01*
X0179140Y0284732D02*
X0164935Y0284732D01*
X0164891Y0286331D02*
X0168988Y0286331D01*
X0167473Y0287929D02*
X0166407Y0287929D01*
X0174891Y0286331D02*
X0179140Y0286331D01*
X0179140Y0287929D02*
X0176407Y0287929D01*
X0177069Y0289528D02*
X0179140Y0289528D01*
X0179140Y0291126D02*
X0177140Y0291126D01*
X0177140Y0292725D02*
X0179140Y0292725D01*
X0179140Y0294323D02*
X0177140Y0294323D01*
X0177140Y0295922D02*
X0179140Y0295922D01*
X0179140Y0297520D02*
X0177140Y0297520D01*
X0176746Y0299119D02*
X0179140Y0299119D01*
X0179140Y0300717D02*
X0175709Y0300717D01*
X0173016Y0302316D02*
X0179140Y0302316D01*
X0179140Y0303914D02*
X0135145Y0303914D01*
X0136951Y0302316D02*
X0140863Y0302316D01*
X0143016Y0302316D02*
X0150863Y0302316D01*
X0153016Y0302316D02*
X0160863Y0302316D01*
X0163016Y0302316D02*
X0170863Y0302316D01*
X0168170Y0300717D02*
X0165709Y0300717D01*
X0166746Y0299119D02*
X0167134Y0299119D01*
X0158170Y0300717D02*
X0155709Y0300717D01*
X0156746Y0299119D02*
X0157134Y0299119D01*
X0148170Y0300717D02*
X0145709Y0300717D01*
X0146746Y0299119D02*
X0147134Y0299119D01*
X0128334Y0303914D02*
X0115145Y0303914D01*
X0116951Y0302316D02*
X0120863Y0302316D01*
X0123016Y0302316D02*
X0126528Y0302316D01*
X0108334Y0303914D02*
X0095145Y0303914D01*
X0096951Y0302316D02*
X0100863Y0302316D01*
X0103016Y0302316D02*
X0106528Y0302316D01*
X0088334Y0303914D02*
X0075145Y0303914D01*
X0076951Y0302316D02*
X0080863Y0302316D01*
X0083016Y0302316D02*
X0086528Y0302316D01*
X0068334Y0303914D02*
X0049740Y0303914D01*
X0049740Y0302316D02*
X0060863Y0302316D01*
X0063016Y0302316D02*
X0066528Y0302316D01*
X0058170Y0300717D02*
X0049740Y0300717D01*
X0049740Y0299119D02*
X0057134Y0299119D01*
X0056740Y0297520D02*
X0049740Y0297520D01*
X0049740Y0295922D02*
X0056740Y0295922D01*
X0056740Y0294323D02*
X0049740Y0294323D01*
X0049740Y0292725D02*
X0056740Y0292725D01*
X0055339Y0291126D02*
X0049740Y0291126D01*
X0049740Y0289528D02*
X0053740Y0289528D01*
X0052142Y0287929D02*
X0049740Y0287929D01*
X0049740Y0286331D02*
X0050543Y0286331D01*
X0052540Y0274339D02*
X0057214Y0269664D01*
X0056349Y0268799D01*
X0055740Y0267329D01*
X0055740Y0267284D01*
X0055517Y0267357D01*
X0054802Y0267470D01*
X0054440Y0267470D01*
X0054440Y0262870D01*
X0054440Y0262870D01*
X0054440Y0267470D01*
X0054078Y0267470D01*
X0053362Y0267357D01*
X0052674Y0267133D01*
X0052540Y0267065D01*
X0052540Y0274339D01*
X0052540Y0273543D02*
X0053336Y0273543D01*
X0052540Y0271944D02*
X0054935Y0271944D01*
X0056533Y0270345D02*
X0052540Y0270345D01*
X0052540Y0268747D02*
X0056327Y0268747D01*
X0054440Y0267148D02*
X0054440Y0267148D01*
X0054440Y0265550D02*
X0054440Y0265550D01*
X0054440Y0263951D02*
X0054440Y0263951D01*
X0052721Y0267148D02*
X0052540Y0267148D01*
X0050114Y0249565D02*
X0049740Y0249565D01*
X0049740Y0247966D02*
X0051712Y0247966D01*
X0053311Y0246368D02*
X0049740Y0246368D01*
X0059938Y0223989D02*
X0064475Y0223989D01*
X0066740Y0223989D02*
X0067140Y0223989D01*
X0067140Y0222390D02*
X0066740Y0222390D01*
X0066740Y0220792D02*
X0067140Y0220792D01*
X0067140Y0219193D02*
X0066740Y0219193D01*
X0066740Y0217595D02*
X0067140Y0217595D01*
X0067140Y0215996D02*
X0066740Y0215996D01*
X0066740Y0214398D02*
X0067140Y0214398D01*
X0067140Y0212799D02*
X0066740Y0212799D01*
X0066740Y0211201D02*
X0067140Y0211201D01*
X0067140Y0209602D02*
X0066740Y0209602D01*
X0063500Y0209602D02*
X0060663Y0209602D01*
X0061726Y0211201D02*
X0062364Y0211201D01*
X0062762Y0222390D02*
X0061426Y0222390D01*
X0069405Y0223989D02*
X0071401Y0223989D01*
X0071940Y0227186D02*
X0071940Y0227186D01*
X0071940Y0228784D02*
X0071940Y0228784D01*
X0071940Y0229996D02*
X0071940Y0229996D01*
X0077899Y0241368D02*
X0077899Y0241368D01*
X0101726Y0211201D02*
X0102153Y0211201D01*
X0103217Y0209602D02*
X0100663Y0209602D01*
X0104620Y0206405D02*
X0094140Y0206405D01*
X0094140Y0204807D02*
X0104540Y0204807D01*
X0104540Y0203208D02*
X0094140Y0203208D01*
X0094140Y0201610D02*
X0104540Y0201610D01*
X0104540Y0200011D02*
X0094140Y0200011D01*
X0094140Y0198412D02*
X0104540Y0198412D01*
X0104540Y0196814D02*
X0094140Y0196814D01*
X0094140Y0195215D02*
X0104540Y0195215D01*
X0104540Y0193617D02*
X0094140Y0193617D01*
X0094140Y0192018D02*
X0104540Y0192018D01*
X0104540Y0190420D02*
X0094140Y0190420D01*
X0094140Y0188821D02*
X0104540Y0188821D01*
X0104540Y0187223D02*
X0094140Y0187223D01*
X0094140Y0185624D02*
X0104540Y0185624D01*
X0104540Y0184026D02*
X0094140Y0184026D01*
X0094140Y0182427D02*
X0104540Y0182427D01*
X0104540Y0180829D02*
X0094140Y0180829D01*
X0094140Y0179230D02*
X0104540Y0179230D01*
X0104540Y0177632D02*
X0094140Y0177632D01*
X0094140Y0176033D02*
X0104540Y0176033D01*
X0104540Y0174435D02*
X0094140Y0174435D01*
X0094140Y0172836D02*
X0104540Y0172836D01*
X0104540Y0171238D02*
X0094140Y0171238D01*
X0094140Y0169639D02*
X0104540Y0169639D01*
X0104540Y0168041D02*
X0094140Y0168041D01*
X0094140Y0166442D02*
X0104540Y0166442D01*
X0104540Y0164844D02*
X0094140Y0164844D01*
X0094140Y0163245D02*
X0104540Y0163245D01*
X0104540Y0161647D02*
X0094140Y0161647D01*
X0094140Y0160048D02*
X0104540Y0160048D01*
X0104540Y0158450D02*
X0093450Y0158450D01*
X0091852Y0156851D02*
X0104540Y0156851D01*
X0104540Y0155253D02*
X0090253Y0155253D01*
X0088655Y0153654D02*
X0104540Y0153654D01*
X0104540Y0152056D02*
X0087056Y0152056D01*
X0085458Y0150457D02*
X0104540Y0150457D01*
X0104540Y0148859D02*
X0083859Y0148859D01*
X0082261Y0147260D02*
X0104540Y0147260D01*
X0104540Y0145662D02*
X0080662Y0145662D01*
X0079064Y0144063D02*
X0104540Y0144063D01*
X0104540Y0142465D02*
X0077465Y0142465D01*
X0075867Y0140866D02*
X0104540Y0140866D01*
X0104540Y0139268D02*
X0074268Y0139268D01*
X0096661Y0137669D02*
X0104540Y0137669D01*
X0104540Y0136071D02*
X0097832Y0136071D01*
X0098140Y0134472D02*
X0104540Y0134472D01*
X0104540Y0132874D02*
X0099193Y0132874D01*
X0100792Y0131275D02*
X0104540Y0131275D01*
X0104540Y0129677D02*
X0102390Y0129677D01*
X0103989Y0128078D02*
X0104696Y0128078D01*
X0105587Y0126479D02*
X0105999Y0126479D01*
X0105504Y0100903D02*
X0107757Y0100903D01*
X0109786Y0099305D02*
X0103905Y0099305D01*
X0102307Y0097706D02*
X0108500Y0097706D01*
X0107320Y0096108D02*
X0100708Y0096108D01*
X0099110Y0094509D02*
X0106840Y0094509D01*
X0106843Y0092911D02*
X0097511Y0092911D01*
X0095913Y0091312D02*
X0107505Y0091312D01*
X0108947Y0089714D02*
X0094314Y0089714D01*
X0092716Y0088115D02*
X0108909Y0088115D01*
X0107490Y0086517D02*
X0091117Y0086517D01*
X0089519Y0084918D02*
X0106840Y0084918D01*
X0106840Y0083320D02*
X0087920Y0083320D01*
X0086322Y0081721D02*
X0107336Y0081721D01*
X0108538Y0080123D02*
X0084723Y0080123D01*
X0059786Y0099305D02*
X0054093Y0099305D01*
X0056122Y0100903D02*
X0057757Y0100903D01*
X0057012Y0102502D02*
X0056867Y0102502D01*
X0111790Y0076926D02*
X0112090Y0076926D01*
X0112090Y0075327D02*
X0111790Y0075327D01*
X0141509Y0147260D02*
X0144114Y0147260D01*
X0144294Y0147080D02*
X0146049Y0146353D01*
X0147948Y0146353D01*
X0149703Y0147080D01*
X0151047Y0148423D01*
X0151774Y0150178D01*
X0151774Y0152078D01*
X0151047Y0153833D01*
X0149703Y0155176D01*
X0147948Y0155903D01*
X0146049Y0155903D01*
X0144294Y0155176D01*
X0142951Y0153833D01*
X0142224Y0152078D01*
X0142224Y0150178D01*
X0142951Y0148423D01*
X0144294Y0147080D01*
X0142770Y0148859D02*
X0141774Y0148859D01*
X0141774Y0150457D02*
X0142224Y0150457D01*
X0142224Y0152056D02*
X0141774Y0152056D01*
X0141774Y0153654D02*
X0142877Y0153654D01*
X0144480Y0155253D02*
X0141252Y0155253D01*
X0139151Y0156851D02*
X0144847Y0156851D01*
X0142940Y0158450D02*
X0141058Y0158450D01*
X0141720Y0160048D02*
X0142278Y0160048D01*
X0142224Y0161647D02*
X0141774Y0161647D01*
X0141290Y0163245D02*
X0142708Y0163245D01*
X0143962Y0164844D02*
X0140035Y0164844D01*
X0139843Y0166442D02*
X0149055Y0166442D01*
X0150653Y0168041D02*
X0141441Y0168041D01*
X0143040Y0169639D02*
X0152252Y0169639D01*
X0153850Y0171238D02*
X0144638Y0171238D01*
X0146237Y0172836D02*
X0155449Y0172836D01*
X0157047Y0174435D02*
X0147836Y0174435D01*
X0149434Y0176033D02*
X0158646Y0176033D01*
X0160244Y0177632D02*
X0151033Y0177632D01*
X0152631Y0179230D02*
X0161843Y0179230D01*
X0170140Y0184026D02*
X0179140Y0184026D01*
X0179140Y0185624D02*
X0170140Y0185624D01*
X0170140Y0187223D02*
X0179140Y0187223D01*
X0179140Y0188821D02*
X0170140Y0188821D01*
X0171940Y0182427D02*
X0171940Y0182427D01*
X0171940Y0180829D02*
X0171940Y0180829D01*
X0171940Y0179230D02*
X0171940Y0179230D01*
X0171940Y0177632D02*
X0171940Y0177632D01*
X0171940Y0176033D02*
X0171940Y0176033D01*
X0171940Y0174435D02*
X0171940Y0174435D01*
X0175237Y0174435D02*
X0179140Y0174435D01*
X0179140Y0176033D02*
X0176514Y0176033D01*
X0176514Y0177632D02*
X0179140Y0177632D01*
X0179140Y0179230D02*
X0176514Y0179230D01*
X0176514Y0180829D02*
X0179140Y0180829D01*
X0179140Y0182427D02*
X0176378Y0182427D01*
X0163962Y0164844D02*
X0160035Y0164844D01*
X0161290Y0163245D02*
X0162708Y0163245D01*
X0162224Y0161647D02*
X0161774Y0161647D01*
X0161720Y0160048D02*
X0162278Y0160048D01*
X0162940Y0158450D02*
X0161058Y0158450D01*
X0159151Y0156851D02*
X0164847Y0156851D01*
X0163987Y0155703D02*
X0163529Y0155580D01*
X0163119Y0155343D01*
X0162784Y0155008D01*
X0162547Y0154598D01*
X0162424Y0154140D01*
X0162424Y0151128D01*
X0166999Y0151128D01*
X0166999Y0151128D01*
X0166999Y0155703D01*
X0163987Y0155703D01*
X0163028Y0155253D02*
X0159518Y0155253D01*
X0159703Y0155176D02*
X0157948Y0155903D01*
X0156049Y0155903D01*
X0154294Y0155176D01*
X0152951Y0153833D01*
X0152224Y0152078D01*
X0152224Y0150178D01*
X0152951Y0148423D01*
X0154294Y0147080D01*
X0156049Y0146353D01*
X0157948Y0146353D01*
X0159703Y0147080D01*
X0161047Y0148423D01*
X0161774Y0150178D01*
X0161774Y0152078D01*
X0161047Y0153833D01*
X0159703Y0155176D01*
X0161121Y0153654D02*
X0162424Y0153654D01*
X0162424Y0152056D02*
X0161774Y0152056D01*
X0162424Y0151128D02*
X0162424Y0148116D01*
X0162547Y0147658D01*
X0162784Y0147248D01*
X0163119Y0146913D01*
X0163529Y0146676D01*
X0163987Y0146553D01*
X0166999Y0146553D01*
X0166999Y0151128D01*
X0166999Y0151128D01*
X0162424Y0151128D01*
X0162424Y0150457D02*
X0161774Y0150457D01*
X0161227Y0148859D02*
X0162424Y0148859D01*
X0162777Y0147260D02*
X0159883Y0147260D01*
X0154114Y0147260D02*
X0149883Y0147260D01*
X0151227Y0148859D02*
X0152770Y0148859D01*
X0152224Y0150457D02*
X0151774Y0150457D01*
X0151774Y0152056D02*
X0152224Y0152056D01*
X0152877Y0153654D02*
X0151121Y0153654D01*
X0149518Y0155253D02*
X0154480Y0155253D01*
X0154847Y0156851D02*
X0149151Y0156851D01*
X0151058Y0158450D02*
X0152940Y0158450D01*
X0152278Y0160048D02*
X0151720Y0160048D01*
X0151774Y0161647D02*
X0152224Y0161647D01*
X0152646Y0163245D02*
X0152708Y0163245D01*
X0166999Y0155253D02*
X0166999Y0155253D01*
X0166999Y0153654D02*
X0166999Y0153654D01*
X0166999Y0152056D02*
X0166999Y0152056D01*
X0166999Y0150457D02*
X0166999Y0150457D01*
X0166999Y0148859D02*
X0166999Y0148859D01*
X0166999Y0147260D02*
X0166999Y0147260D01*
X0105816Y0208004D02*
X0094140Y0208004D01*
X0049740Y0305513D02*
X0179140Y0305513D01*
X0179140Y0307111D02*
X0049740Y0307111D01*
X0049740Y0308710D02*
X0179140Y0308710D01*
X0179140Y0310308D02*
X0049740Y0310308D01*
X0049740Y0311907D02*
X0179140Y0311907D01*
X0179140Y0313505D02*
X0049740Y0313505D01*
X0049740Y0315104D02*
X0179140Y0315104D01*
M02*
