G75*
%MOIN*%
%OFA0B0*%
%FSLAX25Y25*%
%IPPOS*%
%LPD*%
%AMOC8*
5,1,8,0,0,1.08239X$1,22.5*
%
%ADD10C,0.01600*%
%ADD11C,0.00512*%
%ADD12C,0.00600*%
%ADD13C,0.05600*%
%ADD14R,0.05118X0.06299*%
%ADD15C,0.06400*%
%ADD16OC8,0.05600*%
%ADD17R,0.03000X0.03000*%
%ADD18R,0.06299X0.07098*%
%ADD19R,0.07098X0.06299*%
%ADD20C,0.06200*%
%ADD21R,0.05550X0.05550*%
%ADD22C,0.05550*%
%ADD23R,0.07800X0.02200*%
%ADD24R,0.06400X0.03500*%
%ADD25R,0.06400X0.12500*%
%ADD26C,0.11811*%
%ADD27C,0.00000*%
%ADD28C,0.00800*%
%ADD29C,0.04000*%
D10*
X0046940Y0068933D02*
X0181940Y0068933D01*
X0181940Y0318933D01*
X0046940Y0318933D01*
X0046940Y0068933D01*
X0049740Y0078542D02*
X0049740Y0079555D01*
X0050059Y0079392D01*
X0050792Y0079154D01*
X0051554Y0079033D01*
X0051790Y0079033D01*
X0051790Y0083783D01*
X0052090Y0083783D01*
X0052090Y0084083D01*
X0056840Y0084083D01*
X0056840Y0084319D01*
X0056719Y0085080D01*
X0056481Y0085814D01*
X0056131Y0086501D01*
X0055677Y0087125D01*
X0055132Y0087671D01*
X0054508Y0088124D01*
X0053821Y0088474D01*
X0053087Y0088712D01*
X0052325Y0088833D01*
X0052090Y0088833D01*
X0052090Y0084083D01*
X0051790Y0084083D01*
X0051790Y0088833D01*
X0051554Y0088833D01*
X0050792Y0088712D01*
X0050059Y0088474D01*
X0049740Y0088311D01*
X0049740Y0089324D01*
X0050925Y0088833D01*
X0052954Y0088833D01*
X0054829Y0089609D01*
X0056263Y0091044D01*
X0057040Y0092919D01*
X0057040Y0094948D01*
X0056263Y0096822D01*
X0054829Y0098257D01*
X0053196Y0098933D01*
X0054829Y0099609D01*
X0056263Y0101044D01*
X0056940Y0102677D01*
X0057616Y0101044D01*
X0059051Y0099609D01*
X0060925Y0098833D01*
X0062954Y0098833D01*
X0064829Y0099609D01*
X0066263Y0101044D01*
X0067040Y0102919D01*
X0067040Y0104948D01*
X0066263Y0106822D01*
X0064829Y0108257D01*
X0063196Y0108933D01*
X0064829Y0109609D01*
X0066263Y0111044D01*
X0067040Y0112919D01*
X0067040Y0114948D01*
X0066263Y0116822D01*
X0064829Y0118257D01*
X0063196Y0118933D01*
X0064829Y0119609D01*
X0066263Y0121044D01*
X0067040Y0122919D01*
X0067040Y0124948D01*
X0066263Y0126822D01*
X0064829Y0128257D01*
X0062954Y0129033D01*
X0062140Y0129033D01*
X0062140Y0153539D01*
X0064981Y0156380D01*
X0065062Y0156075D01*
X0065299Y0155664D01*
X0065634Y0155329D01*
X0066045Y0155092D01*
X0066503Y0154969D01*
X0068240Y0154969D01*
X0069977Y0154969D01*
X0070434Y0155092D01*
X0070845Y0155329D01*
X0071180Y0155664D01*
X0071417Y0156075D01*
X0071540Y0156532D01*
X0071540Y0158269D01*
X0068240Y0158269D01*
X0068240Y0158269D01*
X0068240Y0154969D01*
X0068240Y0158269D01*
X0068240Y0158269D01*
X0071540Y0158269D01*
X0071540Y0160006D01*
X0071417Y0160464D01*
X0071180Y0160875D01*
X0070845Y0161210D01*
X0070434Y0161447D01*
X0070129Y0161528D01*
X0073774Y0165174D01*
X0074140Y0166056D01*
X0074140Y0171276D01*
X0075131Y0172267D01*
X0075740Y0173737D01*
X0075740Y0175329D01*
X0075131Y0176799D01*
X0074005Y0177924D01*
X0072535Y0178533D01*
X0070944Y0178533D01*
X0069474Y0177924D01*
X0068349Y0176799D01*
X0067740Y0175329D01*
X0067740Y0173737D01*
X0068349Y0172267D01*
X0069340Y0171276D01*
X0069340Y0167527D01*
X0060540Y0158727D01*
X0060540Y0170339D01*
X0077899Y0187698D01*
X0078574Y0188374D01*
X0078940Y0189256D01*
X0078940Y0208433D01*
X0079885Y0208825D01*
X0081348Y0210287D01*
X0081940Y0211716D01*
X0082531Y0210287D01*
X0083994Y0208825D01*
X0085905Y0208033D01*
X0087974Y0208033D01*
X0089885Y0208825D01*
X0091348Y0210287D01*
X0091940Y0211716D01*
X0092531Y0210287D01*
X0093994Y0208825D01*
X0095905Y0208033D01*
X0097974Y0208033D01*
X0099885Y0208825D01*
X0101348Y0210287D01*
X0101940Y0211716D01*
X0102531Y0210287D01*
X0103994Y0208825D01*
X0105863Y0208051D01*
X0091980Y0194168D01*
X0091305Y0193493D01*
X0090940Y0192610D01*
X0090940Y0160133D01*
X0079295Y0160133D01*
X0079295Y0160598D01*
X0078123Y0161769D01*
X0073466Y0161769D01*
X0072295Y0160598D01*
X0072295Y0155941D01*
X0073466Y0154769D01*
X0078123Y0154769D01*
X0078687Y0155333D01*
X0096346Y0155333D01*
X0102196Y0149482D01*
X0098560Y0149482D01*
X0097388Y0148311D01*
X0097388Y0139555D01*
X0098560Y0138384D01*
X0099396Y0138384D01*
X0097613Y0136600D01*
X0097531Y0136799D01*
X0096405Y0137924D01*
X0095295Y0138384D01*
X0095319Y0138384D01*
X0096491Y0139555D01*
X0096491Y0148311D01*
X0095319Y0149482D01*
X0087363Y0149482D01*
X0086192Y0148311D01*
X0086192Y0145733D01*
X0079159Y0145733D01*
X0078123Y0146769D01*
X0075698Y0146769D01*
X0075201Y0147266D01*
X0075340Y0147405D01*
X0075340Y0152061D01*
X0074168Y0153233D01*
X0069511Y0153233D01*
X0068340Y0152061D01*
X0068340Y0147405D01*
X0069175Y0146569D01*
X0068240Y0146569D01*
X0068240Y0143269D01*
X0068240Y0143269D01*
X0071540Y0143269D01*
X0071540Y0141532D01*
X0071417Y0141075D01*
X0071180Y0140664D01*
X0070845Y0140329D01*
X0070434Y0140092D01*
X0069977Y0139969D01*
X0068240Y0139969D01*
X0068240Y0143269D01*
X0068240Y0143269D01*
X0071540Y0143269D01*
X0071540Y0144139D01*
X0072295Y0143384D01*
X0072295Y0140941D01*
X0073466Y0139769D01*
X0078123Y0139769D01*
X0079287Y0140933D01*
X0086192Y0140933D01*
X0086192Y0139555D01*
X0087363Y0138384D01*
X0092984Y0138384D01*
X0091874Y0137924D01*
X0090883Y0136933D01*
X0075340Y0136933D01*
X0075340Y0137061D01*
X0074168Y0138233D01*
X0069511Y0138233D01*
X0068340Y0137061D01*
X0068340Y0132405D01*
X0069511Y0131233D01*
X0074168Y0131233D01*
X0075068Y0132133D01*
X0090883Y0132133D01*
X0091874Y0131142D01*
X0092072Y0131060D01*
X0085095Y0124083D01*
X0079615Y0124083D01*
X0078444Y0122911D01*
X0078444Y0114955D01*
X0079615Y0113783D01*
X0085095Y0113783D01*
X0092105Y0106774D01*
X0092780Y0106098D01*
X0093662Y0105733D01*
X0094340Y0105733D01*
X0094340Y0105455D01*
X0095511Y0104283D01*
X0103568Y0104283D01*
X0104740Y0105455D01*
X0104740Y0110611D01*
X0103568Y0111783D01*
X0095511Y0111783D01*
X0094698Y0110969D01*
X0091683Y0113983D01*
X0093673Y0113983D01*
X0094130Y0114106D01*
X0094541Y0114343D01*
X0094876Y0114678D01*
X0095113Y0115089D01*
X0095236Y0115546D01*
X0095236Y0118454D01*
X0091356Y0118454D01*
X0091356Y0119413D01*
X0095236Y0119413D01*
X0095236Y0122320D01*
X0095113Y0122777D01*
X0094876Y0123188D01*
X0094541Y0123523D01*
X0094130Y0123760D01*
X0093673Y0123883D01*
X0091683Y0123883D01*
X0096540Y0128739D01*
X0107980Y0117298D01*
X0108060Y0117266D01*
X0107616Y0116822D01*
X0106840Y0114948D01*
X0106840Y0112919D01*
X0107616Y0111044D01*
X0109051Y0109609D01*
X0110684Y0108933D01*
X0109051Y0108257D01*
X0107616Y0106822D01*
X0106840Y0104948D01*
X0106840Y0102919D01*
X0107616Y0101044D01*
X0109051Y0099609D01*
X0110684Y0098933D01*
X0109051Y0098257D01*
X0107616Y0096822D01*
X0106840Y0094948D01*
X0106840Y0092919D01*
X0107616Y0091044D01*
X0109051Y0089609D01*
X0110684Y0088933D01*
X0109051Y0088257D01*
X0107616Y0086822D01*
X0106840Y0084948D01*
X0106840Y0082919D01*
X0107616Y0081044D01*
X0109051Y0079609D01*
X0110925Y0078833D01*
X0112954Y0078833D01*
X0114829Y0079609D01*
X0116263Y0081044D01*
X0117040Y0082919D01*
X0117040Y0084948D01*
X0116263Y0086822D01*
X0114829Y0088257D01*
X0113196Y0088933D01*
X0114829Y0089609D01*
X0116263Y0091044D01*
X0117040Y0092919D01*
X0117040Y0094948D01*
X0116263Y0096822D01*
X0114829Y0098257D01*
X0113196Y0098933D01*
X0114829Y0099609D01*
X0116263Y0101044D01*
X0117040Y0102919D01*
X0117040Y0104948D01*
X0116263Y0106822D01*
X0114829Y0108257D01*
X0113196Y0108933D01*
X0114829Y0109609D01*
X0116263Y0111044D01*
X0116841Y0112438D01*
X0116905Y0112374D01*
X0116905Y0112374D01*
X0117580Y0111698D01*
X0118462Y0111333D01*
X0122883Y0111333D01*
X0123074Y0111142D01*
X0124544Y0110533D01*
X0126135Y0110533D01*
X0127605Y0111142D01*
X0127797Y0111333D01*
X0131540Y0111333D01*
X0131540Y0110096D01*
X0131662Y0109638D01*
X0131899Y0109228D01*
X0132234Y0108893D01*
X0132645Y0108656D01*
X0133103Y0108533D01*
X0137240Y0108533D01*
X0141377Y0108533D01*
X0141834Y0108656D01*
X0142245Y0108893D01*
X0142580Y0109228D01*
X0142817Y0109638D01*
X0142940Y0110096D01*
X0142940Y0111433D01*
X0142940Y0111939D01*
X0150740Y0119739D01*
X0150740Y0119505D01*
X0151311Y0118933D01*
X0150740Y0118361D01*
X0150740Y0114505D01*
X0151311Y0113933D01*
X0150740Y0113361D01*
X0150740Y0109505D01*
X0151911Y0108333D01*
X0161368Y0108333D01*
X0162540Y0109505D01*
X0162540Y0113361D01*
X0161968Y0113933D01*
X0162540Y0114505D01*
X0162540Y0118361D01*
X0161968Y0118933D01*
X0162540Y0119505D01*
X0162540Y0123361D01*
X0161968Y0123933D01*
X0162540Y0124505D01*
X0162540Y0125733D01*
X0166390Y0125733D01*
X0166390Y0124357D01*
X0167562Y0123185D01*
X0176317Y0123185D01*
X0177489Y0124357D01*
X0177489Y0132313D01*
X0176317Y0133484D01*
X0167562Y0133484D01*
X0166390Y0132313D01*
X0166390Y0130533D01*
X0158462Y0130533D01*
X0157580Y0130168D01*
X0156946Y0129533D01*
X0156534Y0129533D01*
X0166390Y0139390D01*
X0166390Y0135553D01*
X0167562Y0134382D01*
X0176317Y0134382D01*
X0177489Y0135553D01*
X0177489Y0143510D01*
X0176317Y0144681D01*
X0174940Y0144681D01*
X0174940Y0145539D01*
X0179140Y0149739D01*
X0179140Y0071733D01*
X0116318Y0071733D01*
X0116481Y0072052D01*
X0116719Y0072786D01*
X0116840Y0073547D01*
X0116840Y0073783D01*
X0112090Y0073783D01*
X0112090Y0074083D01*
X0116840Y0074083D01*
X0116840Y0074319D01*
X0116719Y0075080D01*
X0116481Y0075814D01*
X0116131Y0076501D01*
X0115677Y0077125D01*
X0115132Y0077671D01*
X0114508Y0078124D01*
X0113821Y0078474D01*
X0113087Y0078712D01*
X0112325Y0078833D01*
X0112090Y0078833D01*
X0112090Y0074083D01*
X0111790Y0074083D01*
X0111790Y0078833D01*
X0111554Y0078833D01*
X0110792Y0078712D01*
X0110059Y0078474D01*
X0109371Y0078124D01*
X0108748Y0077671D01*
X0108202Y0077125D01*
X0107749Y0076501D01*
X0107399Y0075814D01*
X0107160Y0075080D01*
X0107040Y0074319D01*
X0107040Y0074083D01*
X0111790Y0074083D01*
X0111790Y0073783D01*
X0107040Y0073783D01*
X0107040Y0073547D01*
X0107160Y0072786D01*
X0107399Y0072052D01*
X0107561Y0071733D01*
X0056549Y0071733D01*
X0056714Y0072133D01*
X0079417Y0072133D01*
X0080299Y0072498D01*
X0081584Y0073783D01*
X0086390Y0073783D01*
X0087081Y0074474D01*
X0087212Y0074343D01*
X0087623Y0074106D01*
X0088081Y0073983D01*
X0090397Y0073983D01*
X0090397Y0078453D01*
X0091356Y0078453D01*
X0091356Y0073983D01*
X0093673Y0073983D01*
X0094130Y0074106D01*
X0094541Y0074343D01*
X0094876Y0074678D01*
X0095113Y0075089D01*
X0095236Y0075546D01*
X0095236Y0078454D01*
X0091356Y0078454D01*
X0091356Y0079413D01*
X0090397Y0079413D01*
X0090397Y0083883D01*
X0088081Y0083883D01*
X0087623Y0083760D01*
X0087212Y0083523D01*
X0087081Y0083392D01*
X0086390Y0084083D01*
X0085340Y0084083D01*
X0085340Y0091010D01*
X0084974Y0091893D01*
X0079540Y0097327D01*
X0079540Y0106011D01*
X0078368Y0107183D01*
X0070311Y0107183D01*
X0069140Y0106011D01*
X0069140Y0091855D01*
X0070311Y0090683D01*
X0078368Y0090683D01*
X0078882Y0091197D01*
X0080540Y0089539D01*
X0080540Y0084083D01*
X0079615Y0084083D01*
X0078444Y0082911D01*
X0078444Y0077431D01*
X0077946Y0076933D01*
X0056152Y0076933D01*
X0054829Y0078257D01*
X0052954Y0079033D01*
X0050925Y0079033D01*
X0049740Y0078542D01*
X0052090Y0079033D02*
X0052325Y0079033D01*
X0053087Y0079154D01*
X0053821Y0079392D01*
X0054508Y0079742D01*
X0055132Y0080196D01*
X0055677Y0080741D01*
X0056131Y0081365D01*
X0056481Y0082052D01*
X0056719Y0082786D01*
X0056840Y0083547D01*
X0056840Y0083783D01*
X0052090Y0083783D01*
X0052090Y0079033D01*
X0052090Y0080123D02*
X0051790Y0080123D01*
X0051790Y0081721D02*
X0052090Y0081721D01*
X0052090Y0083320D02*
X0051790Y0083320D01*
X0051790Y0084918D02*
X0052090Y0084918D01*
X0052090Y0086517D02*
X0051790Y0086517D01*
X0051790Y0088115D02*
X0052090Y0088115D01*
X0054520Y0088115D02*
X0058909Y0088115D01*
X0059051Y0088257D02*
X0057616Y0086822D01*
X0056840Y0084948D01*
X0056840Y0082919D01*
X0057616Y0081044D01*
X0059051Y0079609D01*
X0060925Y0078833D01*
X0062954Y0078833D01*
X0064829Y0079609D01*
X0066263Y0081044D01*
X0067040Y0082919D01*
X0067040Y0084948D01*
X0066263Y0086822D01*
X0064829Y0088257D01*
X0062954Y0089033D01*
X0060925Y0089033D01*
X0059051Y0088257D01*
X0057490Y0086517D02*
X0056119Y0086517D01*
X0056745Y0084918D02*
X0056840Y0084918D01*
X0056804Y0083320D02*
X0056840Y0083320D01*
X0057336Y0081721D02*
X0056312Y0081721D01*
X0055031Y0080123D02*
X0058538Y0080123D01*
X0054183Y0078524D02*
X0078444Y0078524D01*
X0078444Y0080123D02*
X0065342Y0080123D01*
X0066544Y0081721D02*
X0078444Y0081721D01*
X0078852Y0083320D02*
X0067040Y0083320D01*
X0067040Y0084918D02*
X0080540Y0084918D01*
X0080540Y0086517D02*
X0066390Y0086517D01*
X0064970Y0088115D02*
X0080540Y0088115D01*
X0080365Y0089714D02*
X0054933Y0089714D01*
X0056374Y0091312D02*
X0069682Y0091312D01*
X0069140Y0092911D02*
X0057036Y0092911D01*
X0057040Y0094509D02*
X0069140Y0094509D01*
X0069140Y0096108D02*
X0056559Y0096108D01*
X0055379Y0097706D02*
X0069140Y0097706D01*
X0069140Y0099305D02*
X0064093Y0099305D01*
X0066122Y0100903D02*
X0069140Y0100903D01*
X0069140Y0102502D02*
X0066867Y0102502D01*
X0067040Y0104100D02*
X0069140Y0104100D01*
X0069140Y0105699D02*
X0066728Y0105699D01*
X0065788Y0107297D02*
X0091581Y0107297D01*
X0089983Y0108896D02*
X0063285Y0108896D01*
X0065713Y0110494D02*
X0088384Y0110494D01*
X0086786Y0112093D02*
X0066698Y0112093D01*
X0067040Y0113691D02*
X0085187Y0113691D01*
X0078444Y0115290D02*
X0066898Y0115290D01*
X0066197Y0116888D02*
X0078444Y0116888D01*
X0078444Y0118487D02*
X0064273Y0118487D01*
X0065305Y0120085D02*
X0078444Y0120085D01*
X0078444Y0121684D02*
X0066528Y0121684D01*
X0067040Y0123282D02*
X0078815Y0123282D01*
X0085893Y0124881D02*
X0067040Y0124881D01*
X0066405Y0126479D02*
X0087492Y0126479D01*
X0089090Y0128078D02*
X0065007Y0128078D01*
X0062140Y0129677D02*
X0090689Y0129677D01*
X0091741Y0131275D02*
X0074210Y0131275D01*
X0069469Y0131275D02*
X0062140Y0131275D01*
X0062140Y0132874D02*
X0068340Y0132874D01*
X0068340Y0134472D02*
X0062140Y0134472D01*
X0062140Y0136071D02*
X0068340Y0136071D01*
X0068947Y0137669D02*
X0062140Y0137669D01*
X0062140Y0139268D02*
X0086479Y0139268D01*
X0086192Y0140866D02*
X0079220Y0140866D01*
X0074732Y0137669D02*
X0091619Y0137669D01*
X0096203Y0139268D02*
X0097676Y0139268D01*
X0097388Y0140866D02*
X0096491Y0140866D01*
X0096491Y0142465D02*
X0097388Y0142465D01*
X0097388Y0144063D02*
X0096491Y0144063D01*
X0096491Y0145662D02*
X0097388Y0145662D01*
X0097388Y0147260D02*
X0096491Y0147260D01*
X0095943Y0148859D02*
X0097936Y0148859D01*
X0099623Y0152056D02*
X0075340Y0152056D01*
X0075340Y0150457D02*
X0101221Y0150457D01*
X0098024Y0153654D02*
X0062255Y0153654D01*
X0062140Y0152056D02*
X0068340Y0152056D01*
X0068340Y0150457D02*
X0062140Y0150457D01*
X0062140Y0148859D02*
X0068340Y0148859D01*
X0068484Y0147260D02*
X0062140Y0147260D01*
X0062140Y0145662D02*
X0065176Y0145662D01*
X0065062Y0145464D02*
X0064940Y0145006D01*
X0064940Y0143269D01*
X0064940Y0141532D01*
X0065062Y0141075D01*
X0065299Y0140664D01*
X0065634Y0140329D01*
X0066045Y0140092D01*
X0066503Y0139969D01*
X0068240Y0139969D01*
X0068240Y0143269D01*
X0068240Y0143269D01*
X0064940Y0143269D01*
X0068240Y0143269D01*
X0068240Y0143269D01*
X0068240Y0146569D01*
X0066503Y0146569D01*
X0066045Y0146447D01*
X0065634Y0146210D01*
X0065299Y0145875D01*
X0065062Y0145464D01*
X0064940Y0144063D02*
X0062140Y0144063D01*
X0062140Y0142465D02*
X0064940Y0142465D01*
X0065183Y0140866D02*
X0062140Y0140866D01*
X0068240Y0140866D02*
X0068240Y0140866D01*
X0068240Y0142465D02*
X0068240Y0142465D01*
X0068240Y0144063D02*
X0068240Y0144063D01*
X0068240Y0145662D02*
X0068240Y0145662D01*
X0071540Y0144063D02*
X0071616Y0144063D01*
X0071540Y0142465D02*
X0072295Y0142465D01*
X0072370Y0140866D02*
X0071297Y0140866D01*
X0075207Y0147260D02*
X0086192Y0147260D01*
X0086740Y0148859D02*
X0075340Y0148859D01*
X0072983Y0155253D02*
X0070713Y0155253D01*
X0071540Y0156851D02*
X0072295Y0156851D01*
X0072295Y0158450D02*
X0071540Y0158450D01*
X0071528Y0160048D02*
X0072295Y0160048D01*
X0073344Y0161647D02*
X0070247Y0161647D01*
X0071846Y0163245D02*
X0090940Y0163245D01*
X0090940Y0161647D02*
X0078246Y0161647D01*
X0073444Y0164844D02*
X0090940Y0164844D01*
X0090940Y0166442D02*
X0074140Y0166442D01*
X0074140Y0168041D02*
X0090940Y0168041D01*
X0090940Y0169639D02*
X0074140Y0169639D01*
X0074140Y0171238D02*
X0090940Y0171238D01*
X0090940Y0172836D02*
X0075366Y0172836D01*
X0075740Y0174435D02*
X0090940Y0174435D01*
X0090940Y0176033D02*
X0075448Y0176033D01*
X0074298Y0177632D02*
X0090940Y0177632D01*
X0090940Y0179230D02*
X0069431Y0179230D01*
X0069182Y0177632D02*
X0067833Y0177632D01*
X0068032Y0176033D02*
X0066234Y0176033D01*
X0067740Y0174435D02*
X0064636Y0174435D01*
X0063037Y0172836D02*
X0068113Y0172836D01*
X0069340Y0171238D02*
X0061438Y0171238D01*
X0060540Y0169639D02*
X0069340Y0169639D01*
X0069340Y0168041D02*
X0060540Y0168041D01*
X0060540Y0166442D02*
X0068255Y0166442D01*
X0066656Y0164844D02*
X0060540Y0164844D01*
X0060540Y0163245D02*
X0065058Y0163245D01*
X0063459Y0161647D02*
X0060540Y0161647D01*
X0060540Y0160048D02*
X0061861Y0160048D01*
X0063853Y0155253D02*
X0065766Y0155253D01*
X0068240Y0155253D02*
X0068240Y0155253D01*
X0068240Y0156851D02*
X0068240Y0156851D01*
X0078607Y0155253D02*
X0096426Y0155253D01*
X0096661Y0137669D02*
X0098682Y0137669D01*
X0097201Y0128078D02*
X0095879Y0128078D01*
X0094280Y0126479D02*
X0098799Y0126479D01*
X0100398Y0124881D02*
X0092682Y0124881D01*
X0094782Y0123282D02*
X0101996Y0123282D01*
X0103595Y0121684D02*
X0095236Y0121684D01*
X0095236Y0120085D02*
X0105193Y0120085D01*
X0106792Y0118487D02*
X0091356Y0118487D01*
X0095236Y0116888D02*
X0107683Y0116888D01*
X0106981Y0115290D02*
X0095167Y0115290D01*
X0091975Y0113691D02*
X0106840Y0113691D01*
X0107182Y0112093D02*
X0093574Y0112093D01*
X0094340Y0105699D02*
X0079540Y0105699D01*
X0079540Y0104100D02*
X0106840Y0104100D01*
X0107012Y0102502D02*
X0103749Y0102502D01*
X0103568Y0102683D02*
X0095511Y0102683D01*
X0094340Y0101511D01*
X0094340Y0096355D01*
X0095511Y0095183D01*
X0103568Y0095183D01*
X0104740Y0096355D01*
X0104740Y0101511D01*
X0103568Y0102683D01*
X0104740Y0100903D02*
X0107757Y0100903D01*
X0109786Y0099305D02*
X0104740Y0099305D01*
X0104740Y0097706D02*
X0108500Y0097706D01*
X0107320Y0096108D02*
X0104493Y0096108D01*
X0106840Y0094509D02*
X0082358Y0094509D01*
X0083956Y0092911D02*
X0095122Y0092911D01*
X0095234Y0093023D02*
X0094899Y0092688D01*
X0094662Y0092278D01*
X0094540Y0091820D01*
X0094540Y0089908D01*
X0099465Y0089908D01*
X0099465Y0093383D01*
X0096103Y0093383D01*
X0095645Y0093260D01*
X0095234Y0093023D01*
X0094540Y0091312D02*
X0085215Y0091312D01*
X0085340Y0089714D02*
X0094540Y0089714D01*
X0094540Y0089758D02*
X0094540Y0087846D01*
X0094662Y0087388D01*
X0094899Y0086978D01*
X0095234Y0086643D01*
X0095645Y0086406D01*
X0096103Y0086283D01*
X0099465Y0086283D01*
X0099465Y0089758D01*
X0099615Y0089758D01*
X0099615Y0089908D01*
X0104540Y0089908D01*
X0104540Y0091820D01*
X0104417Y0092278D01*
X0104180Y0092688D01*
X0103845Y0093023D01*
X0103434Y0093260D01*
X0102977Y0093383D01*
X0099615Y0093383D01*
X0099615Y0089908D01*
X0099465Y0089908D01*
X0099465Y0089758D01*
X0094540Y0089758D01*
X0094540Y0088115D02*
X0085340Y0088115D01*
X0085340Y0086517D02*
X0095453Y0086517D01*
X0094130Y0083760D02*
X0094541Y0083523D01*
X0094876Y0083188D01*
X0095113Y0082777D01*
X0095236Y0082320D01*
X0095236Y0079413D01*
X0091356Y0079413D01*
X0091356Y0083883D01*
X0093673Y0083883D01*
X0094130Y0083760D01*
X0094744Y0083320D02*
X0106840Y0083320D01*
X0106840Y0084918D02*
X0085340Y0084918D01*
X0090397Y0083320D02*
X0091356Y0083320D01*
X0091356Y0081721D02*
X0090397Y0081721D01*
X0090397Y0080123D02*
X0091356Y0080123D01*
X0091356Y0078524D02*
X0110213Y0078524D01*
X0111790Y0078524D02*
X0112090Y0078524D01*
X0113666Y0078524D02*
X0179140Y0078524D01*
X0179140Y0076926D02*
X0115822Y0076926D01*
X0116639Y0075327D02*
X0179140Y0075327D01*
X0179140Y0073729D02*
X0116840Y0073729D01*
X0116506Y0072130D02*
X0179140Y0072130D01*
X0179140Y0080123D02*
X0115342Y0080123D01*
X0116544Y0081721D02*
X0179140Y0081721D01*
X0179140Y0083320D02*
X0117040Y0083320D01*
X0117040Y0084918D02*
X0179140Y0084918D01*
X0179140Y0086517D02*
X0116390Y0086517D01*
X0114970Y0088115D02*
X0179140Y0088115D01*
X0179140Y0089714D02*
X0114933Y0089714D01*
X0116374Y0091312D02*
X0179140Y0091312D01*
X0179140Y0092911D02*
X0117036Y0092911D01*
X0117040Y0094509D02*
X0179140Y0094509D01*
X0179140Y0096108D02*
X0116559Y0096108D01*
X0115379Y0097706D02*
X0179140Y0097706D01*
X0179140Y0099305D02*
X0114093Y0099305D01*
X0116122Y0100903D02*
X0179140Y0100903D01*
X0179140Y0102502D02*
X0116867Y0102502D01*
X0117040Y0104100D02*
X0179140Y0104100D01*
X0179140Y0105699D02*
X0116728Y0105699D01*
X0115788Y0107297D02*
X0179140Y0107297D01*
X0179140Y0108896D02*
X0161931Y0108896D01*
X0162540Y0110494D02*
X0179140Y0110494D01*
X0179140Y0112093D02*
X0162540Y0112093D01*
X0162210Y0113691D02*
X0179140Y0113691D01*
X0179140Y0115290D02*
X0162540Y0115290D01*
X0162540Y0116888D02*
X0179140Y0116888D01*
X0179140Y0118487D02*
X0162414Y0118487D01*
X0162540Y0120085D02*
X0179140Y0120085D01*
X0179140Y0121684D02*
X0162540Y0121684D01*
X0162540Y0123282D02*
X0167465Y0123282D01*
X0166390Y0124881D02*
X0162540Y0124881D01*
X0157089Y0129677D02*
X0156677Y0129677D01*
X0158276Y0131275D02*
X0166390Y0131275D01*
X0166951Y0132874D02*
X0159874Y0132874D01*
X0161473Y0134472D02*
X0167472Y0134472D01*
X0166390Y0136071D02*
X0163071Y0136071D01*
X0164670Y0137669D02*
X0166390Y0137669D01*
X0166390Y0139268D02*
X0166268Y0139268D01*
X0175062Y0145662D02*
X0179140Y0145662D01*
X0179140Y0147260D02*
X0176661Y0147260D01*
X0178259Y0148859D02*
X0179140Y0148859D01*
X0179140Y0144063D02*
X0176935Y0144063D01*
X0177489Y0142465D02*
X0179140Y0142465D01*
X0179140Y0140866D02*
X0177489Y0140866D01*
X0177489Y0139268D02*
X0179140Y0139268D01*
X0179140Y0137669D02*
X0177489Y0137669D01*
X0177489Y0136071D02*
X0179140Y0136071D01*
X0179140Y0134472D02*
X0176407Y0134472D01*
X0176928Y0132874D02*
X0179140Y0132874D01*
X0179140Y0131275D02*
X0177489Y0131275D01*
X0177489Y0129677D02*
X0179140Y0129677D01*
X0179140Y0128078D02*
X0177489Y0128078D01*
X0177489Y0126479D02*
X0179140Y0126479D01*
X0179140Y0124881D02*
X0177489Y0124881D01*
X0176415Y0123282D02*
X0179140Y0123282D01*
X0171574Y0151361D02*
X0171574Y0154140D01*
X0171451Y0154598D01*
X0171214Y0155008D01*
X0170879Y0155343D01*
X0170468Y0155580D01*
X0170010Y0155703D01*
X0167503Y0155703D01*
X0168299Y0156498D01*
X0169703Y0157080D01*
X0171047Y0158423D01*
X0171774Y0160178D01*
X0171774Y0162078D01*
X0171047Y0163833D01*
X0169703Y0165176D01*
X0167948Y0165903D01*
X0166049Y0165903D01*
X0164294Y0165176D01*
X0163193Y0164074D01*
X0140974Y0186293D01*
X0140299Y0186968D01*
X0139417Y0187333D01*
X0136714Y0187333D01*
X0136714Y0192536D01*
X0135543Y0193708D01*
X0131959Y0193708D01*
X0117634Y0208033D01*
X0117974Y0208033D01*
X0119885Y0208825D01*
X0121348Y0210287D01*
X0121940Y0211716D01*
X0122531Y0210287D01*
X0123994Y0208825D01*
X0125905Y0208033D01*
X0127974Y0208033D01*
X0129885Y0208825D01*
X0131348Y0210287D01*
X0132140Y0212199D01*
X0132140Y0220339D01*
X0135414Y0217065D01*
X0135334Y0217032D01*
X0133941Y0215639D01*
X0133187Y0213818D01*
X0133187Y0211848D01*
X0133941Y0210028D01*
X0135334Y0208634D01*
X0137154Y0207880D01*
X0139125Y0207880D01*
X0140945Y0208634D01*
X0142338Y0210028D01*
X0142840Y0211239D01*
X0144540Y0209539D01*
X0144540Y0209256D01*
X0144905Y0208374D01*
X0169771Y0183508D01*
X0168928Y0183508D01*
X0168470Y0183385D01*
X0168060Y0183148D01*
X0167724Y0182813D01*
X0167488Y0182403D01*
X0167365Y0181945D01*
X0167365Y0178933D01*
X0167365Y0175921D01*
X0167488Y0175463D01*
X0167724Y0175053D01*
X0168060Y0174718D01*
X0168470Y0174481D01*
X0168928Y0174358D01*
X0171940Y0174358D01*
X0174140Y0174358D01*
X0174140Y0153927D01*
X0171574Y0151361D01*
X0171574Y0152056D02*
X0172268Y0152056D01*
X0171574Y0153654D02*
X0173867Y0153654D01*
X0174140Y0155253D02*
X0170969Y0155253D01*
X0169151Y0156851D02*
X0174140Y0156851D01*
X0174140Y0158450D02*
X0171058Y0158450D01*
X0171720Y0160048D02*
X0174140Y0160048D01*
X0174140Y0161647D02*
X0171774Y0161647D01*
X0171290Y0163245D02*
X0174140Y0163245D01*
X0174140Y0164844D02*
X0170035Y0164844D01*
X0174140Y0166442D02*
X0160825Y0166442D01*
X0162423Y0164844D02*
X0163962Y0164844D01*
X0159226Y0168041D02*
X0174140Y0168041D01*
X0174140Y0169639D02*
X0157628Y0169639D01*
X0156029Y0171238D02*
X0174140Y0171238D01*
X0174140Y0172836D02*
X0154431Y0172836D01*
X0152832Y0174435D02*
X0168642Y0174435D01*
X0167365Y0176033D02*
X0151233Y0176033D01*
X0149635Y0177632D02*
X0167365Y0177632D01*
X0167365Y0178933D02*
X0171940Y0178933D01*
X0171940Y0174358D01*
X0171940Y0178933D01*
X0171940Y0178933D01*
X0171940Y0178933D01*
X0167365Y0178933D01*
X0167365Y0179230D02*
X0148036Y0179230D01*
X0146438Y0180829D02*
X0167365Y0180829D01*
X0167502Y0182427D02*
X0144839Y0182427D01*
X0143241Y0184026D02*
X0169253Y0184026D01*
X0167654Y0185624D02*
X0141642Y0185624D01*
X0140974Y0186293D02*
X0140974Y0186293D01*
X0139683Y0187223D02*
X0166056Y0187223D01*
X0164457Y0188821D02*
X0136714Y0188821D01*
X0136714Y0190420D02*
X0162859Y0190420D01*
X0161260Y0192018D02*
X0136714Y0192018D01*
X0135634Y0193617D02*
X0159662Y0193617D01*
X0158063Y0195215D02*
X0130451Y0195215D01*
X0128853Y0196814D02*
X0156465Y0196814D01*
X0154866Y0198412D02*
X0127254Y0198412D01*
X0125656Y0200011D02*
X0153268Y0200011D01*
X0151669Y0201610D02*
X0124057Y0201610D01*
X0122459Y0203208D02*
X0150071Y0203208D01*
X0148472Y0204807D02*
X0120860Y0204807D01*
X0119262Y0206405D02*
X0146874Y0206405D01*
X0145275Y0208004D02*
X0139422Y0208004D01*
X0136857Y0208004D02*
X0117663Y0208004D01*
X0120663Y0209602D02*
X0123217Y0209602D01*
X0122153Y0211201D02*
X0121726Y0211201D01*
X0130663Y0209602D02*
X0134366Y0209602D01*
X0133455Y0211201D02*
X0131726Y0211201D01*
X0132140Y0212799D02*
X0133187Y0212799D01*
X0133427Y0214398D02*
X0132140Y0214398D01*
X0132140Y0215996D02*
X0134298Y0215996D01*
X0134884Y0217595D02*
X0132140Y0217595D01*
X0132140Y0219193D02*
X0133285Y0219193D01*
X0136877Y0222390D02*
X0137143Y0222390D01*
X0137332Y0221935D02*
X0121007Y0238260D01*
X0121205Y0238342D01*
X0122331Y0239467D01*
X0122940Y0240937D01*
X0122940Y0242529D01*
X0122331Y0243999D01*
X0121205Y0245124D01*
X0119735Y0245733D01*
X0118334Y0245733D01*
X0117807Y0246260D01*
X0118005Y0246342D01*
X0119131Y0247467D01*
X0119740Y0248937D01*
X0119740Y0250529D01*
X0119131Y0251999D01*
X0118005Y0253124D01*
X0116535Y0253733D01*
X0115134Y0253733D01*
X0113340Y0255527D01*
X0113340Y0271524D01*
X0114085Y0272268D01*
X0114085Y0276925D01*
X0112913Y0278097D01*
X0108370Y0278097D01*
X0106699Y0279768D01*
X0105817Y0280133D01*
X0104734Y0280133D01*
X0110360Y0285759D01*
X0110905Y0285533D01*
X0111111Y0285533D01*
X0111040Y0285461D01*
X0111040Y0280805D01*
X0112211Y0279633D01*
X0116868Y0279633D01*
X0118040Y0280805D01*
X0118040Y0280933D01*
X0122617Y0280933D01*
X0123499Y0281298D01*
X0123540Y0281339D01*
X0123540Y0280805D01*
X0123548Y0280797D01*
X0122940Y0279329D01*
X0122940Y0278097D01*
X0120756Y0278097D01*
X0120397Y0277738D01*
X0120334Y0277774D01*
X0119877Y0277897D01*
X0118140Y0277897D01*
X0118140Y0274597D01*
X0118140Y0274597D01*
X0118140Y0271297D01*
X0119877Y0271297D01*
X0120334Y0271420D01*
X0120397Y0271456D01*
X0120756Y0271097D01*
X0125413Y0271097D01*
X0126585Y0272268D01*
X0126585Y0274533D01*
X0127340Y0274533D01*
X0127340Y0272860D01*
X0127462Y0272402D01*
X0127699Y0271992D01*
X0128034Y0271656D01*
X0128445Y0271420D01*
X0128903Y0271297D01*
X0130640Y0271297D01*
X0132377Y0271297D01*
X0132834Y0271420D01*
X0133245Y0271656D01*
X0133580Y0271992D01*
X0133817Y0272402D01*
X0133837Y0272478D01*
X0133941Y0272228D01*
X0135334Y0270834D01*
X0137154Y0270080D01*
X0139125Y0270080D01*
X0140945Y0270834D01*
X0142338Y0272228D01*
X0143092Y0274048D01*
X0143092Y0276018D01*
X0142338Y0277839D01*
X0140945Y0279232D01*
X0139125Y0279986D01*
X0137154Y0279986D01*
X0135334Y0279232D01*
X0133941Y0277839D01*
X0133637Y0277104D01*
X0133580Y0277202D01*
X0133245Y0277537D01*
X0132834Y0277774D01*
X0132377Y0277897D01*
X0130940Y0277897D01*
X0130940Y0279329D01*
X0130390Y0280655D01*
X0130540Y0280805D01*
X0130540Y0280933D01*
X0161817Y0280933D01*
X0162699Y0281298D01*
X0168360Y0286959D01*
X0168994Y0286325D01*
X0170905Y0285533D01*
X0172974Y0285533D01*
X0174885Y0286325D01*
X0176348Y0287788D01*
X0177140Y0289699D01*
X0177140Y0298167D01*
X0176348Y0300079D01*
X0174885Y0301541D01*
X0172974Y0302333D01*
X0170905Y0302333D01*
X0168994Y0301541D01*
X0167531Y0300079D01*
X0166940Y0298650D01*
X0166348Y0300079D01*
X0164885Y0301541D01*
X0162974Y0302333D01*
X0160905Y0302333D01*
X0158994Y0301541D01*
X0157531Y0300079D01*
X0156940Y0298650D01*
X0156348Y0300079D01*
X0154885Y0301541D01*
X0152974Y0302333D01*
X0150905Y0302333D01*
X0148994Y0301541D01*
X0147531Y0300079D01*
X0146940Y0298650D01*
X0146348Y0300079D01*
X0144885Y0301541D01*
X0142974Y0302333D01*
X0140905Y0302333D01*
X0138994Y0301541D01*
X0137531Y0300079D01*
X0136940Y0298650D01*
X0136348Y0300079D01*
X0134885Y0301541D01*
X0132974Y0302333D01*
X0130905Y0302333D01*
X0128994Y0301541D01*
X0128560Y0301107D01*
X0125899Y0303768D01*
X0125017Y0304133D01*
X0109662Y0304133D01*
X0108780Y0303768D01*
X0108105Y0303093D01*
X0105720Y0300707D01*
X0104885Y0301541D01*
X0102974Y0302333D01*
X0100905Y0302333D01*
X0098994Y0301541D01*
X0097531Y0300079D01*
X0096940Y0298650D01*
X0096348Y0300079D01*
X0094885Y0301541D01*
X0092974Y0302333D01*
X0090905Y0302333D01*
X0088994Y0301541D01*
X0088560Y0301107D01*
X0085899Y0303768D01*
X0085017Y0304133D01*
X0079262Y0304133D01*
X0078380Y0303768D01*
X0077705Y0303093D01*
X0075520Y0300907D01*
X0074885Y0301541D01*
X0072974Y0302333D01*
X0070905Y0302333D01*
X0068994Y0301541D01*
X0067531Y0300079D01*
X0066940Y0298650D01*
X0066348Y0300079D01*
X0064885Y0301541D01*
X0062974Y0302333D01*
X0060905Y0302333D01*
X0058994Y0301541D01*
X0057531Y0300079D01*
X0056740Y0298167D01*
X0056740Y0289699D01*
X0057531Y0287788D01*
X0058686Y0286633D01*
X0057211Y0286633D01*
X0056040Y0285461D01*
X0056040Y0283333D01*
X0054944Y0283333D01*
X0053474Y0282724D01*
X0052349Y0281599D01*
X0051740Y0280129D01*
X0051740Y0278537D01*
X0052313Y0277154D01*
X0052085Y0276925D01*
X0052085Y0272268D01*
X0053256Y0271097D01*
X0053709Y0271097D01*
X0052346Y0269733D01*
X0052062Y0269733D01*
X0051180Y0269368D01*
X0049740Y0267927D01*
X0049740Y0316133D01*
X0179140Y0316133D01*
X0179140Y0259359D01*
X0179016Y0259482D01*
X0177340Y0259482D01*
X0177340Y0261410D01*
X0176974Y0262293D01*
X0170134Y0269133D01*
X0173928Y0269133D01*
X0176740Y0271945D01*
X0176740Y0275921D01*
X0173928Y0278733D01*
X0169951Y0278733D01*
X0167140Y0275921D01*
X0167140Y0272127D01*
X0166740Y0272527D01*
X0166740Y0275921D01*
X0163928Y0278733D01*
X0159951Y0278733D01*
X0157140Y0275921D01*
X0157140Y0271945D01*
X0159951Y0269133D01*
X0163346Y0269133D01*
X0172540Y0259939D01*
X0172540Y0259482D01*
X0171060Y0259482D01*
X0169888Y0258311D01*
X0169888Y0249555D01*
X0170511Y0248933D01*
X0169888Y0248311D01*
X0169888Y0241676D01*
X0168991Y0240778D01*
X0168991Y0248311D01*
X0168227Y0249074D01*
X0168431Y0249279D01*
X0168668Y0249689D01*
X0168791Y0250147D01*
X0168791Y0253158D01*
X0164616Y0253158D01*
X0164616Y0254708D01*
X0163066Y0254708D01*
X0163066Y0253158D01*
X0158892Y0253158D01*
X0158892Y0250147D01*
X0159014Y0249689D01*
X0159251Y0249279D01*
X0159455Y0249074D01*
X0158692Y0248311D01*
X0158692Y0239555D01*
X0159863Y0238384D01*
X0161340Y0238384D01*
X0161340Y0228733D01*
X0159951Y0228733D01*
X0157140Y0225921D01*
X0157140Y0221945D01*
X0159951Y0219133D01*
X0163928Y0219133D01*
X0166740Y0221945D01*
X0166740Y0225921D01*
X0166140Y0226521D01*
X0166140Y0231335D01*
X0166144Y0231333D01*
X0167735Y0231333D01*
X0169205Y0231942D01*
X0170331Y0233067D01*
X0170940Y0234537D01*
X0170940Y0235939D01*
X0173385Y0238384D01*
X0179016Y0238384D01*
X0179140Y0238507D01*
X0179140Y0195327D01*
X0176714Y0197752D01*
X0176714Y0202536D01*
X0175543Y0203708D01*
X0168336Y0203708D01*
X0167165Y0202536D01*
X0167165Y0195330D01*
X0168336Y0194158D01*
X0173520Y0194158D01*
X0175740Y0191939D01*
X0175740Y0185599D01*
X0175417Y0185733D01*
X0174334Y0185733D01*
X0152051Y0208016D01*
X0153545Y0208634D01*
X0154938Y0210028D01*
X0155692Y0211848D01*
X0155692Y0213818D01*
X0154938Y0215639D01*
X0153545Y0217032D01*
X0151725Y0217786D01*
X0149754Y0217786D01*
X0147934Y0217032D01*
X0146541Y0215639D01*
X0146156Y0214710D01*
X0143339Y0217528D01*
X0146012Y0217528D01*
X0148918Y0218731D01*
X0151142Y0220955D01*
X0152345Y0223861D01*
X0152345Y0227006D01*
X0151142Y0229911D01*
X0148918Y0232135D01*
X0146012Y0233339D01*
X0142867Y0233339D01*
X0139962Y0232135D01*
X0137738Y0229911D01*
X0136534Y0227006D01*
X0136534Y0223861D01*
X0137332Y0221935D01*
X0136534Y0223989D02*
X0135278Y0223989D01*
X0136534Y0225587D02*
X0133680Y0225587D01*
X0132081Y0227186D02*
X0136609Y0227186D01*
X0137271Y0228784D02*
X0130483Y0228784D01*
X0128884Y0230383D02*
X0138209Y0230383D01*
X0139808Y0231981D02*
X0127286Y0231981D01*
X0125687Y0233580D02*
X0161340Y0233580D01*
X0161340Y0235178D02*
X0124089Y0235178D01*
X0122490Y0236777D02*
X0141058Y0236777D01*
X0139962Y0237231D02*
X0142867Y0236028D01*
X0146012Y0236028D01*
X0148918Y0237231D01*
X0151142Y0239455D01*
X0152345Y0242361D01*
X0152345Y0245506D01*
X0151142Y0248411D01*
X0148918Y0250635D01*
X0146012Y0251839D01*
X0142867Y0251839D01*
X0139962Y0250635D01*
X0137738Y0248411D01*
X0136534Y0245506D01*
X0136534Y0242361D01*
X0137738Y0239455D01*
X0139962Y0237231D01*
X0138817Y0238375D02*
X0121239Y0238375D01*
X0122541Y0239974D02*
X0137523Y0239974D01*
X0136861Y0241572D02*
X0122940Y0241572D01*
X0122674Y0243171D02*
X0136534Y0243171D01*
X0136534Y0244769D02*
X0121560Y0244769D01*
X0118031Y0246368D02*
X0136891Y0246368D01*
X0137553Y0247966D02*
X0119337Y0247966D01*
X0119740Y0249565D02*
X0138891Y0249565D01*
X0141237Y0251163D02*
X0119477Y0251163D01*
X0118368Y0252762D02*
X0158892Y0252762D01*
X0158892Y0251163D02*
X0147642Y0251163D01*
X0149988Y0249565D02*
X0159086Y0249565D01*
X0158692Y0247966D02*
X0151326Y0247966D01*
X0151988Y0246368D02*
X0158692Y0246368D01*
X0158692Y0244769D02*
X0152345Y0244769D01*
X0152345Y0243171D02*
X0158692Y0243171D01*
X0158692Y0241572D02*
X0152019Y0241572D01*
X0151357Y0239974D02*
X0158692Y0239974D01*
X0161340Y0238375D02*
X0150062Y0238375D01*
X0147821Y0236777D02*
X0161340Y0236777D01*
X0161340Y0231981D02*
X0149072Y0231981D01*
X0150670Y0230383D02*
X0161340Y0230383D01*
X0161340Y0228784D02*
X0151608Y0228784D01*
X0152271Y0227186D02*
X0158404Y0227186D01*
X0157140Y0225587D02*
X0152345Y0225587D01*
X0152345Y0223989D02*
X0157140Y0223989D01*
X0157140Y0222390D02*
X0151736Y0222390D01*
X0150978Y0220792D02*
X0158293Y0220792D01*
X0159891Y0219193D02*
X0149380Y0219193D01*
X0149293Y0217595D02*
X0146174Y0217595D01*
X0146898Y0215996D02*
X0144871Y0215996D01*
X0142878Y0211201D02*
X0142824Y0211201D01*
X0141913Y0209602D02*
X0144477Y0209602D01*
X0152063Y0208004D02*
X0179140Y0208004D01*
X0179140Y0209602D02*
X0154513Y0209602D01*
X0155424Y0211201D02*
X0179140Y0211201D01*
X0179140Y0212799D02*
X0155692Y0212799D01*
X0155452Y0214398D02*
X0179140Y0214398D01*
X0179140Y0215996D02*
X0154581Y0215996D01*
X0152186Y0217595D02*
X0179140Y0217595D01*
X0179140Y0219193D02*
X0173988Y0219193D01*
X0173928Y0219133D02*
X0176740Y0221945D01*
X0176740Y0225921D01*
X0173928Y0228733D01*
X0169951Y0228733D01*
X0167140Y0225921D01*
X0167140Y0221945D01*
X0169951Y0219133D01*
X0173928Y0219133D01*
X0175586Y0220792D02*
X0179140Y0220792D01*
X0179140Y0222390D02*
X0176740Y0222390D01*
X0176740Y0223989D02*
X0179140Y0223989D01*
X0179140Y0225587D02*
X0176740Y0225587D01*
X0175475Y0227186D02*
X0179140Y0227186D01*
X0179140Y0228784D02*
X0166140Y0228784D01*
X0166140Y0227186D02*
X0168404Y0227186D01*
X0167140Y0225587D02*
X0166740Y0225587D01*
X0166740Y0223989D02*
X0167140Y0223989D01*
X0167140Y0222390D02*
X0166740Y0222390D01*
X0165586Y0220792D02*
X0168293Y0220792D01*
X0169891Y0219193D02*
X0163988Y0219193D01*
X0166140Y0230383D02*
X0179140Y0230383D01*
X0179140Y0231981D02*
X0169245Y0231981D01*
X0170543Y0233580D02*
X0179140Y0233580D01*
X0179140Y0235178D02*
X0170940Y0235178D01*
X0171777Y0236777D02*
X0179140Y0236777D01*
X0179140Y0238375D02*
X0173376Y0238375D01*
X0169785Y0241572D02*
X0168991Y0241572D01*
X0168991Y0243171D02*
X0169888Y0243171D01*
X0169888Y0244769D02*
X0168991Y0244769D01*
X0168991Y0246368D02*
X0169888Y0246368D01*
X0169888Y0247966D02*
X0168991Y0247966D01*
X0168596Y0249565D02*
X0169888Y0249565D01*
X0169888Y0251163D02*
X0168791Y0251163D01*
X0168791Y0252762D02*
X0169888Y0252762D01*
X0169888Y0254360D02*
X0164616Y0254360D01*
X0164616Y0254708D02*
X0168791Y0254708D01*
X0168791Y0257719D01*
X0168668Y0258177D01*
X0168431Y0258587D01*
X0168096Y0258923D01*
X0167686Y0259160D01*
X0167228Y0259282D01*
X0164616Y0259282D01*
X0164616Y0254708D01*
X0164616Y0255959D02*
X0163066Y0255959D01*
X0163066Y0254708D02*
X0163066Y0259282D01*
X0160455Y0259282D01*
X0159997Y0259160D01*
X0159586Y0258923D01*
X0159251Y0258587D01*
X0159014Y0258177D01*
X0158892Y0257719D01*
X0158892Y0254708D01*
X0163066Y0254708D01*
X0163066Y0254360D02*
X0114506Y0254360D01*
X0113340Y0255959D02*
X0139734Y0255959D01*
X0139962Y0255731D02*
X0142867Y0254528D01*
X0146012Y0254528D01*
X0148918Y0255731D01*
X0151142Y0257955D01*
X0152345Y0260861D01*
X0152345Y0264006D01*
X0151142Y0266911D01*
X0148918Y0269135D01*
X0146012Y0270339D01*
X0142867Y0270339D01*
X0139962Y0269135D01*
X0137738Y0266911D01*
X0136534Y0264006D01*
X0136534Y0260861D01*
X0137738Y0257955D01*
X0139962Y0255731D01*
X0138135Y0257557D02*
X0113340Y0257557D01*
X0113340Y0259156D02*
X0137240Y0259156D01*
X0136578Y0260754D02*
X0113340Y0260754D01*
X0113340Y0262353D02*
X0136534Y0262353D01*
X0136534Y0263951D02*
X0113340Y0263951D01*
X0113340Y0265550D02*
X0137174Y0265550D01*
X0137975Y0267148D02*
X0113340Y0267148D01*
X0113340Y0268747D02*
X0139574Y0268747D01*
X0139765Y0270345D02*
X0149114Y0270345D01*
X0149754Y0270080D02*
X0151725Y0270080D01*
X0153545Y0270834D01*
X0154938Y0272228D01*
X0155692Y0274048D01*
X0155692Y0276018D01*
X0154938Y0277839D01*
X0153545Y0279232D01*
X0151725Y0279986D01*
X0149754Y0279986D01*
X0147934Y0279232D01*
X0146541Y0277839D01*
X0145787Y0276018D01*
X0145787Y0274048D01*
X0146541Y0272228D01*
X0147934Y0270834D01*
X0149754Y0270080D01*
X0149306Y0268747D02*
X0163732Y0268747D01*
X0165330Y0267148D02*
X0150904Y0267148D01*
X0151705Y0265550D02*
X0166929Y0265550D01*
X0168527Y0263951D02*
X0152345Y0263951D01*
X0152345Y0262353D02*
X0170126Y0262353D01*
X0171724Y0260754D02*
X0152301Y0260754D01*
X0151639Y0259156D02*
X0159990Y0259156D01*
X0158892Y0257557D02*
X0150744Y0257557D01*
X0149146Y0255959D02*
X0158892Y0255959D01*
X0163066Y0257557D02*
X0164616Y0257557D01*
X0164616Y0259156D02*
X0163066Y0259156D01*
X0167692Y0259156D02*
X0170734Y0259156D01*
X0169888Y0257557D02*
X0168791Y0257557D01*
X0168791Y0255959D02*
X0169888Y0255959D01*
X0175315Y0263951D02*
X0179140Y0263951D01*
X0179140Y0262353D02*
X0176914Y0262353D01*
X0177340Y0260754D02*
X0179140Y0260754D01*
X0179140Y0265550D02*
X0173717Y0265550D01*
X0172118Y0267148D02*
X0179140Y0267148D01*
X0179140Y0268747D02*
X0170520Y0268747D01*
X0167140Y0273543D02*
X0166740Y0273543D01*
X0166740Y0275141D02*
X0167140Y0275141D01*
X0167958Y0276740D02*
X0165921Y0276740D01*
X0164323Y0278338D02*
X0169556Y0278338D01*
X0174323Y0278338D02*
X0179140Y0278338D01*
X0179140Y0276740D02*
X0175921Y0276740D01*
X0176740Y0275141D02*
X0179140Y0275141D01*
X0179140Y0273543D02*
X0176740Y0273543D01*
X0176739Y0271944D02*
X0179140Y0271944D01*
X0179140Y0270345D02*
X0175140Y0270345D01*
X0179140Y0279937D02*
X0151844Y0279937D01*
X0149636Y0279937D02*
X0139244Y0279937D01*
X0137036Y0279937D02*
X0130688Y0279937D01*
X0130940Y0278338D02*
X0134440Y0278338D01*
X0130640Y0274597D02*
X0130640Y0271297D01*
X0130640Y0274597D01*
X0130640Y0274597D01*
X0130640Y0273543D02*
X0130640Y0273543D01*
X0130640Y0271944D02*
X0130640Y0271944D01*
X0133532Y0271944D02*
X0134224Y0271944D01*
X0136514Y0270345D02*
X0113340Y0270345D01*
X0113760Y0271944D02*
X0115247Y0271944D01*
X0115199Y0271992D02*
X0115534Y0271656D01*
X0115945Y0271420D01*
X0116403Y0271297D01*
X0118140Y0271297D01*
X0118140Y0274597D01*
X0118140Y0274597D01*
X0118140Y0277897D01*
X0116403Y0277897D01*
X0115945Y0277774D01*
X0115534Y0277537D01*
X0115199Y0277202D01*
X0114962Y0276792D01*
X0114840Y0276334D01*
X0114840Y0274597D01*
X0118140Y0274597D01*
X0118140Y0274597D01*
X0114840Y0274597D01*
X0114840Y0272860D01*
X0114962Y0272402D01*
X0115199Y0271992D01*
X0114840Y0273543D02*
X0114085Y0273543D01*
X0114085Y0275141D02*
X0114840Y0275141D01*
X0114948Y0276740D02*
X0114085Y0276740D01*
X0111908Y0279937D02*
X0106291Y0279937D01*
X0106136Y0281535D02*
X0111040Y0281535D01*
X0111040Y0283134D02*
X0107734Y0283134D01*
X0109333Y0284732D02*
X0111040Y0284732D01*
X0108129Y0278338D02*
X0122940Y0278338D01*
X0123191Y0279937D02*
X0117172Y0279937D01*
X0118140Y0276740D02*
X0118140Y0276740D01*
X0118140Y0275141D02*
X0118140Y0275141D01*
X0118140Y0273543D02*
X0118140Y0273543D01*
X0118140Y0271944D02*
X0118140Y0271944D01*
X0126260Y0271944D02*
X0127747Y0271944D01*
X0127340Y0273543D02*
X0126585Y0273543D01*
X0142055Y0271944D02*
X0146824Y0271944D01*
X0145996Y0273543D02*
X0142883Y0273543D01*
X0143092Y0275141D02*
X0145787Y0275141D01*
X0146086Y0276740D02*
X0142794Y0276740D01*
X0141839Y0278338D02*
X0147040Y0278338D01*
X0154439Y0278338D02*
X0159556Y0278338D01*
X0157958Y0276740D02*
X0155394Y0276740D01*
X0155692Y0275141D02*
X0157140Y0275141D01*
X0157140Y0273543D02*
X0155483Y0273543D01*
X0154655Y0271944D02*
X0157141Y0271944D01*
X0158739Y0270345D02*
X0152365Y0270345D01*
X0162936Y0281535D02*
X0179140Y0281535D01*
X0179140Y0283134D02*
X0164534Y0283134D01*
X0166133Y0284732D02*
X0179140Y0284732D01*
X0179140Y0286331D02*
X0174891Y0286331D01*
X0176407Y0287929D02*
X0179140Y0287929D01*
X0179140Y0289528D02*
X0177069Y0289528D01*
X0177140Y0291126D02*
X0179140Y0291126D01*
X0179140Y0292725D02*
X0177140Y0292725D01*
X0177140Y0294323D02*
X0179140Y0294323D01*
X0179140Y0295922D02*
X0177140Y0295922D01*
X0177140Y0297520D02*
X0179140Y0297520D01*
X0179140Y0299119D02*
X0176746Y0299119D01*
X0175709Y0300717D02*
X0179140Y0300717D01*
X0179140Y0302316D02*
X0173016Y0302316D01*
X0170863Y0302316D02*
X0163016Y0302316D01*
X0160863Y0302316D02*
X0153016Y0302316D01*
X0150863Y0302316D02*
X0143016Y0302316D01*
X0140863Y0302316D02*
X0133016Y0302316D01*
X0130863Y0302316D02*
X0127351Y0302316D01*
X0125545Y0303914D02*
X0179140Y0303914D01*
X0179140Y0305513D02*
X0049740Y0305513D01*
X0049740Y0307111D02*
X0179140Y0307111D01*
X0179140Y0308710D02*
X0049740Y0308710D01*
X0049740Y0310308D02*
X0179140Y0310308D01*
X0179140Y0311907D02*
X0049740Y0311907D01*
X0049740Y0313505D02*
X0179140Y0313505D01*
X0179140Y0315104D02*
X0049740Y0315104D01*
X0049740Y0303914D02*
X0078734Y0303914D01*
X0076928Y0302316D02*
X0073016Y0302316D01*
X0070863Y0302316D02*
X0063016Y0302316D01*
X0060863Y0302316D02*
X0049740Y0302316D01*
X0049740Y0300717D02*
X0058170Y0300717D01*
X0057134Y0299119D02*
X0049740Y0299119D01*
X0049740Y0297520D02*
X0056740Y0297520D01*
X0056740Y0295922D02*
X0049740Y0295922D01*
X0049740Y0294323D02*
X0056740Y0294323D01*
X0056740Y0292725D02*
X0049740Y0292725D01*
X0049740Y0291126D02*
X0056740Y0291126D01*
X0056811Y0289528D02*
X0049740Y0289528D01*
X0049740Y0287929D02*
X0057473Y0287929D01*
X0056909Y0286331D02*
X0049740Y0286331D01*
X0049740Y0284732D02*
X0056040Y0284732D01*
X0054462Y0283134D02*
X0049740Y0283134D01*
X0049740Y0281535D02*
X0052322Y0281535D01*
X0051740Y0279937D02*
X0049740Y0279937D01*
X0049740Y0278338D02*
X0051822Y0278338D01*
X0052085Y0276740D02*
X0049740Y0276740D01*
X0049740Y0275141D02*
X0052085Y0275141D01*
X0052085Y0273543D02*
X0049740Y0273543D01*
X0049740Y0271944D02*
X0052409Y0271944D01*
X0052958Y0270345D02*
X0049740Y0270345D01*
X0049740Y0268747D02*
X0050559Y0268747D01*
X0059934Y0270533D02*
X0060866Y0271465D01*
X0060945Y0271420D01*
X0061403Y0271297D01*
X0063140Y0271297D01*
X0064877Y0271297D01*
X0065334Y0271420D01*
X0065397Y0271456D01*
X0065756Y0271097D01*
X0066140Y0271097D01*
X0066140Y0250590D01*
X0065149Y0249599D01*
X0064540Y0248129D01*
X0064540Y0246537D01*
X0065149Y0245067D01*
X0065283Y0244933D01*
X0061534Y0244933D01*
X0056014Y0250453D01*
X0057159Y0250927D01*
X0058509Y0252277D01*
X0059240Y0254041D01*
X0059240Y0255951D01*
X0058687Y0257286D01*
X0061099Y0259698D01*
X0061774Y0260374D01*
X0062140Y0261256D01*
X0062140Y0263276D01*
X0063131Y0264267D01*
X0063740Y0265737D01*
X0063740Y0267329D01*
X0063131Y0268799D01*
X0062005Y0269924D01*
X0060535Y0270533D01*
X0059934Y0270533D01*
X0060988Y0270345D02*
X0066140Y0270345D01*
X0066140Y0268747D02*
X0063152Y0268747D01*
X0063740Y0267148D02*
X0066140Y0267148D01*
X0066140Y0265550D02*
X0063662Y0265550D01*
X0062815Y0263951D02*
X0066140Y0263951D01*
X0066140Y0262353D02*
X0062140Y0262353D01*
X0061932Y0260754D02*
X0066140Y0260754D01*
X0066140Y0259156D02*
X0060557Y0259156D01*
X0058958Y0257557D02*
X0066140Y0257557D01*
X0066140Y0255959D02*
X0059236Y0255959D01*
X0059240Y0254360D02*
X0066140Y0254360D01*
X0066140Y0252762D02*
X0058710Y0252762D01*
X0057395Y0251163D02*
X0066140Y0251163D01*
X0065135Y0249565D02*
X0056902Y0249565D01*
X0058500Y0247966D02*
X0064540Y0247966D01*
X0064610Y0246368D02*
X0060099Y0246368D01*
X0056508Y0243171D02*
X0049740Y0243171D01*
X0049740Y0244769D02*
X0054909Y0244769D01*
X0053311Y0246368D02*
X0049740Y0246368D01*
X0049740Y0247966D02*
X0051712Y0247966D01*
X0050114Y0249565D02*
X0049740Y0249565D01*
X0049740Y0249939D02*
X0058505Y0241174D01*
X0058505Y0241174D01*
X0059180Y0240498D01*
X0060062Y0240133D01*
X0067682Y0240133D01*
X0067140Y0238825D01*
X0067140Y0236915D01*
X0067870Y0235151D01*
X0069221Y0233801D01*
X0069303Y0233767D01*
X0068943Y0233505D01*
X0068431Y0232993D01*
X0068005Y0232407D01*
X0067677Y0231762D01*
X0067453Y0231073D01*
X0067340Y0230358D01*
X0067340Y0229996D01*
X0067340Y0229634D01*
X0067453Y0228919D01*
X0067677Y0228230D01*
X0068005Y0227585D01*
X0068431Y0226999D01*
X0068943Y0226487D01*
X0069529Y0226062D01*
X0070174Y0225733D01*
X0070862Y0225509D01*
X0071578Y0225396D01*
X0071940Y0225396D01*
X0072302Y0225396D01*
X0072904Y0225491D01*
X0070528Y0223116D01*
X0070197Y0223447D01*
X0069560Y0223909D01*
X0068859Y0224267D01*
X0068110Y0224510D01*
X0067333Y0224633D01*
X0067140Y0224633D01*
X0067140Y0216633D01*
X0066740Y0216633D01*
X0066740Y0224633D01*
X0066546Y0224633D01*
X0065769Y0224510D01*
X0065020Y0224267D01*
X0064319Y0223909D01*
X0063682Y0223447D01*
X0063126Y0222890D01*
X0062663Y0222254D01*
X0062306Y0221552D01*
X0062072Y0220831D01*
X0061348Y0222579D01*
X0059885Y0224041D01*
X0057974Y0224833D01*
X0055905Y0224833D01*
X0053994Y0224041D01*
X0052531Y0222579D01*
X0051740Y0220667D01*
X0051740Y0212199D01*
X0052531Y0210287D01*
X0053994Y0208825D01*
X0055905Y0208033D01*
X0057974Y0208033D01*
X0059885Y0208825D01*
X0061348Y0210287D01*
X0062072Y0212035D01*
X0062306Y0211314D01*
X0062663Y0210612D01*
X0063126Y0209976D01*
X0063682Y0209419D01*
X0064319Y0208957D01*
X0065020Y0208599D01*
X0065769Y0208356D01*
X0066546Y0208233D01*
X0066740Y0208233D01*
X0066740Y0216233D01*
X0067140Y0216233D01*
X0067140Y0208233D01*
X0067333Y0208233D01*
X0068110Y0208356D01*
X0068859Y0208599D01*
X0069560Y0208957D01*
X0070140Y0209378D01*
X0070140Y0189127D01*
X0056723Y0175711D01*
X0056263Y0176822D01*
X0054829Y0178257D01*
X0053196Y0178933D01*
X0054829Y0179609D01*
X0056263Y0181044D01*
X0057040Y0182919D01*
X0057040Y0184948D01*
X0056263Y0186822D01*
X0054829Y0188257D01*
X0053196Y0188933D01*
X0054829Y0189609D01*
X0056263Y0191044D01*
X0057040Y0192919D01*
X0057040Y0194948D01*
X0056263Y0196822D01*
X0054829Y0198257D01*
X0053196Y0198933D01*
X0054829Y0199609D01*
X0056263Y0201044D01*
X0057040Y0202919D01*
X0057040Y0204948D01*
X0056263Y0206822D01*
X0054829Y0208257D01*
X0052954Y0209033D01*
X0050925Y0209033D01*
X0049740Y0208542D01*
X0049740Y0249939D01*
X0049740Y0241572D02*
X0058106Y0241572D01*
X0049740Y0239974D02*
X0067616Y0239974D01*
X0067140Y0238375D02*
X0049740Y0238375D01*
X0049740Y0236777D02*
X0067197Y0236777D01*
X0067859Y0235178D02*
X0049740Y0235178D01*
X0049740Y0233580D02*
X0069046Y0233580D01*
X0067788Y0231981D02*
X0049740Y0231981D01*
X0049740Y0230383D02*
X0067344Y0230383D01*
X0067340Y0229996D02*
X0071940Y0229996D01*
X0071940Y0229996D01*
X0076540Y0229996D01*
X0076540Y0229634D01*
X0076426Y0228919D01*
X0076203Y0228230D01*
X0075874Y0227585D01*
X0075448Y0226999D01*
X0074982Y0226533D01*
X0118883Y0226533D01*
X0118749Y0226667D01*
X0118140Y0228137D01*
X0118140Y0229539D01*
X0112346Y0235333D01*
X0076084Y0235333D01*
X0076009Y0235151D01*
X0074659Y0233801D01*
X0074576Y0233767D01*
X0074936Y0233505D01*
X0075448Y0232993D01*
X0075874Y0232407D01*
X0076203Y0231762D01*
X0076426Y0231073D01*
X0076540Y0230358D01*
X0076540Y0229996D01*
X0071940Y0229996D01*
X0071940Y0225396D01*
X0071940Y0229996D01*
X0071940Y0229996D01*
X0067340Y0229996D01*
X0067497Y0228784D02*
X0049740Y0228784D01*
X0049740Y0227186D02*
X0068296Y0227186D01*
X0070623Y0225587D02*
X0049740Y0225587D01*
X0049740Y0223989D02*
X0053941Y0223989D01*
X0052453Y0222390D02*
X0049740Y0222390D01*
X0049740Y0220792D02*
X0051791Y0220792D01*
X0051740Y0219193D02*
X0049740Y0219193D01*
X0049740Y0217595D02*
X0051740Y0217595D01*
X0051740Y0215996D02*
X0049740Y0215996D01*
X0049740Y0214398D02*
X0051740Y0214398D01*
X0051740Y0212799D02*
X0049740Y0212799D01*
X0049740Y0211201D02*
X0052153Y0211201D01*
X0053217Y0209602D02*
X0049740Y0209602D01*
X0055082Y0208004D02*
X0070140Y0208004D01*
X0070140Y0206405D02*
X0056436Y0206405D01*
X0057040Y0204807D02*
X0070140Y0204807D01*
X0070140Y0203208D02*
X0057040Y0203208D01*
X0056497Y0201610D02*
X0070140Y0201610D01*
X0070140Y0200011D02*
X0055230Y0200011D01*
X0054452Y0198412D02*
X0070140Y0198412D01*
X0070140Y0196814D02*
X0056267Y0196814D01*
X0056929Y0195215D02*
X0070140Y0195215D01*
X0070140Y0193617D02*
X0057040Y0193617D01*
X0056667Y0192018D02*
X0070140Y0192018D01*
X0070140Y0190420D02*
X0055639Y0190420D01*
X0053465Y0188821D02*
X0069834Y0188821D01*
X0068235Y0187223D02*
X0055862Y0187223D01*
X0056759Y0185624D02*
X0066637Y0185624D01*
X0065038Y0184026D02*
X0057040Y0184026D01*
X0056836Y0182427D02*
X0063440Y0182427D01*
X0061841Y0180829D02*
X0056048Y0180829D01*
X0053913Y0179230D02*
X0060243Y0179230D01*
X0058644Y0177632D02*
X0055453Y0177632D01*
X0056590Y0176033D02*
X0057046Y0176033D01*
X0071030Y0180829D02*
X0090940Y0180829D01*
X0090940Y0182427D02*
X0072628Y0182427D01*
X0074227Y0184026D02*
X0090940Y0184026D01*
X0090940Y0185624D02*
X0075825Y0185624D01*
X0077424Y0187223D02*
X0090940Y0187223D01*
X0090940Y0188821D02*
X0078760Y0188821D01*
X0078940Y0190420D02*
X0090940Y0190420D01*
X0090940Y0192018D02*
X0078940Y0192018D01*
X0078940Y0193617D02*
X0091429Y0193617D01*
X0093028Y0195215D02*
X0078940Y0195215D01*
X0078940Y0196814D02*
X0094626Y0196814D01*
X0096225Y0198412D02*
X0078940Y0198412D01*
X0078940Y0200011D02*
X0097823Y0200011D01*
X0099422Y0201610D02*
X0078940Y0201610D01*
X0078940Y0203208D02*
X0101021Y0203208D01*
X0102619Y0204807D02*
X0078940Y0204807D01*
X0078940Y0206405D02*
X0104218Y0206405D01*
X0105816Y0208004D02*
X0078940Y0208004D01*
X0080663Y0209602D02*
X0083217Y0209602D01*
X0082153Y0211201D02*
X0081726Y0211201D01*
X0090663Y0209602D02*
X0093217Y0209602D01*
X0092153Y0211201D02*
X0091726Y0211201D01*
X0100663Y0209602D02*
X0103217Y0209602D01*
X0102153Y0211201D02*
X0101726Y0211201D01*
X0117296Y0230383D02*
X0076536Y0230383D01*
X0076383Y0228784D02*
X0118140Y0228784D01*
X0118534Y0227186D02*
X0075584Y0227186D01*
X0071940Y0227186D02*
X0071940Y0227186D01*
X0071940Y0228784D02*
X0071940Y0228784D01*
X0071940Y0229996D02*
X0071940Y0229996D01*
X0071940Y0225587D02*
X0071940Y0225587D01*
X0071401Y0223989D02*
X0069405Y0223989D01*
X0067140Y0223989D02*
X0066740Y0223989D01*
X0066740Y0222390D02*
X0067140Y0222390D01*
X0067140Y0220792D02*
X0066740Y0220792D01*
X0066740Y0219193D02*
X0067140Y0219193D01*
X0067140Y0217595D02*
X0066740Y0217595D01*
X0066740Y0215996D02*
X0067140Y0215996D01*
X0067140Y0214398D02*
X0066740Y0214398D01*
X0066740Y0212799D02*
X0067140Y0212799D01*
X0067140Y0211201D02*
X0066740Y0211201D01*
X0066740Y0209602D02*
X0067140Y0209602D01*
X0063500Y0209602D02*
X0060663Y0209602D01*
X0061726Y0211201D02*
X0062364Y0211201D01*
X0062762Y0222390D02*
X0061426Y0222390D01*
X0059938Y0223989D02*
X0064475Y0223989D01*
X0074833Y0233580D02*
X0114099Y0233580D01*
X0112500Y0235178D02*
X0076020Y0235178D01*
X0076091Y0231981D02*
X0115697Y0231981D01*
X0112346Y0244933D02*
X0071796Y0244933D01*
X0071931Y0245067D01*
X0072540Y0246537D01*
X0072540Y0248129D01*
X0071931Y0249599D01*
X0070940Y0250590D01*
X0070940Y0271624D01*
X0071585Y0272268D01*
X0071585Y0276925D01*
X0071577Y0276933D01*
X0072544Y0276933D01*
X0072462Y0276792D01*
X0072340Y0276334D01*
X0072340Y0274597D01*
X0075640Y0274597D01*
X0075640Y0271297D01*
X0077377Y0271297D01*
X0077834Y0271420D01*
X0077897Y0271456D01*
X0078256Y0271097D01*
X0082913Y0271097D01*
X0084085Y0272268D01*
X0084085Y0276925D01*
X0082913Y0278097D01*
X0081170Y0278097D01*
X0078574Y0280693D01*
X0077899Y0281368D01*
X0077017Y0281733D01*
X0075540Y0281733D01*
X0075540Y0284539D01*
X0078160Y0287159D01*
X0078994Y0286325D01*
X0080905Y0285533D01*
X0081111Y0285533D01*
X0081040Y0285461D01*
X0081040Y0280805D01*
X0082211Y0279633D01*
X0086868Y0279633D01*
X0087368Y0280133D01*
X0093946Y0280133D01*
X0095305Y0278774D01*
X0095980Y0278098D01*
X0095984Y0278097D01*
X0093256Y0278097D01*
X0092085Y0276925D01*
X0092085Y0272268D01*
X0093256Y0271097D01*
X0097913Y0271097D01*
X0099085Y0272268D01*
X0099085Y0272933D01*
X0099417Y0272933D01*
X0099840Y0273108D01*
X0099840Y0272860D01*
X0099962Y0272402D01*
X0100199Y0271992D01*
X0100534Y0271656D01*
X0100945Y0271420D01*
X0101403Y0271297D01*
X0103140Y0271297D01*
X0104877Y0271297D01*
X0105334Y0271420D01*
X0105340Y0271423D01*
X0105340Y0252456D01*
X0105705Y0251574D01*
X0112346Y0244933D01*
X0110911Y0246368D02*
X0072469Y0246368D01*
X0072540Y0247966D02*
X0109312Y0247966D01*
X0107714Y0249565D02*
X0071945Y0249565D01*
X0070940Y0251163D02*
X0106115Y0251163D01*
X0105340Y0252762D02*
X0070940Y0252762D01*
X0070940Y0254360D02*
X0105340Y0254360D01*
X0105340Y0255959D02*
X0070940Y0255959D01*
X0070940Y0257557D02*
X0105340Y0257557D01*
X0105340Y0259156D02*
X0070940Y0259156D01*
X0070940Y0260754D02*
X0105340Y0260754D01*
X0105340Y0262353D02*
X0070940Y0262353D01*
X0070940Y0263951D02*
X0105340Y0263951D01*
X0105340Y0265550D02*
X0070940Y0265550D01*
X0070940Y0267148D02*
X0105340Y0267148D01*
X0105340Y0268747D02*
X0070940Y0268747D01*
X0070940Y0270345D02*
X0105340Y0270345D01*
X0103140Y0271297D02*
X0103140Y0274597D01*
X0103140Y0274597D01*
X0103140Y0271297D01*
X0103140Y0271944D02*
X0103140Y0271944D01*
X0103140Y0273543D02*
X0103140Y0273543D01*
X0100247Y0271944D02*
X0098760Y0271944D01*
X0095741Y0278338D02*
X0080929Y0278338D01*
X0081908Y0279937D02*
X0079330Y0279937D01*
X0081040Y0281535D02*
X0077495Y0281535D01*
X0075540Y0283134D02*
X0081040Y0283134D01*
X0081040Y0284732D02*
X0075733Y0284732D01*
X0077331Y0286331D02*
X0078988Y0286331D01*
X0087172Y0279937D02*
X0094142Y0279937D01*
X0092085Y0276740D02*
X0091331Y0276740D01*
X0091317Y0276792D02*
X0091080Y0277202D01*
X0090745Y0277537D01*
X0090334Y0277774D01*
X0089877Y0277897D01*
X0088140Y0277897D01*
X0088140Y0274597D01*
X0091440Y0274597D01*
X0091440Y0276334D01*
X0091317Y0276792D01*
X0091440Y0275141D02*
X0092085Y0275141D01*
X0091440Y0274597D02*
X0088140Y0274597D01*
X0088140Y0274597D01*
X0088140Y0274597D01*
X0088140Y0271297D01*
X0089877Y0271297D01*
X0090334Y0271420D01*
X0090745Y0271656D01*
X0091080Y0271992D01*
X0091317Y0272402D01*
X0091440Y0272860D01*
X0091440Y0274597D01*
X0091440Y0273543D02*
X0092085Y0273543D01*
X0092409Y0271944D02*
X0091032Y0271944D01*
X0088140Y0271944D02*
X0088140Y0271944D01*
X0088140Y0271297D02*
X0088140Y0274597D01*
X0088140Y0274597D01*
X0088140Y0277897D01*
X0086403Y0277897D01*
X0085945Y0277774D01*
X0085534Y0277537D01*
X0085199Y0277202D01*
X0084962Y0276792D01*
X0084840Y0276334D01*
X0084840Y0274597D01*
X0088140Y0274597D01*
X0088140Y0274597D01*
X0084840Y0274597D01*
X0084840Y0272860D01*
X0084962Y0272402D01*
X0085199Y0271992D01*
X0085534Y0271656D01*
X0085945Y0271420D01*
X0086403Y0271297D01*
X0088140Y0271297D01*
X0088140Y0273543D02*
X0088140Y0273543D01*
X0088140Y0275141D02*
X0088140Y0275141D01*
X0088140Y0276740D02*
X0088140Y0276740D01*
X0084948Y0276740D02*
X0084085Y0276740D01*
X0084085Y0275141D02*
X0084840Y0275141D01*
X0084840Y0273543D02*
X0084085Y0273543D01*
X0083760Y0271944D02*
X0085247Y0271944D01*
X0075640Y0271944D02*
X0075640Y0271944D01*
X0075640Y0271297D02*
X0075640Y0274597D01*
X0075640Y0274597D01*
X0075640Y0274597D01*
X0072340Y0274597D01*
X0072340Y0272860D01*
X0072462Y0272402D01*
X0072699Y0271992D01*
X0073034Y0271656D01*
X0073445Y0271420D01*
X0073903Y0271297D01*
X0075640Y0271297D01*
X0075640Y0273543D02*
X0075640Y0273543D01*
X0072340Y0273543D02*
X0071585Y0273543D01*
X0071585Y0275141D02*
X0072340Y0275141D01*
X0072448Y0276740D02*
X0071585Y0276740D01*
X0071260Y0271944D02*
X0072747Y0271944D01*
X0063140Y0271944D02*
X0063140Y0271944D01*
X0063140Y0271297D02*
X0063140Y0274597D01*
X0063140Y0274597D01*
X0063140Y0271297D01*
X0063140Y0273543D02*
X0063140Y0273543D01*
X0066746Y0299119D02*
X0067134Y0299119D01*
X0068170Y0300717D02*
X0065709Y0300717D01*
X0085545Y0303914D02*
X0109134Y0303914D01*
X0107328Y0302316D02*
X0103016Y0302316D01*
X0100863Y0302316D02*
X0093016Y0302316D01*
X0090863Y0302316D02*
X0087351Y0302316D01*
X0095709Y0300717D02*
X0098170Y0300717D01*
X0097134Y0299119D02*
X0096746Y0299119D01*
X0105709Y0300717D02*
X0105730Y0300717D01*
X0135709Y0300717D02*
X0138170Y0300717D01*
X0137134Y0299119D02*
X0136746Y0299119D01*
X0145709Y0300717D02*
X0148170Y0300717D01*
X0147134Y0299119D02*
X0146746Y0299119D01*
X0155709Y0300717D02*
X0158170Y0300717D01*
X0157134Y0299119D02*
X0156746Y0299119D01*
X0165709Y0300717D02*
X0168170Y0300717D01*
X0167134Y0299119D02*
X0166746Y0299119D01*
X0167731Y0286331D02*
X0168988Y0286331D01*
X0179140Y0206405D02*
X0153662Y0206405D01*
X0155260Y0204807D02*
X0179140Y0204807D01*
X0179140Y0203208D02*
X0176043Y0203208D01*
X0176714Y0201610D02*
X0179140Y0201610D01*
X0179140Y0200011D02*
X0176714Y0200011D01*
X0176714Y0198412D02*
X0179140Y0198412D01*
X0179140Y0196814D02*
X0177653Y0196814D01*
X0174062Y0193617D02*
X0166450Y0193617D01*
X0167279Y0195215D02*
X0164851Y0195215D01*
X0163253Y0196814D02*
X0167165Y0196814D01*
X0167165Y0198412D02*
X0161654Y0198412D01*
X0160056Y0200011D02*
X0167165Y0200011D01*
X0167165Y0201610D02*
X0158457Y0201610D01*
X0156859Y0203208D02*
X0167837Y0203208D01*
X0168048Y0192018D02*
X0175660Y0192018D01*
X0175740Y0190420D02*
X0169647Y0190420D01*
X0171245Y0188821D02*
X0175740Y0188821D01*
X0175740Y0187223D02*
X0172844Y0187223D01*
X0175679Y0185624D02*
X0175740Y0185624D01*
X0171940Y0177632D02*
X0171940Y0177632D01*
X0171940Y0176033D02*
X0171940Y0176033D01*
X0171940Y0174435D02*
X0171940Y0174435D01*
X0150865Y0118487D02*
X0149488Y0118487D01*
X0150740Y0116888D02*
X0147889Y0116888D01*
X0146291Y0115290D02*
X0150740Y0115290D01*
X0151070Y0113691D02*
X0144692Y0113691D01*
X0143094Y0112093D02*
X0150740Y0112093D01*
X0150740Y0110494D02*
X0142940Y0110494D01*
X0142940Y0111433D02*
X0142058Y0111433D01*
X0142059Y0111433D01*
X0142940Y0111433D01*
X0142248Y0108896D02*
X0151348Y0108896D01*
X0137240Y0108896D02*
X0137240Y0108896D01*
X0137240Y0108533D02*
X0137240Y0111333D01*
X0137240Y0111333D01*
X0137240Y0108533D01*
X0137240Y0110494D02*
X0137240Y0110494D01*
X0132231Y0108896D02*
X0113285Y0108896D01*
X0110594Y0108896D02*
X0104740Y0108896D01*
X0104740Y0110494D02*
X0108166Y0110494D01*
X0108091Y0107297D02*
X0104740Y0107297D01*
X0104740Y0105699D02*
X0107151Y0105699D01*
X0115713Y0110494D02*
X0131540Y0110494D01*
X0117186Y0112093D02*
X0116698Y0112093D01*
X0106843Y0092911D02*
X0103958Y0092911D01*
X0104540Y0091312D02*
X0107505Y0091312D01*
X0108947Y0089714D02*
X0104540Y0089714D01*
X0104540Y0089758D02*
X0099615Y0089758D01*
X0099615Y0086283D01*
X0102977Y0086283D01*
X0103434Y0086406D01*
X0103845Y0086643D01*
X0104180Y0086978D01*
X0104417Y0087388D01*
X0104540Y0087846D01*
X0104540Y0089758D01*
X0104540Y0088115D02*
X0108909Y0088115D01*
X0107490Y0086517D02*
X0103627Y0086517D01*
X0107336Y0081721D02*
X0095236Y0081721D01*
X0095236Y0080123D02*
X0108538Y0080123D01*
X0108057Y0076926D02*
X0095236Y0076926D01*
X0095177Y0075327D02*
X0107240Y0075327D01*
X0107040Y0073729D02*
X0081529Y0073729D01*
X0090397Y0075327D02*
X0091356Y0075327D01*
X0091356Y0076926D02*
X0090397Y0076926D01*
X0099465Y0086517D02*
X0099615Y0086517D01*
X0099615Y0088115D02*
X0099465Y0088115D01*
X0099465Y0089714D02*
X0099615Y0089714D01*
X0099615Y0091312D02*
X0099465Y0091312D01*
X0099465Y0092911D02*
X0099615Y0092911D01*
X0094587Y0096108D02*
X0080759Y0096108D01*
X0079540Y0097706D02*
X0094340Y0097706D01*
X0094340Y0099305D02*
X0079540Y0099305D01*
X0079540Y0100903D02*
X0094340Y0100903D01*
X0095330Y0102502D02*
X0079540Y0102502D01*
X0059786Y0099305D02*
X0054093Y0099305D01*
X0056122Y0100903D02*
X0057757Y0100903D01*
X0057012Y0102502D02*
X0056867Y0102502D01*
X0056713Y0072130D02*
X0107373Y0072130D01*
X0111790Y0075327D02*
X0112090Y0075327D01*
X0112090Y0076926D02*
X0111790Y0076926D01*
D11*
X0046940Y0068933D02*
X0046940Y0001256D01*
X0047196Y0008933D02*
X0057176Y0007909D01*
X0057176Y0007676D02*
X0047196Y0008933D01*
X0057176Y0009957D01*
X0057176Y0010190D02*
X0057176Y0007676D01*
X0057176Y0008421D02*
X0047196Y0008933D01*
X0057176Y0009445D01*
X0057176Y0010190D02*
X0047196Y0008933D01*
X0181684Y0008933D01*
X0171703Y0007909D01*
X0171703Y0007676D02*
X0181684Y0008933D01*
X0171703Y0009957D01*
X0171703Y0010190D02*
X0171703Y0007676D01*
X0171703Y0008421D02*
X0181684Y0008933D01*
X0171703Y0009445D01*
X0171703Y0010190D02*
X0181684Y0008933D01*
X0181940Y0001256D02*
X0181940Y0068933D01*
X0249617Y0068933D01*
X0241940Y0069189D02*
X0242963Y0079169D01*
X0243197Y0079169D02*
X0241940Y0069189D01*
X0240916Y0079169D01*
X0240683Y0079169D02*
X0243197Y0079169D01*
X0242451Y0079169D02*
X0241940Y0069189D01*
X0241428Y0079169D01*
X0240683Y0079169D02*
X0241940Y0069189D01*
X0241940Y0318677D01*
X0242963Y0308697D01*
X0243197Y0308697D02*
X0241940Y0318677D01*
X0240916Y0308697D01*
X0240683Y0308697D02*
X0243197Y0308697D01*
X0242451Y0308697D02*
X0241940Y0318677D01*
X0241428Y0308697D01*
X0240683Y0308697D02*
X0241940Y0318677D01*
X0249617Y0318933D02*
X0181940Y0318933D01*
D12*
X0232972Y0204883D02*
X0232972Y0200613D01*
X0236175Y0200613D01*
X0235108Y0202748D01*
X0235108Y0203815D01*
X0236175Y0204883D01*
X0238310Y0204883D01*
X0239378Y0203815D01*
X0239378Y0201680D01*
X0238310Y0200613D01*
X0238310Y0198458D02*
X0239378Y0198458D01*
X0239378Y0197390D01*
X0238310Y0197390D01*
X0238310Y0198458D01*
X0238310Y0195215D02*
X0239378Y0194147D01*
X0239378Y0192012D01*
X0238310Y0190944D01*
X0238310Y0188769D02*
X0237243Y0188769D01*
X0236175Y0187702D01*
X0236175Y0184499D01*
X0238310Y0184499D01*
X0239378Y0185567D01*
X0239378Y0187702D01*
X0238310Y0188769D01*
X0234040Y0186634D02*
X0236175Y0184499D01*
X0234040Y0186634D02*
X0232972Y0188769D01*
X0234040Y0190944D02*
X0232972Y0192012D01*
X0232972Y0194147D01*
X0234040Y0195215D01*
X0235108Y0195215D01*
X0236175Y0194147D01*
X0237243Y0195215D01*
X0238310Y0195215D01*
X0236175Y0194147D02*
X0236175Y0193080D01*
X0128027Y0017900D02*
X0125891Y0017900D01*
X0124824Y0016833D01*
X0124824Y0015765D01*
X0125891Y0014698D01*
X0129094Y0014698D01*
X0129094Y0016833D02*
X0129094Y0012562D01*
X0128027Y0011495D01*
X0125891Y0011495D01*
X0124824Y0012562D01*
X0122649Y0011495D02*
X0118378Y0011495D01*
X0122649Y0015765D01*
X0122649Y0016833D01*
X0121581Y0017900D01*
X0119446Y0017900D01*
X0118378Y0016833D01*
X0116223Y0012562D02*
X0115156Y0012562D01*
X0115156Y0011495D01*
X0116223Y0011495D01*
X0116223Y0012562D01*
X0112980Y0014698D02*
X0108710Y0014698D01*
X0111913Y0017900D01*
X0111913Y0011495D01*
X0106535Y0012562D02*
X0105467Y0011495D01*
X0103332Y0011495D01*
X0102265Y0012562D01*
X0104400Y0014698D02*
X0105467Y0014698D01*
X0106535Y0013630D01*
X0106535Y0012562D01*
X0105467Y0014698D02*
X0106535Y0015765D01*
X0106535Y0016833D01*
X0105467Y0017900D01*
X0103332Y0017900D01*
X0102265Y0016833D01*
X0128027Y0017900D02*
X0129094Y0016833D01*
D13*
X0071940Y0229996D03*
X0071940Y0237870D03*
X0054440Y0254996D03*
X0054440Y0262870D03*
D14*
X0083003Y0118933D03*
X0090877Y0118933D03*
X0090877Y0078933D03*
X0083003Y0078933D03*
D15*
X0086940Y0213233D02*
X0086940Y0219633D01*
X0096940Y0219633D02*
X0096940Y0213233D01*
X0106940Y0213233D02*
X0106940Y0219633D01*
X0116940Y0219633D02*
X0116940Y0213233D01*
X0126940Y0213233D02*
X0126940Y0219633D01*
X0076940Y0219633D02*
X0076940Y0213233D01*
X0066940Y0213233D02*
X0066940Y0219633D01*
X0056940Y0219633D02*
X0056940Y0213233D01*
X0061940Y0290733D02*
X0061940Y0297133D01*
X0071940Y0297133D02*
X0071940Y0290733D01*
X0081940Y0290733D02*
X0081940Y0297133D01*
X0091940Y0297133D02*
X0091940Y0290733D01*
X0101940Y0290733D02*
X0101940Y0297133D01*
X0111940Y0297133D02*
X0111940Y0290733D01*
X0121940Y0290733D02*
X0121940Y0297133D01*
X0131940Y0297133D02*
X0131940Y0290733D01*
X0141940Y0290733D02*
X0141940Y0297133D01*
X0151940Y0297133D02*
X0151940Y0290733D01*
X0161940Y0290733D02*
X0161940Y0297133D01*
X0171940Y0297133D02*
X0171940Y0290733D01*
D16*
X0171940Y0273933D03*
X0161940Y0273933D03*
X0161940Y0223933D03*
X0171940Y0223933D03*
D17*
X0130640Y0274597D03*
X0127040Y0283133D03*
X0123085Y0274597D03*
X0118140Y0274597D03*
X0114540Y0283133D03*
X0110585Y0274597D03*
X0103140Y0274597D03*
X0099540Y0283133D03*
X0095585Y0274597D03*
X0088140Y0274597D03*
X0084540Y0283133D03*
X0080585Y0274597D03*
X0075640Y0274597D03*
X0072040Y0283133D03*
X0068085Y0274597D03*
X0063140Y0274597D03*
X0059540Y0283133D03*
X0055585Y0274597D03*
X0068240Y0158269D03*
X0075795Y0158269D03*
X0071840Y0149733D03*
X0068240Y0143269D03*
X0071840Y0134733D03*
X0075795Y0143269D03*
D18*
X0091341Y0143933D03*
X0102538Y0143933D03*
X0163841Y0243933D03*
X0163841Y0253933D03*
X0175038Y0253933D03*
X0175038Y0243933D03*
D19*
X0101940Y0189531D03*
X0101940Y0178335D03*
X0171940Y0139531D03*
X0171940Y0128335D03*
D20*
X0111940Y0123933D03*
X0111940Y0113933D03*
X0111940Y0103933D03*
X0111940Y0093933D03*
X0111940Y0083933D03*
X0111940Y0073933D03*
X0111940Y0133933D03*
X0111940Y0143933D03*
X0111940Y0153933D03*
X0111940Y0163933D03*
X0111940Y0173933D03*
X0111940Y0183933D03*
X0111940Y0193933D03*
X0111940Y0203933D03*
X0061940Y0123933D03*
X0061940Y0113933D03*
X0061940Y0103933D03*
X0051940Y0103933D03*
X0051940Y0093933D03*
X0051940Y0083933D03*
X0051940Y0073933D03*
X0061940Y0083933D03*
X0051940Y0113933D03*
X0051940Y0123933D03*
X0051940Y0133933D03*
X0051940Y0143933D03*
X0051940Y0153933D03*
X0051940Y0163933D03*
X0051940Y0173933D03*
X0051940Y0183933D03*
X0051940Y0193933D03*
X0051940Y0203933D03*
D21*
X0131940Y0188933D03*
X0136999Y0151128D03*
X0166999Y0151128D03*
X0171940Y0178933D03*
X0171940Y0198933D03*
D22*
X0166999Y0161128D03*
X0156999Y0161128D03*
X0156999Y0151128D03*
X0146999Y0151128D03*
X0146999Y0161128D03*
X0136999Y0161128D03*
D23*
X0137240Y0126433D03*
X0137240Y0121433D03*
X0137240Y0116433D03*
X0137240Y0111433D03*
X0156640Y0111433D03*
X0156640Y0116433D03*
X0156640Y0121433D03*
X0156640Y0126433D03*
D24*
X0099540Y0108033D03*
X0099540Y0098933D03*
X0099540Y0089833D03*
D25*
X0074340Y0098933D03*
D26*
X0144440Y0225433D03*
X0144440Y0243933D03*
X0144440Y0262433D03*
D27*
X0147787Y0275033D02*
X0147789Y0275141D01*
X0147795Y0275250D01*
X0147805Y0275358D01*
X0147819Y0275465D01*
X0147837Y0275572D01*
X0147858Y0275679D01*
X0147884Y0275784D01*
X0147914Y0275889D01*
X0147947Y0275992D01*
X0147984Y0276094D01*
X0148025Y0276194D01*
X0148069Y0276293D01*
X0148118Y0276391D01*
X0148169Y0276486D01*
X0148224Y0276579D01*
X0148283Y0276671D01*
X0148345Y0276760D01*
X0148410Y0276847D01*
X0148478Y0276931D01*
X0148549Y0277013D01*
X0148623Y0277092D01*
X0148700Y0277168D01*
X0148780Y0277242D01*
X0148863Y0277312D01*
X0148948Y0277380D01*
X0149035Y0277444D01*
X0149125Y0277505D01*
X0149217Y0277563D01*
X0149311Y0277617D01*
X0149407Y0277668D01*
X0149504Y0277715D01*
X0149604Y0277759D01*
X0149705Y0277799D01*
X0149807Y0277835D01*
X0149910Y0277867D01*
X0150015Y0277896D01*
X0150121Y0277920D01*
X0150227Y0277941D01*
X0150334Y0277958D01*
X0150442Y0277971D01*
X0150550Y0277980D01*
X0150659Y0277985D01*
X0150767Y0277986D01*
X0150876Y0277983D01*
X0150984Y0277976D01*
X0151092Y0277965D01*
X0151199Y0277950D01*
X0151306Y0277931D01*
X0151412Y0277908D01*
X0151517Y0277882D01*
X0151622Y0277851D01*
X0151724Y0277817D01*
X0151826Y0277779D01*
X0151926Y0277737D01*
X0152025Y0277692D01*
X0152122Y0277643D01*
X0152216Y0277590D01*
X0152309Y0277534D01*
X0152400Y0277475D01*
X0152489Y0277412D01*
X0152575Y0277347D01*
X0152659Y0277278D01*
X0152740Y0277206D01*
X0152818Y0277131D01*
X0152894Y0277053D01*
X0152967Y0276972D01*
X0153037Y0276889D01*
X0153103Y0276804D01*
X0153167Y0276716D01*
X0153227Y0276625D01*
X0153284Y0276533D01*
X0153337Y0276438D01*
X0153387Y0276342D01*
X0153433Y0276244D01*
X0153476Y0276144D01*
X0153515Y0276043D01*
X0153550Y0275940D01*
X0153582Y0275837D01*
X0153609Y0275732D01*
X0153633Y0275626D01*
X0153653Y0275519D01*
X0153669Y0275412D01*
X0153681Y0275304D01*
X0153689Y0275196D01*
X0153693Y0275087D01*
X0153693Y0274979D01*
X0153689Y0274870D01*
X0153681Y0274762D01*
X0153669Y0274654D01*
X0153653Y0274547D01*
X0153633Y0274440D01*
X0153609Y0274334D01*
X0153582Y0274229D01*
X0153550Y0274126D01*
X0153515Y0274023D01*
X0153476Y0273922D01*
X0153433Y0273822D01*
X0153387Y0273724D01*
X0153337Y0273628D01*
X0153284Y0273533D01*
X0153227Y0273441D01*
X0153167Y0273350D01*
X0153103Y0273262D01*
X0153037Y0273177D01*
X0152967Y0273094D01*
X0152894Y0273013D01*
X0152818Y0272935D01*
X0152740Y0272860D01*
X0152659Y0272788D01*
X0152575Y0272719D01*
X0152489Y0272654D01*
X0152400Y0272591D01*
X0152309Y0272532D01*
X0152217Y0272476D01*
X0152122Y0272423D01*
X0152025Y0272374D01*
X0151926Y0272329D01*
X0151826Y0272287D01*
X0151724Y0272249D01*
X0151622Y0272215D01*
X0151517Y0272184D01*
X0151412Y0272158D01*
X0151306Y0272135D01*
X0151199Y0272116D01*
X0151092Y0272101D01*
X0150984Y0272090D01*
X0150876Y0272083D01*
X0150767Y0272080D01*
X0150659Y0272081D01*
X0150550Y0272086D01*
X0150442Y0272095D01*
X0150334Y0272108D01*
X0150227Y0272125D01*
X0150121Y0272146D01*
X0150015Y0272170D01*
X0149910Y0272199D01*
X0149807Y0272231D01*
X0149705Y0272267D01*
X0149604Y0272307D01*
X0149504Y0272351D01*
X0149407Y0272398D01*
X0149311Y0272449D01*
X0149217Y0272503D01*
X0149125Y0272561D01*
X0149035Y0272622D01*
X0148948Y0272686D01*
X0148863Y0272754D01*
X0148780Y0272824D01*
X0148700Y0272898D01*
X0148623Y0272974D01*
X0148549Y0273053D01*
X0148478Y0273135D01*
X0148410Y0273219D01*
X0148345Y0273306D01*
X0148283Y0273395D01*
X0148224Y0273487D01*
X0148169Y0273580D01*
X0148118Y0273675D01*
X0148069Y0273773D01*
X0148025Y0273872D01*
X0147984Y0273972D01*
X0147947Y0274074D01*
X0147914Y0274177D01*
X0147884Y0274282D01*
X0147858Y0274387D01*
X0147837Y0274494D01*
X0147819Y0274601D01*
X0147805Y0274708D01*
X0147795Y0274816D01*
X0147789Y0274925D01*
X0147787Y0275033D01*
X0135187Y0275033D02*
X0135189Y0275141D01*
X0135195Y0275250D01*
X0135205Y0275358D01*
X0135219Y0275465D01*
X0135237Y0275572D01*
X0135258Y0275679D01*
X0135284Y0275784D01*
X0135314Y0275889D01*
X0135347Y0275992D01*
X0135384Y0276094D01*
X0135425Y0276194D01*
X0135469Y0276293D01*
X0135518Y0276391D01*
X0135569Y0276486D01*
X0135624Y0276579D01*
X0135683Y0276671D01*
X0135745Y0276760D01*
X0135810Y0276847D01*
X0135878Y0276931D01*
X0135949Y0277013D01*
X0136023Y0277092D01*
X0136100Y0277168D01*
X0136180Y0277242D01*
X0136263Y0277312D01*
X0136348Y0277380D01*
X0136435Y0277444D01*
X0136525Y0277505D01*
X0136617Y0277563D01*
X0136711Y0277617D01*
X0136807Y0277668D01*
X0136904Y0277715D01*
X0137004Y0277759D01*
X0137105Y0277799D01*
X0137207Y0277835D01*
X0137310Y0277867D01*
X0137415Y0277896D01*
X0137521Y0277920D01*
X0137627Y0277941D01*
X0137734Y0277958D01*
X0137842Y0277971D01*
X0137950Y0277980D01*
X0138059Y0277985D01*
X0138167Y0277986D01*
X0138276Y0277983D01*
X0138384Y0277976D01*
X0138492Y0277965D01*
X0138599Y0277950D01*
X0138706Y0277931D01*
X0138812Y0277908D01*
X0138917Y0277882D01*
X0139022Y0277851D01*
X0139124Y0277817D01*
X0139226Y0277779D01*
X0139326Y0277737D01*
X0139425Y0277692D01*
X0139522Y0277643D01*
X0139616Y0277590D01*
X0139709Y0277534D01*
X0139800Y0277475D01*
X0139889Y0277412D01*
X0139975Y0277347D01*
X0140059Y0277278D01*
X0140140Y0277206D01*
X0140218Y0277131D01*
X0140294Y0277053D01*
X0140367Y0276972D01*
X0140437Y0276889D01*
X0140503Y0276804D01*
X0140567Y0276716D01*
X0140627Y0276625D01*
X0140684Y0276533D01*
X0140737Y0276438D01*
X0140787Y0276342D01*
X0140833Y0276244D01*
X0140876Y0276144D01*
X0140915Y0276043D01*
X0140950Y0275940D01*
X0140982Y0275837D01*
X0141009Y0275732D01*
X0141033Y0275626D01*
X0141053Y0275519D01*
X0141069Y0275412D01*
X0141081Y0275304D01*
X0141089Y0275196D01*
X0141093Y0275087D01*
X0141093Y0274979D01*
X0141089Y0274870D01*
X0141081Y0274762D01*
X0141069Y0274654D01*
X0141053Y0274547D01*
X0141033Y0274440D01*
X0141009Y0274334D01*
X0140982Y0274229D01*
X0140950Y0274126D01*
X0140915Y0274023D01*
X0140876Y0273922D01*
X0140833Y0273822D01*
X0140787Y0273724D01*
X0140737Y0273628D01*
X0140684Y0273533D01*
X0140627Y0273441D01*
X0140567Y0273350D01*
X0140503Y0273262D01*
X0140437Y0273177D01*
X0140367Y0273094D01*
X0140294Y0273013D01*
X0140218Y0272935D01*
X0140140Y0272860D01*
X0140059Y0272788D01*
X0139975Y0272719D01*
X0139889Y0272654D01*
X0139800Y0272591D01*
X0139709Y0272532D01*
X0139617Y0272476D01*
X0139522Y0272423D01*
X0139425Y0272374D01*
X0139326Y0272329D01*
X0139226Y0272287D01*
X0139124Y0272249D01*
X0139022Y0272215D01*
X0138917Y0272184D01*
X0138812Y0272158D01*
X0138706Y0272135D01*
X0138599Y0272116D01*
X0138492Y0272101D01*
X0138384Y0272090D01*
X0138276Y0272083D01*
X0138167Y0272080D01*
X0138059Y0272081D01*
X0137950Y0272086D01*
X0137842Y0272095D01*
X0137734Y0272108D01*
X0137627Y0272125D01*
X0137521Y0272146D01*
X0137415Y0272170D01*
X0137310Y0272199D01*
X0137207Y0272231D01*
X0137105Y0272267D01*
X0137004Y0272307D01*
X0136904Y0272351D01*
X0136807Y0272398D01*
X0136711Y0272449D01*
X0136617Y0272503D01*
X0136525Y0272561D01*
X0136435Y0272622D01*
X0136348Y0272686D01*
X0136263Y0272754D01*
X0136180Y0272824D01*
X0136100Y0272898D01*
X0136023Y0272974D01*
X0135949Y0273053D01*
X0135878Y0273135D01*
X0135810Y0273219D01*
X0135745Y0273306D01*
X0135683Y0273395D01*
X0135624Y0273487D01*
X0135569Y0273580D01*
X0135518Y0273675D01*
X0135469Y0273773D01*
X0135425Y0273872D01*
X0135384Y0273972D01*
X0135347Y0274074D01*
X0135314Y0274177D01*
X0135284Y0274282D01*
X0135258Y0274387D01*
X0135237Y0274494D01*
X0135219Y0274601D01*
X0135205Y0274708D01*
X0135195Y0274816D01*
X0135189Y0274925D01*
X0135187Y0275033D01*
X0135187Y0212833D02*
X0135189Y0212941D01*
X0135195Y0213050D01*
X0135205Y0213158D01*
X0135219Y0213265D01*
X0135237Y0213372D01*
X0135258Y0213479D01*
X0135284Y0213584D01*
X0135314Y0213689D01*
X0135347Y0213792D01*
X0135384Y0213894D01*
X0135425Y0213994D01*
X0135469Y0214093D01*
X0135518Y0214191D01*
X0135569Y0214286D01*
X0135624Y0214379D01*
X0135683Y0214471D01*
X0135745Y0214560D01*
X0135810Y0214647D01*
X0135878Y0214731D01*
X0135949Y0214813D01*
X0136023Y0214892D01*
X0136100Y0214968D01*
X0136180Y0215042D01*
X0136263Y0215112D01*
X0136348Y0215180D01*
X0136435Y0215244D01*
X0136525Y0215305D01*
X0136617Y0215363D01*
X0136711Y0215417D01*
X0136807Y0215468D01*
X0136904Y0215515D01*
X0137004Y0215559D01*
X0137105Y0215599D01*
X0137207Y0215635D01*
X0137310Y0215667D01*
X0137415Y0215696D01*
X0137521Y0215720D01*
X0137627Y0215741D01*
X0137734Y0215758D01*
X0137842Y0215771D01*
X0137950Y0215780D01*
X0138059Y0215785D01*
X0138167Y0215786D01*
X0138276Y0215783D01*
X0138384Y0215776D01*
X0138492Y0215765D01*
X0138599Y0215750D01*
X0138706Y0215731D01*
X0138812Y0215708D01*
X0138917Y0215682D01*
X0139022Y0215651D01*
X0139124Y0215617D01*
X0139226Y0215579D01*
X0139326Y0215537D01*
X0139425Y0215492D01*
X0139522Y0215443D01*
X0139616Y0215390D01*
X0139709Y0215334D01*
X0139800Y0215275D01*
X0139889Y0215212D01*
X0139975Y0215147D01*
X0140059Y0215078D01*
X0140140Y0215006D01*
X0140218Y0214931D01*
X0140294Y0214853D01*
X0140367Y0214772D01*
X0140437Y0214689D01*
X0140503Y0214604D01*
X0140567Y0214516D01*
X0140627Y0214425D01*
X0140684Y0214333D01*
X0140737Y0214238D01*
X0140787Y0214142D01*
X0140833Y0214044D01*
X0140876Y0213944D01*
X0140915Y0213843D01*
X0140950Y0213740D01*
X0140982Y0213637D01*
X0141009Y0213532D01*
X0141033Y0213426D01*
X0141053Y0213319D01*
X0141069Y0213212D01*
X0141081Y0213104D01*
X0141089Y0212996D01*
X0141093Y0212887D01*
X0141093Y0212779D01*
X0141089Y0212670D01*
X0141081Y0212562D01*
X0141069Y0212454D01*
X0141053Y0212347D01*
X0141033Y0212240D01*
X0141009Y0212134D01*
X0140982Y0212029D01*
X0140950Y0211926D01*
X0140915Y0211823D01*
X0140876Y0211722D01*
X0140833Y0211622D01*
X0140787Y0211524D01*
X0140737Y0211428D01*
X0140684Y0211333D01*
X0140627Y0211241D01*
X0140567Y0211150D01*
X0140503Y0211062D01*
X0140437Y0210977D01*
X0140367Y0210894D01*
X0140294Y0210813D01*
X0140218Y0210735D01*
X0140140Y0210660D01*
X0140059Y0210588D01*
X0139975Y0210519D01*
X0139889Y0210454D01*
X0139800Y0210391D01*
X0139709Y0210332D01*
X0139617Y0210276D01*
X0139522Y0210223D01*
X0139425Y0210174D01*
X0139326Y0210129D01*
X0139226Y0210087D01*
X0139124Y0210049D01*
X0139022Y0210015D01*
X0138917Y0209984D01*
X0138812Y0209958D01*
X0138706Y0209935D01*
X0138599Y0209916D01*
X0138492Y0209901D01*
X0138384Y0209890D01*
X0138276Y0209883D01*
X0138167Y0209880D01*
X0138059Y0209881D01*
X0137950Y0209886D01*
X0137842Y0209895D01*
X0137734Y0209908D01*
X0137627Y0209925D01*
X0137521Y0209946D01*
X0137415Y0209970D01*
X0137310Y0209999D01*
X0137207Y0210031D01*
X0137105Y0210067D01*
X0137004Y0210107D01*
X0136904Y0210151D01*
X0136807Y0210198D01*
X0136711Y0210249D01*
X0136617Y0210303D01*
X0136525Y0210361D01*
X0136435Y0210422D01*
X0136348Y0210486D01*
X0136263Y0210554D01*
X0136180Y0210624D01*
X0136100Y0210698D01*
X0136023Y0210774D01*
X0135949Y0210853D01*
X0135878Y0210935D01*
X0135810Y0211019D01*
X0135745Y0211106D01*
X0135683Y0211195D01*
X0135624Y0211287D01*
X0135569Y0211380D01*
X0135518Y0211475D01*
X0135469Y0211573D01*
X0135425Y0211672D01*
X0135384Y0211772D01*
X0135347Y0211874D01*
X0135314Y0211977D01*
X0135284Y0212082D01*
X0135258Y0212187D01*
X0135237Y0212294D01*
X0135219Y0212401D01*
X0135205Y0212508D01*
X0135195Y0212616D01*
X0135189Y0212725D01*
X0135187Y0212833D01*
X0147787Y0212833D02*
X0147789Y0212941D01*
X0147795Y0213050D01*
X0147805Y0213158D01*
X0147819Y0213265D01*
X0147837Y0213372D01*
X0147858Y0213479D01*
X0147884Y0213584D01*
X0147914Y0213689D01*
X0147947Y0213792D01*
X0147984Y0213894D01*
X0148025Y0213994D01*
X0148069Y0214093D01*
X0148118Y0214191D01*
X0148169Y0214286D01*
X0148224Y0214379D01*
X0148283Y0214471D01*
X0148345Y0214560D01*
X0148410Y0214647D01*
X0148478Y0214731D01*
X0148549Y0214813D01*
X0148623Y0214892D01*
X0148700Y0214968D01*
X0148780Y0215042D01*
X0148863Y0215112D01*
X0148948Y0215180D01*
X0149035Y0215244D01*
X0149125Y0215305D01*
X0149217Y0215363D01*
X0149311Y0215417D01*
X0149407Y0215468D01*
X0149504Y0215515D01*
X0149604Y0215559D01*
X0149705Y0215599D01*
X0149807Y0215635D01*
X0149910Y0215667D01*
X0150015Y0215696D01*
X0150121Y0215720D01*
X0150227Y0215741D01*
X0150334Y0215758D01*
X0150442Y0215771D01*
X0150550Y0215780D01*
X0150659Y0215785D01*
X0150767Y0215786D01*
X0150876Y0215783D01*
X0150984Y0215776D01*
X0151092Y0215765D01*
X0151199Y0215750D01*
X0151306Y0215731D01*
X0151412Y0215708D01*
X0151517Y0215682D01*
X0151622Y0215651D01*
X0151724Y0215617D01*
X0151826Y0215579D01*
X0151926Y0215537D01*
X0152025Y0215492D01*
X0152122Y0215443D01*
X0152216Y0215390D01*
X0152309Y0215334D01*
X0152400Y0215275D01*
X0152489Y0215212D01*
X0152575Y0215147D01*
X0152659Y0215078D01*
X0152740Y0215006D01*
X0152818Y0214931D01*
X0152894Y0214853D01*
X0152967Y0214772D01*
X0153037Y0214689D01*
X0153103Y0214604D01*
X0153167Y0214516D01*
X0153227Y0214425D01*
X0153284Y0214333D01*
X0153337Y0214238D01*
X0153387Y0214142D01*
X0153433Y0214044D01*
X0153476Y0213944D01*
X0153515Y0213843D01*
X0153550Y0213740D01*
X0153582Y0213637D01*
X0153609Y0213532D01*
X0153633Y0213426D01*
X0153653Y0213319D01*
X0153669Y0213212D01*
X0153681Y0213104D01*
X0153689Y0212996D01*
X0153693Y0212887D01*
X0153693Y0212779D01*
X0153689Y0212670D01*
X0153681Y0212562D01*
X0153669Y0212454D01*
X0153653Y0212347D01*
X0153633Y0212240D01*
X0153609Y0212134D01*
X0153582Y0212029D01*
X0153550Y0211926D01*
X0153515Y0211823D01*
X0153476Y0211722D01*
X0153433Y0211622D01*
X0153387Y0211524D01*
X0153337Y0211428D01*
X0153284Y0211333D01*
X0153227Y0211241D01*
X0153167Y0211150D01*
X0153103Y0211062D01*
X0153037Y0210977D01*
X0152967Y0210894D01*
X0152894Y0210813D01*
X0152818Y0210735D01*
X0152740Y0210660D01*
X0152659Y0210588D01*
X0152575Y0210519D01*
X0152489Y0210454D01*
X0152400Y0210391D01*
X0152309Y0210332D01*
X0152217Y0210276D01*
X0152122Y0210223D01*
X0152025Y0210174D01*
X0151926Y0210129D01*
X0151826Y0210087D01*
X0151724Y0210049D01*
X0151622Y0210015D01*
X0151517Y0209984D01*
X0151412Y0209958D01*
X0151306Y0209935D01*
X0151199Y0209916D01*
X0151092Y0209901D01*
X0150984Y0209890D01*
X0150876Y0209883D01*
X0150767Y0209880D01*
X0150659Y0209881D01*
X0150550Y0209886D01*
X0150442Y0209895D01*
X0150334Y0209908D01*
X0150227Y0209925D01*
X0150121Y0209946D01*
X0150015Y0209970D01*
X0149910Y0209999D01*
X0149807Y0210031D01*
X0149705Y0210067D01*
X0149604Y0210107D01*
X0149504Y0210151D01*
X0149407Y0210198D01*
X0149311Y0210249D01*
X0149217Y0210303D01*
X0149125Y0210361D01*
X0149035Y0210422D01*
X0148948Y0210486D01*
X0148863Y0210554D01*
X0148780Y0210624D01*
X0148700Y0210698D01*
X0148623Y0210774D01*
X0148549Y0210853D01*
X0148478Y0210935D01*
X0148410Y0211019D01*
X0148345Y0211106D01*
X0148283Y0211195D01*
X0148224Y0211287D01*
X0148169Y0211380D01*
X0148118Y0211475D01*
X0148069Y0211573D01*
X0148025Y0211672D01*
X0147984Y0211772D01*
X0147947Y0211874D01*
X0147914Y0211977D01*
X0147884Y0212082D01*
X0147858Y0212187D01*
X0147837Y0212294D01*
X0147819Y0212401D01*
X0147805Y0212508D01*
X0147795Y0212616D01*
X0147789Y0212725D01*
X0147787Y0212833D01*
D28*
X0146940Y0210533D02*
X0146940Y0209733D01*
X0173340Y0183333D01*
X0174940Y0183333D01*
X0176540Y0181733D01*
X0176540Y0152933D01*
X0152540Y0128933D01*
X0146940Y0128933D01*
X0142140Y0124133D01*
X0131740Y0124133D01*
X0111940Y0143933D01*
X0106940Y0142533D02*
X0110940Y0138533D01*
X0114940Y0138533D01*
X0131740Y0121733D01*
X0136540Y0121733D01*
X0137240Y0121433D01*
X0137240Y0126433D02*
X0136540Y0126533D01*
X0114140Y0148933D01*
X0110140Y0148933D01*
X0094940Y0164133D01*
X0094940Y0191333D01*
X0106940Y0203333D01*
X0111740Y0203333D01*
X0111940Y0203933D01*
X0113340Y0208933D02*
X0110140Y0208933D01*
X0093340Y0192133D01*
X0093340Y0157733D01*
X0076540Y0157733D01*
X0075795Y0158269D01*
X0071740Y0166533D02*
X0059740Y0154533D01*
X0059740Y0128133D01*
X0056540Y0124933D01*
X0056540Y0118533D01*
X0051940Y0113933D01*
X0069340Y0105733D02*
X0078940Y0115333D01*
X0068540Y0125733D01*
X0068540Y0142533D01*
X0068240Y0143269D01*
X0068540Y0143333D01*
X0068540Y0157733D01*
X0068240Y0158269D01*
X0071740Y0166533D02*
X0071740Y0174533D01*
X0072540Y0188133D02*
X0072540Y0221733D01*
X0074940Y0224133D01*
X0119740Y0224133D01*
X0126940Y0216933D01*
X0126940Y0216433D01*
X0133340Y0220133D02*
X0127740Y0225733D01*
X0071740Y0225733D01*
X0071740Y0229733D01*
X0071940Y0229996D01*
X0071740Y0225733D02*
X0071740Y0223333D01*
X0066940Y0218533D01*
X0066940Y0216433D01*
X0076540Y0216133D02*
X0076940Y0216433D01*
X0076540Y0216133D02*
X0076540Y0189733D01*
X0058140Y0171333D01*
X0058140Y0153733D01*
X0052540Y0148133D01*
X0052540Y0144133D01*
X0051940Y0143933D01*
X0051940Y0163933D02*
X0052540Y0164133D01*
X0052540Y0168133D01*
X0072540Y0188133D01*
X0093340Y0157733D02*
X0097340Y0157733D01*
X0106940Y0148133D01*
X0106940Y0142533D01*
X0102538Y0143933D02*
X0102140Y0143333D01*
X0102140Y0137733D01*
X0096540Y0132133D01*
X0109340Y0119333D01*
X0113340Y0119333D01*
X0118940Y0113733D01*
X0125340Y0113733D01*
X0125340Y0114533D01*
X0125340Y0113733D02*
X0141340Y0113733D01*
X0153340Y0125733D01*
X0156540Y0125733D01*
X0156640Y0126433D01*
X0157340Y0126533D01*
X0158940Y0128133D01*
X0171740Y0128133D01*
X0171940Y0128335D01*
X0171940Y0139531D02*
X0172540Y0140133D01*
X0172540Y0146533D01*
X0178140Y0152133D01*
X0178140Y0192933D01*
X0172540Y0198533D01*
X0171940Y0198933D01*
X0171740Y0179333D02*
X0165340Y0179333D01*
X0133340Y0211333D01*
X0133340Y0220133D01*
X0138140Y0217733D02*
X0139740Y0217733D01*
X0146940Y0210533D01*
X0138140Y0217733D02*
X0113340Y0242533D01*
X0060540Y0242533D01*
X0050140Y0252933D01*
X0050140Y0264933D01*
X0052540Y0267333D01*
X0053340Y0267333D01*
X0058940Y0272933D01*
X0058940Y0275333D01*
X0062940Y0279333D01*
X0076540Y0279333D01*
X0080540Y0275333D01*
X0080585Y0274597D01*
X0082140Y0271333D02*
X0078940Y0271333D01*
X0075740Y0274533D01*
X0075640Y0274597D01*
X0074940Y0275333D01*
X0072540Y0277733D01*
X0066140Y0277733D01*
X0063740Y0275333D01*
X0063140Y0274597D01*
X0062940Y0274533D01*
X0054940Y0266533D01*
X0054940Y0263333D01*
X0054440Y0262870D01*
X0059740Y0261733D02*
X0054940Y0256933D01*
X0054940Y0255333D01*
X0054440Y0254996D01*
X0059740Y0261733D02*
X0059740Y0266533D01*
X0055585Y0274597D02*
X0055740Y0275333D01*
X0055740Y0279333D01*
X0059540Y0283133D02*
X0059740Y0283333D01*
X0061340Y0283333D01*
X0071940Y0293933D01*
X0077340Y0289733D02*
X0072540Y0284933D01*
X0072540Y0283333D01*
X0072040Y0283133D01*
X0077340Y0289733D02*
X0077340Y0299333D01*
X0079740Y0301733D01*
X0084540Y0301733D01*
X0091740Y0294533D01*
X0091940Y0293933D01*
X0094940Y0282533D02*
X0084540Y0282533D01*
X0084540Y0283133D01*
X0085340Y0274533D02*
X0082140Y0271333D01*
X0085340Y0274533D02*
X0087740Y0274533D01*
X0088140Y0274597D01*
X0088540Y0274533D01*
X0091740Y0271333D01*
X0097340Y0271333D01*
X0100540Y0274533D01*
X0102940Y0274533D01*
X0103140Y0274597D01*
X0101340Y0277733D02*
X0105340Y0277733D01*
X0107740Y0275333D01*
X0107740Y0252933D01*
X0118940Y0241733D01*
X0113340Y0237733D02*
X0122140Y0228933D01*
X0113340Y0237733D02*
X0072540Y0237733D01*
X0071940Y0237870D01*
X0068540Y0247333D02*
X0068540Y0274533D01*
X0068085Y0274597D01*
X0094940Y0282533D02*
X0097340Y0280133D01*
X0101340Y0280133D01*
X0111740Y0290533D01*
X0111740Y0293733D01*
X0111940Y0293933D01*
X0106940Y0298533D02*
X0110140Y0301733D01*
X0124540Y0301733D01*
X0131740Y0294533D01*
X0131940Y0293933D01*
X0129340Y0286533D02*
X0130140Y0285733D01*
X0143740Y0285733D01*
X0151940Y0293933D01*
X0161340Y0283333D02*
X0171940Y0293933D01*
X0161340Y0283333D02*
X0127740Y0283333D01*
X0127040Y0283133D01*
X0125340Y0286533D02*
X0129340Y0286533D01*
X0125340Y0286533D02*
X0122140Y0283333D01*
X0114940Y0283333D01*
X0114540Y0283133D01*
X0118140Y0274597D02*
X0118140Y0274533D01*
X0114140Y0270533D01*
X0110940Y0274533D02*
X0110585Y0274597D01*
X0110940Y0274533D02*
X0110940Y0254533D01*
X0115740Y0249733D01*
X0121340Y0271333D02*
X0126940Y0271333D01*
X0130140Y0274533D01*
X0130640Y0274597D01*
X0130940Y0274533D01*
X0134940Y0270533D01*
X0147740Y0270533D01*
X0163740Y0254533D01*
X0163841Y0253933D01*
X0163841Y0243933D02*
X0163740Y0243333D01*
X0163740Y0225733D01*
X0161940Y0223933D01*
X0166940Y0235333D02*
X0174940Y0243333D01*
X0175038Y0243933D01*
X0175038Y0253933D02*
X0174940Y0254533D01*
X0174940Y0260933D01*
X0161940Y0273933D01*
X0126940Y0278533D02*
X0123740Y0275333D01*
X0123085Y0274597D01*
X0121340Y0271333D02*
X0118140Y0274533D01*
X0106940Y0288933D02*
X0106940Y0298533D01*
X0106940Y0288933D02*
X0101340Y0283333D01*
X0099740Y0283333D01*
X0099540Y0283133D01*
X0101340Y0277733D02*
X0098940Y0275333D01*
X0095740Y0275333D01*
X0095585Y0274597D01*
X0113340Y0208933D02*
X0131740Y0190533D01*
X0131740Y0188933D01*
X0131940Y0188933D01*
X0138940Y0184933D02*
X0121340Y0184933D01*
X0112540Y0193733D01*
X0111940Y0193933D01*
X0101940Y0189531D02*
X0101340Y0188933D01*
X0101340Y0186533D01*
X0096540Y0181733D01*
X0096540Y0175333D01*
X0102940Y0168933D01*
X0120540Y0168933D01*
X0121340Y0169733D01*
X0128540Y0169733D01*
X0136540Y0161733D01*
X0136999Y0161128D01*
X0137340Y0161733D01*
X0146940Y0161733D01*
X0146999Y0161128D01*
X0152540Y0161733D02*
X0140540Y0173733D01*
X0112540Y0173733D01*
X0111940Y0173933D01*
X0111740Y0174533D01*
X0108540Y0177733D01*
X0102140Y0177733D01*
X0101940Y0178335D01*
X0111940Y0163933D02*
X0124540Y0151333D01*
X0136540Y0151333D01*
X0136999Y0151128D01*
X0138940Y0156933D02*
X0132540Y0156933D01*
X0122940Y0166533D01*
X0112540Y0153733D02*
X0111940Y0153933D01*
X0112540Y0153733D02*
X0119740Y0146533D01*
X0158140Y0146533D01*
X0161340Y0149733D01*
X0161340Y0152933D01*
X0166940Y0158533D01*
X0166940Y0160933D01*
X0166999Y0161128D01*
X0171740Y0160133D02*
X0167740Y0156133D01*
X0167740Y0151333D01*
X0166999Y0151128D01*
X0161340Y0159333D02*
X0161340Y0162533D01*
X0138940Y0184933D01*
X0152540Y0161733D02*
X0156540Y0161733D01*
X0156999Y0161128D01*
X0161340Y0159333D02*
X0157340Y0155333D01*
X0157340Y0151333D01*
X0156999Y0151128D01*
X0146999Y0151128D02*
X0146940Y0151333D01*
X0144540Y0151333D01*
X0138940Y0156933D01*
X0132540Y0119333D02*
X0120540Y0119333D01*
X0115740Y0111333D02*
X0113340Y0108933D01*
X0104540Y0108933D01*
X0104540Y0109733D01*
X0095740Y0118533D01*
X0090940Y0118533D01*
X0090877Y0118933D01*
X0083740Y0118533D02*
X0094140Y0108133D01*
X0098940Y0108133D01*
X0099540Y0108033D01*
X0104540Y0108933D02*
X0104540Y0104933D01*
X0089340Y0104933D01*
X0078940Y0115333D01*
X0083003Y0118933D02*
X0083740Y0119333D01*
X0096540Y0132133D01*
X0094140Y0134533D02*
X0072540Y0134533D01*
X0071840Y0134733D01*
X0075795Y0143269D02*
X0076540Y0143333D01*
X0090940Y0143333D01*
X0091341Y0143933D01*
X0075795Y0143269D02*
X0075740Y0143333D01*
X0072540Y0146533D01*
X0072540Y0149733D01*
X0071840Y0149733D01*
X0083003Y0118933D02*
X0083740Y0118533D01*
X0069340Y0105733D02*
X0069340Y0104933D01*
X0052540Y0088133D01*
X0052540Y0084133D01*
X0051940Y0083933D01*
X0052540Y0074533D02*
X0051940Y0073933D01*
X0052540Y0074533D02*
X0078940Y0074533D01*
X0082940Y0078533D01*
X0083003Y0078933D01*
X0082940Y0079333D01*
X0082940Y0090533D01*
X0074940Y0098533D01*
X0074340Y0098933D01*
X0090940Y0081733D02*
X0090940Y0079333D01*
X0090877Y0078933D01*
X0090940Y0081733D02*
X0097340Y0088133D01*
X0099540Y0089833D01*
X0099740Y0090533D01*
X0104540Y0095333D01*
X0104540Y0104933D01*
X0115740Y0111333D02*
X0136540Y0111333D01*
X0137240Y0111433D01*
X0137240Y0116433D02*
X0136540Y0116933D01*
X0134940Y0116933D01*
X0132540Y0119333D01*
X0099540Y0089833D02*
X0098940Y0089733D01*
X0097340Y0088133D01*
X0098140Y0088133D01*
X0111740Y0074533D01*
X0111940Y0073933D01*
X0171740Y0160133D02*
X0171740Y0178533D01*
X0171940Y0178933D01*
X0171740Y0179333D01*
D29*
X0166940Y0235333D03*
X0126940Y0278533D03*
X0114140Y0270533D03*
X0115740Y0249733D03*
X0118940Y0241733D03*
X0122140Y0228933D03*
X0122940Y0166533D03*
X0094140Y0134533D03*
X0120540Y0119333D03*
X0125340Y0114533D03*
X0071740Y0174533D03*
X0068540Y0247333D03*
X0059740Y0266533D03*
X0055740Y0279333D03*
M02*
