G75*
%MOIN*%
%OFA0B0*%
%FSLAX25Y25*%
%IPPOS*%
%LPD*%
%AMOC8*
5,1,8,0,0,1.08239X$1,22.5*
%
%ADD10C,0.01600*%
%ADD11C,0.01200*%
%ADD12C,0.00300*%
D10*
X0096940Y0226933D02*
X0101940Y0231933D01*
X0106940Y0226933D01*
X0101940Y0231933D02*
X0101940Y0243933D01*
X0097940Y0240433D02*
X0094940Y0237433D01*
X0097940Y0240433D02*
X0106440Y0240433D01*
X0109440Y0237433D01*
X0098738Y0247933D02*
X0098740Y0248046D01*
X0098746Y0248159D01*
X0098756Y0248271D01*
X0098770Y0248384D01*
X0098788Y0248495D01*
X0098810Y0248606D01*
X0098835Y0248716D01*
X0098865Y0248825D01*
X0098898Y0248933D01*
X0098935Y0249040D01*
X0098976Y0249145D01*
X0099021Y0249249D01*
X0099069Y0249351D01*
X0099121Y0249452D01*
X0099176Y0249550D01*
X0099235Y0249647D01*
X0099297Y0249741D01*
X0099363Y0249833D01*
X0099432Y0249923D01*
X0099503Y0250010D01*
X0099578Y0250095D01*
X0099656Y0250177D01*
X0099737Y0250256D01*
X0099820Y0250333D01*
X0099906Y0250406D01*
X0099994Y0250476D01*
X0100085Y0250543D01*
X0100179Y0250607D01*
X0100274Y0250668D01*
X0100372Y0250725D01*
X0100471Y0250778D01*
X0100573Y0250828D01*
X0100676Y0250875D01*
X0100780Y0250918D01*
X0100886Y0250957D01*
X0100994Y0250992D01*
X0101102Y0251023D01*
X0101212Y0251051D01*
X0101322Y0251075D01*
X0101434Y0251095D01*
X0101545Y0251111D01*
X0101658Y0251123D01*
X0101771Y0251131D01*
X0101883Y0251135D01*
X0101997Y0251135D01*
X0102109Y0251131D01*
X0102222Y0251123D01*
X0102335Y0251111D01*
X0102446Y0251095D01*
X0102558Y0251075D01*
X0102668Y0251051D01*
X0102778Y0251023D01*
X0102886Y0250992D01*
X0102994Y0250957D01*
X0103100Y0250918D01*
X0103204Y0250875D01*
X0103307Y0250828D01*
X0103409Y0250778D01*
X0103508Y0250725D01*
X0103606Y0250668D01*
X0103701Y0250607D01*
X0103795Y0250543D01*
X0103886Y0250476D01*
X0103974Y0250406D01*
X0104060Y0250333D01*
X0104143Y0250256D01*
X0104224Y0250177D01*
X0104302Y0250095D01*
X0104377Y0250010D01*
X0104448Y0249923D01*
X0104517Y0249833D01*
X0104583Y0249741D01*
X0104645Y0249647D01*
X0104704Y0249550D01*
X0104759Y0249452D01*
X0104811Y0249351D01*
X0104859Y0249249D01*
X0104904Y0249145D01*
X0104945Y0249040D01*
X0104982Y0248933D01*
X0105015Y0248825D01*
X0105045Y0248716D01*
X0105070Y0248606D01*
X0105092Y0248495D01*
X0105110Y0248384D01*
X0105124Y0248271D01*
X0105134Y0248159D01*
X0105140Y0248046D01*
X0105142Y0247933D01*
X0105140Y0247820D01*
X0105134Y0247707D01*
X0105124Y0247595D01*
X0105110Y0247482D01*
X0105092Y0247371D01*
X0105070Y0247260D01*
X0105045Y0247150D01*
X0105015Y0247041D01*
X0104982Y0246933D01*
X0104945Y0246826D01*
X0104904Y0246721D01*
X0104859Y0246617D01*
X0104811Y0246515D01*
X0104759Y0246414D01*
X0104704Y0246316D01*
X0104645Y0246219D01*
X0104583Y0246125D01*
X0104517Y0246033D01*
X0104448Y0245943D01*
X0104377Y0245856D01*
X0104302Y0245771D01*
X0104224Y0245689D01*
X0104143Y0245610D01*
X0104060Y0245533D01*
X0103974Y0245460D01*
X0103886Y0245390D01*
X0103795Y0245323D01*
X0103701Y0245259D01*
X0103606Y0245198D01*
X0103508Y0245141D01*
X0103409Y0245088D01*
X0103307Y0245038D01*
X0103204Y0244991D01*
X0103100Y0244948D01*
X0102994Y0244909D01*
X0102886Y0244874D01*
X0102778Y0244843D01*
X0102668Y0244815D01*
X0102558Y0244791D01*
X0102446Y0244771D01*
X0102335Y0244755D01*
X0102222Y0244743D01*
X0102109Y0244735D01*
X0101997Y0244731D01*
X0101883Y0244731D01*
X0101771Y0244735D01*
X0101658Y0244743D01*
X0101545Y0244755D01*
X0101434Y0244771D01*
X0101322Y0244791D01*
X0101212Y0244815D01*
X0101102Y0244843D01*
X0100994Y0244874D01*
X0100886Y0244909D01*
X0100780Y0244948D01*
X0100676Y0244991D01*
X0100573Y0245038D01*
X0100471Y0245088D01*
X0100372Y0245141D01*
X0100274Y0245198D01*
X0100179Y0245259D01*
X0100085Y0245323D01*
X0099994Y0245390D01*
X0099906Y0245460D01*
X0099820Y0245533D01*
X0099737Y0245610D01*
X0099656Y0245689D01*
X0099578Y0245771D01*
X0099503Y0245856D01*
X0099432Y0245943D01*
X0099363Y0246033D01*
X0099297Y0246125D01*
X0099235Y0246219D01*
X0099176Y0246316D01*
X0099121Y0246414D01*
X0099069Y0246515D01*
X0099021Y0246617D01*
X0098976Y0246721D01*
X0098935Y0246826D01*
X0098898Y0246933D01*
X0098865Y0247041D01*
X0098835Y0247150D01*
X0098810Y0247260D01*
X0098788Y0247371D01*
X0098770Y0247482D01*
X0098756Y0247595D01*
X0098746Y0247707D01*
X0098740Y0247820D01*
X0098738Y0247933D01*
D11*
X0097940Y0242433D02*
X0097940Y0237933D01*
X0096940Y0236433D02*
X0093940Y0239433D01*
X0099940Y0237933D02*
X0099940Y0242433D01*
X0103940Y0242433D02*
X0103940Y0237933D01*
X0106440Y0237933D02*
X0106440Y0242433D01*
X0110440Y0239433D02*
X0107440Y0236433D01*
D12*
X0065717Y0224083D02*
X0065233Y0224083D01*
X0065233Y0224567D01*
X0065717Y0224567D01*
X0065717Y0224083D01*
X0066728Y0224083D02*
X0066728Y0225534D01*
X0067212Y0226018D01*
X0068663Y0226018D01*
X0068663Y0224083D01*
X0069667Y0226018D02*
X0070151Y0226018D01*
X0071119Y0225051D01*
X0071119Y0226018D02*
X0071119Y0224083D01*
X0072130Y0224083D02*
X0073581Y0224083D01*
X0074065Y0224567D01*
X0073581Y0225051D01*
X0072130Y0225051D01*
X0072130Y0225534D02*
X0072130Y0224083D01*
X0072130Y0225534D02*
X0072614Y0226018D01*
X0073581Y0226018D01*
X0075077Y0225534D02*
X0075077Y0225051D01*
X0077012Y0225051D01*
X0077012Y0225534D02*
X0076528Y0226018D01*
X0075560Y0226018D01*
X0075077Y0225534D01*
X0075560Y0224083D02*
X0076528Y0224083D01*
X0077012Y0224567D01*
X0077012Y0225534D01*
X0078023Y0224083D02*
X0079958Y0224083D01*
X0079958Y0226986D01*
X0083894Y0224567D02*
X0083894Y0224083D01*
X0084378Y0224083D01*
X0084378Y0224567D01*
X0083894Y0224567D01*
X0085390Y0224083D02*
X0086841Y0224083D01*
X0087324Y0224567D01*
X0087324Y0226018D01*
X0088336Y0225534D02*
X0088336Y0224083D01*
X0089787Y0224083D01*
X0090271Y0224567D01*
X0089787Y0225051D01*
X0088336Y0225051D01*
X0088336Y0225534D02*
X0088820Y0226018D01*
X0089787Y0226018D01*
X0091752Y0226986D02*
X0091752Y0224083D01*
X0092235Y0224083D02*
X0091268Y0224083D01*
X0093247Y0225534D02*
X0093731Y0225051D01*
X0095182Y0225051D01*
X0095182Y0224083D02*
X0095182Y0226986D01*
X0093731Y0226986D01*
X0093247Y0226502D01*
X0093247Y0225534D01*
X0092235Y0226986D02*
X0091752Y0226986D01*
X0085390Y0226018D02*
X0085390Y0223599D01*
X0085873Y0223116D01*
X0086357Y0223116D01*
X0099118Y0224083D02*
X0099602Y0224083D01*
X0099602Y0224567D01*
X0099118Y0224567D01*
X0099118Y0224083D01*
X0100613Y0224083D02*
X0100613Y0226986D01*
X0100613Y0226018D02*
X0102064Y0226018D01*
X0102548Y0225534D01*
X0102548Y0224567D01*
X0102064Y0224083D01*
X0100613Y0224083D01*
X0103552Y0226018D02*
X0104036Y0226018D01*
X0105004Y0225051D01*
X0105004Y0226018D02*
X0105004Y0224083D01*
X0106015Y0224567D02*
X0106015Y0225534D01*
X0106499Y0226018D01*
X0107466Y0226018D01*
X0107950Y0225534D01*
X0107950Y0224567D01*
X0107466Y0224083D01*
X0106499Y0224083D01*
X0106015Y0224567D01*
X0108962Y0224083D02*
X0110413Y0224083D01*
X0110897Y0224567D01*
X0110897Y0225534D01*
X0110413Y0226018D01*
X0108962Y0226018D01*
X0111908Y0225534D02*
X0111908Y0225051D01*
X0113843Y0225051D01*
X0113843Y0225534D02*
X0113359Y0226018D01*
X0112392Y0226018D01*
X0111908Y0225534D01*
X0112392Y0224083D02*
X0113359Y0224083D01*
X0113843Y0224567D01*
X0113843Y0225534D01*
X0114855Y0225534D02*
X0115338Y0225051D01*
X0116790Y0225051D01*
X0115822Y0225051D02*
X0114855Y0224083D01*
X0114855Y0225534D02*
X0114855Y0226502D01*
X0115338Y0226986D01*
X0116790Y0226986D01*
X0116790Y0224083D01*
X0115822Y0254083D02*
X0115822Y0256986D01*
X0114855Y0256986D02*
X0116790Y0256986D01*
X0113843Y0255534D02*
X0113359Y0256018D01*
X0112392Y0256018D01*
X0111908Y0255534D01*
X0111908Y0255051D01*
X0113843Y0255051D01*
X0113843Y0255534D02*
X0113843Y0254567D01*
X0113359Y0254083D01*
X0112392Y0254083D01*
X0110897Y0254567D02*
X0110413Y0254083D01*
X0108962Y0254083D01*
X0108962Y0255534D01*
X0109445Y0256018D01*
X0110413Y0256018D01*
X0110413Y0255051D02*
X0108962Y0255051D01*
X0107950Y0256018D02*
X0107466Y0256018D01*
X0106983Y0255534D01*
X0106499Y0256018D01*
X0106015Y0255534D01*
X0106015Y0254083D01*
X0106983Y0254083D02*
X0106983Y0255534D01*
X0107950Y0256018D02*
X0107950Y0254083D01*
X0110413Y0255051D02*
X0110897Y0254567D01*
X0102057Y0254567D02*
X0101573Y0254083D01*
X0100606Y0254083D01*
X0100122Y0254567D01*
X0100122Y0255051D01*
X0100606Y0255534D01*
X0101573Y0255534D01*
X0102057Y0256018D01*
X0102057Y0256502D01*
X0101573Y0256986D01*
X0100606Y0256986D01*
X0100122Y0256502D01*
X0099111Y0256018D02*
X0099111Y0254567D01*
X0098627Y0254083D01*
X0097176Y0254083D01*
X0097176Y0256018D01*
X0096164Y0256018D02*
X0095680Y0256018D01*
X0095680Y0254083D01*
X0095197Y0254083D02*
X0096164Y0254083D01*
X0093716Y0254567D02*
X0093232Y0254083D01*
X0093716Y0254567D02*
X0093716Y0256502D01*
X0094200Y0256018D02*
X0093232Y0256018D01*
X0095680Y0256986D02*
X0095680Y0257469D01*
X0089289Y0256986D02*
X0089289Y0254567D01*
X0088805Y0254083D01*
X0087838Y0254083D01*
X0087354Y0254567D01*
X0087354Y0256986D01*
X0086342Y0256018D02*
X0084891Y0256018D01*
X0084407Y0255534D01*
X0084407Y0254567D01*
X0084891Y0254083D01*
X0086342Y0254083D01*
X0086342Y0253116D02*
X0086342Y0256018D01*
X0083396Y0255534D02*
X0083396Y0257469D01*
X0083396Y0254567D02*
X0083396Y0254083D01*
M02*
