G75*
%MOIN*%
%OFA0B0*%
%FSLAX25Y25*%
%IPPOS*%
%LPD*%
%AMOC8*
5,1,8,0,0,1.08239X$1,22.5*
%
%ADD10C,0.00300*%
%ADD11C,0.01000*%
%ADD12C,0.00800*%
%ADD13C,0.00600*%
%ADD14C,0.00500*%
%ADD15C,0.00000*%
%ADD16C,0.00020*%
%ADD17C,0.00200*%
D10*
X0045627Y0084083D02*
X0045143Y0084567D01*
X0045143Y0086502D01*
X0045627Y0086986D01*
X0046594Y0086986D01*
X0047078Y0086502D01*
X0048090Y0086986D02*
X0048090Y0084083D01*
X0047078Y0084567D02*
X0046594Y0084083D01*
X0045627Y0084083D01*
X0048090Y0085534D02*
X0050024Y0085534D01*
X0051036Y0084567D02*
X0051520Y0084083D01*
X0052487Y0084083D01*
X0052971Y0084567D01*
X0052971Y0085534D01*
X0052004Y0085534D01*
X0052971Y0086502D02*
X0052487Y0086986D01*
X0051520Y0086986D01*
X0051036Y0086502D01*
X0051036Y0084567D01*
X0050024Y0084083D02*
X0050024Y0086986D01*
X0053983Y0086986D02*
X0055434Y0086986D01*
X0055918Y0086502D01*
X0055918Y0085534D01*
X0055434Y0085051D01*
X0053983Y0085051D01*
X0054950Y0085051D02*
X0055918Y0084083D01*
X0053983Y0084083D02*
X0053983Y0086986D01*
X0065143Y0094083D02*
X0066594Y0094083D01*
X0067078Y0094567D01*
X0067078Y0095051D01*
X0066594Y0095534D01*
X0065143Y0095534D01*
X0065143Y0094083D02*
X0065143Y0096986D01*
X0066594Y0096986D01*
X0067078Y0096502D01*
X0067078Y0096018D01*
X0066594Y0095534D01*
X0068090Y0095534D02*
X0070024Y0095534D01*
X0070024Y0096018D02*
X0070024Y0094083D01*
X0068090Y0094083D02*
X0068090Y0096018D01*
X0069057Y0096986D01*
X0070024Y0096018D01*
X0071036Y0096986D02*
X0072971Y0096986D01*
X0072004Y0096986D02*
X0072004Y0094083D01*
X0047479Y0149267D02*
X0044343Y0152403D01*
X0044343Y0150835D02*
X0047479Y0150835D01*
X0047479Y0152403D02*
X0044343Y0149267D01*
X0045911Y0149267D02*
X0045911Y0152403D01*
X0028876Y0219083D02*
X0029843Y0220051D01*
X0028876Y0221018D01*
X0026941Y0221018D01*
X0027424Y0222030D02*
X0029359Y0222030D01*
X0029843Y0222513D01*
X0029843Y0223481D01*
X0029359Y0223965D01*
X0029359Y0224976D02*
X0029843Y0225460D01*
X0029843Y0226427D01*
X0029359Y0226911D01*
X0027424Y0226911D02*
X0026941Y0226427D01*
X0026941Y0225460D01*
X0027424Y0224976D01*
X0029359Y0224976D01*
X0027424Y0223965D02*
X0026941Y0223481D01*
X0026941Y0222513D01*
X0027424Y0222030D01*
X0026941Y0219083D02*
X0028876Y0219083D01*
X0050143Y0244083D02*
X0050143Y0246986D01*
X0051110Y0246018D01*
X0052078Y0246986D01*
X0052078Y0244083D01*
X0053090Y0244083D02*
X0053090Y0246986D01*
X0054541Y0246986D01*
X0055024Y0246502D01*
X0055024Y0245534D01*
X0054541Y0245051D01*
X0053090Y0245051D01*
X0056036Y0244567D02*
X0056520Y0244083D01*
X0057487Y0244083D01*
X0057971Y0244567D01*
X0057971Y0246986D01*
X0058983Y0245534D02*
X0060434Y0245534D01*
X0060918Y0245051D01*
X0060918Y0244567D01*
X0060434Y0244083D01*
X0059466Y0244083D01*
X0058983Y0244567D01*
X0058983Y0245534D01*
X0059950Y0246502D01*
X0060918Y0246986D01*
X0061929Y0246502D02*
X0062413Y0246986D01*
X0063380Y0246986D01*
X0063864Y0246502D01*
X0061929Y0244567D01*
X0062413Y0244083D01*
X0063380Y0244083D01*
X0063864Y0244567D01*
X0063864Y0246502D01*
X0064876Y0246986D02*
X0064876Y0245534D01*
X0065843Y0246018D01*
X0066327Y0246018D01*
X0066811Y0245534D01*
X0066811Y0244567D01*
X0066327Y0244083D01*
X0065359Y0244083D01*
X0064876Y0244567D01*
X0064876Y0246986D02*
X0066811Y0246986D01*
X0067822Y0246502D02*
X0068306Y0246986D01*
X0069273Y0246986D01*
X0069757Y0246502D01*
X0067822Y0244567D01*
X0068306Y0244083D01*
X0069273Y0244083D01*
X0069757Y0244567D01*
X0069757Y0246502D01*
X0067822Y0246502D02*
X0067822Y0244567D01*
X0061929Y0244567D02*
X0061929Y0246502D01*
X0056036Y0246986D02*
X0056036Y0244567D01*
X0057004Y0289083D02*
X0057004Y0291986D01*
X0057971Y0291986D02*
X0056036Y0291986D01*
X0055024Y0291502D02*
X0054541Y0291986D01*
X0053573Y0291986D01*
X0053090Y0291502D01*
X0053090Y0289567D01*
X0053573Y0289083D01*
X0054541Y0289083D01*
X0055024Y0289567D01*
X0055024Y0291502D01*
X0052078Y0291502D02*
X0052078Y0290534D01*
X0051594Y0290051D01*
X0050143Y0290051D01*
X0050143Y0289083D02*
X0050143Y0291986D01*
X0051594Y0291986D01*
X0052078Y0291502D01*
X0149707Y0228799D02*
X0152843Y0225663D01*
X0151275Y0225663D02*
X0151275Y0228799D01*
X0152843Y0228799D02*
X0149707Y0225663D01*
X0149707Y0227231D02*
X0152843Y0227231D01*
X0210143Y0176986D02*
X0210143Y0174083D01*
X0212078Y0174083D01*
X0213090Y0174567D02*
X0213573Y0175051D01*
X0215024Y0175051D01*
X0215024Y0175534D02*
X0215024Y0174083D01*
X0213573Y0174083D01*
X0213090Y0174567D01*
X0213573Y0176018D02*
X0214541Y0176018D01*
X0215024Y0175534D01*
X0216036Y0175534D02*
X0216520Y0176018D01*
X0217971Y0176018D01*
X0218983Y0176018D02*
X0218983Y0174567D01*
X0219466Y0174083D01*
X0220918Y0174083D01*
X0220918Y0173599D02*
X0220434Y0173116D01*
X0219950Y0173116D01*
X0220918Y0173599D02*
X0220918Y0176018D01*
X0221929Y0175051D02*
X0222897Y0174083D01*
X0223864Y0175051D01*
X0223864Y0176986D01*
X0224876Y0176986D02*
X0226327Y0176986D01*
X0226811Y0176502D01*
X0226811Y0175534D01*
X0226327Y0175051D01*
X0224876Y0175051D01*
X0225843Y0175051D02*
X0226811Y0174083D01*
X0227822Y0174567D02*
X0228306Y0174083D01*
X0229273Y0174083D01*
X0229757Y0174567D01*
X0229757Y0175051D01*
X0229273Y0175534D01*
X0228790Y0175534D01*
X0229273Y0175534D02*
X0229757Y0176018D01*
X0229757Y0176502D01*
X0229273Y0176986D01*
X0228306Y0176986D01*
X0227822Y0176502D01*
X0224876Y0176986D02*
X0224876Y0174083D01*
X0221929Y0175051D02*
X0221929Y0176986D01*
X0217971Y0174567D02*
X0217487Y0175051D01*
X0216520Y0175051D01*
X0216036Y0175534D01*
X0216036Y0174083D02*
X0217487Y0174083D01*
X0217971Y0174567D01*
X0212078Y0176986D02*
X0210143Y0176986D01*
X0210143Y0175534D02*
X0211110Y0175534D01*
X0230769Y0174567D02*
X0231252Y0174567D01*
X0231252Y0174083D01*
X0230769Y0174083D01*
X0230769Y0174567D01*
X0232242Y0174567D02*
X0234177Y0176502D01*
X0234177Y0174567D01*
X0233693Y0174083D01*
X0232726Y0174083D01*
X0232242Y0174567D01*
X0232242Y0176502D01*
X0232726Y0176986D01*
X0233693Y0176986D01*
X0234177Y0176502D01*
X0231974Y0081986D02*
X0231974Y0079083D01*
X0233909Y0079083D01*
X0234921Y0079567D02*
X0234921Y0080534D01*
X0235405Y0081018D01*
X0236372Y0081018D01*
X0236856Y0080534D01*
X0236856Y0080051D01*
X0234921Y0080051D01*
X0234921Y0079567D02*
X0235405Y0079083D01*
X0236372Y0079083D01*
X0237867Y0079567D02*
X0238351Y0080051D01*
X0239802Y0080051D01*
X0239802Y0080534D02*
X0239802Y0079083D01*
X0238351Y0079083D01*
X0237867Y0079567D01*
X0238351Y0081018D02*
X0239319Y0081018D01*
X0239802Y0080534D01*
X0240814Y0080051D02*
X0241781Y0081018D01*
X0242265Y0081018D01*
X0243269Y0081018D02*
X0244721Y0081018D01*
X0245204Y0080534D01*
X0245204Y0079083D01*
X0246216Y0079083D02*
X0246700Y0079083D01*
X0246700Y0079567D01*
X0246216Y0079567D01*
X0246216Y0079083D01*
X0243269Y0079083D02*
X0243269Y0081018D01*
X0240814Y0081018D02*
X0240814Y0079083D01*
X0239735Y0072069D02*
X0239735Y0071586D01*
X0239735Y0070618D02*
X0239735Y0068683D01*
X0239252Y0068683D02*
X0240219Y0068683D01*
X0241216Y0069167D02*
X0241700Y0068683D01*
X0242667Y0068683D01*
X0243151Y0069651D02*
X0241216Y0069651D01*
X0241216Y0070134D02*
X0241700Y0070618D01*
X0242667Y0070618D01*
X0243151Y0070134D01*
X0243151Y0069651D01*
X0244162Y0070134D02*
X0244162Y0069167D01*
X0244646Y0068683D01*
X0246097Y0068683D01*
X0247109Y0069167D02*
X0247109Y0070134D01*
X0247593Y0070618D01*
X0248560Y0070618D01*
X0249044Y0070134D01*
X0249044Y0069651D01*
X0247109Y0069651D01*
X0247109Y0069167D02*
X0247593Y0068683D01*
X0248560Y0068683D01*
X0246097Y0070618D02*
X0244646Y0070618D01*
X0244162Y0070134D01*
X0241216Y0070134D02*
X0241216Y0069167D01*
X0239735Y0070618D02*
X0239252Y0070618D01*
X0238240Y0070134D02*
X0238240Y0069167D01*
X0237756Y0068683D01*
X0236305Y0068683D01*
X0236305Y0067716D02*
X0236305Y0070618D01*
X0237756Y0070618D01*
X0238240Y0070134D01*
X0235308Y0070618D02*
X0234341Y0070618D01*
X0234825Y0071102D02*
X0234825Y0069167D01*
X0235308Y0068683D01*
X0233329Y0069167D02*
X0232845Y0069651D01*
X0231878Y0069651D01*
X0231394Y0070134D01*
X0231878Y0070618D01*
X0233329Y0070618D01*
X0233329Y0069167D02*
X0232845Y0068683D01*
X0231394Y0068683D01*
X0230383Y0069651D02*
X0228448Y0069651D01*
X0228448Y0070134D02*
X0228931Y0070618D01*
X0229899Y0070618D01*
X0230383Y0070134D01*
X0230383Y0069651D01*
X0229899Y0068683D02*
X0228931Y0068683D01*
X0228448Y0069167D01*
X0228448Y0070134D01*
X0227436Y0070134D02*
X0227436Y0068683D01*
X0227436Y0070134D02*
X0226952Y0070618D01*
X0225985Y0070618D01*
X0225501Y0070134D01*
X0224490Y0069167D02*
X0224006Y0068683D01*
X0223038Y0068683D01*
X0222555Y0069167D01*
X0222555Y0071102D01*
X0223038Y0071586D01*
X0224006Y0071586D01*
X0224490Y0071102D01*
X0225501Y0071586D02*
X0225501Y0068683D01*
X0223537Y0062469D02*
X0223537Y0060534D01*
X0223537Y0059567D02*
X0223537Y0059083D01*
X0222525Y0059567D02*
X0222042Y0059083D01*
X0220590Y0059083D01*
X0220590Y0058116D02*
X0220590Y0061018D01*
X0222042Y0061018D01*
X0222525Y0060534D01*
X0222525Y0059567D01*
X0219579Y0059567D02*
X0219579Y0061986D01*
X0217644Y0061986D02*
X0217644Y0059567D01*
X0218128Y0059083D01*
X0219095Y0059083D01*
X0219579Y0059567D01*
X0216640Y0063883D02*
X0215188Y0064851D01*
X0216640Y0065818D01*
X0215188Y0066786D02*
X0215188Y0063883D01*
X0214177Y0063883D02*
X0212726Y0063883D01*
X0212242Y0064367D01*
X0212242Y0065334D01*
X0212726Y0065818D01*
X0214177Y0065818D01*
X0212704Y0068683D02*
X0212704Y0071586D01*
X0212704Y0070618D02*
X0211252Y0070618D01*
X0210769Y0070134D01*
X0210769Y0069167D01*
X0211252Y0068683D01*
X0212704Y0068683D01*
X0210761Y0067269D02*
X0210761Y0066786D01*
X0210761Y0065818D02*
X0210761Y0063883D01*
X0210278Y0063883D02*
X0211245Y0063883D01*
X0211252Y0062469D02*
X0211252Y0061986D01*
X0211252Y0061018D02*
X0211252Y0059083D01*
X0210769Y0059083D02*
X0211736Y0059083D01*
X0213217Y0059567D02*
X0213700Y0059083D01*
X0213217Y0059567D02*
X0213217Y0061502D01*
X0213700Y0061018D02*
X0212733Y0061018D01*
X0211252Y0061018D02*
X0210769Y0061018D01*
X0209757Y0061018D02*
X0209757Y0059083D01*
X0208306Y0059083D01*
X0207822Y0059567D01*
X0207822Y0061018D01*
X0206811Y0061502D02*
X0206327Y0061986D01*
X0205359Y0061986D01*
X0204876Y0061502D01*
X0204876Y0061018D01*
X0205359Y0060534D01*
X0206327Y0060534D01*
X0206811Y0060051D01*
X0206811Y0059567D01*
X0206327Y0059083D01*
X0205359Y0059083D01*
X0204876Y0059567D01*
X0200918Y0059083D02*
X0200918Y0060534D01*
X0200434Y0061018D01*
X0199950Y0060534D01*
X0199950Y0059083D01*
X0198983Y0059083D02*
X0198983Y0061018D01*
X0199466Y0061018D01*
X0199950Y0060534D01*
X0197971Y0060534D02*
X0197971Y0059083D01*
X0196520Y0059083D01*
X0196036Y0059567D01*
X0196520Y0060051D01*
X0197971Y0060051D01*
X0197971Y0060534D02*
X0197487Y0061018D01*
X0196520Y0061018D01*
X0195024Y0060534D02*
X0195024Y0060051D01*
X0193090Y0060051D01*
X0193090Y0060534D02*
X0193573Y0061018D01*
X0194541Y0061018D01*
X0195024Y0060534D01*
X0194541Y0059083D02*
X0193573Y0059083D01*
X0193090Y0059567D01*
X0193090Y0060534D01*
X0192078Y0061986D02*
X0190143Y0061986D01*
X0191110Y0061986D02*
X0191110Y0059083D01*
X0190627Y0063883D02*
X0191594Y0063883D01*
X0192078Y0064367D01*
X0193090Y0063883D02*
X0193090Y0066786D01*
X0193573Y0065818D02*
X0194541Y0065818D01*
X0195024Y0065334D01*
X0195024Y0063883D01*
X0196036Y0064367D02*
X0196520Y0063883D01*
X0197971Y0063883D01*
X0197971Y0065334D01*
X0197487Y0065818D01*
X0196520Y0065818D01*
X0196520Y0064851D02*
X0197971Y0064851D01*
X0198983Y0065334D02*
X0199466Y0065818D01*
X0200918Y0065818D01*
X0200434Y0064851D02*
X0199466Y0064851D01*
X0198983Y0065334D01*
X0198983Y0063883D02*
X0200434Y0063883D01*
X0200918Y0064367D01*
X0200434Y0064851D01*
X0196520Y0064851D02*
X0196036Y0064367D01*
X0193573Y0065818D02*
X0193090Y0065334D01*
X0192078Y0066302D02*
X0191594Y0066786D01*
X0190627Y0066786D01*
X0190143Y0066302D01*
X0190143Y0064367D01*
X0190627Y0063883D01*
X0190143Y0068683D02*
X0191110Y0069651D01*
X0192078Y0068683D01*
X0192078Y0071586D01*
X0193090Y0070618D02*
X0194057Y0071586D01*
X0195024Y0070618D01*
X0195024Y0068683D01*
X0196036Y0069167D02*
X0196520Y0068683D01*
X0197487Y0068683D01*
X0197971Y0069167D01*
X0197971Y0070134D01*
X0197004Y0070134D01*
X0197971Y0071102D02*
X0197487Y0071586D01*
X0196520Y0071586D01*
X0196036Y0071102D01*
X0196036Y0069167D01*
X0195024Y0070134D02*
X0193090Y0070134D01*
X0193090Y0070618D02*
X0193090Y0068683D01*
X0190143Y0068683D02*
X0190143Y0071586D01*
X0195143Y0079083D02*
X0195143Y0081986D01*
X0196594Y0081986D01*
X0197078Y0081502D01*
X0197078Y0080534D01*
X0196594Y0080051D01*
X0195143Y0080051D01*
X0196110Y0080051D02*
X0197078Y0079083D01*
X0198090Y0079567D02*
X0198090Y0080534D01*
X0198573Y0081018D01*
X0199541Y0081018D01*
X0200024Y0080534D01*
X0200024Y0080051D01*
X0198090Y0080051D01*
X0198090Y0079567D02*
X0198573Y0079083D01*
X0199541Y0079083D01*
X0201036Y0079567D02*
X0201520Y0079083D01*
X0202971Y0079083D01*
X0203983Y0079567D02*
X0204466Y0079083D01*
X0205434Y0079083D01*
X0205918Y0079567D01*
X0205918Y0080534D01*
X0205434Y0081018D01*
X0204466Y0081018D01*
X0203983Y0080534D01*
X0203983Y0079567D01*
X0202971Y0081018D02*
X0201520Y0081018D01*
X0201036Y0080534D01*
X0201036Y0079567D01*
X0206929Y0080051D02*
X0207897Y0081018D01*
X0208380Y0081018D01*
X0209384Y0080534D02*
X0209868Y0081018D01*
X0211319Y0081018D01*
X0211319Y0081986D02*
X0211319Y0079083D01*
X0209868Y0079083D01*
X0209384Y0079567D01*
X0209384Y0080534D01*
X0206929Y0081018D02*
X0206929Y0079083D01*
X0212331Y0079083D02*
X0212815Y0079083D01*
X0212815Y0079567D01*
X0212331Y0079567D01*
X0212331Y0079083D01*
X0216751Y0079083D02*
X0216751Y0081986D01*
X0218202Y0081986D01*
X0218686Y0081502D01*
X0218686Y0080534D01*
X0218202Y0080051D01*
X0216751Y0080051D01*
X0219697Y0079083D02*
X0220665Y0079083D01*
X0220181Y0079083D02*
X0220181Y0081986D01*
X0219697Y0081986D01*
X0222145Y0081018D02*
X0223113Y0081018D01*
X0223597Y0080534D01*
X0223597Y0079083D01*
X0222145Y0079083D01*
X0221662Y0079567D01*
X0222145Y0080051D01*
X0223597Y0080051D01*
X0224608Y0079567D02*
X0225092Y0079083D01*
X0226543Y0079083D01*
X0226543Y0078599D02*
X0226543Y0081018D01*
X0227555Y0079567D02*
X0228038Y0079567D01*
X0228038Y0079083D01*
X0227555Y0079083D01*
X0227555Y0079567D01*
X0226543Y0078599D02*
X0226059Y0078116D01*
X0225576Y0078116D01*
X0224608Y0079567D02*
X0224608Y0081018D01*
X0218597Y0070134D02*
X0216662Y0070134D01*
X0209757Y0070134D02*
X0209757Y0068683D01*
X0209757Y0070134D02*
X0209273Y0070618D01*
X0207822Y0070618D01*
X0207822Y0068683D01*
X0206811Y0068683D02*
X0206811Y0070134D01*
X0206327Y0070618D01*
X0205359Y0070618D01*
X0205359Y0069651D02*
X0206811Y0069651D01*
X0206811Y0068683D02*
X0205359Y0068683D01*
X0204876Y0069167D01*
X0205359Y0069651D01*
X0203864Y0069651D02*
X0203864Y0069167D01*
X0203380Y0068683D01*
X0201929Y0068683D01*
X0201929Y0071586D01*
X0203380Y0071586D01*
X0203864Y0071102D01*
X0203864Y0070618D01*
X0203380Y0070134D01*
X0201929Y0070134D01*
X0203380Y0070134D02*
X0203864Y0069651D01*
X0204876Y0066786D02*
X0206811Y0066786D01*
X0207822Y0065818D02*
X0207822Y0063883D01*
X0207822Y0064851D02*
X0208790Y0065818D01*
X0209273Y0065818D01*
X0210278Y0065818D02*
X0210761Y0065818D01*
X0205843Y0065334D02*
X0204876Y0065334D01*
X0204876Y0063883D02*
X0204876Y0066786D01*
X0184843Y0284083D02*
X0184843Y0286018D01*
X0184359Y0287030D02*
X0184843Y0287513D01*
X0184843Y0288481D01*
X0184359Y0288965D01*
X0182424Y0288965D01*
X0181941Y0288481D01*
X0181941Y0287513D01*
X0182424Y0287030D01*
X0184359Y0287030D01*
X0184843Y0289976D02*
X0183876Y0290944D01*
X0184843Y0291911D01*
X0181941Y0291911D01*
X0181941Y0289976D02*
X0184843Y0289976D01*
X0185327Y0292923D02*
X0185327Y0294858D01*
X0184843Y0295869D02*
X0184843Y0297320D01*
X0184359Y0297804D01*
X0183876Y0297804D01*
X0183392Y0297320D01*
X0183392Y0295869D01*
X0184843Y0295869D02*
X0181941Y0295869D01*
X0181941Y0297320D01*
X0182424Y0297804D01*
X0182908Y0297804D01*
X0183392Y0297320D01*
X0183392Y0298816D02*
X0183392Y0300751D01*
X0182908Y0300751D02*
X0184843Y0300751D01*
X0182908Y0300751D02*
X0181941Y0299783D01*
X0182908Y0298816D01*
X0184843Y0298816D01*
X0184843Y0302730D02*
X0181941Y0302730D01*
X0181941Y0303697D02*
X0181941Y0301762D01*
X0181941Y0284083D02*
X0184843Y0284083D01*
X0255143Y0304083D02*
X0255143Y0306986D01*
X0256594Y0306986D01*
X0257078Y0306502D01*
X0257078Y0305534D01*
X0256594Y0305051D01*
X0255143Y0305051D01*
X0258090Y0304083D02*
X0259057Y0305051D01*
X0260024Y0304083D01*
X0260024Y0306986D01*
X0261036Y0306986D02*
X0262487Y0306986D01*
X0262971Y0306502D01*
X0262971Y0305534D01*
X0262487Y0305051D01*
X0261036Y0305051D01*
X0262004Y0305051D02*
X0262971Y0304083D01*
X0261036Y0304083D02*
X0261036Y0306986D01*
X0258090Y0306986D02*
X0258090Y0304083D01*
D11*
X0254993Y0301433D02*
X0254806Y0301676D01*
X0254614Y0301914D01*
X0254415Y0302147D01*
X0254211Y0302375D01*
X0254002Y0302598D01*
X0253787Y0302816D01*
X0253567Y0303029D01*
X0253342Y0303236D01*
X0253111Y0303438D01*
X0252876Y0303634D01*
X0252636Y0303824D01*
X0252392Y0304008D01*
X0252143Y0304186D01*
X0251889Y0304358D01*
X0251632Y0304524D01*
X0251371Y0304684D01*
X0251106Y0304837D01*
X0250837Y0304983D01*
X0250564Y0305123D01*
X0250289Y0305256D01*
X0250010Y0305382D01*
X0249728Y0305502D01*
X0249443Y0305614D01*
X0249156Y0305719D01*
X0248866Y0305818D01*
X0248574Y0305909D01*
X0248279Y0305993D01*
X0247983Y0306070D01*
X0247685Y0306140D01*
X0247385Y0306202D01*
X0247084Y0306257D01*
X0246782Y0306304D01*
X0246478Y0306344D01*
X0246174Y0306377D01*
X0245869Y0306402D01*
X0245563Y0306420D01*
X0245257Y0306430D01*
X0244951Y0306433D01*
X0244645Y0306428D01*
X0244339Y0306416D01*
X0244033Y0306396D01*
X0243729Y0306369D01*
X0243424Y0306334D01*
X0243121Y0306292D01*
X0242819Y0306243D01*
X0242518Y0306186D01*
X0242219Y0306121D01*
X0241921Y0306050D01*
X0241626Y0305971D01*
X0241332Y0305885D01*
X0241040Y0305792D01*
X0240751Y0305691D01*
X0240464Y0305584D01*
X0240180Y0305469D01*
X0239899Y0305348D01*
X0239621Y0305220D01*
X0239346Y0305085D01*
X0239075Y0304943D01*
X0238807Y0304795D01*
X0238543Y0304640D01*
X0238283Y0304479D01*
X0238027Y0304312D01*
X0237774Y0304138D01*
X0237527Y0303958D01*
X0237283Y0303772D01*
X0237045Y0303581D01*
X0236811Y0303383D01*
X0236582Y0303180D01*
X0236358Y0302971D01*
X0236139Y0302757D01*
X0235926Y0302537D01*
X0235718Y0302313D01*
X0235515Y0302083D01*
X0235319Y0301849D01*
X0235128Y0301609D01*
X0234943Y0301366D01*
X0234764Y0301117D01*
X0234591Y0300865D01*
X0234424Y0300608D01*
X0234264Y0300347D01*
X0234110Y0300082D01*
X0233963Y0299814D01*
X0233822Y0299542D01*
X0233688Y0299267D01*
X0233561Y0298988D01*
X0233440Y0298707D01*
X0233327Y0298422D01*
X0233221Y0298135D01*
X0233121Y0297846D01*
X0233029Y0297554D01*
X0232944Y0297260D01*
X0232866Y0296964D01*
X0232795Y0296666D01*
X0232732Y0296366D01*
X0232676Y0296065D01*
X0232628Y0295763D01*
X0232587Y0295460D01*
X0232553Y0295156D01*
X0232527Y0294851D01*
X0232508Y0294545D01*
X0232497Y0294239D01*
X0232493Y0293933D01*
X0232497Y0293627D01*
X0232508Y0293321D01*
X0232527Y0293015D01*
X0232553Y0292710D01*
X0232587Y0292406D01*
X0232628Y0292103D01*
X0232676Y0291801D01*
X0232732Y0291500D01*
X0232795Y0291200D01*
X0232866Y0290902D01*
X0232944Y0290606D01*
X0233029Y0290312D01*
X0233121Y0290020D01*
X0233221Y0289731D01*
X0233327Y0289444D01*
X0233440Y0289159D01*
X0233561Y0288878D01*
X0233688Y0288599D01*
X0233822Y0288324D01*
X0233963Y0288052D01*
X0234110Y0287784D01*
X0234264Y0287519D01*
X0234424Y0287258D01*
X0234591Y0287001D01*
X0234764Y0286749D01*
X0234943Y0286500D01*
X0235128Y0286257D01*
X0235319Y0286017D01*
X0235515Y0285783D01*
X0235718Y0285553D01*
X0235926Y0285329D01*
X0236139Y0285109D01*
X0236358Y0284895D01*
X0236582Y0284686D01*
X0236811Y0284483D01*
X0237045Y0284285D01*
X0237283Y0284094D01*
X0237527Y0283908D01*
X0237774Y0283728D01*
X0238027Y0283554D01*
X0238283Y0283387D01*
X0238543Y0283226D01*
X0238807Y0283071D01*
X0239075Y0282923D01*
X0239346Y0282781D01*
X0239621Y0282646D01*
X0239899Y0282518D01*
X0240180Y0282397D01*
X0240464Y0282282D01*
X0240751Y0282175D01*
X0241040Y0282074D01*
X0241332Y0281981D01*
X0241626Y0281895D01*
X0241921Y0281816D01*
X0242219Y0281745D01*
X0242518Y0281680D01*
X0242819Y0281623D01*
X0243121Y0281574D01*
X0243424Y0281532D01*
X0243729Y0281497D01*
X0244033Y0281470D01*
X0244339Y0281450D01*
X0244645Y0281438D01*
X0244951Y0281433D01*
X0245257Y0281436D01*
X0245563Y0281446D01*
X0245869Y0281464D01*
X0246174Y0281489D01*
X0246478Y0281522D01*
X0246782Y0281562D01*
X0247084Y0281609D01*
X0247385Y0281664D01*
X0247685Y0281726D01*
X0247983Y0281796D01*
X0248279Y0281873D01*
X0248574Y0281957D01*
X0248866Y0282048D01*
X0249156Y0282147D01*
X0249443Y0282252D01*
X0249728Y0282364D01*
X0250010Y0282484D01*
X0250289Y0282610D01*
X0250564Y0282743D01*
X0250837Y0282883D01*
X0251106Y0283029D01*
X0251371Y0283182D01*
X0251632Y0283342D01*
X0251889Y0283508D01*
X0252143Y0283680D01*
X0252392Y0283858D01*
X0252636Y0284042D01*
X0252876Y0284232D01*
X0253111Y0284428D01*
X0253342Y0284630D01*
X0253567Y0284837D01*
X0253787Y0285050D01*
X0254002Y0285268D01*
X0254211Y0285491D01*
X0254415Y0285719D01*
X0254614Y0285952D01*
X0254806Y0286190D01*
X0254993Y0286433D01*
X0209993Y0286433D02*
X0209806Y0286190D01*
X0209614Y0285952D01*
X0209415Y0285719D01*
X0209211Y0285491D01*
X0209002Y0285268D01*
X0208787Y0285050D01*
X0208567Y0284837D01*
X0208342Y0284630D01*
X0208111Y0284428D01*
X0207876Y0284232D01*
X0207636Y0284042D01*
X0207392Y0283858D01*
X0207143Y0283680D01*
X0206889Y0283508D01*
X0206632Y0283342D01*
X0206371Y0283182D01*
X0206106Y0283029D01*
X0205837Y0282883D01*
X0205564Y0282743D01*
X0205289Y0282610D01*
X0205010Y0282484D01*
X0204728Y0282364D01*
X0204443Y0282252D01*
X0204156Y0282147D01*
X0203866Y0282048D01*
X0203574Y0281957D01*
X0203279Y0281873D01*
X0202983Y0281796D01*
X0202685Y0281726D01*
X0202385Y0281664D01*
X0202084Y0281609D01*
X0201782Y0281562D01*
X0201478Y0281522D01*
X0201174Y0281489D01*
X0200869Y0281464D01*
X0200563Y0281446D01*
X0200257Y0281436D01*
X0199951Y0281433D01*
X0199645Y0281438D01*
X0199339Y0281450D01*
X0199033Y0281470D01*
X0198729Y0281497D01*
X0198424Y0281532D01*
X0198121Y0281574D01*
X0197819Y0281623D01*
X0197518Y0281680D01*
X0197219Y0281745D01*
X0196921Y0281816D01*
X0196626Y0281895D01*
X0196332Y0281981D01*
X0196040Y0282074D01*
X0195751Y0282175D01*
X0195464Y0282282D01*
X0195180Y0282397D01*
X0194899Y0282518D01*
X0194621Y0282646D01*
X0194346Y0282781D01*
X0194075Y0282923D01*
X0193807Y0283071D01*
X0193543Y0283226D01*
X0193283Y0283387D01*
X0193027Y0283554D01*
X0192774Y0283728D01*
X0192527Y0283908D01*
X0192283Y0284094D01*
X0192045Y0284285D01*
X0191811Y0284483D01*
X0191582Y0284686D01*
X0191358Y0284895D01*
X0191139Y0285109D01*
X0190926Y0285329D01*
X0190718Y0285553D01*
X0190515Y0285783D01*
X0190319Y0286017D01*
X0190128Y0286257D01*
X0189943Y0286500D01*
X0189764Y0286749D01*
X0189591Y0287001D01*
X0189424Y0287258D01*
X0189264Y0287519D01*
X0189110Y0287784D01*
X0188963Y0288052D01*
X0188822Y0288324D01*
X0188688Y0288599D01*
X0188561Y0288878D01*
X0188440Y0289159D01*
X0188327Y0289444D01*
X0188221Y0289731D01*
X0188121Y0290020D01*
X0188029Y0290312D01*
X0187944Y0290606D01*
X0187866Y0290902D01*
X0187795Y0291200D01*
X0187732Y0291500D01*
X0187676Y0291801D01*
X0187628Y0292103D01*
X0187587Y0292406D01*
X0187553Y0292710D01*
X0187527Y0293015D01*
X0187508Y0293321D01*
X0187497Y0293627D01*
X0187493Y0293933D01*
X0187497Y0294239D01*
X0187508Y0294545D01*
X0187527Y0294851D01*
X0187553Y0295156D01*
X0187587Y0295460D01*
X0187628Y0295763D01*
X0187676Y0296065D01*
X0187732Y0296366D01*
X0187795Y0296666D01*
X0187866Y0296964D01*
X0187944Y0297260D01*
X0188029Y0297554D01*
X0188121Y0297846D01*
X0188221Y0298135D01*
X0188327Y0298422D01*
X0188440Y0298707D01*
X0188561Y0298988D01*
X0188688Y0299267D01*
X0188822Y0299542D01*
X0188963Y0299814D01*
X0189110Y0300082D01*
X0189264Y0300347D01*
X0189424Y0300608D01*
X0189591Y0300865D01*
X0189764Y0301117D01*
X0189943Y0301366D01*
X0190128Y0301609D01*
X0190319Y0301849D01*
X0190515Y0302083D01*
X0190718Y0302313D01*
X0190926Y0302537D01*
X0191139Y0302757D01*
X0191358Y0302971D01*
X0191582Y0303180D01*
X0191811Y0303383D01*
X0192045Y0303581D01*
X0192283Y0303772D01*
X0192527Y0303958D01*
X0192774Y0304138D01*
X0193027Y0304312D01*
X0193283Y0304479D01*
X0193543Y0304640D01*
X0193807Y0304795D01*
X0194075Y0304943D01*
X0194346Y0305085D01*
X0194621Y0305220D01*
X0194899Y0305348D01*
X0195180Y0305469D01*
X0195464Y0305584D01*
X0195751Y0305691D01*
X0196040Y0305792D01*
X0196332Y0305885D01*
X0196626Y0305971D01*
X0196921Y0306050D01*
X0197219Y0306121D01*
X0197518Y0306186D01*
X0197819Y0306243D01*
X0198121Y0306292D01*
X0198424Y0306334D01*
X0198729Y0306369D01*
X0199033Y0306396D01*
X0199339Y0306416D01*
X0199645Y0306428D01*
X0199951Y0306433D01*
X0200257Y0306430D01*
X0200563Y0306420D01*
X0200869Y0306402D01*
X0201174Y0306377D01*
X0201478Y0306344D01*
X0201782Y0306304D01*
X0202084Y0306257D01*
X0202385Y0306202D01*
X0202685Y0306140D01*
X0202983Y0306070D01*
X0203279Y0305993D01*
X0203574Y0305909D01*
X0203866Y0305818D01*
X0204156Y0305719D01*
X0204443Y0305614D01*
X0204728Y0305502D01*
X0205010Y0305382D01*
X0205289Y0305256D01*
X0205564Y0305123D01*
X0205837Y0304983D01*
X0206106Y0304837D01*
X0206371Y0304684D01*
X0206632Y0304524D01*
X0206889Y0304358D01*
X0207143Y0304186D01*
X0207392Y0304008D01*
X0207636Y0303824D01*
X0207876Y0303634D01*
X0208111Y0303438D01*
X0208342Y0303236D01*
X0208567Y0303029D01*
X0208787Y0302816D01*
X0209002Y0302598D01*
X0209211Y0302375D01*
X0209415Y0302147D01*
X0209614Y0301914D01*
X0209806Y0301676D01*
X0209993Y0301433D01*
X0214993Y0118933D02*
X0214995Y0119074D01*
X0215001Y0119215D01*
X0215011Y0119355D01*
X0215025Y0119495D01*
X0215043Y0119635D01*
X0215064Y0119774D01*
X0215090Y0119913D01*
X0215119Y0120051D01*
X0215153Y0120187D01*
X0215190Y0120323D01*
X0215231Y0120458D01*
X0215276Y0120592D01*
X0215325Y0120724D01*
X0215377Y0120855D01*
X0215433Y0120984D01*
X0215493Y0121111D01*
X0215556Y0121237D01*
X0215622Y0121361D01*
X0215693Y0121484D01*
X0215766Y0121604D01*
X0215843Y0121722D01*
X0215923Y0121838D01*
X0216007Y0121951D01*
X0216093Y0122062D01*
X0216183Y0122171D01*
X0216276Y0122277D01*
X0216371Y0122380D01*
X0216470Y0122481D01*
X0216571Y0122579D01*
X0216675Y0122674D01*
X0216782Y0122766D01*
X0216891Y0122855D01*
X0217003Y0122940D01*
X0217117Y0123023D01*
X0217233Y0123103D01*
X0217352Y0123179D01*
X0217473Y0123251D01*
X0217595Y0123321D01*
X0217720Y0123386D01*
X0217846Y0123449D01*
X0217974Y0123507D01*
X0218104Y0123562D01*
X0218235Y0123614D01*
X0218368Y0123661D01*
X0218502Y0123705D01*
X0218637Y0123746D01*
X0218773Y0123782D01*
X0218910Y0123814D01*
X0219048Y0123843D01*
X0219186Y0123868D01*
X0219326Y0123888D01*
X0219466Y0123905D01*
X0219606Y0123918D01*
X0219747Y0123927D01*
X0219887Y0123932D01*
X0220028Y0123933D01*
X0220169Y0123930D01*
X0220310Y0123923D01*
X0220450Y0123912D01*
X0220590Y0123897D01*
X0220730Y0123878D01*
X0220869Y0123856D01*
X0221007Y0123829D01*
X0221145Y0123799D01*
X0221281Y0123764D01*
X0221417Y0123726D01*
X0221551Y0123684D01*
X0221685Y0123638D01*
X0221817Y0123589D01*
X0221947Y0123535D01*
X0222076Y0123478D01*
X0222203Y0123418D01*
X0222329Y0123354D01*
X0222452Y0123286D01*
X0222574Y0123215D01*
X0222694Y0123141D01*
X0222811Y0123063D01*
X0222926Y0122982D01*
X0223039Y0122898D01*
X0223150Y0122811D01*
X0223258Y0122720D01*
X0223363Y0122627D01*
X0223466Y0122530D01*
X0223566Y0122431D01*
X0223663Y0122329D01*
X0223757Y0122224D01*
X0223848Y0122117D01*
X0223936Y0122007D01*
X0224021Y0121895D01*
X0224103Y0121780D01*
X0224182Y0121663D01*
X0224257Y0121544D01*
X0224329Y0121423D01*
X0224397Y0121300D01*
X0224462Y0121175D01*
X0224524Y0121048D01*
X0224581Y0120919D01*
X0224636Y0120789D01*
X0224686Y0120658D01*
X0224733Y0120525D01*
X0224776Y0120391D01*
X0224815Y0120255D01*
X0224850Y0120119D01*
X0224882Y0119982D01*
X0224909Y0119844D01*
X0224933Y0119705D01*
X0224953Y0119565D01*
X0224969Y0119425D01*
X0224981Y0119285D01*
X0224989Y0119144D01*
X0224993Y0119003D01*
X0224993Y0118863D01*
X0224989Y0118722D01*
X0224981Y0118581D01*
X0224969Y0118441D01*
X0224953Y0118301D01*
X0224933Y0118161D01*
X0224909Y0118022D01*
X0224882Y0117884D01*
X0224850Y0117747D01*
X0224815Y0117611D01*
X0224776Y0117475D01*
X0224733Y0117341D01*
X0224686Y0117208D01*
X0224636Y0117077D01*
X0224581Y0116947D01*
X0224524Y0116818D01*
X0224462Y0116691D01*
X0224397Y0116566D01*
X0224329Y0116443D01*
X0224257Y0116322D01*
X0224182Y0116203D01*
X0224103Y0116086D01*
X0224021Y0115971D01*
X0223936Y0115859D01*
X0223848Y0115749D01*
X0223757Y0115642D01*
X0223663Y0115537D01*
X0223566Y0115435D01*
X0223466Y0115336D01*
X0223363Y0115239D01*
X0223258Y0115146D01*
X0223150Y0115055D01*
X0223039Y0114968D01*
X0222926Y0114884D01*
X0222811Y0114803D01*
X0222694Y0114725D01*
X0222574Y0114651D01*
X0222452Y0114580D01*
X0222329Y0114512D01*
X0222203Y0114448D01*
X0222076Y0114388D01*
X0221947Y0114331D01*
X0221817Y0114277D01*
X0221685Y0114228D01*
X0221551Y0114182D01*
X0221417Y0114140D01*
X0221281Y0114102D01*
X0221145Y0114067D01*
X0221007Y0114037D01*
X0220869Y0114010D01*
X0220730Y0113988D01*
X0220590Y0113969D01*
X0220450Y0113954D01*
X0220310Y0113943D01*
X0220169Y0113936D01*
X0220028Y0113933D01*
X0219887Y0113934D01*
X0219747Y0113939D01*
X0219606Y0113948D01*
X0219466Y0113961D01*
X0219326Y0113978D01*
X0219186Y0113998D01*
X0219048Y0114023D01*
X0218910Y0114052D01*
X0218773Y0114084D01*
X0218637Y0114120D01*
X0218502Y0114161D01*
X0218368Y0114205D01*
X0218235Y0114252D01*
X0218104Y0114304D01*
X0217974Y0114359D01*
X0217846Y0114417D01*
X0217720Y0114480D01*
X0217595Y0114545D01*
X0217473Y0114615D01*
X0217352Y0114687D01*
X0217233Y0114763D01*
X0217117Y0114843D01*
X0217003Y0114926D01*
X0216891Y0115011D01*
X0216782Y0115100D01*
X0216675Y0115192D01*
X0216571Y0115287D01*
X0216470Y0115385D01*
X0216371Y0115486D01*
X0216276Y0115589D01*
X0216183Y0115695D01*
X0216093Y0115804D01*
X0216007Y0115915D01*
X0215923Y0116028D01*
X0215843Y0116144D01*
X0215766Y0116262D01*
X0215693Y0116382D01*
X0215622Y0116505D01*
X0215556Y0116629D01*
X0215493Y0116755D01*
X0215433Y0116882D01*
X0215377Y0117011D01*
X0215325Y0117142D01*
X0215276Y0117274D01*
X0215231Y0117408D01*
X0215190Y0117543D01*
X0215153Y0117679D01*
X0215119Y0117815D01*
X0215090Y0117953D01*
X0215064Y0118092D01*
X0215043Y0118231D01*
X0215025Y0118371D01*
X0215011Y0118511D01*
X0215001Y0118651D01*
X0214995Y0118792D01*
X0214993Y0118933D01*
X0219993Y0113933D02*
X0219993Y0093933D01*
X0229993Y0083933D01*
X0219993Y0093933D02*
X0209993Y0083933D01*
X0209993Y0101433D02*
X0207493Y0103933D01*
X0207493Y0101433D02*
X0212493Y0106433D01*
X0227493Y0106433D01*
X0232493Y0101433D01*
X0229993Y0101433D02*
X0232493Y0103933D01*
X0227493Y0103933D02*
X0227493Y0108933D01*
X0222493Y0108933D02*
X0222493Y0103933D01*
X0217493Y0103933D02*
X0217493Y0108933D01*
X0212493Y0108933D02*
X0212493Y0103933D01*
D12*
X0022493Y0051433D02*
X0022493Y0191433D01*
X0092493Y0191433D01*
X0092493Y0051433D01*
X0062493Y0051433D01*
X0062493Y0056433D01*
X0052493Y0056433D01*
X0052493Y0051433D01*
X0022493Y0051433D01*
X0132993Y0053933D02*
X0132993Y0054933D01*
X0132993Y0053933D02*
X0156993Y0053933D01*
X0156993Y0054933D01*
X0156993Y0192933D02*
X0156993Y0193933D01*
X0149993Y0193933D01*
X0149991Y0193793D01*
X0149985Y0193653D01*
X0149975Y0193513D01*
X0149962Y0193373D01*
X0149944Y0193234D01*
X0149922Y0193095D01*
X0149897Y0192958D01*
X0149868Y0192820D01*
X0149835Y0192684D01*
X0149798Y0192549D01*
X0149757Y0192415D01*
X0149712Y0192282D01*
X0149664Y0192150D01*
X0149612Y0192020D01*
X0149557Y0191891D01*
X0149498Y0191764D01*
X0149435Y0191638D01*
X0149369Y0191514D01*
X0149300Y0191393D01*
X0149227Y0191273D01*
X0149150Y0191155D01*
X0149071Y0191040D01*
X0148988Y0190926D01*
X0148902Y0190816D01*
X0148813Y0190707D01*
X0148721Y0190601D01*
X0148626Y0190498D01*
X0148529Y0190397D01*
X0148428Y0190300D01*
X0148325Y0190205D01*
X0148219Y0190113D01*
X0148110Y0190024D01*
X0148000Y0189938D01*
X0147886Y0189855D01*
X0147771Y0189776D01*
X0147653Y0189699D01*
X0147533Y0189626D01*
X0147412Y0189557D01*
X0147288Y0189491D01*
X0147162Y0189428D01*
X0147035Y0189369D01*
X0146906Y0189314D01*
X0146776Y0189262D01*
X0146644Y0189214D01*
X0146511Y0189169D01*
X0146377Y0189128D01*
X0146242Y0189091D01*
X0146106Y0189058D01*
X0145968Y0189029D01*
X0145831Y0189004D01*
X0145692Y0188982D01*
X0145553Y0188964D01*
X0145413Y0188951D01*
X0145273Y0188941D01*
X0145133Y0188935D01*
X0144993Y0188933D01*
X0144853Y0188935D01*
X0144713Y0188941D01*
X0144573Y0188951D01*
X0144433Y0188964D01*
X0144294Y0188982D01*
X0144155Y0189004D01*
X0144018Y0189029D01*
X0143880Y0189058D01*
X0143744Y0189091D01*
X0143609Y0189128D01*
X0143475Y0189169D01*
X0143342Y0189214D01*
X0143210Y0189262D01*
X0143080Y0189314D01*
X0142951Y0189369D01*
X0142824Y0189428D01*
X0142698Y0189491D01*
X0142574Y0189557D01*
X0142453Y0189626D01*
X0142333Y0189699D01*
X0142215Y0189776D01*
X0142100Y0189855D01*
X0141986Y0189938D01*
X0141876Y0190024D01*
X0141767Y0190113D01*
X0141661Y0190205D01*
X0141558Y0190300D01*
X0141457Y0190397D01*
X0141360Y0190498D01*
X0141265Y0190601D01*
X0141173Y0190707D01*
X0141084Y0190816D01*
X0140998Y0190926D01*
X0140915Y0191040D01*
X0140836Y0191155D01*
X0140759Y0191273D01*
X0140686Y0191393D01*
X0140617Y0191514D01*
X0140551Y0191638D01*
X0140488Y0191764D01*
X0140429Y0191891D01*
X0140374Y0192020D01*
X0140322Y0192150D01*
X0140274Y0192282D01*
X0140229Y0192415D01*
X0140188Y0192549D01*
X0140151Y0192684D01*
X0140118Y0192820D01*
X0140089Y0192958D01*
X0140064Y0193095D01*
X0140042Y0193234D01*
X0140024Y0193373D01*
X0140011Y0193513D01*
X0140001Y0193653D01*
X0139995Y0193793D01*
X0139993Y0193933D01*
X0132993Y0193933D01*
X0132993Y0192933D01*
X0192796Y0238571D02*
X0192796Y0249071D01*
X0197296Y0249071D01*
X0197296Y0238571D01*
X0192796Y0238571D01*
X0217796Y0238571D02*
X0217796Y0249071D01*
X0222296Y0249071D01*
X0222296Y0238571D01*
X0217796Y0238571D01*
X0165012Y0283388D02*
X0158873Y0283388D01*
X0161943Y0283388D02*
X0161943Y0292596D01*
X0158873Y0289527D01*
X0155804Y0291061D02*
X0149665Y0284923D01*
X0151200Y0283388D01*
X0154269Y0283388D01*
X0155804Y0284923D01*
X0155804Y0291061D01*
X0154269Y0292596D01*
X0151200Y0292596D01*
X0149665Y0291061D01*
X0149665Y0284923D01*
X0146596Y0287992D02*
X0140458Y0287992D01*
X0137388Y0287992D02*
X0135854Y0286457D01*
X0131250Y0286457D01*
X0131250Y0283388D02*
X0131250Y0292596D01*
X0135854Y0292596D01*
X0137388Y0291061D01*
X0137388Y0287992D01*
X0128180Y0286457D02*
X0128180Y0284923D01*
X0126646Y0283388D01*
X0123576Y0283388D01*
X0122042Y0284923D01*
X0123576Y0287992D02*
X0122042Y0289527D01*
X0122042Y0291061D01*
X0123576Y0292596D01*
X0126646Y0292596D01*
X0128180Y0291061D01*
X0126646Y0287992D02*
X0128180Y0286457D01*
X0126646Y0287992D02*
X0123576Y0287992D01*
X0118973Y0283388D02*
X0112834Y0283388D01*
X0112834Y0292596D01*
X0118973Y0292596D01*
X0115903Y0287992D02*
X0112834Y0287992D01*
X0209993Y0286433D02*
X0209993Y0301433D01*
X0254993Y0301433D02*
X0254993Y0286433D01*
D13*
X0234993Y0293933D02*
X0234996Y0294178D01*
X0235005Y0294424D01*
X0235020Y0294669D01*
X0235041Y0294913D01*
X0235068Y0295157D01*
X0235101Y0295400D01*
X0235140Y0295643D01*
X0235185Y0295884D01*
X0235236Y0296124D01*
X0235293Y0296363D01*
X0235355Y0296600D01*
X0235424Y0296836D01*
X0235498Y0297070D01*
X0235578Y0297302D01*
X0235663Y0297532D01*
X0235754Y0297760D01*
X0235851Y0297985D01*
X0235953Y0298209D01*
X0236061Y0298429D01*
X0236174Y0298647D01*
X0236292Y0298862D01*
X0236416Y0299074D01*
X0236544Y0299283D01*
X0236678Y0299489D01*
X0236817Y0299691D01*
X0236961Y0299890D01*
X0237110Y0300085D01*
X0237263Y0300277D01*
X0237421Y0300465D01*
X0237583Y0300649D01*
X0237751Y0300828D01*
X0237922Y0301004D01*
X0238098Y0301175D01*
X0238277Y0301343D01*
X0238461Y0301505D01*
X0238649Y0301663D01*
X0238841Y0301816D01*
X0239036Y0301965D01*
X0239235Y0302109D01*
X0239437Y0302248D01*
X0239643Y0302382D01*
X0239852Y0302510D01*
X0240064Y0302634D01*
X0240279Y0302752D01*
X0240497Y0302865D01*
X0240717Y0302973D01*
X0240941Y0303075D01*
X0241166Y0303172D01*
X0241394Y0303263D01*
X0241624Y0303348D01*
X0241856Y0303428D01*
X0242090Y0303502D01*
X0242326Y0303571D01*
X0242563Y0303633D01*
X0242802Y0303690D01*
X0243042Y0303741D01*
X0243283Y0303786D01*
X0243526Y0303825D01*
X0243769Y0303858D01*
X0244013Y0303885D01*
X0244257Y0303906D01*
X0244502Y0303921D01*
X0244748Y0303930D01*
X0244993Y0303933D01*
X0245238Y0303930D01*
X0245484Y0303921D01*
X0245729Y0303906D01*
X0245973Y0303885D01*
X0246217Y0303858D01*
X0246460Y0303825D01*
X0246703Y0303786D01*
X0246944Y0303741D01*
X0247184Y0303690D01*
X0247423Y0303633D01*
X0247660Y0303571D01*
X0247896Y0303502D01*
X0248130Y0303428D01*
X0248362Y0303348D01*
X0248592Y0303263D01*
X0248820Y0303172D01*
X0249045Y0303075D01*
X0249269Y0302973D01*
X0249489Y0302865D01*
X0249707Y0302752D01*
X0249922Y0302634D01*
X0250134Y0302510D01*
X0250343Y0302382D01*
X0250549Y0302248D01*
X0250751Y0302109D01*
X0250950Y0301965D01*
X0251145Y0301816D01*
X0251337Y0301663D01*
X0251525Y0301505D01*
X0251709Y0301343D01*
X0251888Y0301175D01*
X0252064Y0301004D01*
X0252235Y0300828D01*
X0252403Y0300649D01*
X0252565Y0300465D01*
X0252723Y0300277D01*
X0252876Y0300085D01*
X0253025Y0299890D01*
X0253169Y0299691D01*
X0253308Y0299489D01*
X0253442Y0299283D01*
X0253570Y0299074D01*
X0253694Y0298862D01*
X0253812Y0298647D01*
X0253925Y0298429D01*
X0254033Y0298209D01*
X0254135Y0297985D01*
X0254232Y0297760D01*
X0254323Y0297532D01*
X0254408Y0297302D01*
X0254488Y0297070D01*
X0254562Y0296836D01*
X0254631Y0296600D01*
X0254693Y0296363D01*
X0254750Y0296124D01*
X0254801Y0295884D01*
X0254846Y0295643D01*
X0254885Y0295400D01*
X0254918Y0295157D01*
X0254945Y0294913D01*
X0254966Y0294669D01*
X0254981Y0294424D01*
X0254990Y0294178D01*
X0254993Y0293933D01*
X0254990Y0293688D01*
X0254981Y0293442D01*
X0254966Y0293197D01*
X0254945Y0292953D01*
X0254918Y0292709D01*
X0254885Y0292466D01*
X0254846Y0292223D01*
X0254801Y0291982D01*
X0254750Y0291742D01*
X0254693Y0291503D01*
X0254631Y0291266D01*
X0254562Y0291030D01*
X0254488Y0290796D01*
X0254408Y0290564D01*
X0254323Y0290334D01*
X0254232Y0290106D01*
X0254135Y0289881D01*
X0254033Y0289657D01*
X0253925Y0289437D01*
X0253812Y0289219D01*
X0253694Y0289004D01*
X0253570Y0288792D01*
X0253442Y0288583D01*
X0253308Y0288377D01*
X0253169Y0288175D01*
X0253025Y0287976D01*
X0252876Y0287781D01*
X0252723Y0287589D01*
X0252565Y0287401D01*
X0252403Y0287217D01*
X0252235Y0287038D01*
X0252064Y0286862D01*
X0251888Y0286691D01*
X0251709Y0286523D01*
X0251525Y0286361D01*
X0251337Y0286203D01*
X0251145Y0286050D01*
X0250950Y0285901D01*
X0250751Y0285757D01*
X0250549Y0285618D01*
X0250343Y0285484D01*
X0250134Y0285356D01*
X0249922Y0285232D01*
X0249707Y0285114D01*
X0249489Y0285001D01*
X0249269Y0284893D01*
X0249045Y0284791D01*
X0248820Y0284694D01*
X0248592Y0284603D01*
X0248362Y0284518D01*
X0248130Y0284438D01*
X0247896Y0284364D01*
X0247660Y0284295D01*
X0247423Y0284233D01*
X0247184Y0284176D01*
X0246944Y0284125D01*
X0246703Y0284080D01*
X0246460Y0284041D01*
X0246217Y0284008D01*
X0245973Y0283981D01*
X0245729Y0283960D01*
X0245484Y0283945D01*
X0245238Y0283936D01*
X0244993Y0283933D01*
X0244748Y0283936D01*
X0244502Y0283945D01*
X0244257Y0283960D01*
X0244013Y0283981D01*
X0243769Y0284008D01*
X0243526Y0284041D01*
X0243283Y0284080D01*
X0243042Y0284125D01*
X0242802Y0284176D01*
X0242563Y0284233D01*
X0242326Y0284295D01*
X0242090Y0284364D01*
X0241856Y0284438D01*
X0241624Y0284518D01*
X0241394Y0284603D01*
X0241166Y0284694D01*
X0240941Y0284791D01*
X0240717Y0284893D01*
X0240497Y0285001D01*
X0240279Y0285114D01*
X0240064Y0285232D01*
X0239852Y0285356D01*
X0239643Y0285484D01*
X0239437Y0285618D01*
X0239235Y0285757D01*
X0239036Y0285901D01*
X0238841Y0286050D01*
X0238649Y0286203D01*
X0238461Y0286361D01*
X0238277Y0286523D01*
X0238098Y0286691D01*
X0237922Y0286862D01*
X0237751Y0287038D01*
X0237583Y0287217D01*
X0237421Y0287401D01*
X0237263Y0287589D01*
X0237110Y0287781D01*
X0236961Y0287976D01*
X0236817Y0288175D01*
X0236678Y0288377D01*
X0236544Y0288583D01*
X0236416Y0288792D01*
X0236292Y0289004D01*
X0236174Y0289219D01*
X0236061Y0289437D01*
X0235953Y0289657D01*
X0235851Y0289881D01*
X0235754Y0290106D01*
X0235663Y0290334D01*
X0235578Y0290564D01*
X0235498Y0290796D01*
X0235424Y0291030D01*
X0235355Y0291266D01*
X0235293Y0291503D01*
X0235236Y0291742D01*
X0235185Y0291982D01*
X0235140Y0292223D01*
X0235101Y0292466D01*
X0235068Y0292709D01*
X0235041Y0292953D01*
X0235020Y0293197D01*
X0235005Y0293442D01*
X0234996Y0293688D01*
X0234993Y0293933D01*
X0189993Y0293933D02*
X0189996Y0294178D01*
X0190005Y0294424D01*
X0190020Y0294669D01*
X0190041Y0294913D01*
X0190068Y0295157D01*
X0190101Y0295400D01*
X0190140Y0295643D01*
X0190185Y0295884D01*
X0190236Y0296124D01*
X0190293Y0296363D01*
X0190355Y0296600D01*
X0190424Y0296836D01*
X0190498Y0297070D01*
X0190578Y0297302D01*
X0190663Y0297532D01*
X0190754Y0297760D01*
X0190851Y0297985D01*
X0190953Y0298209D01*
X0191061Y0298429D01*
X0191174Y0298647D01*
X0191292Y0298862D01*
X0191416Y0299074D01*
X0191544Y0299283D01*
X0191678Y0299489D01*
X0191817Y0299691D01*
X0191961Y0299890D01*
X0192110Y0300085D01*
X0192263Y0300277D01*
X0192421Y0300465D01*
X0192583Y0300649D01*
X0192751Y0300828D01*
X0192922Y0301004D01*
X0193098Y0301175D01*
X0193277Y0301343D01*
X0193461Y0301505D01*
X0193649Y0301663D01*
X0193841Y0301816D01*
X0194036Y0301965D01*
X0194235Y0302109D01*
X0194437Y0302248D01*
X0194643Y0302382D01*
X0194852Y0302510D01*
X0195064Y0302634D01*
X0195279Y0302752D01*
X0195497Y0302865D01*
X0195717Y0302973D01*
X0195941Y0303075D01*
X0196166Y0303172D01*
X0196394Y0303263D01*
X0196624Y0303348D01*
X0196856Y0303428D01*
X0197090Y0303502D01*
X0197326Y0303571D01*
X0197563Y0303633D01*
X0197802Y0303690D01*
X0198042Y0303741D01*
X0198283Y0303786D01*
X0198526Y0303825D01*
X0198769Y0303858D01*
X0199013Y0303885D01*
X0199257Y0303906D01*
X0199502Y0303921D01*
X0199748Y0303930D01*
X0199993Y0303933D01*
X0200238Y0303930D01*
X0200484Y0303921D01*
X0200729Y0303906D01*
X0200973Y0303885D01*
X0201217Y0303858D01*
X0201460Y0303825D01*
X0201703Y0303786D01*
X0201944Y0303741D01*
X0202184Y0303690D01*
X0202423Y0303633D01*
X0202660Y0303571D01*
X0202896Y0303502D01*
X0203130Y0303428D01*
X0203362Y0303348D01*
X0203592Y0303263D01*
X0203820Y0303172D01*
X0204045Y0303075D01*
X0204269Y0302973D01*
X0204489Y0302865D01*
X0204707Y0302752D01*
X0204922Y0302634D01*
X0205134Y0302510D01*
X0205343Y0302382D01*
X0205549Y0302248D01*
X0205751Y0302109D01*
X0205950Y0301965D01*
X0206145Y0301816D01*
X0206337Y0301663D01*
X0206525Y0301505D01*
X0206709Y0301343D01*
X0206888Y0301175D01*
X0207064Y0301004D01*
X0207235Y0300828D01*
X0207403Y0300649D01*
X0207565Y0300465D01*
X0207723Y0300277D01*
X0207876Y0300085D01*
X0208025Y0299890D01*
X0208169Y0299691D01*
X0208308Y0299489D01*
X0208442Y0299283D01*
X0208570Y0299074D01*
X0208694Y0298862D01*
X0208812Y0298647D01*
X0208925Y0298429D01*
X0209033Y0298209D01*
X0209135Y0297985D01*
X0209232Y0297760D01*
X0209323Y0297532D01*
X0209408Y0297302D01*
X0209488Y0297070D01*
X0209562Y0296836D01*
X0209631Y0296600D01*
X0209693Y0296363D01*
X0209750Y0296124D01*
X0209801Y0295884D01*
X0209846Y0295643D01*
X0209885Y0295400D01*
X0209918Y0295157D01*
X0209945Y0294913D01*
X0209966Y0294669D01*
X0209981Y0294424D01*
X0209990Y0294178D01*
X0209993Y0293933D01*
X0209990Y0293688D01*
X0209981Y0293442D01*
X0209966Y0293197D01*
X0209945Y0292953D01*
X0209918Y0292709D01*
X0209885Y0292466D01*
X0209846Y0292223D01*
X0209801Y0291982D01*
X0209750Y0291742D01*
X0209693Y0291503D01*
X0209631Y0291266D01*
X0209562Y0291030D01*
X0209488Y0290796D01*
X0209408Y0290564D01*
X0209323Y0290334D01*
X0209232Y0290106D01*
X0209135Y0289881D01*
X0209033Y0289657D01*
X0208925Y0289437D01*
X0208812Y0289219D01*
X0208694Y0289004D01*
X0208570Y0288792D01*
X0208442Y0288583D01*
X0208308Y0288377D01*
X0208169Y0288175D01*
X0208025Y0287976D01*
X0207876Y0287781D01*
X0207723Y0287589D01*
X0207565Y0287401D01*
X0207403Y0287217D01*
X0207235Y0287038D01*
X0207064Y0286862D01*
X0206888Y0286691D01*
X0206709Y0286523D01*
X0206525Y0286361D01*
X0206337Y0286203D01*
X0206145Y0286050D01*
X0205950Y0285901D01*
X0205751Y0285757D01*
X0205549Y0285618D01*
X0205343Y0285484D01*
X0205134Y0285356D01*
X0204922Y0285232D01*
X0204707Y0285114D01*
X0204489Y0285001D01*
X0204269Y0284893D01*
X0204045Y0284791D01*
X0203820Y0284694D01*
X0203592Y0284603D01*
X0203362Y0284518D01*
X0203130Y0284438D01*
X0202896Y0284364D01*
X0202660Y0284295D01*
X0202423Y0284233D01*
X0202184Y0284176D01*
X0201944Y0284125D01*
X0201703Y0284080D01*
X0201460Y0284041D01*
X0201217Y0284008D01*
X0200973Y0283981D01*
X0200729Y0283960D01*
X0200484Y0283945D01*
X0200238Y0283936D01*
X0199993Y0283933D01*
X0199748Y0283936D01*
X0199502Y0283945D01*
X0199257Y0283960D01*
X0199013Y0283981D01*
X0198769Y0284008D01*
X0198526Y0284041D01*
X0198283Y0284080D01*
X0198042Y0284125D01*
X0197802Y0284176D01*
X0197563Y0284233D01*
X0197326Y0284295D01*
X0197090Y0284364D01*
X0196856Y0284438D01*
X0196624Y0284518D01*
X0196394Y0284603D01*
X0196166Y0284694D01*
X0195941Y0284791D01*
X0195717Y0284893D01*
X0195497Y0285001D01*
X0195279Y0285114D01*
X0195064Y0285232D01*
X0194852Y0285356D01*
X0194643Y0285484D01*
X0194437Y0285618D01*
X0194235Y0285757D01*
X0194036Y0285901D01*
X0193841Y0286050D01*
X0193649Y0286203D01*
X0193461Y0286361D01*
X0193277Y0286523D01*
X0193098Y0286691D01*
X0192922Y0286862D01*
X0192751Y0287038D01*
X0192583Y0287217D01*
X0192421Y0287401D01*
X0192263Y0287589D01*
X0192110Y0287781D01*
X0191961Y0287976D01*
X0191817Y0288175D01*
X0191678Y0288377D01*
X0191544Y0288583D01*
X0191416Y0288792D01*
X0191292Y0289004D01*
X0191174Y0289219D01*
X0191061Y0289437D01*
X0190953Y0289657D01*
X0190851Y0289881D01*
X0190754Y0290106D01*
X0190663Y0290334D01*
X0190578Y0290564D01*
X0190498Y0290796D01*
X0190424Y0291030D01*
X0190355Y0291266D01*
X0190293Y0291503D01*
X0190236Y0291742D01*
X0190185Y0291982D01*
X0190140Y0292223D01*
X0190101Y0292466D01*
X0190068Y0292709D01*
X0190041Y0292953D01*
X0190020Y0293197D01*
X0190005Y0293442D01*
X0189996Y0293688D01*
X0189993Y0293933D01*
X0145393Y0248733D02*
X0134593Y0248733D01*
X0134593Y0229133D02*
X0138793Y0229133D01*
X0141193Y0229133D01*
X0145393Y0229133D01*
X0102493Y0233933D02*
X0102493Y0243933D01*
X0102493Y0263933D02*
X0102493Y0268933D01*
X0097493Y0268933D01*
X0094993Y0213933D02*
X0099993Y0213933D01*
X0102493Y0211433D01*
X0102493Y0206433D01*
X0099993Y0203933D01*
X0094993Y0203933D01*
X0092493Y0206433D01*
X0089993Y0203933D01*
X0084993Y0203933D01*
X0082493Y0206433D01*
X0079993Y0203933D01*
X0074993Y0203933D01*
X0072493Y0206433D01*
X0069993Y0203933D01*
X0064993Y0203933D01*
X0062493Y0206433D01*
X0059993Y0203933D01*
X0054993Y0203933D01*
X0052493Y0206433D01*
X0049993Y0203933D01*
X0044993Y0203933D01*
X0042493Y0206433D01*
X0039993Y0203933D01*
X0034993Y0203933D01*
X0032493Y0206433D01*
X0029993Y0203933D01*
X0024993Y0203933D01*
X0022493Y0206433D01*
X0022493Y0211433D01*
X0024993Y0213933D01*
X0029993Y0213933D01*
X0032493Y0211433D01*
X0034993Y0213933D01*
X0039993Y0213933D01*
X0042493Y0211433D01*
X0044993Y0213933D01*
X0049993Y0213933D01*
X0052493Y0211433D01*
X0054993Y0213933D01*
X0059993Y0213933D01*
X0062493Y0211433D01*
X0064993Y0213933D01*
X0069993Y0213933D01*
X0072493Y0211433D01*
X0074993Y0213933D01*
X0079993Y0213933D01*
X0082493Y0211433D01*
X0084993Y0213933D01*
X0089993Y0213933D01*
X0092493Y0211433D01*
X0094993Y0213933D01*
X0022493Y0233933D02*
X0022493Y0243933D01*
X0052693Y0152133D02*
X0052693Y0125733D01*
X0067293Y0125733D01*
X0067293Y0152133D01*
X0052693Y0152133D01*
X0101493Y0113933D02*
X0105493Y0113933D01*
X0101493Y0113933D02*
X0101433Y0113931D01*
X0101372Y0113926D01*
X0101313Y0113917D01*
X0101254Y0113904D01*
X0101195Y0113888D01*
X0101138Y0113868D01*
X0101083Y0113845D01*
X0101028Y0113818D01*
X0100976Y0113789D01*
X0100925Y0113756D01*
X0100876Y0113720D01*
X0100830Y0113682D01*
X0100786Y0113640D01*
X0100744Y0113596D01*
X0100706Y0113550D01*
X0100670Y0113501D01*
X0100637Y0113450D01*
X0100608Y0113398D01*
X0100581Y0113343D01*
X0100558Y0113288D01*
X0100538Y0113231D01*
X0100522Y0113172D01*
X0100509Y0113113D01*
X0100500Y0113054D01*
X0100495Y0112993D01*
X0100493Y0112933D01*
X0100493Y0069933D01*
X0100495Y0069873D01*
X0100500Y0069812D01*
X0100509Y0069753D01*
X0100522Y0069694D01*
X0100538Y0069635D01*
X0100558Y0069578D01*
X0100581Y0069523D01*
X0100608Y0069468D01*
X0100637Y0069416D01*
X0100670Y0069365D01*
X0100706Y0069316D01*
X0100744Y0069270D01*
X0100786Y0069226D01*
X0100830Y0069184D01*
X0100876Y0069146D01*
X0100925Y0069110D01*
X0100976Y0069077D01*
X0101028Y0069048D01*
X0101083Y0069021D01*
X0101138Y0068998D01*
X0101195Y0068978D01*
X0101254Y0068962D01*
X0101313Y0068949D01*
X0101372Y0068940D01*
X0101433Y0068935D01*
X0101493Y0068933D01*
X0105493Y0068933D01*
X0114493Y0068933D02*
X0118493Y0068933D01*
X0118553Y0068935D01*
X0118614Y0068940D01*
X0118673Y0068949D01*
X0118732Y0068962D01*
X0118791Y0068978D01*
X0118848Y0068998D01*
X0118903Y0069021D01*
X0118958Y0069048D01*
X0119010Y0069077D01*
X0119061Y0069110D01*
X0119110Y0069146D01*
X0119156Y0069184D01*
X0119200Y0069226D01*
X0119242Y0069270D01*
X0119280Y0069316D01*
X0119316Y0069365D01*
X0119349Y0069416D01*
X0119378Y0069468D01*
X0119405Y0069523D01*
X0119428Y0069578D01*
X0119448Y0069635D01*
X0119464Y0069694D01*
X0119477Y0069753D01*
X0119486Y0069812D01*
X0119491Y0069873D01*
X0119493Y0069933D01*
X0119493Y0112933D01*
X0119491Y0112993D01*
X0119486Y0113054D01*
X0119477Y0113113D01*
X0119464Y0113172D01*
X0119448Y0113231D01*
X0119428Y0113288D01*
X0119405Y0113343D01*
X0119378Y0113398D01*
X0119349Y0113450D01*
X0119316Y0113501D01*
X0119280Y0113550D01*
X0119242Y0113596D01*
X0119200Y0113640D01*
X0119156Y0113682D01*
X0119110Y0113720D01*
X0119061Y0113756D01*
X0119010Y0113789D01*
X0118958Y0113818D01*
X0118903Y0113845D01*
X0118848Y0113868D01*
X0118791Y0113888D01*
X0118732Y0113904D01*
X0118673Y0113917D01*
X0118614Y0113926D01*
X0118553Y0113931D01*
X0118493Y0113933D01*
X0114493Y0113933D01*
X0112493Y0093933D02*
X0109993Y0093933D01*
X0107493Y0093933D01*
X0107493Y0092433D02*
X0107493Y0090433D01*
X0112493Y0090433D01*
X0112493Y0092433D01*
X0107493Y0092433D01*
X0107493Y0088933D02*
X0109993Y0088933D01*
X0112493Y0088933D01*
D14*
X0119993Y0131433D02*
X0099993Y0131433D01*
X0099993Y0201433D01*
X0119993Y0201433D01*
X0119993Y0131433D01*
X0107434Y0205488D02*
X0163684Y0205488D01*
X0163684Y0272988D01*
X0107434Y0272988D01*
X0107434Y0205488D01*
X0067493Y0268933D02*
X0057493Y0268933D01*
X0079993Y0273933D02*
X0029993Y0273933D01*
X0029993Y0303933D01*
X0079993Y0303933D01*
X0079993Y0273933D01*
X0107434Y0272988D02*
X0107434Y0302988D01*
X0163684Y0302988D01*
X0163684Y0272988D01*
X0172493Y0273933D02*
X0272493Y0273933D01*
X0272493Y0063933D01*
X0262493Y0053933D01*
X0172493Y0053933D01*
X0172493Y0273933D01*
X0193240Y0257618D02*
X0193240Y0256450D01*
X0193824Y0255866D01*
X0193824Y0254518D02*
X0196159Y0254518D01*
X0196743Y0253935D01*
X0196743Y0252767D01*
X0196159Y0252183D01*
X0193824Y0252183D01*
X0193240Y0252767D01*
X0193240Y0253935D01*
X0193824Y0254518D01*
X0195575Y0253351D02*
X0196743Y0254518D01*
X0196743Y0255866D02*
X0194408Y0258202D01*
X0193824Y0258202D01*
X0193240Y0257618D01*
X0196743Y0258202D02*
X0196743Y0255866D01*
X0218240Y0257034D02*
X0221743Y0257034D01*
X0221743Y0255866D02*
X0221743Y0258202D01*
X0219408Y0255866D02*
X0218240Y0257034D01*
X0218824Y0254518D02*
X0221159Y0254518D01*
X0221743Y0253935D01*
X0221743Y0252767D01*
X0221159Y0252183D01*
X0218824Y0252183D01*
X0218240Y0252767D01*
X0218240Y0253935D01*
X0218824Y0254518D01*
X0220575Y0253351D02*
X0221743Y0254518D01*
X0027493Y0268933D02*
X0022493Y0268933D01*
X0022493Y0263933D01*
D15*
X0138793Y0229133D02*
X0138795Y0229202D01*
X0138801Y0229270D01*
X0138811Y0229338D01*
X0138824Y0229405D01*
X0138842Y0229471D01*
X0138863Y0229536D01*
X0138888Y0229600D01*
X0138916Y0229662D01*
X0138948Y0229723D01*
X0138983Y0229782D01*
X0139022Y0229838D01*
X0139064Y0229893D01*
X0139109Y0229944D01*
X0139157Y0229994D01*
X0139207Y0230040D01*
X0139260Y0230083D01*
X0139316Y0230124D01*
X0139373Y0230161D01*
X0139433Y0230194D01*
X0139495Y0230225D01*
X0139558Y0230251D01*
X0139622Y0230274D01*
X0139688Y0230294D01*
X0139755Y0230309D01*
X0139822Y0230321D01*
X0139890Y0230329D01*
X0139959Y0230333D01*
X0140027Y0230333D01*
X0140096Y0230329D01*
X0140164Y0230321D01*
X0140231Y0230309D01*
X0140298Y0230294D01*
X0140364Y0230274D01*
X0140428Y0230251D01*
X0140491Y0230225D01*
X0140553Y0230194D01*
X0140613Y0230161D01*
X0140670Y0230124D01*
X0140726Y0230083D01*
X0140779Y0230040D01*
X0140829Y0229994D01*
X0140877Y0229944D01*
X0140922Y0229893D01*
X0140964Y0229838D01*
X0141003Y0229782D01*
X0141038Y0229723D01*
X0141070Y0229662D01*
X0141098Y0229600D01*
X0141123Y0229536D01*
X0141144Y0229471D01*
X0141162Y0229405D01*
X0141175Y0229338D01*
X0141185Y0229270D01*
X0141191Y0229202D01*
X0141193Y0229133D01*
D16*
X0105435Y0111616D02*
X0105536Y0111467D01*
X0105535Y0111467D02*
X0105378Y0111357D01*
X0105224Y0111243D01*
X0105072Y0111126D01*
X0104923Y0111004D01*
X0104777Y0110880D01*
X0104634Y0110751D01*
X0104495Y0110620D01*
X0104358Y0110484D01*
X0104225Y0110346D01*
X0104096Y0110204D01*
X0103969Y0110060D01*
X0103847Y0109912D01*
X0103728Y0109761D01*
X0103612Y0109608D01*
X0103501Y0109452D01*
X0103393Y0109293D01*
X0103289Y0109131D01*
X0103189Y0108967D01*
X0103093Y0108801D01*
X0103001Y0108632D01*
X0102914Y0108462D01*
X0102830Y0108289D01*
X0102751Y0108114D01*
X0102676Y0107937D01*
X0102605Y0107759D01*
X0102539Y0107579D01*
X0102477Y0107397D01*
X0102419Y0107214D01*
X0102366Y0107029D01*
X0102317Y0106844D01*
X0102273Y0106657D01*
X0102234Y0106469D01*
X0102199Y0106280D01*
X0102168Y0106091D01*
X0102142Y0105900D01*
X0102121Y0105710D01*
X0102105Y0105518D01*
X0102093Y0105327D01*
X0102086Y0105135D01*
X0102083Y0104943D01*
X0101904Y0104942D01*
X0101903Y0104943D01*
X0101906Y0105139D01*
X0101913Y0105335D01*
X0101925Y0105531D01*
X0101942Y0105727D01*
X0101964Y0105922D01*
X0101990Y0106117D01*
X0102021Y0106311D01*
X0102057Y0106504D01*
X0102097Y0106696D01*
X0102143Y0106887D01*
X0102192Y0107077D01*
X0102247Y0107266D01*
X0102306Y0107453D01*
X0102369Y0107639D01*
X0102437Y0107823D01*
X0102509Y0108006D01*
X0102586Y0108186D01*
X0102667Y0108365D01*
X0102753Y0108542D01*
X0102842Y0108717D01*
X0102936Y0108889D01*
X0103034Y0109059D01*
X0103137Y0109227D01*
X0103243Y0109392D01*
X0103353Y0109555D01*
X0103467Y0109714D01*
X0103585Y0109871D01*
X0103707Y0110025D01*
X0103832Y0110176D01*
X0103961Y0110324D01*
X0104094Y0110469D01*
X0104230Y0110611D01*
X0104370Y0110749D01*
X0104512Y0110884D01*
X0104659Y0111015D01*
X0104808Y0111143D01*
X0104960Y0111267D01*
X0105115Y0111387D01*
X0105273Y0111504D01*
X0105434Y0111616D01*
X0105444Y0111601D01*
X0105284Y0111489D01*
X0105126Y0111373D01*
X0104971Y0111253D01*
X0104819Y0111129D01*
X0104670Y0111002D01*
X0104525Y0110871D01*
X0104382Y0110736D01*
X0104243Y0110598D01*
X0104107Y0110457D01*
X0103975Y0110312D01*
X0103846Y0110165D01*
X0103721Y0110014D01*
X0103599Y0109860D01*
X0103482Y0109704D01*
X0103368Y0109544D01*
X0103258Y0109382D01*
X0103152Y0109217D01*
X0103050Y0109050D01*
X0102952Y0108880D01*
X0102858Y0108708D01*
X0102769Y0108534D01*
X0102683Y0108358D01*
X0102602Y0108179D01*
X0102526Y0107999D01*
X0102454Y0107817D01*
X0102386Y0107633D01*
X0102323Y0107447D01*
X0102264Y0107261D01*
X0102210Y0107072D01*
X0102160Y0106883D01*
X0102115Y0106692D01*
X0102075Y0106500D01*
X0102039Y0106308D01*
X0102008Y0106114D01*
X0101982Y0105920D01*
X0101960Y0105725D01*
X0101943Y0105530D01*
X0101931Y0105335D01*
X0101924Y0105139D01*
X0101921Y0104943D01*
X0101939Y0104943D01*
X0101942Y0105138D01*
X0101949Y0105334D01*
X0101961Y0105529D01*
X0101978Y0105724D01*
X0101999Y0105918D01*
X0102026Y0106112D01*
X0102057Y0106305D01*
X0102092Y0106497D01*
X0102133Y0106688D01*
X0102177Y0106878D01*
X0102227Y0107067D01*
X0102281Y0107255D01*
X0102340Y0107442D01*
X0102403Y0107627D01*
X0102470Y0107810D01*
X0102543Y0107992D01*
X0102619Y0108172D01*
X0102700Y0108350D01*
X0102785Y0108526D01*
X0102874Y0108700D01*
X0102968Y0108872D01*
X0103065Y0109041D01*
X0103167Y0109208D01*
X0103273Y0109372D01*
X0103383Y0109534D01*
X0103496Y0109693D01*
X0103614Y0109849D01*
X0103735Y0110003D01*
X0103860Y0110153D01*
X0103988Y0110300D01*
X0104120Y0110445D01*
X0104256Y0110586D01*
X0104395Y0110723D01*
X0104537Y0110857D01*
X0104682Y0110988D01*
X0104831Y0111115D01*
X0104982Y0111239D01*
X0105137Y0111358D01*
X0105294Y0111474D01*
X0105454Y0111586D01*
X0105464Y0111572D01*
X0105305Y0111460D01*
X0105148Y0111344D01*
X0104994Y0111224D01*
X0104842Y0111101D01*
X0104694Y0110974D01*
X0104549Y0110844D01*
X0104407Y0110710D01*
X0104269Y0110573D01*
X0104133Y0110432D01*
X0104002Y0110288D01*
X0103873Y0110141D01*
X0103749Y0109991D01*
X0103628Y0109838D01*
X0103511Y0109682D01*
X0103397Y0109524D01*
X0103288Y0109362D01*
X0103182Y0109198D01*
X0103081Y0109032D01*
X0102983Y0108863D01*
X0102890Y0108691D01*
X0102801Y0108518D01*
X0102716Y0108342D01*
X0102635Y0108165D01*
X0102559Y0107985D01*
X0102487Y0107804D01*
X0102420Y0107621D01*
X0102357Y0107436D01*
X0102298Y0107250D01*
X0102244Y0107063D01*
X0102195Y0106874D01*
X0102150Y0106684D01*
X0102110Y0106493D01*
X0102074Y0106302D01*
X0102044Y0106109D01*
X0102017Y0105916D01*
X0101996Y0105722D01*
X0101979Y0105527D01*
X0101967Y0105333D01*
X0101960Y0105138D01*
X0101957Y0104943D01*
X0101975Y0104943D01*
X0101978Y0105137D01*
X0101985Y0105332D01*
X0101997Y0105526D01*
X0102014Y0105720D01*
X0102035Y0105913D01*
X0102061Y0106106D01*
X0102092Y0106298D01*
X0102128Y0106490D01*
X0102168Y0106680D01*
X0102212Y0106870D01*
X0102262Y0107058D01*
X0102316Y0107245D01*
X0102374Y0107431D01*
X0102437Y0107615D01*
X0102504Y0107797D01*
X0102576Y0107978D01*
X0102652Y0108157D01*
X0102732Y0108335D01*
X0102817Y0108510D01*
X0102906Y0108683D01*
X0102999Y0108854D01*
X0103096Y0109022D01*
X0103198Y0109189D01*
X0103303Y0109352D01*
X0103412Y0109513D01*
X0103525Y0109672D01*
X0103642Y0109827D01*
X0103763Y0109980D01*
X0103887Y0110130D01*
X0104015Y0110276D01*
X0104147Y0110420D01*
X0104281Y0110560D01*
X0104420Y0110697D01*
X0104561Y0110831D01*
X0104706Y0110961D01*
X0104854Y0111087D01*
X0105005Y0111210D01*
X0105159Y0111330D01*
X0105315Y0111445D01*
X0105475Y0111557D01*
X0105485Y0111542D01*
X0105326Y0111430D01*
X0105169Y0111315D01*
X0105016Y0111196D01*
X0104865Y0111074D01*
X0104718Y0110947D01*
X0104573Y0110818D01*
X0104432Y0110684D01*
X0104294Y0110548D01*
X0104160Y0110408D01*
X0104028Y0110264D01*
X0103901Y0110118D01*
X0103777Y0109969D01*
X0103656Y0109816D01*
X0103540Y0109661D01*
X0103427Y0109503D01*
X0103318Y0109342D01*
X0103213Y0109179D01*
X0103112Y0109013D01*
X0103015Y0108845D01*
X0102922Y0108675D01*
X0102833Y0108502D01*
X0102749Y0108327D01*
X0102668Y0108150D01*
X0102592Y0107971D01*
X0102521Y0107791D01*
X0102454Y0107609D01*
X0102391Y0107425D01*
X0102333Y0107240D01*
X0102279Y0107053D01*
X0102230Y0106865D01*
X0102185Y0106676D01*
X0102145Y0106486D01*
X0102110Y0106295D01*
X0102079Y0106104D01*
X0102053Y0105911D01*
X0102032Y0105718D01*
X0102015Y0105525D01*
X0102003Y0105331D01*
X0101996Y0105137D01*
X0101993Y0104943D01*
X0102011Y0104943D01*
X0102014Y0105137D01*
X0102021Y0105330D01*
X0102033Y0105524D01*
X0102050Y0105717D01*
X0102071Y0105909D01*
X0102097Y0106101D01*
X0102128Y0106292D01*
X0102163Y0106483D01*
X0102203Y0106672D01*
X0102247Y0106861D01*
X0102296Y0107048D01*
X0102350Y0107235D01*
X0102408Y0107419D01*
X0102471Y0107603D01*
X0102538Y0107785D01*
X0102609Y0107965D01*
X0102685Y0108143D01*
X0102765Y0108319D01*
X0102849Y0108494D01*
X0102938Y0108666D01*
X0103030Y0108836D01*
X0103127Y0109004D01*
X0103228Y0109170D01*
X0103333Y0109332D01*
X0103442Y0109493D01*
X0103554Y0109650D01*
X0103671Y0109805D01*
X0103791Y0109957D01*
X0103915Y0110106D01*
X0104042Y0110252D01*
X0104173Y0110395D01*
X0104307Y0110535D01*
X0104445Y0110671D01*
X0104586Y0110804D01*
X0104730Y0110934D01*
X0104877Y0111060D01*
X0105027Y0111182D01*
X0105180Y0111301D01*
X0105336Y0111416D01*
X0105495Y0111527D01*
X0105505Y0111512D01*
X0105347Y0111401D01*
X0105191Y0111286D01*
X0105038Y0111168D01*
X0104888Y0111046D01*
X0104742Y0110920D01*
X0104598Y0110791D01*
X0104457Y0110658D01*
X0104320Y0110522D01*
X0104186Y0110383D01*
X0104055Y0110240D01*
X0103928Y0110095D01*
X0103805Y0109946D01*
X0103685Y0109794D01*
X0103569Y0109640D01*
X0103456Y0109483D01*
X0103348Y0109323D01*
X0103243Y0109160D01*
X0103143Y0108995D01*
X0103046Y0108827D01*
X0102954Y0108658D01*
X0102865Y0108486D01*
X0102781Y0108312D01*
X0102701Y0108136D01*
X0102626Y0107958D01*
X0102555Y0107778D01*
X0102488Y0107597D01*
X0102425Y0107414D01*
X0102367Y0107229D01*
X0102314Y0107044D01*
X0102265Y0106857D01*
X0102220Y0106669D01*
X0102181Y0106479D01*
X0102145Y0106289D01*
X0102115Y0106098D01*
X0102089Y0105907D01*
X0102067Y0105715D01*
X0102051Y0105522D01*
X0102039Y0105329D01*
X0102032Y0105136D01*
X0102029Y0104943D01*
X0102047Y0104943D01*
X0102050Y0105136D01*
X0102057Y0105328D01*
X0102069Y0105521D01*
X0102085Y0105713D01*
X0102107Y0105905D01*
X0102133Y0106096D01*
X0102163Y0106286D01*
X0102198Y0106476D01*
X0102238Y0106665D01*
X0102282Y0106852D01*
X0102331Y0107039D01*
X0102385Y0107224D01*
X0102442Y0107408D01*
X0102505Y0107591D01*
X0102571Y0107772D01*
X0102642Y0107951D01*
X0102718Y0108128D01*
X0102798Y0108304D01*
X0102881Y0108478D01*
X0102970Y0108649D01*
X0103062Y0108819D01*
X0103158Y0108986D01*
X0103259Y0109150D01*
X0103363Y0109313D01*
X0103471Y0109472D01*
X0103583Y0109629D01*
X0103699Y0109783D01*
X0103819Y0109935D01*
X0103942Y0110083D01*
X0104069Y0110228D01*
X0104199Y0110371D01*
X0104333Y0110510D01*
X0104470Y0110645D01*
X0104610Y0110778D01*
X0104753Y0110907D01*
X0104900Y0111032D01*
X0105049Y0111154D01*
X0105202Y0111272D01*
X0105357Y0111386D01*
X0105515Y0111497D01*
X0105525Y0111482D01*
X0105368Y0111372D01*
X0105213Y0111258D01*
X0105061Y0111140D01*
X0104911Y0111018D01*
X0104765Y0110893D01*
X0104622Y0110765D01*
X0104482Y0110632D01*
X0104345Y0110497D01*
X0104212Y0110358D01*
X0104082Y0110216D01*
X0103956Y0110071D01*
X0103833Y0109923D01*
X0103713Y0109772D01*
X0103598Y0109619D01*
X0103486Y0109462D01*
X0103378Y0109303D01*
X0103274Y0109141D01*
X0103174Y0108977D01*
X0103078Y0108810D01*
X0102986Y0108641D01*
X0102898Y0108470D01*
X0102814Y0108296D01*
X0102734Y0108121D01*
X0102659Y0107944D01*
X0102588Y0107765D01*
X0102522Y0107585D01*
X0102459Y0107403D01*
X0102402Y0107219D01*
X0102348Y0107034D01*
X0102300Y0106848D01*
X0102256Y0106661D01*
X0102216Y0106472D01*
X0102181Y0106283D01*
X0102150Y0106093D01*
X0102125Y0105903D01*
X0102103Y0105711D01*
X0102087Y0105520D01*
X0102075Y0105328D01*
X0102068Y0105135D01*
X0102065Y0104943D01*
X0118082Y0104943D02*
X0117902Y0104943D01*
X0117903Y0104943D02*
X0117900Y0105135D01*
X0117893Y0105327D01*
X0117881Y0105519D01*
X0117865Y0105710D01*
X0117844Y0105901D01*
X0117818Y0106091D01*
X0117787Y0106281D01*
X0117752Y0106470D01*
X0117713Y0106657D01*
X0117669Y0106844D01*
X0117620Y0107030D01*
X0117567Y0107214D01*
X0117509Y0107398D01*
X0117447Y0107579D01*
X0117381Y0107759D01*
X0117310Y0107938D01*
X0117235Y0108115D01*
X0117156Y0108289D01*
X0117072Y0108462D01*
X0116984Y0108633D01*
X0116892Y0108802D01*
X0116797Y0108968D01*
X0116697Y0109132D01*
X0116593Y0109293D01*
X0116485Y0109452D01*
X0116373Y0109608D01*
X0116258Y0109762D01*
X0116139Y0109912D01*
X0116016Y0110060D01*
X0115890Y0110205D01*
X0115760Y0110346D01*
X0115627Y0110485D01*
X0115491Y0110620D01*
X0115351Y0110752D01*
X0115209Y0110880D01*
X0115063Y0111005D01*
X0114914Y0111126D01*
X0114762Y0111244D01*
X0114608Y0111358D01*
X0114450Y0111468D01*
X0114551Y0111616D01*
X0114712Y0111504D01*
X0114870Y0111387D01*
X0115026Y0111267D01*
X0115178Y0111143D01*
X0115327Y0111015D01*
X0115473Y0110884D01*
X0115616Y0110749D01*
X0115755Y0110611D01*
X0115892Y0110470D01*
X0116024Y0110325D01*
X0116153Y0110177D01*
X0116279Y0110026D01*
X0116401Y0109872D01*
X0116519Y0109715D01*
X0116633Y0109555D01*
X0116743Y0109393D01*
X0116849Y0109227D01*
X0116951Y0109060D01*
X0117049Y0108890D01*
X0117143Y0108717D01*
X0117233Y0108543D01*
X0117319Y0108366D01*
X0117400Y0108187D01*
X0117477Y0108006D01*
X0117549Y0107824D01*
X0117617Y0107639D01*
X0117680Y0107454D01*
X0117739Y0107266D01*
X0117794Y0107078D01*
X0117843Y0106888D01*
X0117888Y0106697D01*
X0117929Y0106504D01*
X0117965Y0106311D01*
X0117996Y0106117D01*
X0118022Y0105923D01*
X0118044Y0105728D01*
X0118061Y0105532D01*
X0118073Y0105336D01*
X0118080Y0105140D01*
X0118083Y0104943D01*
X0118065Y0104943D01*
X0118062Y0105139D01*
X0118055Y0105335D01*
X0118043Y0105531D01*
X0118026Y0105726D01*
X0118004Y0105921D01*
X0117978Y0106115D01*
X0117947Y0106308D01*
X0117911Y0106501D01*
X0117871Y0106693D01*
X0117826Y0106883D01*
X0117776Y0107073D01*
X0117722Y0107261D01*
X0117663Y0107448D01*
X0117600Y0107633D01*
X0117532Y0107817D01*
X0117460Y0107999D01*
X0117383Y0108180D01*
X0117302Y0108358D01*
X0117217Y0108534D01*
X0117127Y0108709D01*
X0117034Y0108881D01*
X0116936Y0109051D01*
X0116834Y0109218D01*
X0116728Y0109383D01*
X0116618Y0109545D01*
X0116504Y0109704D01*
X0116386Y0109861D01*
X0116265Y0110014D01*
X0116140Y0110165D01*
X0116011Y0110313D01*
X0115878Y0110457D01*
X0115743Y0110599D01*
X0115603Y0110736D01*
X0115461Y0110871D01*
X0115315Y0111002D01*
X0115166Y0111129D01*
X0115014Y0111253D01*
X0114860Y0111373D01*
X0114702Y0111489D01*
X0114541Y0111602D01*
X0114531Y0111587D01*
X0114691Y0111475D01*
X0114849Y0111359D01*
X0115003Y0111239D01*
X0115155Y0111115D01*
X0115303Y0110988D01*
X0115449Y0110858D01*
X0115591Y0110723D01*
X0115730Y0110586D01*
X0115865Y0110445D01*
X0115997Y0110301D01*
X0116126Y0110154D01*
X0116251Y0110003D01*
X0116372Y0109850D01*
X0116489Y0109694D01*
X0116603Y0109534D01*
X0116713Y0109373D01*
X0116819Y0109208D01*
X0116920Y0109041D01*
X0117018Y0108872D01*
X0117112Y0108700D01*
X0117201Y0108526D01*
X0117286Y0108350D01*
X0117367Y0108172D01*
X0117443Y0107993D01*
X0117515Y0107811D01*
X0117583Y0107627D01*
X0117646Y0107442D01*
X0117705Y0107256D01*
X0117759Y0107068D01*
X0117808Y0106879D01*
X0117853Y0106689D01*
X0117894Y0106497D01*
X0117929Y0106305D01*
X0117960Y0106112D01*
X0117986Y0105918D01*
X0118008Y0105724D01*
X0118025Y0105529D01*
X0118037Y0105334D01*
X0118044Y0105139D01*
X0118047Y0104943D01*
X0118029Y0104943D01*
X0118026Y0105139D01*
X0118019Y0105333D01*
X0118007Y0105528D01*
X0117990Y0105722D01*
X0117969Y0105916D01*
X0117942Y0106110D01*
X0117912Y0106302D01*
X0117876Y0106494D01*
X0117836Y0106685D01*
X0117791Y0106875D01*
X0117741Y0107063D01*
X0117688Y0107251D01*
X0117629Y0107437D01*
X0117566Y0107621D01*
X0117498Y0107804D01*
X0117427Y0107986D01*
X0117350Y0108165D01*
X0117270Y0108343D01*
X0117185Y0108518D01*
X0117096Y0108692D01*
X0117002Y0108863D01*
X0116905Y0109032D01*
X0116803Y0109199D01*
X0116698Y0109363D01*
X0116588Y0109524D01*
X0116475Y0109683D01*
X0116358Y0109839D01*
X0116237Y0109992D01*
X0116112Y0110142D01*
X0115984Y0110289D01*
X0115852Y0110433D01*
X0115717Y0110573D01*
X0115578Y0110711D01*
X0115437Y0110844D01*
X0115292Y0110975D01*
X0115143Y0111102D01*
X0114992Y0111225D01*
X0114838Y0111344D01*
X0114681Y0111460D01*
X0114521Y0111572D01*
X0114511Y0111557D01*
X0114670Y0111445D01*
X0114827Y0111330D01*
X0114981Y0111211D01*
X0115132Y0111088D01*
X0115280Y0110961D01*
X0115424Y0110831D01*
X0115566Y0110698D01*
X0115704Y0110561D01*
X0115839Y0110420D01*
X0115971Y0110277D01*
X0116099Y0110130D01*
X0116223Y0109980D01*
X0116344Y0109828D01*
X0116460Y0109672D01*
X0116574Y0109514D01*
X0116683Y0109353D01*
X0116788Y0109189D01*
X0116889Y0109023D01*
X0116987Y0108854D01*
X0117080Y0108683D01*
X0117169Y0108510D01*
X0117253Y0108335D01*
X0117334Y0108158D01*
X0117410Y0107979D01*
X0117482Y0107798D01*
X0117549Y0107615D01*
X0117612Y0107431D01*
X0117670Y0107246D01*
X0117724Y0107059D01*
X0117773Y0106870D01*
X0117818Y0106681D01*
X0117858Y0106490D01*
X0117894Y0106299D01*
X0117925Y0106107D01*
X0117951Y0105914D01*
X0117972Y0105721D01*
X0117989Y0105527D01*
X0118001Y0105333D01*
X0118008Y0105138D01*
X0118011Y0104943D01*
X0117993Y0104943D01*
X0117990Y0105138D01*
X0117983Y0105332D01*
X0117971Y0105525D01*
X0117954Y0105719D01*
X0117933Y0105912D01*
X0117907Y0106104D01*
X0117876Y0106296D01*
X0117841Y0106487D01*
X0117801Y0106677D01*
X0117756Y0106866D01*
X0117707Y0107054D01*
X0117653Y0107240D01*
X0117595Y0107426D01*
X0117532Y0107609D01*
X0117465Y0107792D01*
X0117393Y0107972D01*
X0117317Y0108151D01*
X0117237Y0108328D01*
X0117153Y0108502D01*
X0117064Y0108675D01*
X0116971Y0108846D01*
X0116874Y0109014D01*
X0116773Y0109180D01*
X0116668Y0109343D01*
X0116559Y0109504D01*
X0116446Y0109662D01*
X0116329Y0109817D01*
X0116209Y0109969D01*
X0116085Y0110119D01*
X0115957Y0110265D01*
X0115826Y0110408D01*
X0115691Y0110548D01*
X0115553Y0110685D01*
X0115412Y0110818D01*
X0115268Y0110948D01*
X0115120Y0111074D01*
X0114970Y0111197D01*
X0114816Y0111315D01*
X0114660Y0111431D01*
X0114501Y0111542D01*
X0114491Y0111527D01*
X0114649Y0111416D01*
X0114805Y0111301D01*
X0114959Y0111182D01*
X0115109Y0111060D01*
X0115256Y0110934D01*
X0115400Y0110805D01*
X0115541Y0110672D01*
X0115679Y0110535D01*
X0115813Y0110396D01*
X0115944Y0110253D01*
X0116071Y0110107D01*
X0116195Y0109958D01*
X0116315Y0109806D01*
X0116431Y0109651D01*
X0116544Y0109493D01*
X0116653Y0109333D01*
X0116758Y0109170D01*
X0116858Y0109005D01*
X0116955Y0108837D01*
X0117048Y0108667D01*
X0117136Y0108494D01*
X0117221Y0108320D01*
X0117301Y0108144D01*
X0117377Y0107965D01*
X0117448Y0107785D01*
X0117515Y0107603D01*
X0117578Y0107420D01*
X0117636Y0107235D01*
X0117689Y0107049D01*
X0117739Y0106862D01*
X0117783Y0106673D01*
X0117823Y0106483D01*
X0117858Y0106293D01*
X0117889Y0106102D01*
X0117915Y0105910D01*
X0117936Y0105717D01*
X0117953Y0105524D01*
X0117965Y0105331D01*
X0117972Y0105137D01*
X0117975Y0104943D01*
X0117957Y0104943D01*
X0117954Y0105137D01*
X0117947Y0105330D01*
X0117935Y0105523D01*
X0117918Y0105715D01*
X0117897Y0105908D01*
X0117871Y0106099D01*
X0117841Y0106290D01*
X0117805Y0106480D01*
X0117765Y0106669D01*
X0117721Y0106857D01*
X0117672Y0107044D01*
X0117619Y0107230D01*
X0117561Y0107414D01*
X0117498Y0107597D01*
X0117431Y0107779D01*
X0117360Y0107958D01*
X0117284Y0108136D01*
X0117205Y0108312D01*
X0117120Y0108486D01*
X0117032Y0108658D01*
X0116940Y0108828D01*
X0116843Y0108995D01*
X0116742Y0109160D01*
X0116638Y0109323D01*
X0116529Y0109483D01*
X0116417Y0109640D01*
X0116301Y0109795D01*
X0116181Y0109946D01*
X0116057Y0110095D01*
X0115930Y0110241D01*
X0115800Y0110383D01*
X0115666Y0110523D01*
X0115528Y0110659D01*
X0115388Y0110791D01*
X0115244Y0110921D01*
X0115097Y0111046D01*
X0114947Y0111168D01*
X0114795Y0111287D01*
X0114639Y0111401D01*
X0114481Y0111512D01*
X0114470Y0111497D01*
X0114628Y0111387D01*
X0114784Y0111272D01*
X0114936Y0111154D01*
X0115086Y0111032D01*
X0115232Y0110907D01*
X0115376Y0110778D01*
X0115516Y0110646D01*
X0115653Y0110510D01*
X0115787Y0110371D01*
X0115917Y0110229D01*
X0116044Y0110083D01*
X0116167Y0109935D01*
X0116287Y0109784D01*
X0116402Y0109630D01*
X0116514Y0109473D01*
X0116623Y0109313D01*
X0116727Y0109151D01*
X0116827Y0108986D01*
X0116924Y0108819D01*
X0117016Y0108650D01*
X0117104Y0108478D01*
X0117188Y0108305D01*
X0117268Y0108129D01*
X0117343Y0107952D01*
X0117414Y0107772D01*
X0117481Y0107591D01*
X0117543Y0107409D01*
X0117601Y0107225D01*
X0117655Y0107039D01*
X0117704Y0106853D01*
X0117748Y0106665D01*
X0117788Y0106477D01*
X0117823Y0106287D01*
X0117853Y0106096D01*
X0117879Y0105905D01*
X0117901Y0105714D01*
X0117917Y0105522D01*
X0117929Y0105329D01*
X0117936Y0105136D01*
X0117939Y0104943D01*
X0117921Y0104943D01*
X0117918Y0105136D01*
X0117911Y0105328D01*
X0117899Y0105520D01*
X0117883Y0105712D01*
X0117861Y0105903D01*
X0117836Y0106094D01*
X0117805Y0106284D01*
X0117770Y0106473D01*
X0117730Y0106661D01*
X0117686Y0106849D01*
X0117637Y0107035D01*
X0117584Y0107220D01*
X0117526Y0107403D01*
X0117464Y0107585D01*
X0117398Y0107766D01*
X0117327Y0107945D01*
X0117251Y0108122D01*
X0117172Y0108297D01*
X0117088Y0108470D01*
X0117000Y0108641D01*
X0116908Y0108810D01*
X0116812Y0108977D01*
X0116712Y0109141D01*
X0116608Y0109303D01*
X0116500Y0109462D01*
X0116388Y0109619D01*
X0116272Y0109773D01*
X0116153Y0109924D01*
X0116030Y0110072D01*
X0115904Y0110217D01*
X0115774Y0110359D01*
X0115640Y0110497D01*
X0115503Y0110633D01*
X0115364Y0110765D01*
X0115220Y0110893D01*
X0115074Y0111019D01*
X0114925Y0111140D01*
X0114773Y0111258D01*
X0114618Y0111372D01*
X0114460Y0111482D01*
X0105408Y0107142D02*
X0105570Y0107064D01*
X0105512Y0106940D01*
X0105458Y0106814D01*
X0105407Y0106686D01*
X0105360Y0106558D01*
X0105316Y0106428D01*
X0105276Y0106296D01*
X0105240Y0106164D01*
X0105207Y0106031D01*
X0105179Y0105897D01*
X0105153Y0105762D01*
X0105132Y0105626D01*
X0105115Y0105490D01*
X0105101Y0105354D01*
X0105091Y0105217D01*
X0105085Y0105080D01*
X0105083Y0104943D01*
X0104904Y0104942D01*
X0104903Y0104943D01*
X0104905Y0105077D01*
X0104911Y0105211D01*
X0104920Y0105344D01*
X0104932Y0105477D01*
X0104948Y0105610D01*
X0104968Y0105743D01*
X0104991Y0105875D01*
X0105017Y0106006D01*
X0105047Y0106136D01*
X0105081Y0106266D01*
X0105117Y0106395D01*
X0105157Y0106522D01*
X0105201Y0106649D01*
X0105248Y0106774D01*
X0105298Y0106899D01*
X0105351Y0107021D01*
X0105408Y0107143D01*
X0105424Y0107135D01*
X0105364Y0107006D01*
X0105308Y0106876D01*
X0105256Y0106745D01*
X0105207Y0106611D01*
X0105162Y0106477D01*
X0105120Y0106341D01*
X0105083Y0106205D01*
X0105049Y0106067D01*
X0105020Y0105929D01*
X0104994Y0105789D01*
X0104972Y0105649D01*
X0104954Y0105509D01*
X0104940Y0105368D01*
X0104929Y0105226D01*
X0104923Y0105085D01*
X0104921Y0104943D01*
X0104939Y0104943D01*
X0104941Y0105084D01*
X0104947Y0105225D01*
X0104958Y0105366D01*
X0104972Y0105507D01*
X0104990Y0105647D01*
X0105012Y0105786D01*
X0105037Y0105925D01*
X0105067Y0106063D01*
X0105100Y0106200D01*
X0105138Y0106336D01*
X0105179Y0106472D01*
X0105224Y0106605D01*
X0105272Y0106738D01*
X0105325Y0106869D01*
X0105381Y0106999D01*
X0105440Y0107127D01*
X0105456Y0107119D01*
X0105397Y0106992D01*
X0105341Y0106862D01*
X0105289Y0106732D01*
X0105241Y0106599D01*
X0105196Y0106466D01*
X0105155Y0106331D01*
X0105118Y0106196D01*
X0105085Y0106059D01*
X0105055Y0105921D01*
X0105029Y0105783D01*
X0105007Y0105644D01*
X0104990Y0105505D01*
X0104976Y0105365D01*
X0104965Y0105224D01*
X0104959Y0105084D01*
X0104957Y0104943D01*
X0104975Y0104943D01*
X0104977Y0105083D01*
X0104983Y0105223D01*
X0104993Y0105363D01*
X0105007Y0105503D01*
X0105025Y0105642D01*
X0105047Y0105780D01*
X0105073Y0105918D01*
X0105102Y0106055D01*
X0105135Y0106191D01*
X0105172Y0106326D01*
X0105213Y0106461D01*
X0105258Y0106594D01*
X0105306Y0106725D01*
X0105358Y0106855D01*
X0105413Y0106984D01*
X0105472Y0107111D01*
X0105489Y0107103D01*
X0105430Y0106977D01*
X0105374Y0106848D01*
X0105323Y0106719D01*
X0105275Y0106588D01*
X0105230Y0106455D01*
X0105190Y0106321D01*
X0105153Y0106187D01*
X0105120Y0106051D01*
X0105090Y0105914D01*
X0105065Y0105777D01*
X0105043Y0105639D01*
X0105025Y0105500D01*
X0105011Y0105361D01*
X0105001Y0105222D01*
X0104995Y0105083D01*
X0104993Y0104943D01*
X0105011Y0104943D01*
X0105013Y0105082D01*
X0105019Y0105221D01*
X0105029Y0105360D01*
X0105043Y0105498D01*
X0105061Y0105637D01*
X0105083Y0105774D01*
X0105108Y0105911D01*
X0105137Y0106047D01*
X0105170Y0106182D01*
X0105207Y0106316D01*
X0105247Y0106450D01*
X0105292Y0106582D01*
X0105340Y0106712D01*
X0105391Y0106842D01*
X0105446Y0106969D01*
X0105505Y0107096D01*
X0105521Y0107088D01*
X0105463Y0106962D01*
X0105408Y0106835D01*
X0105356Y0106706D01*
X0105309Y0106576D01*
X0105265Y0106444D01*
X0105224Y0106311D01*
X0105188Y0106178D01*
X0105155Y0106043D01*
X0105126Y0105907D01*
X0105100Y0105771D01*
X0105079Y0105634D01*
X0105061Y0105496D01*
X0105047Y0105358D01*
X0105037Y0105220D01*
X0105031Y0105082D01*
X0105029Y0104943D01*
X0105047Y0104943D01*
X0105049Y0105081D01*
X0105055Y0105219D01*
X0105065Y0105357D01*
X0105079Y0105494D01*
X0105097Y0105631D01*
X0105118Y0105768D01*
X0105143Y0105904D01*
X0105172Y0106039D01*
X0105205Y0106173D01*
X0105242Y0106306D01*
X0105282Y0106439D01*
X0105326Y0106570D01*
X0105373Y0106699D01*
X0105424Y0106828D01*
X0105479Y0106955D01*
X0105537Y0107080D01*
X0105553Y0107072D01*
X0105495Y0106947D01*
X0105441Y0106821D01*
X0105390Y0106693D01*
X0105343Y0106564D01*
X0105299Y0106433D01*
X0105259Y0106301D01*
X0105222Y0106169D01*
X0105190Y0106035D01*
X0105161Y0105900D01*
X0105136Y0105765D01*
X0105114Y0105629D01*
X0105097Y0105492D01*
X0105083Y0105355D01*
X0105073Y0105218D01*
X0105067Y0105081D01*
X0105065Y0104943D01*
X0115082Y0104942D02*
X0114902Y0104942D01*
X0114903Y0104943D02*
X0114901Y0105080D01*
X0114895Y0105217D01*
X0114885Y0105354D01*
X0114871Y0105490D01*
X0114854Y0105626D01*
X0114833Y0105762D01*
X0114807Y0105897D01*
X0114779Y0106031D01*
X0114746Y0106164D01*
X0114710Y0106296D01*
X0114670Y0106428D01*
X0114626Y0106558D01*
X0114579Y0106686D01*
X0114528Y0106814D01*
X0114474Y0106940D01*
X0114416Y0107064D01*
X0114578Y0107142D01*
X0114578Y0107143D01*
X0114635Y0107021D01*
X0114688Y0106899D01*
X0114738Y0106774D01*
X0114785Y0106649D01*
X0114829Y0106522D01*
X0114869Y0106395D01*
X0114905Y0106266D01*
X0114939Y0106136D01*
X0114969Y0106006D01*
X0114995Y0105875D01*
X0115018Y0105743D01*
X0115038Y0105610D01*
X0115054Y0105477D01*
X0115066Y0105344D01*
X0115075Y0105211D01*
X0115081Y0105077D01*
X0115083Y0104943D01*
X0115065Y0104943D01*
X0115063Y0105085D01*
X0115057Y0105226D01*
X0115046Y0105368D01*
X0115032Y0105509D01*
X0115014Y0105649D01*
X0114992Y0105789D01*
X0114966Y0105929D01*
X0114937Y0106067D01*
X0114903Y0106205D01*
X0114866Y0106341D01*
X0114824Y0106477D01*
X0114779Y0106611D01*
X0114730Y0106745D01*
X0114678Y0106876D01*
X0114622Y0107006D01*
X0114562Y0107135D01*
X0114546Y0107127D01*
X0114605Y0106999D01*
X0114661Y0106869D01*
X0114714Y0106738D01*
X0114762Y0106605D01*
X0114807Y0106472D01*
X0114848Y0106336D01*
X0114886Y0106200D01*
X0114919Y0106063D01*
X0114949Y0105925D01*
X0114974Y0105786D01*
X0114996Y0105647D01*
X0115014Y0105507D01*
X0115028Y0105366D01*
X0115039Y0105225D01*
X0115045Y0105084D01*
X0115047Y0104943D01*
X0115029Y0104943D01*
X0115027Y0105084D01*
X0115021Y0105224D01*
X0115010Y0105365D01*
X0114996Y0105505D01*
X0114979Y0105644D01*
X0114957Y0105783D01*
X0114931Y0105921D01*
X0114901Y0106059D01*
X0114868Y0106196D01*
X0114831Y0106331D01*
X0114790Y0106466D01*
X0114745Y0106599D01*
X0114697Y0106732D01*
X0114645Y0106862D01*
X0114589Y0106992D01*
X0114530Y0107119D01*
X0114514Y0107111D01*
X0114573Y0106984D01*
X0114628Y0106855D01*
X0114680Y0106725D01*
X0114728Y0106594D01*
X0114773Y0106461D01*
X0114814Y0106326D01*
X0114851Y0106191D01*
X0114884Y0106055D01*
X0114913Y0105918D01*
X0114939Y0105780D01*
X0114961Y0105642D01*
X0114979Y0105503D01*
X0114993Y0105363D01*
X0115003Y0105223D01*
X0115009Y0105083D01*
X0115011Y0104943D01*
X0114993Y0104943D01*
X0114991Y0105083D01*
X0114985Y0105222D01*
X0114975Y0105361D01*
X0114961Y0105500D01*
X0114943Y0105639D01*
X0114921Y0105777D01*
X0114896Y0105914D01*
X0114866Y0106051D01*
X0114833Y0106187D01*
X0114796Y0106321D01*
X0114756Y0106455D01*
X0114711Y0106588D01*
X0114663Y0106719D01*
X0114612Y0106848D01*
X0114556Y0106977D01*
X0114497Y0107103D01*
X0114481Y0107096D01*
X0114540Y0106969D01*
X0114595Y0106842D01*
X0114646Y0106712D01*
X0114694Y0106582D01*
X0114739Y0106450D01*
X0114779Y0106316D01*
X0114816Y0106182D01*
X0114849Y0106047D01*
X0114878Y0105911D01*
X0114903Y0105774D01*
X0114925Y0105637D01*
X0114943Y0105498D01*
X0114957Y0105360D01*
X0114967Y0105221D01*
X0114973Y0105082D01*
X0114975Y0104943D01*
X0114957Y0104943D01*
X0114955Y0105082D01*
X0114949Y0105220D01*
X0114939Y0105358D01*
X0114925Y0105496D01*
X0114907Y0105634D01*
X0114886Y0105771D01*
X0114860Y0105907D01*
X0114831Y0106043D01*
X0114798Y0106178D01*
X0114762Y0106311D01*
X0114721Y0106444D01*
X0114677Y0106576D01*
X0114630Y0106706D01*
X0114578Y0106835D01*
X0114523Y0106962D01*
X0114465Y0107088D01*
X0114449Y0107080D01*
X0114507Y0106955D01*
X0114562Y0106828D01*
X0114613Y0106699D01*
X0114660Y0106570D01*
X0114704Y0106439D01*
X0114744Y0106306D01*
X0114781Y0106173D01*
X0114814Y0106039D01*
X0114843Y0105904D01*
X0114868Y0105768D01*
X0114889Y0105631D01*
X0114907Y0105494D01*
X0114921Y0105357D01*
X0114931Y0105219D01*
X0114937Y0105081D01*
X0114939Y0104943D01*
X0114921Y0104943D01*
X0114919Y0105081D01*
X0114913Y0105218D01*
X0114903Y0105355D01*
X0114889Y0105492D01*
X0114872Y0105629D01*
X0114850Y0105765D01*
X0114825Y0105900D01*
X0114796Y0106035D01*
X0114764Y0106169D01*
X0114727Y0106301D01*
X0114687Y0106433D01*
X0114643Y0106564D01*
X0114596Y0106693D01*
X0114545Y0106821D01*
X0114491Y0106947D01*
X0114433Y0107072D01*
X0101904Y0077923D02*
X0102084Y0077923D01*
X0102083Y0077923D02*
X0102086Y0077731D01*
X0102093Y0077539D01*
X0102105Y0077347D01*
X0102121Y0077156D01*
X0102142Y0076965D01*
X0102168Y0076775D01*
X0102199Y0076585D01*
X0102234Y0076397D01*
X0102273Y0076209D01*
X0102317Y0076022D01*
X0102366Y0075836D01*
X0102419Y0075652D01*
X0102477Y0075469D01*
X0102539Y0075287D01*
X0102605Y0075107D01*
X0102676Y0074928D01*
X0102751Y0074752D01*
X0102830Y0074577D01*
X0102914Y0074404D01*
X0103002Y0074233D01*
X0103093Y0074065D01*
X0103189Y0073898D01*
X0103289Y0073734D01*
X0103393Y0073573D01*
X0103501Y0073414D01*
X0103613Y0073258D01*
X0103728Y0073104D01*
X0103847Y0072954D01*
X0103970Y0072806D01*
X0104096Y0072661D01*
X0104225Y0072520D01*
X0104358Y0072381D01*
X0104495Y0072246D01*
X0104635Y0072115D01*
X0104777Y0071986D01*
X0104923Y0071861D01*
X0105072Y0071740D01*
X0105224Y0071623D01*
X0105378Y0071509D01*
X0105536Y0071399D01*
X0105435Y0071250D01*
X0105434Y0071250D01*
X0105273Y0071362D01*
X0105115Y0071479D01*
X0104960Y0071599D01*
X0104808Y0071723D01*
X0104659Y0071851D01*
X0104513Y0071982D01*
X0104370Y0072117D01*
X0104230Y0072255D01*
X0104094Y0072396D01*
X0103962Y0072541D01*
X0103833Y0072689D01*
X0103707Y0072840D01*
X0103585Y0072994D01*
X0103467Y0073151D01*
X0103353Y0073311D01*
X0103243Y0073474D01*
X0103137Y0073639D01*
X0103035Y0073806D01*
X0102936Y0073977D01*
X0102843Y0074149D01*
X0102753Y0074324D01*
X0102667Y0074500D01*
X0102586Y0074679D01*
X0102509Y0074860D01*
X0102437Y0075043D01*
X0102369Y0075227D01*
X0102306Y0075413D01*
X0102247Y0075600D01*
X0102192Y0075789D01*
X0102143Y0075979D01*
X0102098Y0076170D01*
X0102057Y0076362D01*
X0102021Y0076555D01*
X0101990Y0076749D01*
X0101964Y0076943D01*
X0101942Y0077139D01*
X0101925Y0077334D01*
X0101913Y0077530D01*
X0101906Y0077726D01*
X0101903Y0077923D01*
X0101921Y0077923D01*
X0101924Y0077727D01*
X0101931Y0077531D01*
X0101943Y0077335D01*
X0101960Y0077140D01*
X0101982Y0076946D01*
X0102008Y0076751D01*
X0102039Y0076558D01*
X0102075Y0076365D01*
X0102115Y0076174D01*
X0102160Y0075983D01*
X0102210Y0075793D01*
X0102264Y0075605D01*
X0102323Y0075418D01*
X0102386Y0075233D01*
X0102454Y0075049D01*
X0102526Y0074867D01*
X0102603Y0074686D01*
X0102684Y0074508D01*
X0102769Y0074332D01*
X0102858Y0074157D01*
X0102952Y0073985D01*
X0103050Y0073816D01*
X0103152Y0073648D01*
X0103258Y0073484D01*
X0103368Y0073321D01*
X0103482Y0073162D01*
X0103600Y0073005D01*
X0103721Y0072852D01*
X0103846Y0072701D01*
X0103975Y0072553D01*
X0104107Y0072409D01*
X0104243Y0072268D01*
X0104382Y0072130D01*
X0104525Y0071995D01*
X0104671Y0071864D01*
X0104819Y0071737D01*
X0104971Y0071613D01*
X0105126Y0071493D01*
X0105284Y0071377D01*
X0105444Y0071265D01*
X0105455Y0071279D01*
X0105294Y0071392D01*
X0105137Y0071508D01*
X0104983Y0071627D01*
X0104831Y0071751D01*
X0104682Y0071878D01*
X0104537Y0072009D01*
X0104395Y0072143D01*
X0104256Y0072280D01*
X0104120Y0072421D01*
X0103988Y0072565D01*
X0103860Y0072713D01*
X0103735Y0072863D01*
X0103614Y0073016D01*
X0103496Y0073173D01*
X0103383Y0073332D01*
X0103273Y0073494D01*
X0103167Y0073658D01*
X0103066Y0073825D01*
X0102968Y0073994D01*
X0102874Y0074166D01*
X0102785Y0074340D01*
X0102700Y0074516D01*
X0102619Y0074694D01*
X0102543Y0074874D01*
X0102471Y0075055D01*
X0102403Y0075239D01*
X0102340Y0075424D01*
X0102281Y0075610D01*
X0102227Y0075798D01*
X0102178Y0075987D01*
X0102133Y0076177D01*
X0102092Y0076369D01*
X0102057Y0076561D01*
X0102026Y0076754D01*
X0101999Y0076948D01*
X0101978Y0077142D01*
X0101961Y0077337D01*
X0101949Y0077532D01*
X0101942Y0077727D01*
X0101939Y0077923D01*
X0101957Y0077923D01*
X0101960Y0077728D01*
X0101967Y0077533D01*
X0101979Y0077338D01*
X0101996Y0077144D01*
X0102017Y0076950D01*
X0102044Y0076757D01*
X0102074Y0076564D01*
X0102110Y0076372D01*
X0102150Y0076181D01*
X0102195Y0075992D01*
X0102244Y0075803D01*
X0102298Y0075615D01*
X0102357Y0075429D01*
X0102420Y0075245D01*
X0102487Y0075062D01*
X0102559Y0074880D01*
X0102636Y0074701D01*
X0102716Y0074523D01*
X0102801Y0074348D01*
X0102890Y0074174D01*
X0102984Y0074003D01*
X0103081Y0073834D01*
X0103183Y0073667D01*
X0103288Y0073503D01*
X0103398Y0073342D01*
X0103511Y0073183D01*
X0103628Y0073027D01*
X0103749Y0072874D01*
X0103874Y0072724D01*
X0104002Y0072577D01*
X0104134Y0072433D01*
X0104269Y0072293D01*
X0104407Y0072156D01*
X0104549Y0072022D01*
X0104694Y0071891D01*
X0104842Y0071765D01*
X0104994Y0071641D01*
X0105148Y0071522D01*
X0105305Y0071406D01*
X0105465Y0071294D01*
X0105475Y0071309D01*
X0105315Y0071421D01*
X0105159Y0071536D01*
X0105005Y0071655D01*
X0104854Y0071778D01*
X0104706Y0071905D01*
X0104561Y0072035D01*
X0104420Y0072169D01*
X0104282Y0072306D01*
X0104147Y0072446D01*
X0104015Y0072589D01*
X0103887Y0072736D01*
X0103763Y0072886D01*
X0103642Y0073038D01*
X0103525Y0073194D01*
X0103412Y0073352D01*
X0103303Y0073513D01*
X0103198Y0073677D01*
X0103096Y0073843D01*
X0102999Y0074012D01*
X0102906Y0074183D01*
X0102817Y0074356D01*
X0102733Y0074531D01*
X0102652Y0074708D01*
X0102576Y0074887D01*
X0102504Y0075068D01*
X0102437Y0075251D01*
X0102374Y0075435D01*
X0102316Y0075621D01*
X0102262Y0075808D01*
X0102213Y0075996D01*
X0102168Y0076185D01*
X0102128Y0076376D01*
X0102092Y0076567D01*
X0102061Y0076759D01*
X0102035Y0076952D01*
X0102014Y0077146D01*
X0101997Y0077339D01*
X0101985Y0077534D01*
X0101978Y0077728D01*
X0101975Y0077923D01*
X0101993Y0077923D01*
X0101996Y0077729D01*
X0102003Y0077535D01*
X0102015Y0077341D01*
X0102032Y0077147D01*
X0102053Y0076954D01*
X0102079Y0076762D01*
X0102110Y0076570D01*
X0102145Y0076379D01*
X0102185Y0076189D01*
X0102230Y0076000D01*
X0102279Y0075812D01*
X0102333Y0075626D01*
X0102391Y0075441D01*
X0102454Y0075257D01*
X0102521Y0075075D01*
X0102593Y0074894D01*
X0102669Y0074715D01*
X0102749Y0074539D01*
X0102833Y0074364D01*
X0102922Y0074191D01*
X0103015Y0074021D01*
X0103112Y0073852D01*
X0103213Y0073687D01*
X0103318Y0073523D01*
X0103427Y0073363D01*
X0103540Y0073205D01*
X0103657Y0073049D01*
X0103777Y0072897D01*
X0103901Y0072748D01*
X0104029Y0072601D01*
X0104160Y0072458D01*
X0104294Y0072318D01*
X0104432Y0072182D01*
X0104574Y0072048D01*
X0104718Y0071918D01*
X0104866Y0071792D01*
X0105016Y0071670D01*
X0105170Y0071551D01*
X0105326Y0071435D01*
X0105485Y0071324D01*
X0105495Y0071339D01*
X0105336Y0071450D01*
X0105180Y0071565D01*
X0105027Y0071684D01*
X0104877Y0071806D01*
X0104730Y0071932D01*
X0104586Y0072062D01*
X0104445Y0072194D01*
X0104307Y0072331D01*
X0104173Y0072470D01*
X0104042Y0072613D01*
X0103915Y0072759D01*
X0103791Y0072908D01*
X0103671Y0073060D01*
X0103554Y0073215D01*
X0103442Y0073373D01*
X0103333Y0073533D01*
X0103228Y0073696D01*
X0103127Y0073862D01*
X0103031Y0074029D01*
X0102938Y0074200D01*
X0102849Y0074372D01*
X0102765Y0074546D01*
X0102685Y0074723D01*
X0102609Y0074901D01*
X0102538Y0075081D01*
X0102471Y0075263D01*
X0102408Y0075446D01*
X0102350Y0075631D01*
X0102297Y0075817D01*
X0102247Y0076005D01*
X0102203Y0076193D01*
X0102163Y0076383D01*
X0102128Y0076573D01*
X0102097Y0076764D01*
X0102071Y0076956D01*
X0102050Y0077149D01*
X0102033Y0077342D01*
X0102021Y0077535D01*
X0102014Y0077729D01*
X0102011Y0077923D01*
X0102029Y0077923D01*
X0102032Y0077729D01*
X0102039Y0077536D01*
X0102051Y0077343D01*
X0102068Y0077151D01*
X0102089Y0076959D01*
X0102115Y0076767D01*
X0102145Y0076576D01*
X0102181Y0076386D01*
X0102220Y0076197D01*
X0102265Y0076009D01*
X0102314Y0075822D01*
X0102367Y0075636D01*
X0102425Y0075452D01*
X0102488Y0075269D01*
X0102555Y0075088D01*
X0102626Y0074908D01*
X0102702Y0074730D01*
X0102781Y0074554D01*
X0102866Y0074380D01*
X0102954Y0074208D01*
X0103046Y0074038D01*
X0103143Y0073871D01*
X0103244Y0073706D01*
X0103348Y0073543D01*
X0103457Y0073383D01*
X0103569Y0073226D01*
X0103685Y0073071D01*
X0103805Y0072920D01*
X0103928Y0072771D01*
X0104056Y0072625D01*
X0104186Y0072483D01*
X0104320Y0072343D01*
X0104457Y0072207D01*
X0104598Y0072075D01*
X0104742Y0071946D01*
X0104889Y0071820D01*
X0105038Y0071698D01*
X0105191Y0071579D01*
X0105347Y0071465D01*
X0105505Y0071354D01*
X0105515Y0071369D01*
X0105357Y0071479D01*
X0105202Y0071594D01*
X0105050Y0071712D01*
X0104900Y0071834D01*
X0104754Y0071959D01*
X0104610Y0072088D01*
X0104470Y0072220D01*
X0104333Y0072356D01*
X0104199Y0072495D01*
X0104069Y0072637D01*
X0103942Y0072783D01*
X0103819Y0072931D01*
X0103699Y0073082D01*
X0103583Y0073237D01*
X0103471Y0073393D01*
X0103363Y0073553D01*
X0103259Y0073715D01*
X0103158Y0073880D01*
X0103062Y0074047D01*
X0102970Y0074216D01*
X0102882Y0074388D01*
X0102798Y0074562D01*
X0102718Y0074737D01*
X0102643Y0074915D01*
X0102572Y0075094D01*
X0102505Y0075275D01*
X0102442Y0075457D01*
X0102385Y0075641D01*
X0102331Y0075827D01*
X0102282Y0076013D01*
X0102238Y0076201D01*
X0102198Y0076390D01*
X0102163Y0076579D01*
X0102133Y0076770D01*
X0102107Y0076961D01*
X0102085Y0077153D01*
X0102069Y0077345D01*
X0102057Y0077537D01*
X0102050Y0077730D01*
X0102047Y0077923D01*
X0102065Y0077923D01*
X0102068Y0077730D01*
X0102075Y0077538D01*
X0102087Y0077346D01*
X0102103Y0077154D01*
X0102125Y0076963D01*
X0102150Y0076772D01*
X0102181Y0076582D01*
X0102216Y0076393D01*
X0102256Y0076205D01*
X0102300Y0076018D01*
X0102349Y0075831D01*
X0102402Y0075647D01*
X0102460Y0075463D01*
X0102522Y0075281D01*
X0102588Y0075100D01*
X0102659Y0074921D01*
X0102734Y0074744D01*
X0102814Y0074569D01*
X0102898Y0074396D01*
X0102986Y0074225D01*
X0103078Y0074056D01*
X0103174Y0073889D01*
X0103274Y0073725D01*
X0103378Y0073563D01*
X0103486Y0073404D01*
X0103598Y0073247D01*
X0103714Y0073093D01*
X0103833Y0072942D01*
X0103956Y0072794D01*
X0104082Y0072649D01*
X0104212Y0072507D01*
X0104346Y0072369D01*
X0104482Y0072233D01*
X0104622Y0072101D01*
X0104765Y0071973D01*
X0104912Y0071848D01*
X0105061Y0071726D01*
X0105213Y0071608D01*
X0105368Y0071494D01*
X0105525Y0071384D01*
X0114551Y0071250D02*
X0114450Y0071399D01*
X0114451Y0071399D02*
X0114608Y0071509D01*
X0114762Y0071623D01*
X0114914Y0071740D01*
X0115063Y0071862D01*
X0115209Y0071986D01*
X0115352Y0072115D01*
X0115491Y0072246D01*
X0115628Y0072382D01*
X0115761Y0072520D01*
X0115890Y0072662D01*
X0116017Y0072806D01*
X0116139Y0072954D01*
X0116258Y0073105D01*
X0116374Y0073258D01*
X0116485Y0073414D01*
X0116593Y0073573D01*
X0116697Y0073735D01*
X0116797Y0073899D01*
X0116893Y0074065D01*
X0116985Y0074234D01*
X0117072Y0074404D01*
X0117156Y0074577D01*
X0117235Y0074752D01*
X0117310Y0074929D01*
X0117381Y0075107D01*
X0117447Y0075287D01*
X0117509Y0075469D01*
X0117567Y0075652D01*
X0117620Y0075837D01*
X0117669Y0076022D01*
X0117713Y0076209D01*
X0117752Y0076397D01*
X0117787Y0076586D01*
X0117818Y0076775D01*
X0117844Y0076966D01*
X0117865Y0077156D01*
X0117881Y0077348D01*
X0117893Y0077539D01*
X0117900Y0077731D01*
X0117903Y0077923D01*
X0118082Y0077924D01*
X0118083Y0077923D01*
X0118080Y0077727D01*
X0118073Y0077531D01*
X0118061Y0077335D01*
X0118044Y0077139D01*
X0118022Y0076944D01*
X0117996Y0076749D01*
X0117965Y0076555D01*
X0117929Y0076362D01*
X0117889Y0076170D01*
X0117843Y0075979D01*
X0117794Y0075789D01*
X0117739Y0075600D01*
X0117680Y0075413D01*
X0117617Y0075227D01*
X0117549Y0075043D01*
X0117477Y0074860D01*
X0117400Y0074680D01*
X0117319Y0074501D01*
X0117233Y0074324D01*
X0117144Y0074149D01*
X0117050Y0073977D01*
X0116952Y0073807D01*
X0116849Y0073639D01*
X0116743Y0073474D01*
X0116633Y0073311D01*
X0116519Y0073152D01*
X0116401Y0072995D01*
X0116279Y0072841D01*
X0116154Y0072690D01*
X0116025Y0072542D01*
X0115892Y0072397D01*
X0115756Y0072255D01*
X0115616Y0072117D01*
X0115474Y0071982D01*
X0115327Y0071851D01*
X0115178Y0071723D01*
X0115026Y0071599D01*
X0114871Y0071479D01*
X0114713Y0071362D01*
X0114552Y0071250D01*
X0114542Y0071265D01*
X0114702Y0071377D01*
X0114860Y0071493D01*
X0115015Y0071613D01*
X0115167Y0071737D01*
X0115316Y0071864D01*
X0115461Y0071995D01*
X0115604Y0072130D01*
X0115743Y0072268D01*
X0115879Y0072409D01*
X0116011Y0072554D01*
X0116140Y0072701D01*
X0116265Y0072852D01*
X0116387Y0073006D01*
X0116504Y0073162D01*
X0116618Y0073322D01*
X0116728Y0073484D01*
X0116834Y0073649D01*
X0116936Y0073816D01*
X0117034Y0073986D01*
X0117128Y0074158D01*
X0117217Y0074332D01*
X0117303Y0074508D01*
X0117384Y0074687D01*
X0117460Y0074867D01*
X0117532Y0075049D01*
X0117600Y0075233D01*
X0117663Y0075419D01*
X0117722Y0075605D01*
X0117776Y0075794D01*
X0117826Y0075983D01*
X0117871Y0076174D01*
X0117911Y0076366D01*
X0117947Y0076558D01*
X0117978Y0076752D01*
X0118004Y0076946D01*
X0118026Y0077141D01*
X0118043Y0077336D01*
X0118055Y0077531D01*
X0118062Y0077727D01*
X0118065Y0077923D01*
X0118047Y0077923D01*
X0118044Y0077728D01*
X0118037Y0077532D01*
X0118025Y0077337D01*
X0118008Y0077142D01*
X0117987Y0076948D01*
X0117960Y0076754D01*
X0117929Y0076561D01*
X0117894Y0076369D01*
X0117853Y0076178D01*
X0117809Y0075988D01*
X0117759Y0075799D01*
X0117705Y0075611D01*
X0117646Y0075424D01*
X0117583Y0075239D01*
X0117516Y0075056D01*
X0117443Y0074874D01*
X0117367Y0074694D01*
X0117286Y0074516D01*
X0117201Y0074340D01*
X0117112Y0074166D01*
X0117018Y0073994D01*
X0116921Y0073825D01*
X0116819Y0073658D01*
X0116713Y0073494D01*
X0116603Y0073332D01*
X0116490Y0073173D01*
X0116372Y0073017D01*
X0116251Y0072863D01*
X0116126Y0072713D01*
X0115998Y0072566D01*
X0115866Y0072421D01*
X0115730Y0072280D01*
X0115591Y0072143D01*
X0115449Y0072009D01*
X0115304Y0071878D01*
X0115155Y0071751D01*
X0115004Y0071627D01*
X0114849Y0071508D01*
X0114692Y0071392D01*
X0114532Y0071280D01*
X0114522Y0071294D01*
X0114681Y0071406D01*
X0114838Y0071522D01*
X0114992Y0071642D01*
X0115144Y0071765D01*
X0115292Y0071892D01*
X0115437Y0072022D01*
X0115579Y0072156D01*
X0115717Y0072293D01*
X0115853Y0072434D01*
X0115984Y0072578D01*
X0116113Y0072725D01*
X0116237Y0072875D01*
X0116358Y0073028D01*
X0116475Y0073184D01*
X0116589Y0073342D01*
X0116698Y0073504D01*
X0116804Y0073668D01*
X0116905Y0073834D01*
X0117003Y0074003D01*
X0117096Y0074175D01*
X0117185Y0074348D01*
X0117270Y0074524D01*
X0117351Y0074701D01*
X0117427Y0074881D01*
X0117499Y0075062D01*
X0117566Y0075245D01*
X0117629Y0075430D01*
X0117688Y0075616D01*
X0117742Y0075803D01*
X0117791Y0075992D01*
X0117836Y0076182D01*
X0117876Y0076373D01*
X0117912Y0076564D01*
X0117942Y0076757D01*
X0117969Y0076950D01*
X0117990Y0077144D01*
X0118007Y0077339D01*
X0118019Y0077533D01*
X0118026Y0077728D01*
X0118029Y0077923D01*
X0118011Y0077923D01*
X0118008Y0077729D01*
X0118001Y0077534D01*
X0117989Y0077340D01*
X0117972Y0077146D01*
X0117951Y0076953D01*
X0117925Y0076760D01*
X0117894Y0076568D01*
X0117858Y0076376D01*
X0117818Y0076186D01*
X0117774Y0075996D01*
X0117724Y0075808D01*
X0117670Y0075621D01*
X0117612Y0075435D01*
X0117549Y0075251D01*
X0117482Y0075069D01*
X0117410Y0074888D01*
X0117334Y0074709D01*
X0117254Y0074531D01*
X0117169Y0074356D01*
X0117080Y0074183D01*
X0116987Y0074012D01*
X0116890Y0073844D01*
X0116788Y0073677D01*
X0116683Y0073514D01*
X0116574Y0073353D01*
X0116461Y0073194D01*
X0116344Y0073039D01*
X0116223Y0072886D01*
X0116099Y0072736D01*
X0115971Y0072590D01*
X0115839Y0072446D01*
X0115705Y0072306D01*
X0115566Y0072169D01*
X0115425Y0072035D01*
X0115280Y0071905D01*
X0115132Y0071779D01*
X0114981Y0071656D01*
X0114827Y0071536D01*
X0114671Y0071421D01*
X0114511Y0071309D01*
X0114501Y0071324D01*
X0114660Y0071436D01*
X0114817Y0071551D01*
X0114970Y0071670D01*
X0115121Y0071792D01*
X0115268Y0071919D01*
X0115413Y0072048D01*
X0115554Y0072182D01*
X0115692Y0072318D01*
X0115826Y0072458D01*
X0115958Y0072602D01*
X0116085Y0072748D01*
X0116209Y0072897D01*
X0116330Y0073050D01*
X0116446Y0073205D01*
X0116559Y0073363D01*
X0116668Y0073524D01*
X0116773Y0073687D01*
X0116874Y0073853D01*
X0116971Y0074021D01*
X0117064Y0074191D01*
X0117153Y0074364D01*
X0117237Y0074539D01*
X0117318Y0074716D01*
X0117394Y0074895D01*
X0117465Y0075075D01*
X0117532Y0075257D01*
X0117595Y0075441D01*
X0117653Y0075626D01*
X0117707Y0075813D01*
X0117756Y0076001D01*
X0117801Y0076190D01*
X0117841Y0076380D01*
X0117876Y0076571D01*
X0117907Y0076762D01*
X0117933Y0076955D01*
X0117954Y0077148D01*
X0117971Y0077341D01*
X0117983Y0077535D01*
X0117990Y0077729D01*
X0117993Y0077923D01*
X0117975Y0077923D01*
X0117972Y0077729D01*
X0117965Y0077536D01*
X0117953Y0077342D01*
X0117936Y0077149D01*
X0117915Y0076957D01*
X0117889Y0076765D01*
X0117858Y0076574D01*
X0117823Y0076383D01*
X0117783Y0076194D01*
X0117739Y0076005D01*
X0117690Y0075818D01*
X0117636Y0075631D01*
X0117578Y0075447D01*
X0117515Y0075263D01*
X0117448Y0075081D01*
X0117377Y0074901D01*
X0117301Y0074723D01*
X0117221Y0074547D01*
X0117137Y0074372D01*
X0117048Y0074200D01*
X0116956Y0074030D01*
X0116859Y0073862D01*
X0116758Y0073696D01*
X0116653Y0073534D01*
X0116544Y0073373D01*
X0116432Y0073216D01*
X0116315Y0073061D01*
X0116195Y0072909D01*
X0116071Y0072760D01*
X0115944Y0072614D01*
X0115813Y0072471D01*
X0115679Y0072331D01*
X0115541Y0072195D01*
X0115400Y0072062D01*
X0115256Y0071932D01*
X0115109Y0071806D01*
X0114959Y0071684D01*
X0114806Y0071565D01*
X0114650Y0071450D01*
X0114491Y0071339D01*
X0114481Y0071354D01*
X0114639Y0071465D01*
X0114795Y0071580D01*
X0114948Y0071698D01*
X0115098Y0071820D01*
X0115244Y0071946D01*
X0115388Y0072075D01*
X0115529Y0072208D01*
X0115666Y0072344D01*
X0115800Y0072483D01*
X0115931Y0072626D01*
X0116058Y0072771D01*
X0116181Y0072920D01*
X0116301Y0073072D01*
X0116417Y0073226D01*
X0116530Y0073383D01*
X0116638Y0073543D01*
X0116743Y0073706D01*
X0116843Y0073871D01*
X0116940Y0074039D01*
X0117032Y0074208D01*
X0117121Y0074380D01*
X0117205Y0074554D01*
X0117285Y0074730D01*
X0117360Y0074908D01*
X0117431Y0075088D01*
X0117498Y0075269D01*
X0117561Y0075452D01*
X0117619Y0075637D01*
X0117672Y0075822D01*
X0117721Y0076009D01*
X0117766Y0076197D01*
X0117805Y0076387D01*
X0117841Y0076577D01*
X0117871Y0076768D01*
X0117897Y0076959D01*
X0117919Y0077151D01*
X0117935Y0077344D01*
X0117947Y0077537D01*
X0117954Y0077730D01*
X0117957Y0077923D01*
X0117939Y0077923D01*
X0117936Y0077730D01*
X0117929Y0077538D01*
X0117917Y0077345D01*
X0117901Y0077153D01*
X0117879Y0076961D01*
X0117853Y0076770D01*
X0117823Y0076580D01*
X0117788Y0076390D01*
X0117748Y0076201D01*
X0117704Y0076014D01*
X0117655Y0075827D01*
X0117601Y0075642D01*
X0117544Y0075458D01*
X0117481Y0075275D01*
X0117415Y0075094D01*
X0117344Y0074915D01*
X0117268Y0074738D01*
X0117188Y0074562D01*
X0117105Y0074388D01*
X0117016Y0074217D01*
X0116924Y0074047D01*
X0116828Y0073880D01*
X0116727Y0073716D01*
X0116623Y0073553D01*
X0116515Y0073394D01*
X0116403Y0073237D01*
X0116287Y0073083D01*
X0116167Y0072931D01*
X0116044Y0072783D01*
X0115917Y0072638D01*
X0115787Y0072495D01*
X0115653Y0072356D01*
X0115516Y0072221D01*
X0115376Y0072088D01*
X0115233Y0071959D01*
X0115086Y0071834D01*
X0114937Y0071712D01*
X0114784Y0071594D01*
X0114629Y0071480D01*
X0114471Y0071369D01*
X0114461Y0071384D01*
X0114618Y0071494D01*
X0114773Y0071608D01*
X0114925Y0071726D01*
X0115075Y0071848D01*
X0115221Y0071973D01*
X0115364Y0072101D01*
X0115504Y0072234D01*
X0115641Y0072369D01*
X0115774Y0072508D01*
X0115904Y0072650D01*
X0116030Y0072795D01*
X0116153Y0072943D01*
X0116273Y0073094D01*
X0116388Y0073247D01*
X0116500Y0073404D01*
X0116608Y0073563D01*
X0116712Y0073725D01*
X0116812Y0073889D01*
X0116908Y0074056D01*
X0117000Y0074225D01*
X0117088Y0074396D01*
X0117172Y0074570D01*
X0117252Y0074745D01*
X0117327Y0074922D01*
X0117398Y0075101D01*
X0117464Y0075281D01*
X0117527Y0075463D01*
X0117584Y0075647D01*
X0117638Y0075832D01*
X0117686Y0076018D01*
X0117730Y0076205D01*
X0117770Y0076394D01*
X0117805Y0076583D01*
X0117836Y0076773D01*
X0117861Y0076963D01*
X0117883Y0077155D01*
X0117899Y0077346D01*
X0117911Y0077538D01*
X0117918Y0077731D01*
X0117921Y0077923D01*
X0114578Y0075724D02*
X0114416Y0075802D01*
X0114474Y0075926D01*
X0114528Y0076052D01*
X0114579Y0076180D01*
X0114626Y0076308D01*
X0114670Y0076438D01*
X0114710Y0076570D01*
X0114746Y0076702D01*
X0114779Y0076835D01*
X0114807Y0076969D01*
X0114833Y0077104D01*
X0114854Y0077240D01*
X0114871Y0077376D01*
X0114885Y0077512D01*
X0114895Y0077649D01*
X0114901Y0077786D01*
X0114903Y0077923D01*
X0115082Y0077924D01*
X0115083Y0077923D01*
X0115081Y0077789D01*
X0115075Y0077655D01*
X0115066Y0077522D01*
X0115054Y0077389D01*
X0115038Y0077256D01*
X0115018Y0077123D01*
X0114995Y0076991D01*
X0114969Y0076860D01*
X0114939Y0076730D01*
X0114905Y0076600D01*
X0114869Y0076471D01*
X0114829Y0076344D01*
X0114785Y0076217D01*
X0114738Y0076092D01*
X0114688Y0075967D01*
X0114635Y0075845D01*
X0114578Y0075723D01*
X0114562Y0075731D01*
X0114622Y0075860D01*
X0114678Y0075990D01*
X0114730Y0076121D01*
X0114779Y0076255D01*
X0114824Y0076389D01*
X0114866Y0076525D01*
X0114903Y0076661D01*
X0114937Y0076799D01*
X0114966Y0076937D01*
X0114992Y0077077D01*
X0115014Y0077217D01*
X0115032Y0077357D01*
X0115046Y0077498D01*
X0115057Y0077640D01*
X0115063Y0077781D01*
X0115065Y0077923D01*
X0115047Y0077923D01*
X0115045Y0077782D01*
X0115039Y0077641D01*
X0115028Y0077500D01*
X0115014Y0077359D01*
X0114996Y0077219D01*
X0114974Y0077080D01*
X0114949Y0076941D01*
X0114919Y0076803D01*
X0114886Y0076666D01*
X0114848Y0076530D01*
X0114807Y0076394D01*
X0114762Y0076261D01*
X0114714Y0076128D01*
X0114661Y0075997D01*
X0114605Y0075867D01*
X0114546Y0075739D01*
X0114530Y0075747D01*
X0114589Y0075874D01*
X0114645Y0076004D01*
X0114697Y0076134D01*
X0114745Y0076267D01*
X0114790Y0076400D01*
X0114831Y0076535D01*
X0114868Y0076670D01*
X0114901Y0076807D01*
X0114931Y0076945D01*
X0114957Y0077083D01*
X0114979Y0077222D01*
X0114996Y0077361D01*
X0115010Y0077501D01*
X0115021Y0077642D01*
X0115027Y0077782D01*
X0115029Y0077923D01*
X0115011Y0077923D01*
X0115009Y0077783D01*
X0115003Y0077643D01*
X0114993Y0077503D01*
X0114979Y0077363D01*
X0114961Y0077224D01*
X0114939Y0077086D01*
X0114913Y0076948D01*
X0114884Y0076811D01*
X0114851Y0076675D01*
X0114814Y0076540D01*
X0114773Y0076405D01*
X0114728Y0076272D01*
X0114680Y0076141D01*
X0114628Y0076011D01*
X0114573Y0075882D01*
X0114514Y0075755D01*
X0114497Y0075763D01*
X0114556Y0075889D01*
X0114612Y0076018D01*
X0114663Y0076147D01*
X0114711Y0076278D01*
X0114756Y0076411D01*
X0114796Y0076545D01*
X0114833Y0076679D01*
X0114866Y0076815D01*
X0114896Y0076952D01*
X0114921Y0077089D01*
X0114943Y0077227D01*
X0114961Y0077366D01*
X0114975Y0077505D01*
X0114985Y0077644D01*
X0114991Y0077783D01*
X0114993Y0077923D01*
X0114975Y0077923D01*
X0114973Y0077784D01*
X0114967Y0077645D01*
X0114957Y0077506D01*
X0114943Y0077368D01*
X0114925Y0077229D01*
X0114903Y0077092D01*
X0114878Y0076955D01*
X0114849Y0076819D01*
X0114816Y0076684D01*
X0114779Y0076550D01*
X0114739Y0076416D01*
X0114694Y0076284D01*
X0114646Y0076154D01*
X0114595Y0076024D01*
X0114540Y0075897D01*
X0114481Y0075770D01*
X0114465Y0075778D01*
X0114523Y0075904D01*
X0114578Y0076031D01*
X0114630Y0076160D01*
X0114677Y0076290D01*
X0114721Y0076422D01*
X0114762Y0076555D01*
X0114798Y0076688D01*
X0114831Y0076823D01*
X0114860Y0076959D01*
X0114886Y0077095D01*
X0114907Y0077232D01*
X0114925Y0077370D01*
X0114939Y0077508D01*
X0114949Y0077646D01*
X0114955Y0077784D01*
X0114957Y0077923D01*
X0114939Y0077923D01*
X0114937Y0077785D01*
X0114931Y0077647D01*
X0114921Y0077509D01*
X0114907Y0077372D01*
X0114889Y0077235D01*
X0114868Y0077098D01*
X0114843Y0076962D01*
X0114814Y0076827D01*
X0114781Y0076693D01*
X0114744Y0076560D01*
X0114704Y0076427D01*
X0114660Y0076296D01*
X0114613Y0076167D01*
X0114562Y0076038D01*
X0114507Y0075911D01*
X0114449Y0075786D01*
X0114433Y0075794D01*
X0114491Y0075919D01*
X0114545Y0076045D01*
X0114596Y0076173D01*
X0114643Y0076302D01*
X0114687Y0076433D01*
X0114727Y0076565D01*
X0114764Y0076697D01*
X0114796Y0076831D01*
X0114825Y0076966D01*
X0114850Y0077101D01*
X0114872Y0077237D01*
X0114889Y0077374D01*
X0114903Y0077511D01*
X0114913Y0077648D01*
X0114919Y0077785D01*
X0114921Y0077923D01*
X0104904Y0077924D02*
X0105084Y0077924D01*
X0105083Y0077923D02*
X0105085Y0077786D01*
X0105091Y0077649D01*
X0105101Y0077512D01*
X0105115Y0077376D01*
X0105132Y0077240D01*
X0105153Y0077104D01*
X0105179Y0076969D01*
X0105207Y0076835D01*
X0105240Y0076702D01*
X0105276Y0076570D01*
X0105316Y0076438D01*
X0105360Y0076308D01*
X0105407Y0076180D01*
X0105458Y0076052D01*
X0105512Y0075926D01*
X0105570Y0075802D01*
X0105408Y0075724D01*
X0105408Y0075723D01*
X0105351Y0075845D01*
X0105298Y0075967D01*
X0105248Y0076092D01*
X0105201Y0076217D01*
X0105157Y0076344D01*
X0105117Y0076471D01*
X0105081Y0076600D01*
X0105047Y0076730D01*
X0105017Y0076860D01*
X0104991Y0076991D01*
X0104968Y0077123D01*
X0104948Y0077256D01*
X0104932Y0077389D01*
X0104920Y0077522D01*
X0104911Y0077655D01*
X0104905Y0077789D01*
X0104903Y0077923D01*
X0104921Y0077923D01*
X0104923Y0077781D01*
X0104929Y0077640D01*
X0104940Y0077498D01*
X0104954Y0077357D01*
X0104972Y0077217D01*
X0104994Y0077077D01*
X0105020Y0076937D01*
X0105049Y0076799D01*
X0105083Y0076661D01*
X0105120Y0076525D01*
X0105162Y0076389D01*
X0105207Y0076255D01*
X0105256Y0076121D01*
X0105308Y0075990D01*
X0105364Y0075860D01*
X0105424Y0075731D01*
X0105440Y0075739D01*
X0105381Y0075867D01*
X0105325Y0075997D01*
X0105272Y0076128D01*
X0105224Y0076261D01*
X0105179Y0076394D01*
X0105138Y0076530D01*
X0105100Y0076666D01*
X0105067Y0076803D01*
X0105037Y0076941D01*
X0105012Y0077080D01*
X0104990Y0077219D01*
X0104972Y0077359D01*
X0104958Y0077500D01*
X0104947Y0077641D01*
X0104941Y0077782D01*
X0104939Y0077923D01*
X0104957Y0077923D01*
X0104959Y0077782D01*
X0104965Y0077642D01*
X0104976Y0077501D01*
X0104990Y0077361D01*
X0105007Y0077222D01*
X0105029Y0077083D01*
X0105055Y0076945D01*
X0105085Y0076807D01*
X0105118Y0076670D01*
X0105155Y0076535D01*
X0105196Y0076400D01*
X0105241Y0076267D01*
X0105289Y0076134D01*
X0105341Y0076004D01*
X0105397Y0075874D01*
X0105456Y0075747D01*
X0105472Y0075755D01*
X0105413Y0075882D01*
X0105358Y0076011D01*
X0105306Y0076141D01*
X0105258Y0076272D01*
X0105213Y0076405D01*
X0105172Y0076540D01*
X0105135Y0076675D01*
X0105102Y0076811D01*
X0105073Y0076948D01*
X0105047Y0077086D01*
X0105025Y0077224D01*
X0105007Y0077363D01*
X0104993Y0077503D01*
X0104983Y0077643D01*
X0104977Y0077783D01*
X0104975Y0077923D01*
X0104993Y0077923D01*
X0104995Y0077783D01*
X0105001Y0077644D01*
X0105011Y0077505D01*
X0105025Y0077366D01*
X0105043Y0077227D01*
X0105065Y0077089D01*
X0105090Y0076952D01*
X0105120Y0076815D01*
X0105153Y0076679D01*
X0105190Y0076545D01*
X0105230Y0076411D01*
X0105275Y0076278D01*
X0105323Y0076147D01*
X0105374Y0076018D01*
X0105430Y0075889D01*
X0105489Y0075763D01*
X0105505Y0075770D01*
X0105446Y0075897D01*
X0105391Y0076024D01*
X0105340Y0076154D01*
X0105292Y0076284D01*
X0105247Y0076416D01*
X0105207Y0076550D01*
X0105170Y0076684D01*
X0105137Y0076819D01*
X0105108Y0076955D01*
X0105083Y0077092D01*
X0105061Y0077229D01*
X0105043Y0077368D01*
X0105029Y0077506D01*
X0105019Y0077645D01*
X0105013Y0077784D01*
X0105011Y0077923D01*
X0105029Y0077923D01*
X0105031Y0077784D01*
X0105037Y0077646D01*
X0105047Y0077508D01*
X0105061Y0077370D01*
X0105079Y0077232D01*
X0105100Y0077095D01*
X0105126Y0076959D01*
X0105155Y0076823D01*
X0105188Y0076688D01*
X0105224Y0076555D01*
X0105265Y0076422D01*
X0105309Y0076290D01*
X0105356Y0076160D01*
X0105408Y0076031D01*
X0105463Y0075904D01*
X0105521Y0075778D01*
X0105537Y0075786D01*
X0105479Y0075911D01*
X0105424Y0076038D01*
X0105373Y0076167D01*
X0105326Y0076296D01*
X0105282Y0076427D01*
X0105242Y0076560D01*
X0105205Y0076693D01*
X0105172Y0076827D01*
X0105143Y0076962D01*
X0105118Y0077098D01*
X0105097Y0077235D01*
X0105079Y0077372D01*
X0105065Y0077509D01*
X0105055Y0077647D01*
X0105049Y0077785D01*
X0105047Y0077923D01*
X0105065Y0077923D01*
X0105067Y0077785D01*
X0105073Y0077648D01*
X0105083Y0077511D01*
X0105097Y0077374D01*
X0105114Y0077237D01*
X0105136Y0077101D01*
X0105161Y0076966D01*
X0105190Y0076831D01*
X0105222Y0076697D01*
X0105259Y0076565D01*
X0105299Y0076433D01*
X0105343Y0076302D01*
X0105390Y0076173D01*
X0105441Y0076045D01*
X0105495Y0075919D01*
X0105553Y0075794D01*
D17*
X0104993Y0077933D02*
X0104993Y0104933D01*
X0101993Y0104933D02*
X0101993Y0077933D01*
X0109993Y0087433D02*
X0109993Y0088933D01*
X0109993Y0093933D02*
X0109993Y0095433D01*
X0114993Y0104933D02*
X0114993Y0077933D01*
X0117993Y0077933D02*
X0117993Y0104933D01*
M02*
