G75*
%MOIN*%
%OFA0B0*%
%FSLAX25Y25*%
%IPPOS*%
%LPD*%
%AMOC8*
5,1,8,0,0,1.08239X$1,22.5*
%
%ADD10C,0.05600*%
%ADD11OC8,0.05600*%
%ADD12C,0.06400*%
%ADD13C,0.06200*%
%ADD14R,0.05550X0.05550*%
%ADD15C,0.05550*%
%ADD16C,0.05600*%
%ADD17C,0.11811*%
%ADD18C,0.00800*%
%ADD19C,0.01000*%
D10*
X0041056Y0073933D03*
X0048930Y0073933D03*
X0066056Y0083933D03*
X0073930Y0083933D03*
D11*
X0194993Y0293933D03*
X0204993Y0293933D03*
X0239993Y0293933D03*
X0249993Y0293933D03*
D12*
X0097493Y0212133D02*
X0097493Y0205733D01*
X0087493Y0205733D02*
X0087493Y0212133D01*
X0077493Y0212133D02*
X0077493Y0205733D01*
X0067493Y0205733D02*
X0067493Y0212133D01*
X0057493Y0212133D02*
X0057493Y0205733D01*
X0047493Y0205733D02*
X0047493Y0212133D01*
X0037493Y0212133D02*
X0037493Y0205733D01*
X0027493Y0205733D02*
X0027493Y0212133D01*
D13*
X0027493Y0186433D03*
X0027493Y0176433D03*
X0027493Y0166433D03*
X0027493Y0156433D03*
X0027493Y0146433D03*
X0027493Y0136433D03*
X0027493Y0126433D03*
X0027493Y0116433D03*
X0027493Y0106433D03*
X0037493Y0106433D03*
X0037493Y0096433D03*
X0027493Y0096433D03*
X0027493Y0086433D03*
X0037493Y0086433D03*
X0027493Y0076433D03*
X0027493Y0066433D03*
X0037493Y0066433D03*
X0027493Y0056433D03*
X0087493Y0056433D03*
X0087493Y0066433D03*
X0087493Y0076433D03*
X0087493Y0086433D03*
X0087493Y0096433D03*
X0087493Y0106433D03*
X0087493Y0116433D03*
X0087493Y0126433D03*
X0087493Y0136433D03*
X0087493Y0146433D03*
X0087493Y0156433D03*
X0087493Y0166433D03*
X0087493Y0176433D03*
X0087493Y0186433D03*
D14*
X0119934Y0221738D03*
X0149934Y0221738D03*
X0177493Y0218933D03*
X0177493Y0228933D03*
X0177493Y0238933D03*
X0177493Y0248933D03*
X0177493Y0258933D03*
X0177493Y0268933D03*
X0267493Y0268933D03*
X0267493Y0258933D03*
X0267493Y0248933D03*
X0267493Y0238933D03*
X0267493Y0228933D03*
X0267493Y0218933D03*
X0267493Y0138933D03*
X0267493Y0128933D03*
X0267493Y0118933D03*
X0267493Y0108933D03*
X0267493Y0098933D03*
X0267493Y0088933D03*
X0267493Y0078933D03*
X0267493Y0068933D03*
X0177493Y0068933D03*
X0177493Y0078933D03*
X0177493Y0088933D03*
X0177493Y0098933D03*
X0177493Y0108933D03*
X0177493Y0118933D03*
X0177493Y0128933D03*
X0177493Y0138933D03*
X0034993Y0278933D03*
X0034993Y0298933D03*
X0074993Y0288933D03*
D15*
X0129934Y0221738D03*
X0139934Y0221738D03*
X0139934Y0211738D03*
X0129934Y0211738D03*
X0119934Y0211738D03*
X0149934Y0211738D03*
D16*
X0157193Y0188933D02*
X0162793Y0188933D01*
X0162793Y0178933D02*
X0157193Y0178933D01*
X0157193Y0168933D02*
X0162793Y0168933D01*
X0162793Y0158933D02*
X0157193Y0158933D01*
X0157193Y0148933D02*
X0162793Y0148933D01*
X0162793Y0138933D02*
X0157193Y0138933D01*
X0157193Y0128933D02*
X0162793Y0128933D01*
X0162793Y0118933D02*
X0157193Y0118933D01*
X0157193Y0108933D02*
X0162793Y0108933D01*
X0162793Y0098933D02*
X0157193Y0098933D01*
X0157193Y0088933D02*
X0162793Y0088933D01*
X0162793Y0078933D02*
X0157193Y0078933D01*
X0157193Y0068933D02*
X0162793Y0068933D01*
X0162793Y0058933D02*
X0157193Y0058933D01*
X0132793Y0058933D02*
X0127193Y0058933D01*
X0127193Y0068933D02*
X0132793Y0068933D01*
X0132793Y0078933D02*
X0127193Y0078933D01*
X0127193Y0088933D02*
X0132793Y0088933D01*
X0132793Y0098933D02*
X0127193Y0098933D01*
X0127193Y0108933D02*
X0132793Y0108933D01*
X0132793Y0118933D02*
X0127193Y0118933D01*
X0127193Y0128933D02*
X0132793Y0128933D01*
X0132793Y0138933D02*
X0127193Y0138933D01*
X0127193Y0148933D02*
X0132793Y0148933D01*
X0132793Y0158933D02*
X0127193Y0158933D01*
X0127193Y0168933D02*
X0132793Y0168933D01*
X0132793Y0178933D02*
X0127193Y0178933D01*
X0127193Y0188933D02*
X0132793Y0188933D01*
D17*
X0109993Y0184933D03*
X0109993Y0166433D03*
X0109993Y0147933D03*
D18*
X0109593Y0147333D01*
X0109593Y0132133D01*
X0089593Y0112133D01*
X0086393Y0112133D01*
X0083193Y0108933D01*
X0083193Y0108133D01*
X0049593Y0074533D01*
X0048930Y0073933D01*
X0047193Y0069733D02*
X0051993Y0069733D01*
X0063193Y0080933D01*
X0087193Y0056933D01*
X0087493Y0056433D01*
X0115193Y0068933D02*
X0087993Y0096133D01*
X0087493Y0096433D01*
X0083193Y0094533D02*
X0083193Y0098533D01*
X0086393Y0101733D01*
X0103993Y0101733D01*
X0127193Y0124933D01*
X0135193Y0124933D01*
X0155193Y0144933D01*
X0138393Y0161733D01*
X0138393Y0181733D01*
X0131193Y0188933D01*
X0129993Y0188933D01*
X0132793Y0184933D02*
X0124793Y0184933D01*
X0123193Y0186533D01*
X0123193Y0195333D01*
X0139193Y0211333D01*
X0139934Y0211738D01*
X0139993Y0216133D02*
X0138393Y0216133D01*
X0134393Y0212133D01*
X0134393Y0208933D01*
X0117593Y0192133D01*
X0117593Y0181733D01*
X0109593Y0173733D01*
X0095193Y0173733D01*
X0087993Y0166533D01*
X0087493Y0166433D01*
X0083193Y0168933D02*
X0083193Y0130533D01*
X0087193Y0126533D01*
X0087493Y0126433D01*
X0081593Y0122533D02*
X0087193Y0116933D01*
X0087493Y0116433D01*
X0081593Y0122533D02*
X0081593Y0176933D01*
X0085593Y0180933D01*
X0088793Y0180933D01*
X0091993Y0184133D01*
X0091993Y0192133D01*
X0115993Y0216133D01*
X0121593Y0216133D01*
X0123993Y0218533D01*
X0123993Y0221733D01*
X0127993Y0225733D01*
X0131993Y0225733D01*
X0135193Y0222533D01*
X0139193Y0222533D01*
X0139934Y0221738D01*
X0139993Y0216133D02*
X0145593Y0221733D01*
X0149593Y0221733D01*
X0149934Y0221738D01*
X0154393Y0216133D02*
X0150393Y0212133D01*
X0149934Y0211738D01*
X0154393Y0216133D02*
X0154393Y0253733D01*
X0194393Y0293733D01*
X0194993Y0293933D01*
X0129934Y0221738D02*
X0129593Y0221733D01*
X0129593Y0217733D01*
X0123993Y0212133D01*
X0123993Y0209733D01*
X0116793Y0202533D01*
X0114393Y0202533D01*
X0107993Y0196133D01*
X0107993Y0193733D01*
X0091993Y0177733D01*
X0091993Y0174533D01*
X0088793Y0171333D01*
X0085593Y0171333D01*
X0083193Y0168933D01*
X0056793Y0168933D02*
X0056793Y0208933D01*
X0057493Y0208933D01*
X0052793Y0213733D02*
X0055993Y0216933D01*
X0089593Y0216933D01*
X0097593Y0208933D01*
X0097493Y0208933D01*
X0132793Y0184933D02*
X0136793Y0180933D01*
X0136793Y0136933D01*
X0130393Y0130533D01*
X0130393Y0128933D01*
X0129993Y0128933D01*
X0111193Y0129733D02*
X0087993Y0106533D01*
X0087493Y0106433D01*
X0083193Y0094533D02*
X0087193Y0090533D01*
X0087193Y0086533D01*
X0087493Y0086433D01*
X0066056Y0083933D02*
X0065593Y0083333D01*
X0063193Y0080933D01*
X0047193Y0069733D02*
X0043193Y0073733D01*
X0041593Y0073733D01*
X0041056Y0073933D01*
X0027993Y0056133D02*
X0027493Y0056433D01*
X0027993Y0056133D02*
X0031993Y0052133D01*
X0131993Y0052133D01*
X0152793Y0072933D01*
X0163193Y0072933D01*
X0168793Y0078533D01*
X0176793Y0078533D01*
X0177493Y0078933D01*
X0181593Y0075333D02*
X0187993Y0068933D01*
X0267493Y0068933D01*
X0181593Y0075333D02*
X0177593Y0071333D01*
X0177593Y0068933D01*
X0177493Y0068933D01*
X0181593Y0075333D02*
X0181593Y0112133D01*
X0179193Y0114533D01*
X0174393Y0114533D01*
X0159993Y0128933D01*
X0163193Y0144933D02*
X0155193Y0144933D01*
X0163193Y0144933D02*
X0176793Y0131333D01*
X0176793Y0128933D01*
X0177493Y0128933D01*
X0129993Y0158933D02*
X0117593Y0146533D01*
X0117593Y0143333D01*
X0111193Y0136933D01*
X0111193Y0129733D01*
X0056793Y0168933D02*
X0027993Y0140133D01*
X0027993Y0136933D01*
X0027493Y0136433D01*
X0027493Y0146433D02*
X0027993Y0146533D01*
X0027993Y0150533D01*
X0052793Y0175333D01*
X0052793Y0213733D01*
X0039193Y0210533D02*
X0037593Y0208933D01*
X0037493Y0208933D01*
X0039193Y0210533D02*
X0039193Y0282533D01*
X0035193Y0286533D01*
X0035193Y0298533D01*
X0034993Y0298933D01*
X0115193Y0068933D02*
X0129993Y0068933D01*
D19*
X0022493Y0051433D02*
X0022493Y0306433D01*
X0277493Y0306433D01*
X0277493Y0051433D01*
X0134263Y0051433D01*
X0152718Y0069888D01*
X0152693Y0069828D01*
X0152693Y0068038D01*
X0153378Y0066384D01*
X0154644Y0065118D01*
X0156298Y0064433D01*
X0163688Y0064433D01*
X0165342Y0065118D01*
X0166608Y0066384D01*
X0167293Y0068038D01*
X0167293Y0069828D01*
X0166608Y0071482D01*
X0165660Y0072430D01*
X0169663Y0076433D01*
X0173018Y0076433D01*
X0173018Y0075454D01*
X0174014Y0074458D01*
X0180972Y0074458D01*
X0181968Y0075454D01*
X0181968Y0082412D01*
X0180972Y0083408D01*
X0174014Y0083408D01*
X0173018Y0082412D01*
X0173018Y0080633D01*
X0167923Y0080633D01*
X0167242Y0079952D01*
X0166608Y0081482D01*
X0165342Y0082748D01*
X0163688Y0083433D01*
X0156298Y0083433D01*
X0154644Y0082748D01*
X0153378Y0081482D01*
X0152693Y0079828D01*
X0152693Y0078038D01*
X0153378Y0076384D01*
X0154644Y0075118D01*
X0154849Y0075033D01*
X0151923Y0075033D01*
X0137125Y0060235D01*
X0136608Y0061482D01*
X0135342Y0062748D01*
X0133688Y0063433D01*
X0126298Y0063433D01*
X0124644Y0062748D01*
X0123378Y0061482D01*
X0122693Y0059828D01*
X0122693Y0058038D01*
X0123378Y0056384D01*
X0124644Y0055118D01*
X0126298Y0054433D01*
X0131323Y0054433D01*
X0131123Y0054233D01*
X0091535Y0054233D01*
X0091756Y0054667D01*
X0091980Y0055356D01*
X0092079Y0055983D01*
X0087943Y0055983D01*
X0087943Y0056883D01*
X0092079Y0056883D01*
X0091980Y0057510D01*
X0091756Y0058199D01*
X0091427Y0058844D01*
X0091002Y0059430D01*
X0090490Y0059942D01*
X0089904Y0060367D01*
X0089259Y0060696D01*
X0088570Y0060920D01*
X0087943Y0061019D01*
X0087943Y0056883D01*
X0087043Y0056883D01*
X0087043Y0055983D01*
X0082907Y0055983D01*
X0083006Y0055356D01*
X0083230Y0054667D01*
X0083451Y0054233D01*
X0032863Y0054233D01*
X0032095Y0055001D01*
X0032293Y0055478D01*
X0032293Y0057388D01*
X0031562Y0059152D01*
X0030212Y0060502D01*
X0028448Y0061233D01*
X0026538Y0061233D01*
X0024774Y0060502D01*
X0023424Y0059152D01*
X0022693Y0057388D01*
X0022693Y0055478D01*
X0023424Y0053714D01*
X0024774Y0052364D01*
X0026538Y0051633D01*
X0028448Y0051633D01*
X0029208Y0051948D01*
X0029723Y0051433D01*
X0022493Y0051433D01*
X0022493Y0051929D02*
X0025825Y0051929D01*
X0024211Y0052927D02*
X0022493Y0052927D01*
X0022493Y0053926D02*
X0023336Y0053926D01*
X0022923Y0054924D02*
X0022493Y0054924D01*
X0022493Y0055923D02*
X0022693Y0055923D01*
X0022693Y0056921D02*
X0022493Y0056921D01*
X0022493Y0057920D02*
X0022913Y0057920D01*
X0023327Y0058918D02*
X0022493Y0058918D01*
X0022493Y0059917D02*
X0024188Y0059917D01*
X0025771Y0060915D02*
X0022493Y0060915D01*
X0022493Y0061914D02*
X0025861Y0061914D01*
X0026538Y0061633D02*
X0024774Y0062364D01*
X0023424Y0063714D01*
X0022693Y0065478D01*
X0022693Y0067388D01*
X0023424Y0069152D01*
X0024774Y0070502D01*
X0026538Y0071233D01*
X0028448Y0071233D01*
X0030212Y0070502D01*
X0031562Y0069152D01*
X0032293Y0067388D01*
X0032293Y0065478D01*
X0031562Y0063714D01*
X0030212Y0062364D01*
X0028448Y0061633D01*
X0026538Y0061633D01*
X0029125Y0061914D02*
X0035861Y0061914D01*
X0036538Y0061633D02*
X0038448Y0061633D01*
X0040212Y0062364D01*
X0041562Y0063714D01*
X0042293Y0065478D01*
X0042293Y0067388D01*
X0041562Y0069152D01*
X0040769Y0069946D01*
X0040769Y0073646D01*
X0041343Y0073646D01*
X0041343Y0069633D01*
X0041394Y0069633D01*
X0042063Y0069739D01*
X0042707Y0069948D01*
X0043310Y0070255D01*
X0043857Y0070653D01*
X0044336Y0071132D01*
X0044734Y0071679D01*
X0044877Y0071960D01*
X0045115Y0071384D01*
X0046381Y0070118D01*
X0048035Y0069433D01*
X0049825Y0069433D01*
X0051479Y0070118D01*
X0052745Y0071384D01*
X0053430Y0073038D01*
X0053430Y0074828D01*
X0053262Y0075233D01*
X0062250Y0084220D01*
X0065769Y0084220D01*
X0065769Y0083646D01*
X0066343Y0083646D01*
X0066343Y0079633D01*
X0066394Y0079633D01*
X0067063Y0079739D01*
X0067707Y0079948D01*
X0068310Y0080255D01*
X0068857Y0080653D01*
X0069336Y0081132D01*
X0069734Y0081679D01*
X0069877Y0081960D01*
X0070115Y0081384D01*
X0071381Y0080118D01*
X0073035Y0079433D01*
X0074825Y0079433D01*
X0076479Y0080118D01*
X0077745Y0081384D01*
X0078430Y0083038D01*
X0078430Y0084828D01*
X0077745Y0086482D01*
X0076479Y0087748D01*
X0074825Y0088433D01*
X0073035Y0088433D01*
X0071381Y0087748D01*
X0070115Y0086482D01*
X0069877Y0085906D01*
X0069734Y0086187D01*
X0069336Y0086734D01*
X0068857Y0087213D01*
X0068310Y0087611D01*
X0067707Y0087918D01*
X0067063Y0088127D01*
X0066394Y0088233D01*
X0066343Y0088233D01*
X0066343Y0084221D01*
X0065769Y0084221D01*
X0065769Y0087739D01*
X0082932Y0104902D01*
X0083424Y0103714D01*
X0084414Y0102724D01*
X0084293Y0102603D01*
X0081093Y0099403D01*
X0081093Y0093663D01*
X0082323Y0092433D01*
X0084514Y0090242D01*
X0083424Y0089152D01*
X0082693Y0087388D01*
X0082693Y0085478D01*
X0083424Y0083714D01*
X0084774Y0082364D01*
X0086538Y0081633D01*
X0088448Y0081633D01*
X0090212Y0082364D01*
X0091562Y0083714D01*
X0092293Y0085478D01*
X0092293Y0087388D01*
X0091562Y0089152D01*
X0090212Y0090502D01*
X0089293Y0090883D01*
X0089293Y0091403D01*
X0088883Y0091813D01*
X0089208Y0091948D01*
X0114323Y0066833D01*
X0123192Y0066833D01*
X0123378Y0066384D01*
X0124644Y0065118D01*
X0126298Y0064433D01*
X0133688Y0064433D01*
X0135342Y0065118D01*
X0136608Y0066384D01*
X0137293Y0068038D01*
X0137293Y0069828D01*
X0136608Y0071482D01*
X0135342Y0072748D01*
X0133688Y0073433D01*
X0126298Y0073433D01*
X0124644Y0072748D01*
X0123378Y0071482D01*
X0123192Y0071033D01*
X0116063Y0071033D01*
X0092095Y0095001D01*
X0092293Y0095478D01*
X0092293Y0097388D01*
X0091562Y0099152D01*
X0091081Y0099633D01*
X0104863Y0099633D01*
X0123037Y0117808D01*
X0123208Y0117282D01*
X0123515Y0116679D01*
X0123913Y0116132D01*
X0124392Y0115653D01*
X0124939Y0115255D01*
X0125542Y0114948D01*
X0126186Y0114739D01*
X0126855Y0114633D01*
X0129693Y0114633D01*
X0129693Y0118633D01*
X0130293Y0118633D01*
X0130293Y0114633D01*
X0133131Y0114633D01*
X0133800Y0114739D01*
X0134444Y0114948D01*
X0135047Y0115255D01*
X0135594Y0115653D01*
X0136073Y0116132D01*
X0136471Y0116679D01*
X0136778Y0117282D01*
X0136987Y0117926D01*
X0137093Y0118595D01*
X0137093Y0118633D01*
X0130293Y0118633D01*
X0130293Y0119233D01*
X0137093Y0119233D01*
X0137093Y0119271D01*
X0136987Y0119940D01*
X0136778Y0120584D01*
X0136471Y0121187D01*
X0136073Y0121734D01*
X0135594Y0122213D01*
X0135047Y0122611D01*
X0134610Y0122833D01*
X0136063Y0122833D01*
X0152693Y0139463D01*
X0152693Y0138038D01*
X0153378Y0136384D01*
X0154644Y0135118D01*
X0156298Y0134433D01*
X0163688Y0134433D01*
X0165342Y0135118D01*
X0166608Y0136384D01*
X0167242Y0137914D01*
X0173018Y0132138D01*
X0173018Y0125454D01*
X0174014Y0124458D01*
X0180972Y0124458D01*
X0181968Y0125454D01*
X0181968Y0132412D01*
X0180972Y0133408D01*
X0177688Y0133408D01*
X0176638Y0134458D01*
X0180972Y0134458D01*
X0181968Y0135454D01*
X0181968Y0142412D01*
X0180972Y0143408D01*
X0174014Y0143408D01*
X0173018Y0142412D01*
X0173018Y0138078D01*
X0165660Y0145436D01*
X0166608Y0146384D01*
X0167293Y0148038D01*
X0167293Y0149828D01*
X0166608Y0151482D01*
X0165342Y0152748D01*
X0163688Y0153433D01*
X0156298Y0153433D01*
X0154644Y0152748D01*
X0153378Y0151482D01*
X0152861Y0150235D01*
X0140493Y0162603D01*
X0140493Y0182603D01*
X0136638Y0186458D01*
X0137293Y0188038D01*
X0137293Y0189828D01*
X0136608Y0191482D01*
X0135342Y0192748D01*
X0133688Y0193433D01*
X0126298Y0193433D01*
X0125293Y0193017D01*
X0125293Y0194463D01*
X0138372Y0207542D01*
X0139044Y0207263D01*
X0140824Y0207263D01*
X0142469Y0207945D01*
X0143727Y0209203D01*
X0144409Y0210848D01*
X0144409Y0212628D01*
X0143727Y0214273D01*
X0142469Y0215532D01*
X0142393Y0215563D01*
X0145459Y0218629D01*
X0145459Y0218259D01*
X0146455Y0217263D01*
X0152293Y0217263D01*
X0152293Y0217003D01*
X0151304Y0216014D01*
X0150824Y0216213D01*
X0149044Y0216213D01*
X0147399Y0215532D01*
X0146140Y0214273D01*
X0145459Y0212628D01*
X0145459Y0210848D01*
X0146140Y0209203D01*
X0147399Y0207945D01*
X0149044Y0207263D01*
X0150824Y0207263D01*
X0152469Y0207945D01*
X0153727Y0209203D01*
X0154409Y0210848D01*
X0154409Y0212628D01*
X0154247Y0213018D01*
X0156493Y0215263D01*
X0156493Y0252863D01*
X0173018Y0269388D01*
X0173018Y0265454D01*
X0174014Y0264458D01*
X0180972Y0264458D01*
X0181968Y0265454D01*
X0181968Y0272412D01*
X0180972Y0273408D01*
X0177038Y0273408D01*
X0193096Y0289466D01*
X0193129Y0289433D01*
X0196857Y0289433D01*
X0199493Y0292069D01*
X0199493Y0295797D01*
X0196857Y0298433D01*
X0193129Y0298433D01*
X0190493Y0295797D01*
X0190493Y0292803D01*
X0153523Y0255833D01*
X0152293Y0254603D01*
X0152293Y0226213D01*
X0146455Y0226213D01*
X0145459Y0225217D01*
X0145459Y0223833D01*
X0144723Y0223833D01*
X0144148Y0223258D01*
X0143727Y0224273D01*
X0142469Y0225532D01*
X0140824Y0226213D01*
X0139044Y0226213D01*
X0137399Y0225532D01*
X0136501Y0224633D01*
X0136063Y0224633D01*
X0134093Y0226603D01*
X0132863Y0227833D01*
X0127123Y0227833D01*
X0124165Y0224875D01*
X0124107Y0225092D01*
X0123909Y0225434D01*
X0123630Y0225713D01*
X0123288Y0225911D01*
X0122906Y0226013D01*
X0120221Y0226013D01*
X0120221Y0222026D01*
X0119647Y0222026D01*
X0119647Y0226013D01*
X0116962Y0226013D01*
X0116580Y0225911D01*
X0116238Y0225713D01*
X0115959Y0225434D01*
X0115761Y0225092D01*
X0115659Y0224710D01*
X0115659Y0222026D01*
X0119646Y0222026D01*
X0119646Y0221451D01*
X0115659Y0221451D01*
X0115659Y0218766D01*
X0115761Y0218384D01*
X0115849Y0218233D01*
X0115123Y0218233D01*
X0102393Y0205503D01*
X0102393Y0213108D01*
X0101647Y0214909D01*
X0100269Y0216287D01*
X0098468Y0217033D01*
X0096518Y0217033D01*
X0094717Y0216287D01*
X0093963Y0215533D01*
X0090463Y0219033D01*
X0055123Y0219033D01*
X0053893Y0217803D01*
X0051323Y0215233D01*
X0050269Y0216287D01*
X0048468Y0217033D01*
X0046518Y0217033D01*
X0044717Y0216287D01*
X0043339Y0214909D01*
X0042593Y0213108D01*
X0042593Y0204758D01*
X0043339Y0202957D01*
X0044717Y0201579D01*
X0046518Y0200833D01*
X0048468Y0200833D01*
X0050269Y0201579D01*
X0050693Y0202003D01*
X0050693Y0176203D01*
X0032171Y0157681D01*
X0031562Y0159152D01*
X0030212Y0160502D01*
X0028448Y0161233D01*
X0026538Y0161233D01*
X0024774Y0160502D01*
X0023424Y0159152D01*
X0022693Y0157388D01*
X0022693Y0155478D01*
X0023424Y0153714D01*
X0024774Y0152364D01*
X0026245Y0151755D01*
X0025893Y0151403D01*
X0025893Y0150966D01*
X0024774Y0150502D01*
X0023424Y0149152D01*
X0022693Y0147388D01*
X0022693Y0145478D01*
X0023424Y0143714D01*
X0024774Y0142364D01*
X0026528Y0141637D01*
X0025893Y0141003D01*
X0025893Y0140966D01*
X0024774Y0140502D01*
X0023424Y0139152D01*
X0022693Y0137388D01*
X0022693Y0135478D01*
X0023424Y0133714D01*
X0024774Y0132364D01*
X0026538Y0131633D01*
X0028448Y0131633D01*
X0030212Y0132364D01*
X0031562Y0133714D01*
X0032293Y0135478D01*
X0032293Y0137388D01*
X0031562Y0139152D01*
X0030772Y0139942D01*
X0057663Y0166833D01*
X0058893Y0168063D01*
X0058893Y0201009D01*
X0060269Y0201579D01*
X0061647Y0202957D01*
X0062393Y0204758D01*
X0062393Y0213108D01*
X0061678Y0214833D01*
X0063308Y0214833D01*
X0062593Y0213108D01*
X0062593Y0204758D01*
X0063339Y0202957D01*
X0064717Y0201579D01*
X0066518Y0200833D01*
X0068468Y0200833D01*
X0070269Y0201579D01*
X0071647Y0202957D01*
X0072393Y0204758D01*
X0072393Y0213108D01*
X0071678Y0214833D01*
X0073308Y0214833D01*
X0072593Y0213108D01*
X0072593Y0204758D01*
X0073339Y0202957D01*
X0074717Y0201579D01*
X0076518Y0200833D01*
X0078468Y0200833D01*
X0080269Y0201579D01*
X0081647Y0202957D01*
X0082393Y0204758D01*
X0082393Y0213108D01*
X0081678Y0214833D01*
X0083308Y0214833D01*
X0082593Y0213108D01*
X0082593Y0204758D01*
X0083339Y0202957D01*
X0084717Y0201579D01*
X0086518Y0200833D01*
X0088468Y0200833D01*
X0090269Y0201579D01*
X0091647Y0202957D01*
X0092393Y0204758D01*
X0092393Y0211163D01*
X0092593Y0210963D01*
X0092593Y0204758D01*
X0093339Y0202957D01*
X0094717Y0201579D01*
X0096518Y0200833D01*
X0097723Y0200833D01*
X0091123Y0194233D01*
X0089893Y0193003D01*
X0089893Y0190634D01*
X0088448Y0191233D01*
X0086538Y0191233D01*
X0084774Y0190502D01*
X0083424Y0189152D01*
X0082693Y0187388D01*
X0082693Y0185478D01*
X0083424Y0183714D01*
X0084414Y0182724D01*
X0080723Y0179033D01*
X0079493Y0177803D01*
X0079493Y0121663D01*
X0083008Y0118148D01*
X0082693Y0117388D01*
X0082693Y0115478D01*
X0083424Y0113714D01*
X0084214Y0112924D01*
X0081093Y0109803D01*
X0081093Y0109003D01*
X0050319Y0078229D01*
X0049825Y0078433D01*
X0048035Y0078433D01*
X0046381Y0077748D01*
X0045115Y0076482D01*
X0044877Y0075906D01*
X0044734Y0076187D01*
X0044336Y0076734D01*
X0043857Y0077213D01*
X0043310Y0077611D01*
X0042707Y0077918D01*
X0042063Y0078127D01*
X0041394Y0078233D01*
X0041343Y0078233D01*
X0041343Y0074221D01*
X0040769Y0074221D01*
X0040769Y0078233D01*
X0040718Y0078233D01*
X0040049Y0078127D01*
X0039405Y0077918D01*
X0038802Y0077611D01*
X0038255Y0077213D01*
X0037776Y0076734D01*
X0037378Y0076187D01*
X0037071Y0075584D01*
X0036862Y0074940D01*
X0036756Y0074271D01*
X0036756Y0074220D01*
X0040769Y0074220D01*
X0040769Y0073646D01*
X0036756Y0073646D01*
X0036756Y0073595D01*
X0036862Y0072926D01*
X0037071Y0072282D01*
X0037378Y0071679D01*
X0037703Y0071233D01*
X0036538Y0071233D01*
X0034774Y0070502D01*
X0033424Y0069152D01*
X0032693Y0067388D01*
X0032693Y0065478D01*
X0033424Y0063714D01*
X0034774Y0062364D01*
X0036538Y0061633D01*
X0039125Y0061914D02*
X0085861Y0061914D01*
X0086538Y0061633D02*
X0088448Y0061633D01*
X0090212Y0062364D01*
X0091562Y0063714D01*
X0092293Y0065478D01*
X0092293Y0067388D01*
X0091562Y0069152D01*
X0090212Y0070502D01*
X0088448Y0071233D01*
X0086538Y0071233D01*
X0084774Y0070502D01*
X0083424Y0069152D01*
X0082693Y0067388D01*
X0082693Y0065478D01*
X0083424Y0063714D01*
X0084774Y0062364D01*
X0086538Y0061633D01*
X0086416Y0060920D02*
X0085727Y0060696D01*
X0085082Y0060367D01*
X0084496Y0059942D01*
X0083984Y0059430D01*
X0083559Y0058844D01*
X0083230Y0058199D01*
X0083006Y0057510D01*
X0082907Y0056883D01*
X0087043Y0056883D01*
X0087043Y0061019D01*
X0086416Y0060920D01*
X0086402Y0060915D02*
X0029215Y0060915D01*
X0030798Y0059917D02*
X0084471Y0059917D01*
X0083613Y0058918D02*
X0031659Y0058918D01*
X0032073Y0057920D02*
X0083139Y0057920D01*
X0082913Y0056921D02*
X0032293Y0056921D01*
X0032293Y0055923D02*
X0082916Y0055923D01*
X0083147Y0054924D02*
X0032172Y0054924D01*
X0029228Y0051929D02*
X0029161Y0051929D01*
X0030760Y0062912D02*
X0034226Y0062912D01*
X0033342Y0063911D02*
X0031644Y0063911D01*
X0032057Y0064909D02*
X0032929Y0064909D01*
X0032693Y0065908D02*
X0032293Y0065908D01*
X0032293Y0066906D02*
X0032693Y0066906D01*
X0032907Y0067905D02*
X0032079Y0067905D01*
X0031665Y0068903D02*
X0033321Y0068903D01*
X0034174Y0069902D02*
X0030812Y0069902D01*
X0029251Y0070900D02*
X0035735Y0070900D01*
X0037266Y0071899D02*
X0029089Y0071899D01*
X0028448Y0071633D02*
X0030212Y0072364D01*
X0031562Y0073714D01*
X0032293Y0075478D01*
X0032293Y0077388D01*
X0031562Y0079152D01*
X0030212Y0080502D01*
X0028448Y0081233D01*
X0026538Y0081233D01*
X0024774Y0080502D01*
X0023424Y0079152D01*
X0022693Y0077388D01*
X0022693Y0075478D01*
X0023424Y0073714D01*
X0024774Y0072364D01*
X0026538Y0071633D01*
X0028448Y0071633D01*
X0025897Y0071899D02*
X0022493Y0071899D01*
X0022493Y0072897D02*
X0024241Y0072897D01*
X0023348Y0073896D02*
X0022493Y0073896D01*
X0022493Y0074894D02*
X0022935Y0074894D01*
X0022693Y0075893D02*
X0022493Y0075893D01*
X0022493Y0076891D02*
X0022693Y0076891D01*
X0022493Y0077890D02*
X0022901Y0077890D01*
X0022493Y0078888D02*
X0023315Y0078888D01*
X0022493Y0079887D02*
X0024159Y0079887D01*
X0025699Y0080885D02*
X0022493Y0080885D01*
X0022493Y0081884D02*
X0025933Y0081884D01*
X0026538Y0081633D02*
X0024774Y0082364D01*
X0023424Y0083714D01*
X0022693Y0085478D01*
X0022693Y0087388D01*
X0023424Y0089152D01*
X0024774Y0090502D01*
X0026538Y0091233D01*
X0028448Y0091233D01*
X0030212Y0090502D01*
X0031562Y0089152D01*
X0032293Y0087388D01*
X0032293Y0085478D01*
X0031562Y0083714D01*
X0030212Y0082364D01*
X0028448Y0081633D01*
X0026538Y0081633D01*
X0029053Y0081884D02*
X0035933Y0081884D01*
X0036538Y0081633D02*
X0038448Y0081633D01*
X0040212Y0082364D01*
X0041562Y0083714D01*
X0042293Y0085478D01*
X0042293Y0087388D01*
X0041562Y0089152D01*
X0040212Y0090502D01*
X0038448Y0091233D01*
X0036538Y0091233D01*
X0034774Y0090502D01*
X0033424Y0089152D01*
X0032693Y0087388D01*
X0032693Y0085478D01*
X0033424Y0083714D01*
X0034774Y0082364D01*
X0036538Y0081633D01*
X0039053Y0081884D02*
X0053974Y0081884D01*
X0054973Y0082882D02*
X0040731Y0082882D01*
X0041631Y0083881D02*
X0055971Y0083881D01*
X0056970Y0084879D02*
X0042045Y0084879D01*
X0042293Y0085878D02*
X0057968Y0085878D01*
X0058967Y0086876D02*
X0042293Y0086876D01*
X0042091Y0087875D02*
X0059965Y0087875D01*
X0060964Y0088873D02*
X0041678Y0088873D01*
X0040842Y0089872D02*
X0061962Y0089872D01*
X0062961Y0090871D02*
X0039323Y0090871D01*
X0039017Y0091869D02*
X0063959Y0091869D01*
X0064958Y0092868D02*
X0040716Y0092868D01*
X0040212Y0092364D02*
X0041562Y0093714D01*
X0042293Y0095478D01*
X0042293Y0097388D01*
X0041562Y0099152D01*
X0040212Y0100502D01*
X0038448Y0101233D01*
X0036538Y0101233D01*
X0034774Y0100502D01*
X0033424Y0099152D01*
X0032693Y0097388D01*
X0032693Y0095478D01*
X0033424Y0093714D01*
X0034774Y0092364D01*
X0036538Y0091633D01*
X0038448Y0091633D01*
X0040212Y0092364D01*
X0041625Y0093866D02*
X0065956Y0093866D01*
X0066955Y0094865D02*
X0042039Y0094865D01*
X0042293Y0095863D02*
X0067953Y0095863D01*
X0068952Y0096862D02*
X0042293Y0096862D01*
X0042097Y0097860D02*
X0069950Y0097860D01*
X0070949Y0098859D02*
X0041684Y0098859D01*
X0040857Y0099857D02*
X0071947Y0099857D01*
X0072946Y0100856D02*
X0039359Y0100856D01*
X0038982Y0101854D02*
X0073944Y0101854D01*
X0074943Y0102853D02*
X0040701Y0102853D01*
X0040212Y0102364D02*
X0041562Y0103714D01*
X0042293Y0105478D01*
X0042293Y0107388D01*
X0041562Y0109152D01*
X0040212Y0110502D01*
X0038448Y0111233D01*
X0036538Y0111233D01*
X0034774Y0110502D01*
X0033424Y0109152D01*
X0032693Y0107388D01*
X0032693Y0105478D01*
X0033424Y0103714D01*
X0034774Y0102364D01*
X0036538Y0101633D01*
X0038448Y0101633D01*
X0040212Y0102364D01*
X0041619Y0103851D02*
X0075941Y0103851D01*
X0076940Y0104850D02*
X0042033Y0104850D01*
X0042293Y0105848D02*
X0077938Y0105848D01*
X0078937Y0106847D02*
X0042293Y0106847D01*
X0042104Y0107845D02*
X0079935Y0107845D01*
X0080934Y0108844D02*
X0041690Y0108844D01*
X0040872Y0109842D02*
X0081132Y0109842D01*
X0082131Y0110841D02*
X0039395Y0110841D01*
X0035591Y0110841D02*
X0029395Y0110841D01*
X0030212Y0110502D02*
X0028448Y0111233D01*
X0026538Y0111233D01*
X0024774Y0110502D01*
X0023424Y0109152D01*
X0022693Y0107388D01*
X0022693Y0105478D01*
X0023424Y0103714D01*
X0024774Y0102364D01*
X0026538Y0101633D01*
X0028448Y0101633D01*
X0030212Y0102364D01*
X0031562Y0103714D01*
X0032293Y0105478D01*
X0032293Y0107388D01*
X0031562Y0109152D01*
X0030212Y0110502D01*
X0030872Y0109842D02*
X0034114Y0109842D01*
X0033296Y0108844D02*
X0031690Y0108844D01*
X0032104Y0107845D02*
X0032882Y0107845D01*
X0032693Y0106847D02*
X0032293Y0106847D01*
X0032293Y0105848D02*
X0032693Y0105848D01*
X0032953Y0104850D02*
X0032033Y0104850D01*
X0031619Y0103851D02*
X0033367Y0103851D01*
X0034285Y0102853D02*
X0030701Y0102853D01*
X0028982Y0101854D02*
X0036004Y0101854D01*
X0035627Y0100856D02*
X0029359Y0100856D01*
X0030212Y0100502D02*
X0028448Y0101233D01*
X0026538Y0101233D01*
X0024774Y0100502D01*
X0023424Y0099152D01*
X0022693Y0097388D01*
X0022693Y0095478D01*
X0023424Y0093714D01*
X0024774Y0092364D01*
X0026538Y0091633D01*
X0028448Y0091633D01*
X0030212Y0092364D01*
X0031562Y0093714D01*
X0032293Y0095478D01*
X0032293Y0097388D01*
X0031562Y0099152D01*
X0030212Y0100502D01*
X0030857Y0099857D02*
X0034129Y0099857D01*
X0033302Y0098859D02*
X0031684Y0098859D01*
X0032097Y0097860D02*
X0032889Y0097860D01*
X0032693Y0096862D02*
X0032293Y0096862D01*
X0032293Y0095863D02*
X0032693Y0095863D01*
X0032947Y0094865D02*
X0032039Y0094865D01*
X0031625Y0093866D02*
X0033361Y0093866D01*
X0034270Y0092868D02*
X0030716Y0092868D01*
X0029017Y0091869D02*
X0035968Y0091869D01*
X0035663Y0090871D02*
X0029323Y0090871D01*
X0030842Y0089872D02*
X0034144Y0089872D01*
X0033308Y0088873D02*
X0031678Y0088873D01*
X0032091Y0087875D02*
X0032895Y0087875D01*
X0032693Y0086876D02*
X0032293Y0086876D01*
X0032293Y0085878D02*
X0032693Y0085878D01*
X0032941Y0084879D02*
X0032045Y0084879D01*
X0031631Y0083881D02*
X0033355Y0083881D01*
X0034255Y0082882D02*
X0030731Y0082882D01*
X0029287Y0080885D02*
X0052976Y0080885D01*
X0051977Y0079887D02*
X0030827Y0079887D01*
X0031671Y0078888D02*
X0050979Y0078888D01*
X0053923Y0075893D02*
X0082693Y0075893D01*
X0082693Y0075478D02*
X0083424Y0073714D01*
X0084774Y0072364D01*
X0086538Y0071633D01*
X0088448Y0071633D01*
X0090212Y0072364D01*
X0091562Y0073714D01*
X0092293Y0075478D01*
X0092293Y0077388D01*
X0091562Y0079152D01*
X0090212Y0080502D01*
X0088448Y0081233D01*
X0086538Y0081233D01*
X0084774Y0080502D01*
X0083424Y0079152D01*
X0082693Y0077388D01*
X0082693Y0075478D01*
X0082935Y0074894D02*
X0053403Y0074894D01*
X0053430Y0073896D02*
X0083348Y0073896D01*
X0084241Y0072897D02*
X0053372Y0072897D01*
X0052958Y0071899D02*
X0085897Y0071899D01*
X0085735Y0070900D02*
X0052261Y0070900D01*
X0050957Y0069902D02*
X0084174Y0069902D01*
X0083321Y0068903D02*
X0041665Y0068903D01*
X0041343Y0069902D02*
X0040812Y0069902D01*
X0040769Y0070900D02*
X0041343Y0070900D01*
X0041343Y0071899D02*
X0040769Y0071899D01*
X0040769Y0072897D02*
X0041343Y0072897D01*
X0041343Y0073646D02*
X0044430Y0073646D01*
X0044430Y0074220D01*
X0041343Y0074220D01*
X0041343Y0073646D01*
X0041343Y0073896D02*
X0044430Y0073896D01*
X0044845Y0071899D02*
X0044902Y0071899D01*
X0045599Y0070900D02*
X0044104Y0070900D01*
X0042564Y0069902D02*
X0046903Y0069902D01*
X0042079Y0067905D02*
X0082907Y0067905D01*
X0082693Y0066906D02*
X0042293Y0066906D01*
X0042293Y0065908D02*
X0082693Y0065908D01*
X0082929Y0064909D02*
X0042057Y0064909D01*
X0041644Y0063911D02*
X0083342Y0063911D01*
X0084226Y0062912D02*
X0040760Y0062912D01*
X0036871Y0072897D02*
X0030745Y0072897D01*
X0031638Y0073896D02*
X0040769Y0073896D01*
X0040769Y0074894D02*
X0041343Y0074894D01*
X0041343Y0075893D02*
X0040769Y0075893D01*
X0040769Y0076891D02*
X0041343Y0076891D01*
X0041343Y0077890D02*
X0040769Y0077890D01*
X0039350Y0077890D02*
X0032085Y0077890D01*
X0032293Y0076891D02*
X0037933Y0076891D01*
X0037229Y0075893D02*
X0032293Y0075893D01*
X0032051Y0074894D02*
X0036855Y0074894D01*
X0042762Y0077890D02*
X0046724Y0077890D01*
X0045524Y0076891D02*
X0044179Y0076891D01*
X0054921Y0076891D02*
X0082693Y0076891D01*
X0082901Y0077890D02*
X0055920Y0077890D01*
X0056918Y0078888D02*
X0083315Y0078888D01*
X0084159Y0079887D02*
X0075921Y0079887D01*
X0077246Y0080885D02*
X0085699Y0080885D01*
X0085933Y0081884D02*
X0077952Y0081884D01*
X0078366Y0082882D02*
X0084255Y0082882D01*
X0083355Y0083881D02*
X0078430Y0083881D01*
X0078409Y0084879D02*
X0082941Y0084879D01*
X0082693Y0085878D02*
X0077995Y0085878D01*
X0077351Y0086876D02*
X0082693Y0086876D01*
X0082895Y0087875D02*
X0076172Y0087875D01*
X0071688Y0087875D02*
X0067791Y0087875D01*
X0066903Y0088873D02*
X0083308Y0088873D01*
X0084144Y0089872D02*
X0067902Y0089872D01*
X0068900Y0090871D02*
X0083886Y0090871D01*
X0082887Y0091869D02*
X0069899Y0091869D01*
X0070897Y0092868D02*
X0081889Y0092868D01*
X0081093Y0093866D02*
X0071896Y0093866D01*
X0072894Y0094865D02*
X0081093Y0094865D01*
X0081093Y0095863D02*
X0073893Y0095863D01*
X0074891Y0096862D02*
X0081093Y0096862D01*
X0081093Y0097860D02*
X0075890Y0097860D01*
X0076888Y0098859D02*
X0081093Y0098859D01*
X0081547Y0099857D02*
X0077887Y0099857D01*
X0078885Y0100856D02*
X0082546Y0100856D01*
X0083544Y0101854D02*
X0079884Y0101854D01*
X0080882Y0102853D02*
X0084285Y0102853D01*
X0083367Y0103851D02*
X0081881Y0103851D01*
X0082879Y0104850D02*
X0082953Y0104850D01*
X0083129Y0111839D02*
X0028946Y0111839D01*
X0028448Y0111633D02*
X0030212Y0112364D01*
X0031562Y0113714D01*
X0032293Y0115478D01*
X0032293Y0117388D01*
X0031562Y0119152D01*
X0030212Y0120502D01*
X0028448Y0121233D01*
X0026538Y0121233D01*
X0024774Y0120502D01*
X0023424Y0119152D01*
X0022693Y0117388D01*
X0022693Y0115478D01*
X0023424Y0113714D01*
X0024774Y0112364D01*
X0026538Y0111633D01*
X0028448Y0111633D01*
X0026040Y0111839D02*
X0022493Y0111839D01*
X0022493Y0110841D02*
X0025591Y0110841D01*
X0024114Y0109842D02*
X0022493Y0109842D01*
X0022493Y0108844D02*
X0023296Y0108844D01*
X0022882Y0107845D02*
X0022493Y0107845D01*
X0022493Y0106847D02*
X0022693Y0106847D01*
X0022693Y0105848D02*
X0022493Y0105848D01*
X0022493Y0104850D02*
X0022953Y0104850D01*
X0023367Y0103851D02*
X0022493Y0103851D01*
X0022493Y0102853D02*
X0024285Y0102853D01*
X0026004Y0101854D02*
X0022493Y0101854D01*
X0022493Y0100856D02*
X0025627Y0100856D01*
X0024129Y0099857D02*
X0022493Y0099857D01*
X0022493Y0098859D02*
X0023302Y0098859D01*
X0022889Y0097860D02*
X0022493Y0097860D01*
X0022493Y0096862D02*
X0022693Y0096862D01*
X0022693Y0095863D02*
X0022493Y0095863D01*
X0022493Y0094865D02*
X0022947Y0094865D01*
X0023361Y0093866D02*
X0022493Y0093866D01*
X0022493Y0092868D02*
X0024270Y0092868D01*
X0025968Y0091869D02*
X0022493Y0091869D01*
X0022493Y0090871D02*
X0025663Y0090871D01*
X0024144Y0089872D02*
X0022493Y0089872D01*
X0022493Y0088873D02*
X0023308Y0088873D01*
X0022895Y0087875D02*
X0022493Y0087875D01*
X0022493Y0086876D02*
X0022693Y0086876D01*
X0022693Y0085878D02*
X0022493Y0085878D01*
X0022493Y0084879D02*
X0022941Y0084879D01*
X0023355Y0083881D02*
X0022493Y0083881D01*
X0022493Y0082882D02*
X0024255Y0082882D01*
X0025735Y0070900D02*
X0022493Y0070900D01*
X0022493Y0069902D02*
X0024174Y0069902D01*
X0023321Y0068903D02*
X0022493Y0068903D01*
X0022493Y0067905D02*
X0022907Y0067905D01*
X0022693Y0066906D02*
X0022493Y0066906D01*
X0022493Y0065908D02*
X0022693Y0065908D01*
X0022493Y0064909D02*
X0022929Y0064909D01*
X0023342Y0063911D02*
X0022493Y0063911D01*
X0022493Y0062912D02*
X0024226Y0062912D01*
X0057917Y0079887D02*
X0064594Y0079887D01*
X0064405Y0079948D02*
X0065049Y0079739D01*
X0065718Y0079633D01*
X0065769Y0079633D01*
X0065769Y0083646D01*
X0061756Y0083646D01*
X0061756Y0083595D01*
X0061862Y0082926D01*
X0062071Y0082282D01*
X0062378Y0081679D01*
X0062776Y0081132D01*
X0063255Y0080653D01*
X0063802Y0080255D01*
X0064405Y0079948D01*
X0065769Y0079887D02*
X0066343Y0079887D01*
X0066343Y0080885D02*
X0065769Y0080885D01*
X0065769Y0081884D02*
X0066343Y0081884D01*
X0066343Y0082882D02*
X0065769Y0082882D01*
X0065769Y0083881D02*
X0061911Y0083881D01*
X0061876Y0082882D02*
X0060912Y0082882D01*
X0059914Y0081884D02*
X0062274Y0081884D01*
X0063023Y0080885D02*
X0058915Y0080885D01*
X0065769Y0084879D02*
X0066343Y0084879D01*
X0066343Y0085878D02*
X0065769Y0085878D01*
X0065769Y0086876D02*
X0066343Y0086876D01*
X0066343Y0087875D02*
X0065905Y0087875D01*
X0069194Y0086876D02*
X0070509Y0086876D01*
X0069908Y0081884D02*
X0069838Y0081884D01*
X0069089Y0080885D02*
X0070614Y0080885D01*
X0071939Y0079887D02*
X0067518Y0079887D01*
X0089053Y0081884D02*
X0099272Y0081884D01*
X0098274Y0082882D02*
X0090731Y0082882D01*
X0091631Y0083881D02*
X0097275Y0083881D01*
X0096277Y0084879D02*
X0092045Y0084879D01*
X0092293Y0085878D02*
X0095278Y0085878D01*
X0094280Y0086876D02*
X0092293Y0086876D01*
X0092091Y0087875D02*
X0093281Y0087875D01*
X0092283Y0088873D02*
X0091678Y0088873D01*
X0091284Y0089872D02*
X0090842Y0089872D01*
X0090286Y0090871D02*
X0089323Y0090871D01*
X0089287Y0091869D02*
X0089017Y0091869D01*
X0092231Y0094865D02*
X0125256Y0094865D01*
X0124644Y0095118D02*
X0126298Y0094433D01*
X0133688Y0094433D01*
X0135342Y0095118D01*
X0136608Y0096384D01*
X0137293Y0098038D01*
X0137293Y0099828D01*
X0136608Y0101482D01*
X0135342Y0102748D01*
X0133688Y0103433D01*
X0126298Y0103433D01*
X0124644Y0102748D01*
X0123378Y0101482D01*
X0122693Y0099828D01*
X0122693Y0098038D01*
X0123378Y0096384D01*
X0124644Y0095118D01*
X0123899Y0095863D02*
X0092293Y0095863D01*
X0092293Y0096862D02*
X0123180Y0096862D01*
X0122767Y0097860D02*
X0092097Y0097860D01*
X0091684Y0098859D02*
X0122693Y0098859D01*
X0122705Y0099857D02*
X0105087Y0099857D01*
X0106085Y0100856D02*
X0123119Y0100856D01*
X0123750Y0101854D02*
X0107084Y0101854D01*
X0108082Y0102853D02*
X0124897Y0102853D01*
X0125292Y0104850D02*
X0110079Y0104850D01*
X0109081Y0103851D02*
X0277493Y0103851D01*
X0277493Y0102853D02*
X0271527Y0102853D01*
X0271968Y0102412D02*
X0270972Y0103408D01*
X0264014Y0103408D01*
X0263018Y0102412D01*
X0263018Y0095454D01*
X0264014Y0094458D01*
X0270972Y0094458D01*
X0271968Y0095454D01*
X0271968Y0102412D01*
X0271968Y0101854D02*
X0277493Y0101854D01*
X0277493Y0100856D02*
X0271968Y0100856D01*
X0271968Y0099857D02*
X0277493Y0099857D01*
X0277493Y0098859D02*
X0271968Y0098859D01*
X0271968Y0097860D02*
X0277493Y0097860D01*
X0277493Y0096862D02*
X0271968Y0096862D01*
X0271968Y0095863D02*
X0277493Y0095863D01*
X0277493Y0094865D02*
X0271378Y0094865D01*
X0270972Y0093408D02*
X0264014Y0093408D01*
X0263018Y0092412D01*
X0263018Y0085454D01*
X0264014Y0084458D01*
X0270972Y0084458D01*
X0271968Y0085454D01*
X0271968Y0092412D01*
X0270972Y0093408D01*
X0271512Y0092868D02*
X0277493Y0092868D01*
X0277493Y0093866D02*
X0093230Y0093866D01*
X0094228Y0092868D02*
X0124933Y0092868D01*
X0124644Y0092748D02*
X0123378Y0091482D01*
X0122693Y0089828D01*
X0122693Y0088038D01*
X0123378Y0086384D01*
X0124644Y0085118D01*
X0126298Y0084433D01*
X0133688Y0084433D01*
X0135342Y0085118D01*
X0136608Y0086384D01*
X0137293Y0088038D01*
X0137293Y0089828D01*
X0136608Y0091482D01*
X0135342Y0092748D01*
X0133688Y0093433D01*
X0126298Y0093433D01*
X0124644Y0092748D01*
X0123765Y0091869D02*
X0095227Y0091869D01*
X0096225Y0090871D02*
X0123125Y0090871D01*
X0122711Y0089872D02*
X0097224Y0089872D01*
X0098222Y0088873D02*
X0122693Y0088873D01*
X0122760Y0087875D02*
X0099221Y0087875D01*
X0100219Y0086876D02*
X0123174Y0086876D01*
X0123884Y0085878D02*
X0101218Y0085878D01*
X0102216Y0084879D02*
X0125220Y0084879D01*
X0126298Y0083433D02*
X0124644Y0082748D01*
X0123378Y0081482D01*
X0122693Y0079828D01*
X0122693Y0078038D01*
X0123378Y0076384D01*
X0124644Y0075118D01*
X0126298Y0074433D01*
X0133688Y0074433D01*
X0135342Y0075118D01*
X0136608Y0076384D01*
X0137293Y0078038D01*
X0137293Y0079828D01*
X0136608Y0081482D01*
X0135342Y0082748D01*
X0133688Y0083433D01*
X0126298Y0083433D01*
X0124969Y0082882D02*
X0104213Y0082882D01*
X0103215Y0083881D02*
X0277493Y0083881D01*
X0277493Y0084879D02*
X0271393Y0084879D01*
X0271968Y0085878D02*
X0277493Y0085878D01*
X0277493Y0086876D02*
X0271968Y0086876D01*
X0271968Y0087875D02*
X0277493Y0087875D01*
X0277493Y0088873D02*
X0271968Y0088873D01*
X0271968Y0089872D02*
X0277493Y0089872D01*
X0277493Y0090871D02*
X0271968Y0090871D01*
X0271968Y0091869D02*
X0277493Y0091869D01*
X0277493Y0082882D02*
X0271497Y0082882D01*
X0271968Y0082412D02*
X0270972Y0083408D01*
X0264014Y0083408D01*
X0263018Y0082412D01*
X0263018Y0075454D01*
X0264014Y0074458D01*
X0270972Y0074458D01*
X0271968Y0075454D01*
X0271968Y0082412D01*
X0271968Y0081884D02*
X0277493Y0081884D01*
X0277493Y0080885D02*
X0271968Y0080885D01*
X0271968Y0079887D02*
X0277493Y0079887D01*
X0277493Y0078888D02*
X0271968Y0078888D01*
X0271968Y0077890D02*
X0277493Y0077890D01*
X0277493Y0076891D02*
X0271968Y0076891D01*
X0271968Y0075893D02*
X0277493Y0075893D01*
X0277493Y0074894D02*
X0271408Y0074894D01*
X0270847Y0073106D02*
X0270465Y0073208D01*
X0267780Y0073208D01*
X0267780Y0069221D01*
X0267206Y0069221D01*
X0267206Y0073208D01*
X0264521Y0073208D01*
X0264139Y0073106D01*
X0263797Y0072908D01*
X0263518Y0072629D01*
X0263320Y0072287D01*
X0263218Y0071905D01*
X0263218Y0069220D01*
X0267206Y0069220D01*
X0267206Y0068646D01*
X0267780Y0068646D01*
X0267780Y0064658D01*
X0270465Y0064658D01*
X0270847Y0064760D01*
X0271189Y0064958D01*
X0271468Y0065237D01*
X0271666Y0065579D01*
X0271768Y0065961D01*
X0271768Y0068646D01*
X0267780Y0068646D01*
X0267780Y0069220D01*
X0271768Y0069220D01*
X0271768Y0071905D01*
X0271666Y0072287D01*
X0271468Y0072629D01*
X0271189Y0072908D01*
X0270847Y0073106D01*
X0271200Y0072897D02*
X0277493Y0072897D01*
X0277493Y0071899D02*
X0271768Y0071899D01*
X0271768Y0070900D02*
X0277493Y0070900D01*
X0277493Y0069902D02*
X0271768Y0069902D01*
X0271768Y0067905D02*
X0277493Y0067905D01*
X0277493Y0068903D02*
X0267780Y0068903D01*
X0267206Y0068903D02*
X0177780Y0068903D01*
X0177780Y0068646D02*
X0177780Y0069220D01*
X0181768Y0069220D01*
X0181768Y0071905D01*
X0181666Y0072287D01*
X0181468Y0072629D01*
X0181189Y0072908D01*
X0180847Y0073106D01*
X0180465Y0073208D01*
X0177780Y0073208D01*
X0177780Y0069221D01*
X0177206Y0069221D01*
X0177206Y0073208D01*
X0174521Y0073208D01*
X0174139Y0073106D01*
X0173797Y0072908D01*
X0173518Y0072629D01*
X0173320Y0072287D01*
X0173218Y0071905D01*
X0173218Y0069220D01*
X0177206Y0069220D01*
X0177206Y0068646D01*
X0177780Y0068646D01*
X0177780Y0064658D01*
X0180465Y0064658D01*
X0180847Y0064760D01*
X0181189Y0064958D01*
X0181468Y0065237D01*
X0181666Y0065579D01*
X0181768Y0065961D01*
X0181768Y0068646D01*
X0177780Y0068646D01*
X0177206Y0068646D02*
X0177206Y0064658D01*
X0174521Y0064658D01*
X0174139Y0064760D01*
X0173797Y0064958D01*
X0173518Y0065237D01*
X0173320Y0065579D01*
X0173218Y0065961D01*
X0173218Y0068646D01*
X0177206Y0068646D01*
X0177206Y0068903D02*
X0167293Y0068903D01*
X0167262Y0069902D02*
X0173218Y0069902D01*
X0173218Y0070900D02*
X0166849Y0070900D01*
X0166191Y0071899D02*
X0173218Y0071899D01*
X0173786Y0072897D02*
X0166127Y0072897D01*
X0167126Y0073896D02*
X0277493Y0073896D01*
X0267780Y0072897D02*
X0267206Y0072897D01*
X0267206Y0071899D02*
X0267780Y0071899D01*
X0267780Y0070900D02*
X0267206Y0070900D01*
X0267206Y0069902D02*
X0267780Y0069902D01*
X0267206Y0068646D02*
X0263218Y0068646D01*
X0263218Y0065961D01*
X0263320Y0065579D01*
X0263518Y0065237D01*
X0263797Y0064958D01*
X0264139Y0064760D01*
X0264521Y0064658D01*
X0267206Y0064658D01*
X0267206Y0068646D01*
X0267206Y0067905D02*
X0267780Y0067905D01*
X0267780Y0066906D02*
X0267206Y0066906D01*
X0267206Y0065908D02*
X0267780Y0065908D01*
X0267780Y0064909D02*
X0267206Y0064909D01*
X0263882Y0064909D02*
X0181104Y0064909D01*
X0181754Y0065908D02*
X0263232Y0065908D01*
X0263218Y0066906D02*
X0181768Y0066906D01*
X0181768Y0067905D02*
X0263218Y0067905D01*
X0263218Y0069902D02*
X0181768Y0069902D01*
X0181768Y0070900D02*
X0263218Y0070900D01*
X0263218Y0071899D02*
X0181768Y0071899D01*
X0181200Y0072897D02*
X0263786Y0072897D01*
X0263578Y0074894D02*
X0181408Y0074894D01*
X0181968Y0075893D02*
X0263018Y0075893D01*
X0263018Y0076891D02*
X0181968Y0076891D01*
X0181968Y0077890D02*
X0263018Y0077890D01*
X0263018Y0078888D02*
X0181968Y0078888D01*
X0181968Y0079887D02*
X0263018Y0079887D01*
X0263018Y0080885D02*
X0181968Y0080885D01*
X0181968Y0081884D02*
X0263018Y0081884D01*
X0263489Y0082882D02*
X0181497Y0082882D01*
X0180972Y0084458D02*
X0174014Y0084458D01*
X0173018Y0085454D01*
X0173018Y0092412D01*
X0174014Y0093408D01*
X0180972Y0093408D01*
X0181968Y0092412D01*
X0181968Y0085454D01*
X0180972Y0084458D01*
X0181393Y0084879D02*
X0263593Y0084879D01*
X0263018Y0085878D02*
X0181968Y0085878D01*
X0181968Y0086876D02*
X0263018Y0086876D01*
X0263018Y0087875D02*
X0181968Y0087875D01*
X0181968Y0088873D02*
X0263018Y0088873D01*
X0263018Y0089872D02*
X0181968Y0089872D01*
X0181968Y0090871D02*
X0263018Y0090871D01*
X0263018Y0091869D02*
X0181968Y0091869D01*
X0181512Y0092868D02*
X0263474Y0092868D01*
X0263608Y0094865D02*
X0181378Y0094865D01*
X0180972Y0094458D02*
X0181968Y0095454D01*
X0181968Y0102412D01*
X0180972Y0103408D01*
X0174014Y0103408D01*
X0173018Y0102412D01*
X0173018Y0095454D01*
X0174014Y0094458D01*
X0180972Y0094458D01*
X0181968Y0095863D02*
X0263018Y0095863D01*
X0263018Y0096862D02*
X0181968Y0096862D01*
X0181968Y0097860D02*
X0263018Y0097860D01*
X0263018Y0098859D02*
X0181968Y0098859D01*
X0181968Y0099857D02*
X0263018Y0099857D01*
X0263018Y0100856D02*
X0181968Y0100856D01*
X0181968Y0101854D02*
X0263018Y0101854D01*
X0263459Y0102853D02*
X0181527Y0102853D01*
X0180972Y0104458D02*
X0174014Y0104458D01*
X0173018Y0105454D01*
X0173018Y0112412D01*
X0174014Y0113408D01*
X0180972Y0113408D01*
X0181968Y0112412D01*
X0181968Y0105454D01*
X0180972Y0104458D01*
X0181363Y0104850D02*
X0263623Y0104850D01*
X0264014Y0104458D02*
X0270972Y0104458D01*
X0271968Y0105454D01*
X0271968Y0112412D01*
X0270972Y0113408D01*
X0264014Y0113408D01*
X0263018Y0112412D01*
X0263018Y0105454D01*
X0264014Y0104458D01*
X0263018Y0105848D02*
X0181968Y0105848D01*
X0181968Y0106847D02*
X0263018Y0106847D01*
X0263018Y0107845D02*
X0181968Y0107845D01*
X0181968Y0108844D02*
X0263018Y0108844D01*
X0263018Y0109842D02*
X0181968Y0109842D01*
X0181968Y0110841D02*
X0263018Y0110841D01*
X0263018Y0111839D02*
X0181968Y0111839D01*
X0181542Y0112838D02*
X0263444Y0112838D01*
X0264014Y0114458D02*
X0270972Y0114458D01*
X0271968Y0115454D01*
X0271968Y0122412D01*
X0270972Y0123408D01*
X0264014Y0123408D01*
X0263018Y0122412D01*
X0263018Y0115454D01*
X0264014Y0114458D01*
X0263637Y0114835D02*
X0181349Y0114835D01*
X0180972Y0114458D02*
X0181968Y0115454D01*
X0181968Y0122412D01*
X0180972Y0123408D01*
X0174014Y0123408D01*
X0173018Y0122412D01*
X0173018Y0115454D01*
X0174014Y0114458D01*
X0180972Y0114458D01*
X0181968Y0115833D02*
X0263018Y0115833D01*
X0263018Y0116832D02*
X0181968Y0116832D01*
X0181968Y0117830D02*
X0263018Y0117830D01*
X0263018Y0118829D02*
X0181968Y0118829D01*
X0181968Y0119827D02*
X0263018Y0119827D01*
X0263018Y0120826D02*
X0181968Y0120826D01*
X0181968Y0121824D02*
X0263018Y0121824D01*
X0263429Y0122823D02*
X0181557Y0122823D01*
X0181334Y0124820D02*
X0263652Y0124820D01*
X0264014Y0124458D02*
X0270972Y0124458D01*
X0271968Y0125454D01*
X0271968Y0132412D01*
X0270972Y0133408D01*
X0264014Y0133408D01*
X0263018Y0132412D01*
X0263018Y0125454D01*
X0264014Y0124458D01*
X0263018Y0125818D02*
X0181968Y0125818D01*
X0181968Y0126817D02*
X0263018Y0126817D01*
X0263018Y0127815D02*
X0181968Y0127815D01*
X0181968Y0128814D02*
X0263018Y0128814D01*
X0263018Y0129812D02*
X0181968Y0129812D01*
X0181968Y0130811D02*
X0263018Y0130811D01*
X0263018Y0131809D02*
X0181968Y0131809D01*
X0181572Y0132808D02*
X0263414Y0132808D01*
X0264014Y0134458D02*
X0270972Y0134458D01*
X0271968Y0135454D01*
X0271968Y0142412D01*
X0270972Y0143408D01*
X0264014Y0143408D01*
X0263018Y0142412D01*
X0263018Y0135454D01*
X0264014Y0134458D01*
X0263667Y0134805D02*
X0181319Y0134805D01*
X0181968Y0135804D02*
X0263018Y0135804D01*
X0263018Y0136802D02*
X0181968Y0136802D01*
X0181968Y0137801D02*
X0263018Y0137801D01*
X0263018Y0138799D02*
X0181968Y0138799D01*
X0181968Y0139798D02*
X0263018Y0139798D01*
X0263018Y0140796D02*
X0181968Y0140796D01*
X0181968Y0141795D02*
X0263018Y0141795D01*
X0263399Y0142793D02*
X0181587Y0142793D01*
X0173399Y0142793D02*
X0168303Y0142793D01*
X0169301Y0141795D02*
X0173018Y0141795D01*
X0173018Y0140796D02*
X0170300Y0140796D01*
X0171298Y0139798D02*
X0173018Y0139798D01*
X0173018Y0138799D02*
X0172297Y0138799D01*
X0169353Y0135804D02*
X0166027Y0135804D01*
X0166781Y0136802D02*
X0168354Y0136802D01*
X0167356Y0137801D02*
X0167195Y0137801D01*
X0164586Y0134805D02*
X0170351Y0134805D01*
X0171350Y0133807D02*
X0147036Y0133807D01*
X0148035Y0134805D02*
X0155400Y0134805D01*
X0153959Y0135804D02*
X0149033Y0135804D01*
X0150032Y0136802D02*
X0153205Y0136802D01*
X0152791Y0137801D02*
X0151030Y0137801D01*
X0152029Y0138799D02*
X0152693Y0138799D01*
X0155542Y0132918D02*
X0154939Y0132611D01*
X0154392Y0132213D01*
X0153913Y0131734D01*
X0153515Y0131187D01*
X0153208Y0130584D01*
X0152999Y0129940D01*
X0152893Y0129271D01*
X0152893Y0129233D01*
X0159693Y0129233D01*
X0159693Y0128633D01*
X0160293Y0128633D01*
X0160293Y0124633D01*
X0163131Y0124633D01*
X0163800Y0124739D01*
X0164444Y0124948D01*
X0165047Y0125255D01*
X0165594Y0125653D01*
X0166073Y0126132D01*
X0166471Y0126679D01*
X0166778Y0127282D01*
X0166987Y0127926D01*
X0167093Y0128595D01*
X0167093Y0128633D01*
X0160293Y0128633D01*
X0160293Y0129233D01*
X0167093Y0129233D01*
X0167093Y0129271D01*
X0166987Y0129940D01*
X0166778Y0130584D01*
X0166471Y0131187D01*
X0166073Y0131734D01*
X0165594Y0132213D01*
X0165047Y0132611D01*
X0164444Y0132918D01*
X0163800Y0133127D01*
X0163131Y0133233D01*
X0160293Y0133233D01*
X0160293Y0129233D01*
X0159693Y0129233D01*
X0159693Y0133233D01*
X0156855Y0133233D01*
X0156186Y0133127D01*
X0155542Y0132918D01*
X0155326Y0132808D02*
X0146038Y0132808D01*
X0145039Y0131809D02*
X0153988Y0131809D01*
X0153324Y0130811D02*
X0144041Y0130811D01*
X0143042Y0129812D02*
X0152979Y0129812D01*
X0152893Y0128633D02*
X0152893Y0128595D01*
X0152999Y0127926D01*
X0153208Y0127282D01*
X0153515Y0126679D01*
X0153913Y0126132D01*
X0154392Y0125653D01*
X0154939Y0125255D01*
X0155542Y0124948D01*
X0156186Y0124739D01*
X0156855Y0124633D01*
X0159693Y0124633D01*
X0159693Y0128633D01*
X0152893Y0128633D01*
X0153035Y0127815D02*
X0141045Y0127815D01*
X0140047Y0126817D02*
X0153445Y0126817D01*
X0154227Y0125818D02*
X0139048Y0125818D01*
X0138050Y0124820D02*
X0155937Y0124820D01*
X0156298Y0123433D02*
X0154644Y0122748D01*
X0153378Y0121482D01*
X0152693Y0119828D01*
X0152693Y0118038D01*
X0153378Y0116384D01*
X0154644Y0115118D01*
X0156298Y0114433D01*
X0163688Y0114433D01*
X0165342Y0115118D01*
X0166608Y0116384D01*
X0167293Y0118038D01*
X0167293Y0119828D01*
X0166608Y0121482D01*
X0165342Y0122748D01*
X0163688Y0123433D01*
X0156298Y0123433D01*
X0154825Y0122823D02*
X0134630Y0122823D01*
X0135983Y0121824D02*
X0153720Y0121824D01*
X0153106Y0120826D02*
X0136655Y0120826D01*
X0137005Y0119827D02*
X0152693Y0119827D01*
X0152693Y0118829D02*
X0130293Y0118829D01*
X0130293Y0117830D02*
X0129693Y0117830D01*
X0129693Y0116832D02*
X0130293Y0116832D01*
X0130293Y0115833D02*
X0129693Y0115833D01*
X0129693Y0114835D02*
X0130293Y0114835D01*
X0133688Y0113433D02*
X0135342Y0112748D01*
X0136608Y0111482D01*
X0137293Y0109828D01*
X0137293Y0108038D01*
X0136608Y0106384D01*
X0135342Y0105118D01*
X0133688Y0104433D01*
X0126298Y0104433D01*
X0124644Y0105118D01*
X0123378Y0106384D01*
X0122693Y0108038D01*
X0122693Y0109828D01*
X0123378Y0111482D01*
X0124644Y0112748D01*
X0126298Y0113433D01*
X0133688Y0113433D01*
X0134095Y0114835D02*
X0155328Y0114835D01*
X0156298Y0113433D02*
X0154644Y0112748D01*
X0153378Y0111482D01*
X0152693Y0109828D01*
X0152693Y0108038D01*
X0153378Y0106384D01*
X0154644Y0105118D01*
X0156298Y0104433D01*
X0163688Y0104433D01*
X0165342Y0105118D01*
X0166608Y0106384D01*
X0167293Y0108038D01*
X0167293Y0109828D01*
X0166608Y0111482D01*
X0165342Y0112748D01*
X0163688Y0113433D01*
X0156298Y0113433D01*
X0154861Y0112838D02*
X0135125Y0112838D01*
X0136251Y0111839D02*
X0153735Y0111839D01*
X0153112Y0110841D02*
X0136874Y0110841D01*
X0137287Y0109842D02*
X0152699Y0109842D01*
X0152693Y0108844D02*
X0137293Y0108844D01*
X0137213Y0107845D02*
X0152773Y0107845D01*
X0153186Y0106847D02*
X0136800Y0106847D01*
X0136072Y0105848D02*
X0153914Y0105848D01*
X0155292Y0104850D02*
X0134694Y0104850D01*
X0135089Y0102853D02*
X0154897Y0102853D01*
X0154644Y0102748D02*
X0153378Y0101482D01*
X0152693Y0099828D01*
X0152693Y0098038D01*
X0153378Y0096384D01*
X0154644Y0095118D01*
X0156298Y0094433D01*
X0163688Y0094433D01*
X0165342Y0095118D01*
X0166608Y0096384D01*
X0167293Y0098038D01*
X0167293Y0099828D01*
X0166608Y0101482D01*
X0165342Y0102748D01*
X0163688Y0103433D01*
X0156298Y0103433D01*
X0154644Y0102748D01*
X0153750Y0101854D02*
X0136236Y0101854D01*
X0136867Y0100856D02*
X0153119Y0100856D01*
X0152705Y0099857D02*
X0137281Y0099857D01*
X0137293Y0098859D02*
X0152693Y0098859D01*
X0152767Y0097860D02*
X0137219Y0097860D01*
X0136806Y0096862D02*
X0153180Y0096862D01*
X0153899Y0095863D02*
X0136087Y0095863D01*
X0134730Y0094865D02*
X0155256Y0094865D01*
X0156298Y0093433D02*
X0154644Y0092748D01*
X0153378Y0091482D01*
X0152693Y0089828D01*
X0152693Y0088038D01*
X0153378Y0086384D01*
X0154644Y0085118D01*
X0156298Y0084433D01*
X0163688Y0084433D01*
X0165342Y0085118D01*
X0166608Y0086384D01*
X0167293Y0088038D01*
X0167293Y0089828D01*
X0166608Y0091482D01*
X0165342Y0092748D01*
X0163688Y0093433D01*
X0156298Y0093433D01*
X0154933Y0092868D02*
X0135053Y0092868D01*
X0136221Y0091869D02*
X0153765Y0091869D01*
X0153125Y0090871D02*
X0136861Y0090871D01*
X0137275Y0089872D02*
X0152711Y0089872D01*
X0152693Y0088873D02*
X0137293Y0088873D01*
X0137225Y0087875D02*
X0152760Y0087875D01*
X0153174Y0086876D02*
X0136812Y0086876D01*
X0136102Y0085878D02*
X0153884Y0085878D01*
X0155220Y0084879D02*
X0134766Y0084879D01*
X0135017Y0082882D02*
X0154969Y0082882D01*
X0153780Y0081884D02*
X0136206Y0081884D01*
X0136855Y0080885D02*
X0153131Y0080885D01*
X0152717Y0079887D02*
X0137269Y0079887D01*
X0137293Y0078888D02*
X0152693Y0078888D01*
X0152754Y0077890D02*
X0137232Y0077890D01*
X0136818Y0076891D02*
X0153168Y0076891D01*
X0153869Y0075893D02*
X0136117Y0075893D01*
X0134802Y0074894D02*
X0151784Y0074894D01*
X0150786Y0073896D02*
X0113200Y0073896D01*
X0112202Y0074894D02*
X0125184Y0074894D01*
X0123869Y0075893D02*
X0111203Y0075893D01*
X0110205Y0076891D02*
X0123168Y0076891D01*
X0122754Y0077890D02*
X0109206Y0077890D01*
X0108207Y0078888D02*
X0122693Y0078888D01*
X0122717Y0079887D02*
X0107209Y0079887D01*
X0106210Y0080885D02*
X0123131Y0080885D01*
X0123780Y0081884D02*
X0105212Y0081884D01*
X0102268Y0078888D02*
X0091671Y0078888D01*
X0092085Y0077890D02*
X0103266Y0077890D01*
X0104265Y0076891D02*
X0092293Y0076891D01*
X0092293Y0075893D02*
X0105263Y0075893D01*
X0106262Y0074894D02*
X0092051Y0074894D01*
X0091638Y0073896D02*
X0107260Y0073896D01*
X0108259Y0072897D02*
X0090745Y0072897D01*
X0089089Y0071899D02*
X0109257Y0071899D01*
X0110256Y0070900D02*
X0089251Y0070900D01*
X0090812Y0069902D02*
X0111254Y0069902D01*
X0112253Y0068903D02*
X0091665Y0068903D01*
X0092079Y0067905D02*
X0113251Y0067905D01*
X0114250Y0066906D02*
X0092293Y0066906D01*
X0092293Y0065908D02*
X0123854Y0065908D01*
X0125148Y0064909D02*
X0092057Y0064909D01*
X0091644Y0063911D02*
X0140801Y0063911D01*
X0141799Y0064909D02*
X0134838Y0064909D01*
X0136132Y0065908D02*
X0142798Y0065908D01*
X0143796Y0066906D02*
X0136824Y0066906D01*
X0137238Y0067905D02*
X0144795Y0067905D01*
X0145793Y0068903D02*
X0137293Y0068903D01*
X0137262Y0069902D02*
X0146792Y0069902D01*
X0147790Y0070900D02*
X0136849Y0070900D01*
X0136191Y0071899D02*
X0148789Y0071899D01*
X0149787Y0072897D02*
X0134981Y0072897D01*
X0125005Y0072897D02*
X0114199Y0072897D01*
X0115197Y0071899D02*
X0123795Y0071899D01*
X0125040Y0062912D02*
X0090760Y0062912D01*
X0089125Y0061914D02*
X0123810Y0061914D01*
X0123143Y0060915D02*
X0088584Y0060915D01*
X0087943Y0060915D02*
X0087043Y0060915D01*
X0087043Y0059917D02*
X0087943Y0059917D01*
X0087943Y0058918D02*
X0087043Y0058918D01*
X0087043Y0057920D02*
X0087943Y0057920D01*
X0087943Y0056921D02*
X0087043Y0056921D01*
X0090515Y0059917D02*
X0122730Y0059917D01*
X0122693Y0058918D02*
X0091373Y0058918D01*
X0091847Y0057920D02*
X0122742Y0057920D01*
X0123156Y0056921D02*
X0092073Y0056921D01*
X0092069Y0055923D02*
X0123839Y0055923D01*
X0125112Y0054924D02*
X0091839Y0054924D01*
X0090827Y0079887D02*
X0101269Y0079887D01*
X0100271Y0080885D02*
X0089287Y0080885D01*
X0111078Y0105848D02*
X0123914Y0105848D01*
X0123186Y0106847D02*
X0112076Y0106847D01*
X0113075Y0107845D02*
X0122773Y0107845D01*
X0122693Y0108844D02*
X0114074Y0108844D01*
X0115072Y0109842D02*
X0122699Y0109842D01*
X0123112Y0110841D02*
X0116071Y0110841D01*
X0117069Y0111839D02*
X0123735Y0111839D01*
X0124861Y0112838D02*
X0118068Y0112838D01*
X0119066Y0113836D02*
X0277493Y0113836D01*
X0277493Y0112838D02*
X0271542Y0112838D01*
X0271968Y0111839D02*
X0277493Y0111839D01*
X0277493Y0110841D02*
X0271968Y0110841D01*
X0271968Y0109842D02*
X0277493Y0109842D01*
X0277493Y0108844D02*
X0271968Y0108844D01*
X0271968Y0107845D02*
X0277493Y0107845D01*
X0277493Y0106847D02*
X0271968Y0106847D01*
X0271968Y0105848D02*
X0277493Y0105848D01*
X0277493Y0104850D02*
X0271363Y0104850D01*
X0271349Y0114835D02*
X0277493Y0114835D01*
X0277493Y0115833D02*
X0271968Y0115833D01*
X0271968Y0116832D02*
X0277493Y0116832D01*
X0277493Y0117830D02*
X0271968Y0117830D01*
X0271968Y0118829D02*
X0277493Y0118829D01*
X0277493Y0119827D02*
X0271968Y0119827D01*
X0271968Y0120826D02*
X0277493Y0120826D01*
X0277493Y0121824D02*
X0271968Y0121824D01*
X0271557Y0122823D02*
X0277493Y0122823D01*
X0277493Y0123821D02*
X0137051Y0123821D01*
X0142044Y0128814D02*
X0159693Y0128814D01*
X0160293Y0128814D02*
X0173018Y0128814D01*
X0173018Y0129812D02*
X0167007Y0129812D01*
X0166662Y0130811D02*
X0173018Y0130811D01*
X0173018Y0131809D02*
X0165998Y0131809D01*
X0164660Y0132808D02*
X0172348Y0132808D01*
X0173018Y0127815D02*
X0166951Y0127815D01*
X0166541Y0126817D02*
X0173018Y0126817D01*
X0173018Y0125818D02*
X0165759Y0125818D01*
X0164049Y0124820D02*
X0173652Y0124820D01*
X0173429Y0122823D02*
X0165161Y0122823D01*
X0166266Y0121824D02*
X0173018Y0121824D01*
X0173018Y0120826D02*
X0166880Y0120826D01*
X0167293Y0119827D02*
X0173018Y0119827D01*
X0173018Y0118829D02*
X0167293Y0118829D01*
X0167207Y0117830D02*
X0173018Y0117830D01*
X0173018Y0116832D02*
X0166793Y0116832D01*
X0166057Y0115833D02*
X0173018Y0115833D01*
X0173637Y0114835D02*
X0164658Y0114835D01*
X0165125Y0112838D02*
X0173444Y0112838D01*
X0173018Y0111839D02*
X0166251Y0111839D01*
X0166874Y0110841D02*
X0173018Y0110841D01*
X0173018Y0109842D02*
X0167287Y0109842D01*
X0167293Y0108844D02*
X0173018Y0108844D01*
X0173018Y0107845D02*
X0167213Y0107845D01*
X0166800Y0106847D02*
X0173018Y0106847D01*
X0173018Y0105848D02*
X0166072Y0105848D01*
X0164694Y0104850D02*
X0173623Y0104850D01*
X0173459Y0102853D02*
X0165089Y0102853D01*
X0166236Y0101854D02*
X0173018Y0101854D01*
X0173018Y0100856D02*
X0166867Y0100856D01*
X0167281Y0099857D02*
X0173018Y0099857D01*
X0173018Y0098859D02*
X0167293Y0098859D01*
X0167219Y0097860D02*
X0173018Y0097860D01*
X0173018Y0096862D02*
X0166806Y0096862D01*
X0166087Y0095863D02*
X0173018Y0095863D01*
X0173608Y0094865D02*
X0164730Y0094865D01*
X0165053Y0092868D02*
X0173474Y0092868D01*
X0173018Y0091869D02*
X0166221Y0091869D01*
X0166861Y0090871D02*
X0173018Y0090871D01*
X0173018Y0089872D02*
X0167275Y0089872D01*
X0167293Y0088873D02*
X0173018Y0088873D01*
X0173018Y0087875D02*
X0167225Y0087875D01*
X0166812Y0086876D02*
X0173018Y0086876D01*
X0173018Y0085878D02*
X0166102Y0085878D01*
X0164766Y0084879D02*
X0173593Y0084879D01*
X0173489Y0082882D02*
X0165017Y0082882D01*
X0166206Y0081884D02*
X0173018Y0081884D01*
X0173018Y0080885D02*
X0166855Y0080885D01*
X0169123Y0075893D02*
X0173018Y0075893D01*
X0173578Y0074894D02*
X0168124Y0074894D01*
X0167238Y0067905D02*
X0173218Y0067905D01*
X0173218Y0066906D02*
X0166824Y0066906D01*
X0166132Y0065908D02*
X0173232Y0065908D01*
X0173882Y0064909D02*
X0164838Y0064909D01*
X0163688Y0063433D02*
X0156298Y0063433D01*
X0154644Y0062748D01*
X0153378Y0061482D01*
X0152693Y0059828D01*
X0152693Y0058038D01*
X0153378Y0056384D01*
X0154644Y0055118D01*
X0156298Y0054433D01*
X0163688Y0054433D01*
X0165342Y0055118D01*
X0166608Y0056384D01*
X0167293Y0058038D01*
X0167293Y0059828D01*
X0166608Y0061482D01*
X0165342Y0062748D01*
X0163688Y0063433D01*
X0164946Y0062912D02*
X0277493Y0062912D01*
X0277493Y0061914D02*
X0166176Y0061914D01*
X0166843Y0060915D02*
X0277493Y0060915D01*
X0277493Y0059917D02*
X0167256Y0059917D01*
X0167293Y0058918D02*
X0277493Y0058918D01*
X0277493Y0057920D02*
X0167244Y0057920D01*
X0166830Y0056921D02*
X0277493Y0056921D01*
X0277493Y0055923D02*
X0166147Y0055923D01*
X0164874Y0054924D02*
X0277493Y0054924D01*
X0277493Y0053926D02*
X0136755Y0053926D01*
X0137754Y0054924D02*
X0155112Y0054924D01*
X0153839Y0055923D02*
X0138752Y0055923D01*
X0139751Y0056921D02*
X0153156Y0056921D01*
X0152742Y0057920D02*
X0140749Y0057920D01*
X0141748Y0058918D02*
X0152693Y0058918D01*
X0152730Y0059917D02*
X0142746Y0059917D01*
X0143745Y0060915D02*
X0153143Y0060915D01*
X0153810Y0061914D02*
X0144743Y0061914D01*
X0145742Y0062912D02*
X0155040Y0062912D01*
X0155148Y0064909D02*
X0147739Y0064909D01*
X0146741Y0063911D02*
X0277493Y0063911D01*
X0277493Y0064909D02*
X0271104Y0064909D01*
X0271754Y0065908D02*
X0277493Y0065908D01*
X0277493Y0066906D02*
X0271768Y0066906D01*
X0277493Y0052927D02*
X0135757Y0052927D01*
X0134758Y0051929D02*
X0277493Y0051929D01*
X0277493Y0124820D02*
X0271334Y0124820D01*
X0271968Y0125818D02*
X0277493Y0125818D01*
X0277493Y0126817D02*
X0271968Y0126817D01*
X0271968Y0127815D02*
X0277493Y0127815D01*
X0277493Y0128814D02*
X0271968Y0128814D01*
X0271968Y0129812D02*
X0277493Y0129812D01*
X0277493Y0130811D02*
X0271968Y0130811D01*
X0271968Y0131809D02*
X0277493Y0131809D01*
X0277493Y0132808D02*
X0271572Y0132808D01*
X0271319Y0134805D02*
X0277493Y0134805D01*
X0277493Y0133807D02*
X0177289Y0133807D01*
X0167304Y0143792D02*
X0277493Y0143792D01*
X0277493Y0144790D02*
X0166306Y0144790D01*
X0166013Y0145789D02*
X0277493Y0145789D01*
X0277493Y0146787D02*
X0166775Y0146787D01*
X0167188Y0147786D02*
X0277493Y0147786D01*
X0277493Y0148784D02*
X0167293Y0148784D01*
X0167293Y0149783D02*
X0277493Y0149783D01*
X0277493Y0150781D02*
X0166898Y0150781D01*
X0166310Y0151780D02*
X0277493Y0151780D01*
X0277493Y0152778D02*
X0165269Y0152778D01*
X0164514Y0154775D02*
X0277493Y0154775D01*
X0277493Y0153777D02*
X0149319Y0153777D01*
X0148321Y0154775D02*
X0155472Y0154775D01*
X0156298Y0154433D02*
X0154644Y0155118D01*
X0153378Y0156384D01*
X0152693Y0158038D01*
X0152693Y0159828D01*
X0153378Y0161482D01*
X0154644Y0162748D01*
X0156298Y0163433D01*
X0163688Y0163433D01*
X0165342Y0162748D01*
X0166608Y0161482D01*
X0167293Y0159828D01*
X0167293Y0158038D01*
X0166608Y0156384D01*
X0165342Y0155118D01*
X0163688Y0154433D01*
X0156298Y0154433D01*
X0154717Y0152778D02*
X0150318Y0152778D01*
X0151316Y0151780D02*
X0153676Y0151780D01*
X0153088Y0150781D02*
X0152315Y0150781D01*
X0153988Y0155774D02*
X0147322Y0155774D01*
X0146324Y0156772D02*
X0153217Y0156772D01*
X0152804Y0157771D02*
X0145325Y0157771D01*
X0144327Y0158769D02*
X0152693Y0158769D01*
X0152693Y0159768D02*
X0143328Y0159768D01*
X0142330Y0160766D02*
X0153082Y0160766D01*
X0153661Y0161765D02*
X0141331Y0161765D01*
X0140493Y0162763D02*
X0154681Y0162763D01*
X0155508Y0164760D02*
X0140493Y0164760D01*
X0140493Y0163762D02*
X0277493Y0163762D01*
X0277493Y0164760D02*
X0164478Y0164760D01*
X0163688Y0164433D02*
X0165342Y0165118D01*
X0166608Y0166384D01*
X0167293Y0168038D01*
X0167293Y0169828D01*
X0166608Y0171482D01*
X0165342Y0172748D01*
X0163688Y0173433D01*
X0156298Y0173433D01*
X0154644Y0172748D01*
X0153378Y0171482D01*
X0152693Y0169828D01*
X0152693Y0168038D01*
X0153378Y0166384D01*
X0154644Y0165118D01*
X0156298Y0164433D01*
X0163688Y0164433D01*
X0165305Y0162763D02*
X0277493Y0162763D01*
X0277493Y0161765D02*
X0166325Y0161765D01*
X0166904Y0160766D02*
X0277493Y0160766D01*
X0277493Y0159768D02*
X0167293Y0159768D01*
X0167293Y0158769D02*
X0277493Y0158769D01*
X0277493Y0157771D02*
X0167182Y0157771D01*
X0166769Y0156772D02*
X0277493Y0156772D01*
X0277493Y0155774D02*
X0165998Y0155774D01*
X0165983Y0165759D02*
X0277493Y0165759D01*
X0277493Y0166757D02*
X0166763Y0166757D01*
X0167176Y0167756D02*
X0277493Y0167756D01*
X0277493Y0168754D02*
X0167293Y0168754D01*
X0167293Y0169753D02*
X0277493Y0169753D01*
X0277493Y0170751D02*
X0166911Y0170751D01*
X0166340Y0171750D02*
X0277493Y0171750D01*
X0277493Y0172748D02*
X0165341Y0172748D01*
X0164442Y0174745D02*
X0277493Y0174745D01*
X0277493Y0173747D02*
X0140493Y0173747D01*
X0140493Y0174745D02*
X0155544Y0174745D01*
X0156298Y0174433D02*
X0154644Y0175118D01*
X0153378Y0176384D01*
X0152693Y0178038D01*
X0152693Y0179828D01*
X0153378Y0181482D01*
X0154644Y0182748D01*
X0156298Y0183433D01*
X0163688Y0183433D01*
X0165342Y0182748D01*
X0166608Y0181482D01*
X0167293Y0179828D01*
X0167293Y0178038D01*
X0166608Y0176384D01*
X0165342Y0175118D01*
X0163688Y0174433D01*
X0156298Y0174433D01*
X0154645Y0172748D02*
X0140493Y0172748D01*
X0140493Y0171750D02*
X0153646Y0171750D01*
X0153075Y0170751D02*
X0140493Y0170751D01*
X0140493Y0169753D02*
X0152693Y0169753D01*
X0152693Y0168754D02*
X0140493Y0168754D01*
X0140493Y0167756D02*
X0152810Y0167756D01*
X0153223Y0166757D02*
X0140493Y0166757D01*
X0140493Y0165759D02*
X0154003Y0165759D01*
X0154018Y0175744D02*
X0140493Y0175744D01*
X0140493Y0176742D02*
X0153230Y0176742D01*
X0152816Y0177741D02*
X0140493Y0177741D01*
X0140493Y0178740D02*
X0152693Y0178740D01*
X0152693Y0179738D02*
X0140493Y0179738D01*
X0140493Y0180737D02*
X0153069Y0180737D01*
X0153631Y0181735D02*
X0140493Y0181735D01*
X0140362Y0182734D02*
X0154630Y0182734D01*
X0155580Y0184731D02*
X0138365Y0184731D01*
X0137367Y0185729D02*
X0154033Y0185729D01*
X0154644Y0185118D02*
X0156298Y0184433D01*
X0163688Y0184433D01*
X0165342Y0185118D01*
X0166608Y0186384D01*
X0167293Y0188038D01*
X0167293Y0189828D01*
X0166608Y0191482D01*
X0165342Y0192748D01*
X0163688Y0193433D01*
X0156298Y0193433D01*
X0154644Y0192748D01*
X0153378Y0191482D01*
X0152693Y0189828D01*
X0152693Y0188038D01*
X0153378Y0186384D01*
X0154644Y0185118D01*
X0153236Y0186728D02*
X0136750Y0186728D01*
X0137164Y0187726D02*
X0152822Y0187726D01*
X0152693Y0188725D02*
X0137293Y0188725D01*
X0137293Y0189723D02*
X0152693Y0189723D01*
X0153063Y0190722D02*
X0136923Y0190722D01*
X0136370Y0191720D02*
X0153616Y0191720D01*
X0154615Y0192719D02*
X0135371Y0192719D01*
X0129540Y0198710D02*
X0277493Y0198710D01*
X0277493Y0199708D02*
X0130538Y0199708D01*
X0131537Y0200707D02*
X0277493Y0200707D01*
X0277493Y0201705D02*
X0132535Y0201705D01*
X0133534Y0202704D02*
X0277493Y0202704D01*
X0277493Y0203702D02*
X0134532Y0203702D01*
X0135531Y0204701D02*
X0277493Y0204701D01*
X0277493Y0205699D02*
X0136529Y0205699D01*
X0137528Y0206698D02*
X0277493Y0206698D01*
X0277493Y0207696D02*
X0151869Y0207696D01*
X0153219Y0208695D02*
X0277493Y0208695D01*
X0277493Y0209693D02*
X0153930Y0209693D01*
X0154344Y0210692D02*
X0277493Y0210692D01*
X0277493Y0211690D02*
X0154409Y0211690D01*
X0154384Y0212689D02*
X0277493Y0212689D01*
X0277493Y0213687D02*
X0154917Y0213687D01*
X0155916Y0214686D02*
X0173786Y0214686D01*
X0174014Y0214458D02*
X0180972Y0214458D01*
X0181968Y0215454D01*
X0181968Y0222412D01*
X0180972Y0223408D01*
X0174014Y0223408D01*
X0173018Y0222412D01*
X0173018Y0215454D01*
X0174014Y0214458D01*
X0173018Y0215684D02*
X0156493Y0215684D01*
X0156493Y0216683D02*
X0173018Y0216683D01*
X0173018Y0217681D02*
X0156493Y0217681D01*
X0156493Y0218680D02*
X0173018Y0218680D01*
X0173018Y0219678D02*
X0156493Y0219678D01*
X0156493Y0220677D02*
X0173018Y0220677D01*
X0173018Y0221676D02*
X0156493Y0221676D01*
X0156493Y0222674D02*
X0173280Y0222674D01*
X0174014Y0224458D02*
X0180972Y0224458D01*
X0181968Y0225454D01*
X0181968Y0232412D01*
X0180972Y0233408D01*
X0174014Y0233408D01*
X0173018Y0232412D01*
X0173018Y0225454D01*
X0174014Y0224458D01*
X0173801Y0224671D02*
X0156493Y0224671D01*
X0156493Y0223673D02*
X0277493Y0223673D01*
X0277493Y0224671D02*
X0271185Y0224671D01*
X0270972Y0224458D02*
X0271968Y0225454D01*
X0271968Y0232412D01*
X0270972Y0233408D01*
X0264014Y0233408D01*
X0263018Y0232412D01*
X0263018Y0225454D01*
X0264014Y0224458D01*
X0270972Y0224458D01*
X0270972Y0223408D02*
X0264014Y0223408D01*
X0263018Y0222412D01*
X0263018Y0215454D01*
X0264014Y0214458D01*
X0270972Y0214458D01*
X0271968Y0215454D01*
X0271968Y0222412D01*
X0270972Y0223408D01*
X0271706Y0222674D02*
X0277493Y0222674D01*
X0277493Y0221676D02*
X0271968Y0221676D01*
X0271968Y0220677D02*
X0277493Y0220677D01*
X0277493Y0219678D02*
X0271968Y0219678D01*
X0271968Y0218680D02*
X0277493Y0218680D01*
X0277493Y0217681D02*
X0271968Y0217681D01*
X0271968Y0216683D02*
X0277493Y0216683D01*
X0277493Y0215684D02*
X0271968Y0215684D01*
X0271200Y0214686D02*
X0277493Y0214686D01*
X0277493Y0225670D02*
X0271968Y0225670D01*
X0271968Y0226668D02*
X0277493Y0226668D01*
X0277493Y0227667D02*
X0271968Y0227667D01*
X0271968Y0228665D02*
X0277493Y0228665D01*
X0277493Y0229664D02*
X0271968Y0229664D01*
X0271968Y0230662D02*
X0277493Y0230662D01*
X0277493Y0231661D02*
X0271968Y0231661D01*
X0271721Y0232659D02*
X0277493Y0232659D01*
X0277493Y0233658D02*
X0156493Y0233658D01*
X0156493Y0234656D02*
X0173816Y0234656D01*
X0174014Y0234458D02*
X0180972Y0234458D01*
X0181968Y0235454D01*
X0181968Y0242412D01*
X0180972Y0243408D01*
X0174014Y0243408D01*
X0173018Y0242412D01*
X0173018Y0235454D01*
X0174014Y0234458D01*
X0173018Y0235655D02*
X0156493Y0235655D01*
X0156493Y0236653D02*
X0173018Y0236653D01*
X0173018Y0237652D02*
X0156493Y0237652D01*
X0156493Y0238650D02*
X0173018Y0238650D01*
X0173018Y0239649D02*
X0156493Y0239649D01*
X0156493Y0240647D02*
X0173018Y0240647D01*
X0173018Y0241646D02*
X0156493Y0241646D01*
X0156493Y0242644D02*
X0173250Y0242644D01*
X0174014Y0244458D02*
X0180972Y0244458D01*
X0181968Y0245454D01*
X0181968Y0252412D01*
X0180972Y0253408D01*
X0174014Y0253408D01*
X0173018Y0252412D01*
X0173018Y0245454D01*
X0174014Y0244458D01*
X0173831Y0244641D02*
X0156493Y0244641D01*
X0156493Y0243643D02*
X0277493Y0243643D01*
X0277493Y0244641D02*
X0271155Y0244641D01*
X0270972Y0244458D02*
X0271968Y0245454D01*
X0271968Y0252412D01*
X0270972Y0253408D01*
X0264014Y0253408D01*
X0263018Y0252412D01*
X0263018Y0245454D01*
X0264014Y0244458D01*
X0270972Y0244458D01*
X0270972Y0243408D02*
X0264014Y0243408D01*
X0263018Y0242412D01*
X0263018Y0235454D01*
X0264014Y0234458D01*
X0270972Y0234458D01*
X0271968Y0235454D01*
X0271968Y0242412D01*
X0270972Y0243408D01*
X0271736Y0242644D02*
X0277493Y0242644D01*
X0277493Y0241646D02*
X0271968Y0241646D01*
X0271968Y0240647D02*
X0277493Y0240647D01*
X0277493Y0239649D02*
X0271968Y0239649D01*
X0271968Y0238650D02*
X0277493Y0238650D01*
X0277493Y0237652D02*
X0271968Y0237652D01*
X0271968Y0236653D02*
X0277493Y0236653D01*
X0277493Y0235655D02*
X0271968Y0235655D01*
X0271170Y0234656D02*
X0277493Y0234656D01*
X0277493Y0245640D02*
X0271968Y0245640D01*
X0271968Y0246638D02*
X0277493Y0246638D01*
X0277493Y0247637D02*
X0271968Y0247637D01*
X0271968Y0248635D02*
X0277493Y0248635D01*
X0277493Y0249634D02*
X0271968Y0249634D01*
X0271968Y0250632D02*
X0277493Y0250632D01*
X0277493Y0251631D02*
X0271968Y0251631D01*
X0271750Y0252629D02*
X0277493Y0252629D01*
X0277493Y0253628D02*
X0157258Y0253628D01*
X0156493Y0252629D02*
X0173236Y0252629D01*
X0173018Y0251631D02*
X0156493Y0251631D01*
X0156493Y0250632D02*
X0173018Y0250632D01*
X0173018Y0249634D02*
X0156493Y0249634D01*
X0156493Y0248635D02*
X0173018Y0248635D01*
X0173018Y0247637D02*
X0156493Y0247637D01*
X0156493Y0246638D02*
X0173018Y0246638D01*
X0173018Y0245640D02*
X0156493Y0245640D01*
X0152293Y0245640D02*
X0022493Y0245640D01*
X0022493Y0246638D02*
X0152293Y0246638D01*
X0152293Y0247637D02*
X0022493Y0247637D01*
X0022493Y0248635D02*
X0152293Y0248635D01*
X0152293Y0249634D02*
X0022493Y0249634D01*
X0022493Y0250632D02*
X0152293Y0250632D01*
X0152293Y0251631D02*
X0022493Y0251631D01*
X0022493Y0252629D02*
X0152293Y0252629D01*
X0152293Y0253628D02*
X0022493Y0253628D01*
X0022493Y0254626D02*
X0152316Y0254626D01*
X0153315Y0255625D02*
X0022493Y0255625D01*
X0022493Y0256623D02*
X0154314Y0256623D01*
X0155312Y0257622D02*
X0022493Y0257622D01*
X0022493Y0258620D02*
X0156311Y0258620D01*
X0157309Y0259619D02*
X0022493Y0259619D01*
X0022493Y0260617D02*
X0158308Y0260617D01*
X0159306Y0261616D02*
X0022493Y0261616D01*
X0022493Y0262614D02*
X0160305Y0262614D01*
X0161303Y0263613D02*
X0022493Y0263613D01*
X0022493Y0264611D02*
X0162302Y0264611D01*
X0163300Y0265610D02*
X0022493Y0265610D01*
X0022493Y0266609D02*
X0164299Y0266609D01*
X0165297Y0267607D02*
X0022493Y0267607D01*
X0022493Y0268606D02*
X0166296Y0268606D01*
X0167294Y0269604D02*
X0022493Y0269604D01*
X0022493Y0270603D02*
X0168293Y0270603D01*
X0169291Y0271601D02*
X0022493Y0271601D01*
X0022493Y0272600D02*
X0170290Y0272600D01*
X0171288Y0273598D02*
X0022493Y0273598D01*
X0022493Y0274597D02*
X0031376Y0274597D01*
X0031514Y0274458D02*
X0030518Y0275454D01*
X0030518Y0282412D01*
X0031514Y0283408D01*
X0038472Y0283408D01*
X0039468Y0282412D01*
X0039468Y0275454D01*
X0038472Y0274458D01*
X0031514Y0274458D01*
X0030518Y0275595D02*
X0022493Y0275595D01*
X0022493Y0276594D02*
X0030518Y0276594D01*
X0030518Y0277592D02*
X0022493Y0277592D01*
X0022493Y0278591D02*
X0030518Y0278591D01*
X0030518Y0279589D02*
X0022493Y0279589D01*
X0022493Y0280588D02*
X0030518Y0280588D01*
X0030518Y0281586D02*
X0022493Y0281586D01*
X0022493Y0282585D02*
X0030691Y0282585D01*
X0022493Y0283583D02*
X0181273Y0283583D01*
X0180275Y0282585D02*
X0039295Y0282585D01*
X0039468Y0281586D02*
X0179276Y0281586D01*
X0178278Y0280588D02*
X0039468Y0280588D01*
X0039468Y0279589D02*
X0177279Y0279589D01*
X0176281Y0278591D02*
X0039468Y0278591D01*
X0039468Y0277592D02*
X0175282Y0277592D01*
X0174284Y0276594D02*
X0039468Y0276594D01*
X0039468Y0275595D02*
X0173285Y0275595D01*
X0172287Y0274597D02*
X0038610Y0274597D01*
X0022493Y0284582D02*
X0071391Y0284582D01*
X0071514Y0284458D02*
X0070518Y0285454D01*
X0070518Y0292412D01*
X0071514Y0293408D01*
X0078472Y0293408D01*
X0079468Y0292412D01*
X0079468Y0285454D01*
X0078472Y0284458D01*
X0071514Y0284458D01*
X0070518Y0285580D02*
X0022493Y0285580D01*
X0022493Y0286579D02*
X0070518Y0286579D01*
X0070518Y0287577D02*
X0022493Y0287577D01*
X0022493Y0288576D02*
X0070518Y0288576D01*
X0070518Y0289574D02*
X0022493Y0289574D01*
X0022493Y0290573D02*
X0070518Y0290573D01*
X0070518Y0291571D02*
X0022493Y0291571D01*
X0022493Y0292570D02*
X0070676Y0292570D01*
X0079310Y0292570D02*
X0190260Y0292570D01*
X0190493Y0293568D02*
X0022493Y0293568D01*
X0022493Y0294567D02*
X0190493Y0294567D01*
X0190493Y0295565D02*
X0039158Y0295565D01*
X0039166Y0295579D02*
X0039268Y0295961D01*
X0039268Y0298646D01*
X0035280Y0298646D01*
X0035280Y0294658D01*
X0037965Y0294658D01*
X0038347Y0294760D01*
X0038689Y0294958D01*
X0038968Y0295237D01*
X0039166Y0295579D01*
X0039268Y0296564D02*
X0191260Y0296564D01*
X0192258Y0297562D02*
X0039268Y0297562D01*
X0039268Y0298561D02*
X0277493Y0298561D01*
X0277493Y0299559D02*
X0039268Y0299559D01*
X0039268Y0299220D02*
X0039268Y0301905D01*
X0039166Y0302287D01*
X0038968Y0302629D01*
X0038689Y0302908D01*
X0038347Y0303106D01*
X0037965Y0303208D01*
X0035280Y0303208D01*
X0035280Y0299221D01*
X0034706Y0299221D01*
X0034706Y0303208D01*
X0032021Y0303208D01*
X0031639Y0303106D01*
X0031297Y0302908D01*
X0031018Y0302629D01*
X0030820Y0302287D01*
X0030718Y0301905D01*
X0030718Y0299220D01*
X0034706Y0299220D01*
X0034706Y0298646D01*
X0035280Y0298646D01*
X0035280Y0299220D01*
X0039268Y0299220D01*
X0039268Y0300558D02*
X0277493Y0300558D01*
X0277493Y0301556D02*
X0039268Y0301556D01*
X0039011Y0302555D02*
X0277493Y0302555D01*
X0277493Y0303553D02*
X0022493Y0303553D01*
X0022493Y0302555D02*
X0030975Y0302555D01*
X0030718Y0301556D02*
X0022493Y0301556D01*
X0022493Y0300558D02*
X0030718Y0300558D01*
X0030718Y0299559D02*
X0022493Y0299559D01*
X0022493Y0298561D02*
X0030718Y0298561D01*
X0030718Y0298646D02*
X0030718Y0295961D01*
X0030820Y0295579D01*
X0031018Y0295237D01*
X0031297Y0294958D01*
X0031639Y0294760D01*
X0032021Y0294658D01*
X0034706Y0294658D01*
X0034706Y0298646D01*
X0030718Y0298646D01*
X0030718Y0297562D02*
X0022493Y0297562D01*
X0022493Y0296564D02*
X0030718Y0296564D01*
X0030828Y0295565D02*
X0022493Y0295565D01*
X0022493Y0304552D02*
X0277493Y0304552D01*
X0277493Y0305550D02*
X0022493Y0305550D01*
X0034706Y0302555D02*
X0035280Y0302555D01*
X0035280Y0301556D02*
X0034706Y0301556D01*
X0034706Y0300558D02*
X0035280Y0300558D01*
X0035280Y0299559D02*
X0034706Y0299559D01*
X0034706Y0298561D02*
X0035280Y0298561D01*
X0035280Y0297562D02*
X0034706Y0297562D01*
X0034706Y0296564D02*
X0035280Y0296564D01*
X0035280Y0295565D02*
X0034706Y0295565D01*
X0079468Y0291571D02*
X0189261Y0291571D01*
X0188263Y0290573D02*
X0079468Y0290573D01*
X0079468Y0289574D02*
X0187264Y0289574D01*
X0186266Y0288576D02*
X0079468Y0288576D01*
X0079468Y0287577D02*
X0185267Y0287577D01*
X0184269Y0286579D02*
X0079468Y0286579D01*
X0079468Y0285580D02*
X0183270Y0285580D01*
X0182272Y0284582D02*
X0078595Y0284582D01*
X0022493Y0244641D02*
X0152293Y0244641D01*
X0152293Y0243643D02*
X0022493Y0243643D01*
X0022493Y0242644D02*
X0152293Y0242644D01*
X0152293Y0241646D02*
X0022493Y0241646D01*
X0022493Y0240647D02*
X0152293Y0240647D01*
X0152293Y0239649D02*
X0022493Y0239649D01*
X0022493Y0238650D02*
X0152293Y0238650D01*
X0152293Y0237652D02*
X0022493Y0237652D01*
X0022493Y0236653D02*
X0152293Y0236653D01*
X0152293Y0235655D02*
X0022493Y0235655D01*
X0022493Y0234656D02*
X0152293Y0234656D01*
X0152293Y0233658D02*
X0022493Y0233658D01*
X0022493Y0232659D02*
X0152293Y0232659D01*
X0152293Y0231661D02*
X0022493Y0231661D01*
X0022493Y0230662D02*
X0152293Y0230662D01*
X0152293Y0229664D02*
X0022493Y0229664D01*
X0022493Y0228665D02*
X0152293Y0228665D01*
X0152293Y0227667D02*
X0133029Y0227667D01*
X0134028Y0226668D02*
X0152293Y0226668D01*
X0156493Y0226668D02*
X0173018Y0226668D01*
X0173018Y0225670D02*
X0156493Y0225670D01*
X0156493Y0227667D02*
X0173018Y0227667D01*
X0173018Y0228665D02*
X0156493Y0228665D01*
X0156493Y0229664D02*
X0173018Y0229664D01*
X0173018Y0230662D02*
X0156493Y0230662D01*
X0156493Y0231661D02*
X0173018Y0231661D01*
X0173265Y0232659D02*
X0156493Y0232659D01*
X0145912Y0225670D02*
X0142136Y0225670D01*
X0143329Y0224671D02*
X0145459Y0224671D01*
X0144563Y0223673D02*
X0143976Y0223673D01*
X0144511Y0217681D02*
X0146037Y0217681D01*
X0147768Y0215684D02*
X0142514Y0215684D01*
X0143314Y0214686D02*
X0146553Y0214686D01*
X0145898Y0213687D02*
X0143970Y0213687D01*
X0144384Y0212689D02*
X0145484Y0212689D01*
X0145459Y0211690D02*
X0144409Y0211690D01*
X0144344Y0210692D02*
X0145524Y0210692D01*
X0145937Y0209693D02*
X0143930Y0209693D01*
X0143219Y0208695D02*
X0146649Y0208695D01*
X0147999Y0207696D02*
X0141869Y0207696D01*
X0143513Y0216683D02*
X0151973Y0216683D01*
X0137732Y0225670D02*
X0135026Y0225670D01*
X0136025Y0224671D02*
X0136539Y0224671D01*
X0126957Y0227667D02*
X0022493Y0227667D01*
X0022493Y0226668D02*
X0125958Y0226668D01*
X0124960Y0225670D02*
X0123673Y0225670D01*
X0120221Y0225670D02*
X0119647Y0225670D01*
X0119647Y0224671D02*
X0120221Y0224671D01*
X0120221Y0223673D02*
X0119647Y0223673D01*
X0119647Y0222674D02*
X0120221Y0222674D01*
X0119646Y0221676D02*
X0022493Y0221676D01*
X0022493Y0222674D02*
X0115659Y0222674D01*
X0115659Y0223673D02*
X0022493Y0223673D01*
X0022493Y0224671D02*
X0115659Y0224671D01*
X0116194Y0225670D02*
X0022493Y0225670D01*
X0022493Y0220677D02*
X0115659Y0220677D01*
X0115659Y0219678D02*
X0022493Y0219678D01*
X0022493Y0218680D02*
X0054770Y0218680D01*
X0053772Y0217681D02*
X0022493Y0217681D01*
X0022493Y0216683D02*
X0025673Y0216683D01*
X0026518Y0217033D02*
X0024717Y0216287D01*
X0023339Y0214909D01*
X0022593Y0213108D01*
X0022593Y0204758D01*
X0023339Y0202957D01*
X0024717Y0201579D01*
X0026518Y0200833D01*
X0028468Y0200833D01*
X0030269Y0201579D01*
X0031647Y0202957D01*
X0032393Y0204758D01*
X0032393Y0213108D01*
X0031647Y0214909D01*
X0030269Y0216287D01*
X0028468Y0217033D01*
X0026518Y0217033D01*
X0024115Y0215684D02*
X0022493Y0215684D01*
X0022493Y0214686D02*
X0023247Y0214686D01*
X0022833Y0213687D02*
X0022493Y0213687D01*
X0022493Y0212689D02*
X0022593Y0212689D01*
X0022593Y0211690D02*
X0022493Y0211690D01*
X0022493Y0210692D02*
X0022593Y0210692D01*
X0022593Y0209693D02*
X0022493Y0209693D01*
X0022493Y0208695D02*
X0022593Y0208695D01*
X0022593Y0207696D02*
X0022493Y0207696D01*
X0022493Y0206698D02*
X0022593Y0206698D01*
X0022593Y0205699D02*
X0022493Y0205699D01*
X0022493Y0204701D02*
X0022617Y0204701D01*
X0022493Y0203702D02*
X0023030Y0203702D01*
X0022493Y0202704D02*
X0023593Y0202704D01*
X0024591Y0201705D02*
X0022493Y0201705D01*
X0022493Y0200707D02*
X0050693Y0200707D01*
X0050693Y0201705D02*
X0050395Y0201705D01*
X0050693Y0199708D02*
X0022493Y0199708D01*
X0022493Y0198710D02*
X0050693Y0198710D01*
X0050693Y0197711D02*
X0022493Y0197711D01*
X0022493Y0196713D02*
X0050693Y0196713D01*
X0050693Y0195714D02*
X0022493Y0195714D01*
X0022493Y0194716D02*
X0050693Y0194716D01*
X0050693Y0193717D02*
X0022493Y0193717D01*
X0022493Y0192719D02*
X0050693Y0192719D01*
X0050693Y0191720D02*
X0022493Y0191720D01*
X0022493Y0190722D02*
X0025304Y0190722D01*
X0024774Y0190502D02*
X0023424Y0189152D01*
X0022693Y0187388D01*
X0022693Y0185478D01*
X0023424Y0183714D01*
X0024774Y0182364D01*
X0026538Y0181633D01*
X0028448Y0181633D01*
X0030212Y0182364D01*
X0031562Y0183714D01*
X0032293Y0185478D01*
X0032293Y0187388D01*
X0031562Y0189152D01*
X0030212Y0190502D01*
X0028448Y0191233D01*
X0026538Y0191233D01*
X0024774Y0190502D01*
X0023995Y0189723D02*
X0022493Y0189723D01*
X0022493Y0188725D02*
X0023247Y0188725D01*
X0022833Y0187726D02*
X0022493Y0187726D01*
X0022493Y0186728D02*
X0022693Y0186728D01*
X0022693Y0185729D02*
X0022493Y0185729D01*
X0022493Y0184731D02*
X0023003Y0184731D01*
X0023416Y0183732D02*
X0022493Y0183732D01*
X0022493Y0182734D02*
X0024404Y0182734D01*
X0026292Y0181735D02*
X0022493Y0181735D01*
X0022493Y0180737D02*
X0025340Y0180737D01*
X0024774Y0180502D02*
X0023424Y0179152D01*
X0022693Y0177388D01*
X0022693Y0175478D01*
X0023424Y0173714D01*
X0024774Y0172364D01*
X0026538Y0171633D01*
X0028448Y0171633D01*
X0030212Y0172364D01*
X0031562Y0173714D01*
X0032293Y0175478D01*
X0032293Y0177388D01*
X0031562Y0179152D01*
X0030212Y0180502D01*
X0028448Y0181233D01*
X0026538Y0181233D01*
X0024774Y0180502D01*
X0024010Y0179738D02*
X0022493Y0179738D01*
X0022493Y0178740D02*
X0023253Y0178740D01*
X0022839Y0177741D02*
X0022493Y0177741D01*
X0022493Y0176742D02*
X0022693Y0176742D01*
X0022693Y0175744D02*
X0022493Y0175744D01*
X0022493Y0174745D02*
X0022997Y0174745D01*
X0023410Y0173747D02*
X0022493Y0173747D01*
X0022493Y0172748D02*
X0024389Y0172748D01*
X0026256Y0171750D02*
X0022493Y0171750D01*
X0022493Y0170751D02*
X0025376Y0170751D01*
X0024774Y0170502D02*
X0023424Y0169152D01*
X0022693Y0167388D01*
X0022693Y0165478D01*
X0023424Y0163714D01*
X0024774Y0162364D01*
X0026538Y0161633D01*
X0028448Y0161633D01*
X0030212Y0162364D01*
X0031562Y0163714D01*
X0032293Y0165478D01*
X0032293Y0167388D01*
X0031562Y0169152D01*
X0030212Y0170502D01*
X0028448Y0171233D01*
X0026538Y0171233D01*
X0024774Y0170502D01*
X0024025Y0169753D02*
X0022493Y0169753D01*
X0022493Y0168754D02*
X0023259Y0168754D01*
X0022845Y0167756D02*
X0022493Y0167756D01*
X0022493Y0166757D02*
X0022693Y0166757D01*
X0022693Y0165759D02*
X0022493Y0165759D01*
X0022493Y0164760D02*
X0022990Y0164760D01*
X0023404Y0163762D02*
X0022493Y0163762D01*
X0022493Y0162763D02*
X0024374Y0162763D01*
X0026220Y0161765D02*
X0022493Y0161765D01*
X0022493Y0160766D02*
X0025411Y0160766D01*
X0024040Y0159768D02*
X0022493Y0159768D01*
X0022493Y0158769D02*
X0023265Y0158769D01*
X0022852Y0157771D02*
X0022493Y0157771D01*
X0022493Y0156772D02*
X0022693Y0156772D01*
X0022693Y0155774D02*
X0022493Y0155774D01*
X0022493Y0154775D02*
X0022984Y0154775D01*
X0023398Y0153777D02*
X0022493Y0153777D01*
X0022493Y0152778D02*
X0024360Y0152778D01*
X0026184Y0151780D02*
X0022493Y0151780D01*
X0022493Y0150781D02*
X0025447Y0150781D01*
X0024054Y0149783D02*
X0022493Y0149783D01*
X0022493Y0148784D02*
X0023271Y0148784D01*
X0022858Y0147786D02*
X0022493Y0147786D01*
X0022493Y0146787D02*
X0022693Y0146787D01*
X0022693Y0145789D02*
X0022493Y0145789D01*
X0022493Y0144790D02*
X0022978Y0144790D01*
X0023392Y0143792D02*
X0022493Y0143792D01*
X0022493Y0142793D02*
X0024345Y0142793D01*
X0026148Y0141795D02*
X0022493Y0141795D01*
X0022493Y0140796D02*
X0025483Y0140796D01*
X0024069Y0139798D02*
X0022493Y0139798D01*
X0022493Y0138799D02*
X0023278Y0138799D01*
X0022864Y0137801D02*
X0022493Y0137801D01*
X0022493Y0136802D02*
X0022693Y0136802D01*
X0022693Y0135804D02*
X0022493Y0135804D01*
X0022493Y0134805D02*
X0022972Y0134805D01*
X0023385Y0133807D02*
X0022493Y0133807D01*
X0022493Y0132808D02*
X0024330Y0132808D01*
X0026112Y0131809D02*
X0022493Y0131809D01*
X0022493Y0130811D02*
X0025519Y0130811D01*
X0024774Y0130502D02*
X0023424Y0129152D01*
X0022693Y0127388D01*
X0022693Y0125478D01*
X0023424Y0123714D01*
X0024774Y0122364D01*
X0026538Y0121633D01*
X0028448Y0121633D01*
X0030212Y0122364D01*
X0031562Y0123714D01*
X0032293Y0125478D01*
X0032293Y0127388D01*
X0031562Y0129152D01*
X0030212Y0130502D01*
X0028448Y0131233D01*
X0026538Y0131233D01*
X0024774Y0130502D01*
X0024084Y0129812D02*
X0022493Y0129812D01*
X0022493Y0128814D02*
X0023284Y0128814D01*
X0022870Y0127815D02*
X0022493Y0127815D01*
X0022493Y0126817D02*
X0022693Y0126817D01*
X0022693Y0125818D02*
X0022493Y0125818D01*
X0022493Y0124820D02*
X0022966Y0124820D01*
X0023379Y0123821D02*
X0022493Y0123821D01*
X0022493Y0122823D02*
X0024315Y0122823D01*
X0026076Y0121824D02*
X0022493Y0121824D01*
X0022493Y0120826D02*
X0025555Y0120826D01*
X0024099Y0119827D02*
X0022493Y0119827D01*
X0022493Y0118829D02*
X0023290Y0118829D01*
X0022876Y0117830D02*
X0022493Y0117830D01*
X0022493Y0116832D02*
X0022693Y0116832D01*
X0022693Y0115833D02*
X0022493Y0115833D01*
X0022493Y0114835D02*
X0022960Y0114835D01*
X0023373Y0113836D02*
X0022493Y0113836D01*
X0022493Y0112838D02*
X0024300Y0112838D01*
X0030686Y0112838D02*
X0084128Y0112838D01*
X0083373Y0113836D02*
X0031613Y0113836D01*
X0032026Y0114835D02*
X0082960Y0114835D01*
X0082693Y0115833D02*
X0032293Y0115833D01*
X0032293Y0116832D02*
X0082693Y0116832D01*
X0082876Y0117830D02*
X0032110Y0117830D01*
X0031696Y0118829D02*
X0082327Y0118829D01*
X0081329Y0119827D02*
X0030887Y0119827D01*
X0029431Y0120826D02*
X0080330Y0120826D01*
X0079493Y0121824D02*
X0028910Y0121824D01*
X0030671Y0122823D02*
X0079493Y0122823D01*
X0079493Y0123821D02*
X0031607Y0123821D01*
X0032020Y0124820D02*
X0079493Y0124820D01*
X0079493Y0125818D02*
X0032293Y0125818D01*
X0032293Y0126817D02*
X0079493Y0126817D01*
X0079493Y0127815D02*
X0032116Y0127815D01*
X0031702Y0128814D02*
X0079493Y0128814D01*
X0079493Y0129812D02*
X0030902Y0129812D01*
X0029467Y0130811D02*
X0079493Y0130811D01*
X0079493Y0131809D02*
X0028874Y0131809D01*
X0030656Y0132808D02*
X0079493Y0132808D01*
X0079493Y0133807D02*
X0031601Y0133807D01*
X0032014Y0134805D02*
X0079493Y0134805D01*
X0079493Y0135804D02*
X0032293Y0135804D01*
X0032293Y0136802D02*
X0079493Y0136802D01*
X0079493Y0137801D02*
X0032122Y0137801D01*
X0031708Y0138799D02*
X0079493Y0138799D01*
X0079493Y0139798D02*
X0030917Y0139798D01*
X0031626Y0140796D02*
X0079493Y0140796D01*
X0079493Y0141795D02*
X0032624Y0141795D01*
X0033623Y0142793D02*
X0079493Y0142793D01*
X0079493Y0143792D02*
X0034621Y0143792D01*
X0035620Y0144790D02*
X0079493Y0144790D01*
X0079493Y0145789D02*
X0036618Y0145789D01*
X0037617Y0146787D02*
X0079493Y0146787D01*
X0079493Y0147786D02*
X0038615Y0147786D01*
X0039614Y0148784D02*
X0079493Y0148784D01*
X0079493Y0149783D02*
X0040612Y0149783D01*
X0041611Y0150781D02*
X0079493Y0150781D01*
X0079493Y0151780D02*
X0042609Y0151780D01*
X0043608Y0152778D02*
X0079493Y0152778D01*
X0079493Y0153777D02*
X0044607Y0153777D01*
X0045605Y0154775D02*
X0079493Y0154775D01*
X0079493Y0155774D02*
X0046604Y0155774D01*
X0047602Y0156772D02*
X0079493Y0156772D01*
X0079493Y0157771D02*
X0048601Y0157771D01*
X0049599Y0158769D02*
X0079493Y0158769D01*
X0079493Y0159768D02*
X0050598Y0159768D01*
X0051596Y0160766D02*
X0079493Y0160766D01*
X0079493Y0161765D02*
X0052595Y0161765D01*
X0053593Y0162763D02*
X0079493Y0162763D01*
X0079493Y0163762D02*
X0054592Y0163762D01*
X0055590Y0164760D02*
X0079493Y0164760D01*
X0079493Y0165759D02*
X0056589Y0165759D01*
X0057587Y0166757D02*
X0079493Y0166757D01*
X0079493Y0167756D02*
X0058586Y0167756D01*
X0058893Y0168754D02*
X0079493Y0168754D01*
X0079493Y0169753D02*
X0058893Y0169753D01*
X0058893Y0170751D02*
X0079493Y0170751D01*
X0079493Y0171750D02*
X0058893Y0171750D01*
X0058893Y0172748D02*
X0079493Y0172748D01*
X0079493Y0173747D02*
X0058893Y0173747D01*
X0058893Y0174745D02*
X0079493Y0174745D01*
X0079493Y0175744D02*
X0058893Y0175744D01*
X0058893Y0176742D02*
X0079493Y0176742D01*
X0079493Y0177741D02*
X0058893Y0177741D01*
X0058893Y0178740D02*
X0080430Y0178740D01*
X0081428Y0179738D02*
X0058893Y0179738D01*
X0058893Y0180737D02*
X0082427Y0180737D01*
X0083425Y0181735D02*
X0058893Y0181735D01*
X0058893Y0182734D02*
X0084404Y0182734D01*
X0083416Y0183732D02*
X0058893Y0183732D01*
X0058893Y0184731D02*
X0083003Y0184731D01*
X0082693Y0185729D02*
X0058893Y0185729D01*
X0058893Y0186728D02*
X0082693Y0186728D01*
X0082833Y0187726D02*
X0058893Y0187726D01*
X0058893Y0188725D02*
X0083247Y0188725D01*
X0083995Y0189723D02*
X0058893Y0189723D01*
X0058893Y0190722D02*
X0085304Y0190722D01*
X0089682Y0190722D02*
X0089893Y0190722D01*
X0089893Y0191720D02*
X0058893Y0191720D01*
X0058893Y0192719D02*
X0089893Y0192719D01*
X0090607Y0193717D02*
X0058893Y0193717D01*
X0058893Y0194716D02*
X0091606Y0194716D01*
X0092604Y0195714D02*
X0058893Y0195714D01*
X0058893Y0196713D02*
X0093603Y0196713D01*
X0094601Y0197711D02*
X0058893Y0197711D01*
X0058893Y0198710D02*
X0095600Y0198710D01*
X0096598Y0199708D02*
X0058893Y0199708D01*
X0058893Y0200707D02*
X0097597Y0200707D01*
X0094591Y0201705D02*
X0090395Y0201705D01*
X0091393Y0202704D02*
X0093593Y0202704D01*
X0093030Y0203702D02*
X0091956Y0203702D01*
X0092369Y0204701D02*
X0092617Y0204701D01*
X0092593Y0205699D02*
X0092393Y0205699D01*
X0092393Y0206698D02*
X0092593Y0206698D01*
X0092593Y0207696D02*
X0092393Y0207696D01*
X0092393Y0208695D02*
X0092593Y0208695D01*
X0092593Y0209693D02*
X0092393Y0209693D01*
X0092393Y0210692D02*
X0092593Y0210692D01*
X0093811Y0215684D02*
X0094115Y0215684D01*
X0092813Y0216683D02*
X0095673Y0216683D01*
X0099313Y0216683D02*
X0113573Y0216683D01*
X0112575Y0215684D02*
X0100871Y0215684D01*
X0101739Y0214686D02*
X0111576Y0214686D01*
X0110578Y0213687D02*
X0102153Y0213687D01*
X0102393Y0212689D02*
X0109579Y0212689D01*
X0108581Y0211690D02*
X0102393Y0211690D01*
X0102393Y0210692D02*
X0107582Y0210692D01*
X0106583Y0209693D02*
X0102393Y0209693D01*
X0102393Y0208695D02*
X0105585Y0208695D01*
X0104586Y0207696D02*
X0102393Y0207696D01*
X0102393Y0206698D02*
X0103588Y0206698D01*
X0102589Y0205699D02*
X0102393Y0205699D01*
X0084591Y0201705D02*
X0080395Y0201705D01*
X0081393Y0202704D02*
X0083593Y0202704D01*
X0083030Y0203702D02*
X0081956Y0203702D01*
X0082369Y0204701D02*
X0082617Y0204701D01*
X0082593Y0205699D02*
X0082393Y0205699D01*
X0082393Y0206698D02*
X0082593Y0206698D01*
X0082593Y0207696D02*
X0082393Y0207696D01*
X0082393Y0208695D02*
X0082593Y0208695D01*
X0082593Y0209693D02*
X0082393Y0209693D01*
X0082393Y0210692D02*
X0082593Y0210692D01*
X0082593Y0211690D02*
X0082393Y0211690D01*
X0082393Y0212689D02*
X0082593Y0212689D01*
X0082833Y0213687D02*
X0082153Y0213687D01*
X0081739Y0214686D02*
X0083247Y0214686D01*
X0090816Y0218680D02*
X0115682Y0218680D01*
X0114572Y0217681D02*
X0091814Y0217681D01*
X0073247Y0214686D02*
X0071739Y0214686D01*
X0072153Y0213687D02*
X0072833Y0213687D01*
X0072593Y0212689D02*
X0072393Y0212689D01*
X0072393Y0211690D02*
X0072593Y0211690D01*
X0072593Y0210692D02*
X0072393Y0210692D01*
X0072393Y0209693D02*
X0072593Y0209693D01*
X0072593Y0208695D02*
X0072393Y0208695D01*
X0072393Y0207696D02*
X0072593Y0207696D01*
X0072593Y0206698D02*
X0072393Y0206698D01*
X0072393Y0205699D02*
X0072593Y0205699D01*
X0072617Y0204701D02*
X0072369Y0204701D01*
X0071956Y0203702D02*
X0073030Y0203702D01*
X0073593Y0202704D02*
X0071393Y0202704D01*
X0070395Y0201705D02*
X0074591Y0201705D01*
X0064591Y0201705D02*
X0060395Y0201705D01*
X0061393Y0202704D02*
X0063593Y0202704D01*
X0063030Y0203702D02*
X0061956Y0203702D01*
X0062369Y0204701D02*
X0062617Y0204701D01*
X0062593Y0205699D02*
X0062393Y0205699D01*
X0062393Y0206698D02*
X0062593Y0206698D01*
X0062593Y0207696D02*
X0062393Y0207696D01*
X0062393Y0208695D02*
X0062593Y0208695D01*
X0062593Y0209693D02*
X0062393Y0209693D01*
X0062393Y0210692D02*
X0062593Y0210692D01*
X0062593Y0211690D02*
X0062393Y0211690D01*
X0062393Y0212689D02*
X0062593Y0212689D01*
X0062833Y0213687D02*
X0062153Y0213687D01*
X0061739Y0214686D02*
X0063247Y0214686D01*
X0052773Y0216683D02*
X0049313Y0216683D01*
X0050871Y0215684D02*
X0051775Y0215684D01*
X0045673Y0216683D02*
X0038699Y0216683D01*
X0038594Y0216717D02*
X0039297Y0216489D01*
X0039956Y0216153D01*
X0040555Y0215718D01*
X0041078Y0215195D01*
X0041513Y0214596D01*
X0041849Y0213937D01*
X0042077Y0213234D01*
X0042193Y0212503D01*
X0042193Y0209433D01*
X0037993Y0209433D01*
X0037993Y0208433D01*
X0037993Y0201054D01*
X0038594Y0201149D01*
X0039297Y0201377D01*
X0039956Y0201713D01*
X0040555Y0202148D01*
X0041078Y0202671D01*
X0041513Y0203270D01*
X0041849Y0203929D01*
X0042077Y0204632D01*
X0042193Y0205363D01*
X0042193Y0208433D01*
X0037993Y0208433D01*
X0036993Y0208433D01*
X0036993Y0201054D01*
X0036392Y0201149D01*
X0035689Y0201377D01*
X0035030Y0201713D01*
X0034431Y0202148D01*
X0033908Y0202671D01*
X0033473Y0203270D01*
X0033137Y0203929D01*
X0032909Y0204632D01*
X0032793Y0205363D01*
X0032793Y0208433D01*
X0036993Y0208433D01*
X0036993Y0209433D01*
X0032793Y0209433D01*
X0032793Y0212503D01*
X0032909Y0213234D01*
X0033137Y0213937D01*
X0033473Y0214596D01*
X0033908Y0215195D01*
X0034431Y0215718D01*
X0035030Y0216153D01*
X0035689Y0216489D01*
X0036392Y0216717D01*
X0036993Y0216812D01*
X0036993Y0209433D01*
X0037993Y0209433D01*
X0037993Y0216812D01*
X0038594Y0216717D01*
X0037993Y0216683D02*
X0036993Y0216683D01*
X0036287Y0216683D02*
X0029313Y0216683D01*
X0030871Y0215684D02*
X0034398Y0215684D01*
X0033538Y0214686D02*
X0031739Y0214686D01*
X0032153Y0213687D02*
X0033056Y0213687D01*
X0032822Y0212689D02*
X0032393Y0212689D01*
X0032393Y0211690D02*
X0032793Y0211690D01*
X0032793Y0210692D02*
X0032393Y0210692D01*
X0032393Y0209693D02*
X0032793Y0209693D01*
X0032393Y0208695D02*
X0036993Y0208695D01*
X0036993Y0209693D02*
X0037993Y0209693D01*
X0037993Y0208695D02*
X0042593Y0208695D01*
X0042593Y0209693D02*
X0042193Y0209693D01*
X0042193Y0210692D02*
X0042593Y0210692D01*
X0042593Y0211690D02*
X0042193Y0211690D01*
X0042164Y0212689D02*
X0042593Y0212689D01*
X0042833Y0213687D02*
X0041930Y0213687D01*
X0041448Y0214686D02*
X0043247Y0214686D01*
X0044115Y0215684D02*
X0040588Y0215684D01*
X0037993Y0215684D02*
X0036993Y0215684D01*
X0036993Y0214686D02*
X0037993Y0214686D01*
X0037993Y0213687D02*
X0036993Y0213687D01*
X0036993Y0212689D02*
X0037993Y0212689D01*
X0037993Y0211690D02*
X0036993Y0211690D01*
X0036993Y0210692D02*
X0037993Y0210692D01*
X0037993Y0207696D02*
X0036993Y0207696D01*
X0036993Y0206698D02*
X0037993Y0206698D01*
X0037993Y0205699D02*
X0036993Y0205699D01*
X0036993Y0204701D02*
X0037993Y0204701D01*
X0037993Y0203702D02*
X0036993Y0203702D01*
X0036993Y0202704D02*
X0037993Y0202704D01*
X0037993Y0201705D02*
X0036993Y0201705D01*
X0035045Y0201705D02*
X0030395Y0201705D01*
X0031393Y0202704D02*
X0033884Y0202704D01*
X0033253Y0203702D02*
X0031956Y0203702D01*
X0032369Y0204701D02*
X0032898Y0204701D01*
X0032793Y0205699D02*
X0032393Y0205699D01*
X0032393Y0206698D02*
X0032793Y0206698D01*
X0032793Y0207696D02*
X0032393Y0207696D01*
X0039941Y0201705D02*
X0044591Y0201705D01*
X0043593Y0202704D02*
X0041102Y0202704D01*
X0041733Y0203702D02*
X0043030Y0203702D01*
X0042617Y0204701D02*
X0042088Y0204701D01*
X0042193Y0205699D02*
X0042593Y0205699D01*
X0042593Y0206698D02*
X0042193Y0206698D01*
X0042193Y0207696D02*
X0042593Y0207696D01*
X0050693Y0190722D02*
X0029682Y0190722D01*
X0030991Y0189723D02*
X0050693Y0189723D01*
X0050693Y0188725D02*
X0031739Y0188725D01*
X0032153Y0187726D02*
X0050693Y0187726D01*
X0050693Y0186728D02*
X0032293Y0186728D01*
X0032293Y0185729D02*
X0050693Y0185729D01*
X0050693Y0184731D02*
X0031983Y0184731D01*
X0031570Y0183732D02*
X0050693Y0183732D01*
X0050693Y0182734D02*
X0030582Y0182734D01*
X0028694Y0181735D02*
X0050693Y0181735D01*
X0050693Y0180737D02*
X0029646Y0180737D01*
X0030976Y0179738D02*
X0050693Y0179738D01*
X0050693Y0178740D02*
X0031733Y0178740D01*
X0032147Y0177741D02*
X0050693Y0177741D01*
X0050693Y0176742D02*
X0032293Y0176742D01*
X0032293Y0175744D02*
X0050234Y0175744D01*
X0049236Y0174745D02*
X0031989Y0174745D01*
X0031576Y0173747D02*
X0048237Y0173747D01*
X0047239Y0172748D02*
X0030597Y0172748D01*
X0028730Y0171750D02*
X0046240Y0171750D01*
X0045242Y0170751D02*
X0029610Y0170751D01*
X0030961Y0169753D02*
X0044243Y0169753D01*
X0043245Y0168754D02*
X0031727Y0168754D01*
X0032141Y0167756D02*
X0042246Y0167756D01*
X0041248Y0166757D02*
X0032293Y0166757D01*
X0032293Y0165759D02*
X0040249Y0165759D01*
X0039250Y0164760D02*
X0031996Y0164760D01*
X0031582Y0163762D02*
X0038252Y0163762D01*
X0037253Y0162763D02*
X0030612Y0162763D01*
X0028766Y0161765D02*
X0036255Y0161765D01*
X0035256Y0160766D02*
X0029575Y0160766D01*
X0030946Y0159768D02*
X0034258Y0159768D01*
X0033259Y0158769D02*
X0031721Y0158769D01*
X0032134Y0157771D02*
X0032261Y0157771D01*
X0120065Y0114835D02*
X0125891Y0114835D01*
X0124212Y0115833D02*
X0121063Y0115833D01*
X0122062Y0116832D02*
X0123438Y0116832D01*
X0135774Y0115833D02*
X0153929Y0115833D01*
X0153193Y0116832D02*
X0136548Y0116832D01*
X0136956Y0117830D02*
X0152779Y0117830D01*
X0159693Y0124820D02*
X0160293Y0124820D01*
X0160293Y0125818D02*
X0159693Y0125818D01*
X0159693Y0126817D02*
X0160293Y0126817D01*
X0160293Y0127815D02*
X0159693Y0127815D01*
X0159693Y0129812D02*
X0160293Y0129812D01*
X0160293Y0130811D02*
X0159693Y0130811D01*
X0159693Y0131809D02*
X0160293Y0131809D01*
X0160293Y0132808D02*
X0159693Y0132808D01*
X0165968Y0175744D02*
X0277493Y0175744D01*
X0277493Y0176742D02*
X0166756Y0176742D01*
X0167170Y0177741D02*
X0277493Y0177741D01*
X0277493Y0178740D02*
X0167293Y0178740D01*
X0167293Y0179738D02*
X0277493Y0179738D01*
X0277493Y0180737D02*
X0166917Y0180737D01*
X0166355Y0181735D02*
X0277493Y0181735D01*
X0277493Y0182734D02*
X0165356Y0182734D01*
X0164406Y0184731D02*
X0277493Y0184731D01*
X0277493Y0185729D02*
X0165953Y0185729D01*
X0166750Y0186728D02*
X0277493Y0186728D01*
X0277493Y0187726D02*
X0167164Y0187726D01*
X0167293Y0188725D02*
X0277493Y0188725D01*
X0277493Y0189723D02*
X0167293Y0189723D01*
X0166923Y0190722D02*
X0277493Y0190722D01*
X0277493Y0191720D02*
X0166370Y0191720D01*
X0165371Y0192719D02*
X0277493Y0192719D01*
X0277493Y0193717D02*
X0125293Y0193717D01*
X0125545Y0194716D02*
X0277493Y0194716D01*
X0277493Y0195714D02*
X0126544Y0195714D01*
X0127543Y0196713D02*
X0277493Y0196713D01*
X0277493Y0197711D02*
X0128541Y0197711D01*
X0139364Y0183732D02*
X0277493Y0183732D01*
X0263786Y0214686D02*
X0181200Y0214686D01*
X0181968Y0215684D02*
X0263018Y0215684D01*
X0263018Y0216683D02*
X0181968Y0216683D01*
X0181968Y0217681D02*
X0263018Y0217681D01*
X0263018Y0218680D02*
X0181968Y0218680D01*
X0181968Y0219678D02*
X0263018Y0219678D01*
X0263018Y0220677D02*
X0181968Y0220677D01*
X0181968Y0221676D02*
X0263018Y0221676D01*
X0263280Y0222674D02*
X0181706Y0222674D01*
X0181185Y0224671D02*
X0263801Y0224671D01*
X0263018Y0225670D02*
X0181968Y0225670D01*
X0181968Y0226668D02*
X0263018Y0226668D01*
X0263018Y0227667D02*
X0181968Y0227667D01*
X0181968Y0228665D02*
X0263018Y0228665D01*
X0263018Y0229664D02*
X0181968Y0229664D01*
X0181968Y0230662D02*
X0263018Y0230662D01*
X0263018Y0231661D02*
X0181968Y0231661D01*
X0181721Y0232659D02*
X0263265Y0232659D01*
X0263816Y0234656D02*
X0181170Y0234656D01*
X0181968Y0235655D02*
X0263018Y0235655D01*
X0263018Y0236653D02*
X0181968Y0236653D01*
X0181968Y0237652D02*
X0263018Y0237652D01*
X0263018Y0238650D02*
X0181968Y0238650D01*
X0181968Y0239649D02*
X0263018Y0239649D01*
X0263018Y0240647D02*
X0181968Y0240647D01*
X0181968Y0241646D02*
X0263018Y0241646D01*
X0263250Y0242644D02*
X0181736Y0242644D01*
X0181155Y0244641D02*
X0263831Y0244641D01*
X0263018Y0245640D02*
X0181968Y0245640D01*
X0181968Y0246638D02*
X0263018Y0246638D01*
X0263018Y0247637D02*
X0181968Y0247637D01*
X0181968Y0248635D02*
X0263018Y0248635D01*
X0263018Y0249634D02*
X0181968Y0249634D01*
X0181968Y0250632D02*
X0263018Y0250632D01*
X0263018Y0251631D02*
X0181968Y0251631D01*
X0181750Y0252629D02*
X0263236Y0252629D01*
X0264014Y0254458D02*
X0270972Y0254458D01*
X0271968Y0255454D01*
X0271968Y0262412D01*
X0270972Y0263408D01*
X0264014Y0263408D01*
X0263018Y0262412D01*
X0263018Y0255454D01*
X0264014Y0254458D01*
X0263846Y0254626D02*
X0181140Y0254626D01*
X0180972Y0254458D02*
X0181968Y0255454D01*
X0181968Y0262412D01*
X0180972Y0263408D01*
X0174014Y0263408D01*
X0173018Y0262412D01*
X0173018Y0255454D01*
X0174014Y0254458D01*
X0180972Y0254458D01*
X0181968Y0255625D02*
X0263018Y0255625D01*
X0263018Y0256623D02*
X0181968Y0256623D01*
X0181968Y0257622D02*
X0263018Y0257622D01*
X0263018Y0258620D02*
X0181968Y0258620D01*
X0181968Y0259619D02*
X0263018Y0259619D01*
X0263018Y0260617D02*
X0181968Y0260617D01*
X0181968Y0261616D02*
X0263018Y0261616D01*
X0263221Y0262614D02*
X0181765Y0262614D01*
X0181125Y0264611D02*
X0263861Y0264611D01*
X0264014Y0264458D02*
X0270972Y0264458D01*
X0271968Y0265454D01*
X0271968Y0272412D01*
X0270972Y0273408D01*
X0264014Y0273408D01*
X0263018Y0272412D01*
X0263018Y0265454D01*
X0264014Y0264458D01*
X0263018Y0265610D02*
X0181968Y0265610D01*
X0181968Y0266609D02*
X0263018Y0266609D01*
X0263018Y0267607D02*
X0181968Y0267607D01*
X0181968Y0268606D02*
X0263018Y0268606D01*
X0263018Y0269604D02*
X0181968Y0269604D01*
X0181968Y0270603D02*
X0263018Y0270603D01*
X0263018Y0271601D02*
X0181968Y0271601D01*
X0181780Y0272600D02*
X0263206Y0272600D01*
X0271780Y0272600D02*
X0277493Y0272600D01*
X0277493Y0273598D02*
X0177228Y0273598D01*
X0178226Y0274597D02*
X0277493Y0274597D01*
X0277493Y0275595D02*
X0179225Y0275595D01*
X0180223Y0276594D02*
X0277493Y0276594D01*
X0277493Y0277592D02*
X0181222Y0277592D01*
X0182220Y0278591D02*
X0277493Y0278591D01*
X0277493Y0279589D02*
X0183219Y0279589D01*
X0184217Y0280588D02*
X0277493Y0280588D01*
X0277493Y0281586D02*
X0185216Y0281586D01*
X0186214Y0282585D02*
X0277493Y0282585D01*
X0277493Y0283583D02*
X0187213Y0283583D01*
X0188212Y0284582D02*
X0277493Y0284582D01*
X0277493Y0285580D02*
X0189210Y0285580D01*
X0190209Y0286579D02*
X0277493Y0286579D01*
X0277493Y0287577D02*
X0191207Y0287577D01*
X0192206Y0288576D02*
X0277493Y0288576D01*
X0277493Y0289574D02*
X0251998Y0289574D01*
X0251857Y0289433D02*
X0254493Y0292069D01*
X0254493Y0295797D01*
X0251857Y0298433D01*
X0248129Y0298433D01*
X0245493Y0295797D01*
X0245493Y0292069D01*
X0248129Y0289433D01*
X0251857Y0289433D01*
X0252997Y0290573D02*
X0277493Y0290573D01*
X0277493Y0291571D02*
X0253995Y0291571D01*
X0254493Y0292570D02*
X0277493Y0292570D01*
X0277493Y0293568D02*
X0254493Y0293568D01*
X0254493Y0294567D02*
X0277493Y0294567D01*
X0277493Y0295565D02*
X0254493Y0295565D01*
X0253726Y0296564D02*
X0277493Y0296564D01*
X0277493Y0297562D02*
X0252728Y0297562D01*
X0247258Y0297562D02*
X0242728Y0297562D01*
X0241857Y0298433D02*
X0238129Y0298433D01*
X0235493Y0295797D01*
X0235493Y0292069D01*
X0238129Y0289433D01*
X0241857Y0289433D01*
X0244493Y0292069D01*
X0244493Y0295797D01*
X0241857Y0298433D01*
X0243726Y0296564D02*
X0246260Y0296564D01*
X0245493Y0295565D02*
X0244493Y0295565D01*
X0244493Y0294567D02*
X0245493Y0294567D01*
X0245493Y0293568D02*
X0244493Y0293568D01*
X0244493Y0292570D02*
X0245493Y0292570D01*
X0245991Y0291571D02*
X0243995Y0291571D01*
X0242997Y0290573D02*
X0246989Y0290573D01*
X0247988Y0289574D02*
X0241998Y0289574D01*
X0237988Y0289574D02*
X0206998Y0289574D01*
X0206857Y0289433D02*
X0209493Y0292069D01*
X0209493Y0295797D01*
X0206857Y0298433D01*
X0203129Y0298433D01*
X0200493Y0295797D01*
X0200493Y0292069D01*
X0203129Y0289433D01*
X0206857Y0289433D01*
X0207997Y0290573D02*
X0236989Y0290573D01*
X0235991Y0291571D02*
X0208995Y0291571D01*
X0209493Y0292570D02*
X0235493Y0292570D01*
X0235493Y0293568D02*
X0209493Y0293568D01*
X0209493Y0294567D02*
X0235493Y0294567D01*
X0235493Y0295565D02*
X0209493Y0295565D01*
X0208726Y0296564D02*
X0236260Y0296564D01*
X0237258Y0297562D02*
X0207728Y0297562D01*
X0202258Y0297562D02*
X0197728Y0297562D01*
X0198726Y0296564D02*
X0201260Y0296564D01*
X0200493Y0295565D02*
X0199493Y0295565D01*
X0199493Y0294567D02*
X0200493Y0294567D01*
X0200493Y0293568D02*
X0199493Y0293568D01*
X0199493Y0292570D02*
X0200493Y0292570D01*
X0200991Y0291571D02*
X0198995Y0291571D01*
X0197997Y0290573D02*
X0201989Y0290573D01*
X0202988Y0289574D02*
X0196998Y0289574D01*
X0173018Y0268606D02*
X0172235Y0268606D01*
X0173018Y0267607D02*
X0171237Y0267607D01*
X0170238Y0266609D02*
X0173018Y0266609D01*
X0173018Y0265610D02*
X0169240Y0265610D01*
X0168241Y0264611D02*
X0173861Y0264611D01*
X0173221Y0262614D02*
X0166244Y0262614D01*
X0165246Y0261616D02*
X0173018Y0261616D01*
X0173018Y0260617D02*
X0164247Y0260617D01*
X0163249Y0259619D02*
X0173018Y0259619D01*
X0173018Y0258620D02*
X0162250Y0258620D01*
X0161252Y0257622D02*
X0173018Y0257622D01*
X0173018Y0256623D02*
X0160253Y0256623D01*
X0159255Y0255625D02*
X0173018Y0255625D01*
X0173846Y0254626D02*
X0158256Y0254626D01*
X0167243Y0263613D02*
X0277493Y0263613D01*
X0277493Y0264611D02*
X0271125Y0264611D01*
X0271968Y0265610D02*
X0277493Y0265610D01*
X0277493Y0266609D02*
X0271968Y0266609D01*
X0271968Y0267607D02*
X0277493Y0267607D01*
X0277493Y0268606D02*
X0271968Y0268606D01*
X0271968Y0269604D02*
X0277493Y0269604D01*
X0277493Y0270603D02*
X0271968Y0270603D01*
X0271968Y0271601D02*
X0277493Y0271601D01*
X0277493Y0262614D02*
X0271765Y0262614D01*
X0271968Y0261616D02*
X0277493Y0261616D01*
X0277493Y0260617D02*
X0271968Y0260617D01*
X0271968Y0259619D02*
X0277493Y0259619D01*
X0277493Y0258620D02*
X0271968Y0258620D01*
X0271968Y0257622D02*
X0277493Y0257622D01*
X0277493Y0256623D02*
X0271968Y0256623D01*
X0271968Y0255625D02*
X0277493Y0255625D01*
X0277493Y0254626D02*
X0271140Y0254626D01*
X0271587Y0142793D02*
X0277493Y0142793D01*
X0277493Y0141795D02*
X0271968Y0141795D01*
X0271968Y0140796D02*
X0277493Y0140796D01*
X0277493Y0139798D02*
X0271968Y0139798D01*
X0271968Y0138799D02*
X0277493Y0138799D01*
X0277493Y0137801D02*
X0271968Y0137801D01*
X0271968Y0136802D02*
X0277493Y0136802D01*
X0277493Y0135804D02*
X0271968Y0135804D01*
X0177780Y0072897D02*
X0177206Y0072897D01*
X0177206Y0071899D02*
X0177780Y0071899D01*
X0177780Y0070900D02*
X0177206Y0070900D01*
X0177206Y0069902D02*
X0177780Y0069902D01*
X0177780Y0067905D02*
X0177206Y0067905D01*
X0177206Y0066906D02*
X0177780Y0066906D01*
X0177780Y0065908D02*
X0177206Y0065908D01*
X0177206Y0064909D02*
X0177780Y0064909D01*
X0153854Y0065908D02*
X0148738Y0065908D01*
X0149736Y0066906D02*
X0153162Y0066906D01*
X0152748Y0067905D02*
X0150735Y0067905D01*
X0151733Y0068903D02*
X0152693Y0068903D01*
X0139802Y0062912D02*
X0134946Y0062912D01*
X0136176Y0061914D02*
X0138804Y0061914D01*
X0137805Y0060915D02*
X0136843Y0060915D01*
M02*
