G75*
%MOIN*%
%OFA0B0*%
%FSLAX25Y25*%
%IPPOS*%
%LPD*%
%AMOC8*
5,1,8,0,0,1.08239X$1,22.5*
%
%ADD10C,0.06400*%
%ADD11OC8,0.06400*%
%ADD12C,0.07200*%
%ADD13C,0.07000*%
%ADD14R,0.06350X0.06350*%
%ADD15C,0.06350*%
%ADD16C,0.06400*%
%ADD17C,0.12611*%
%ADD18C,0.06706*%
D10*
X0041056Y0073933D03*
X0048930Y0073933D03*
X0066056Y0083933D03*
X0073930Y0083933D03*
D11*
X0194993Y0293933D03*
X0204993Y0293933D03*
X0239993Y0293933D03*
X0249993Y0293933D03*
D12*
X0097493Y0212133D02*
X0097493Y0205733D01*
X0087493Y0205733D02*
X0087493Y0212133D01*
X0077493Y0212133D02*
X0077493Y0205733D01*
X0067493Y0205733D02*
X0067493Y0212133D01*
X0057493Y0212133D02*
X0057493Y0205733D01*
X0047493Y0205733D02*
X0047493Y0212133D01*
X0037493Y0212133D02*
X0037493Y0205733D01*
X0027493Y0205733D02*
X0027493Y0212133D01*
D13*
X0027493Y0056433D03*
X0027493Y0066433D03*
X0037493Y0066433D03*
X0027493Y0076433D03*
X0027493Y0086433D03*
X0037493Y0086433D03*
X0037493Y0096433D03*
X0027493Y0096433D03*
X0027493Y0106433D03*
X0037493Y0106433D03*
X0027493Y0116433D03*
X0027493Y0126433D03*
X0027493Y0136433D03*
X0027493Y0146433D03*
X0027493Y0156433D03*
X0027493Y0166433D03*
X0027493Y0176433D03*
X0027493Y0186433D03*
X0087493Y0186433D03*
X0087493Y0176433D03*
X0087493Y0166433D03*
X0087493Y0156433D03*
X0087493Y0146433D03*
X0087493Y0136433D03*
X0087493Y0126433D03*
X0087493Y0116433D03*
X0087493Y0106433D03*
X0087493Y0096433D03*
X0087493Y0086433D03*
X0087493Y0076433D03*
X0087493Y0066433D03*
X0087493Y0056433D03*
D14*
X0177493Y0068933D03*
X0177493Y0078933D03*
X0177493Y0088933D03*
X0177493Y0098933D03*
X0177493Y0108933D03*
X0177493Y0118933D03*
X0177493Y0128933D03*
X0177493Y0138933D03*
X0267493Y0138933D03*
X0267493Y0128933D03*
X0267493Y0118933D03*
X0267493Y0108933D03*
X0267493Y0098933D03*
X0267493Y0088933D03*
X0267493Y0078933D03*
X0267493Y0068933D03*
X0267493Y0218933D03*
X0267493Y0228933D03*
X0267493Y0238933D03*
X0267493Y0248933D03*
X0267493Y0258933D03*
X0267493Y0268933D03*
X0177493Y0268933D03*
X0177493Y0258933D03*
X0177493Y0248933D03*
X0177493Y0238933D03*
X0177493Y0228933D03*
X0177493Y0218933D03*
X0149934Y0221738D03*
X0119934Y0221738D03*
X0074993Y0288933D03*
X0034993Y0278933D03*
X0034993Y0298933D03*
D15*
X0129934Y0221738D03*
X0139934Y0221738D03*
X0139934Y0211738D03*
X0129934Y0211738D03*
X0119934Y0211738D03*
X0149934Y0211738D03*
D16*
X0157193Y0188933D02*
X0162793Y0188933D01*
X0162793Y0178933D02*
X0157193Y0178933D01*
X0157193Y0168933D02*
X0162793Y0168933D01*
X0162793Y0158933D02*
X0157193Y0158933D01*
X0157193Y0148933D02*
X0162793Y0148933D01*
X0162793Y0138933D02*
X0157193Y0138933D01*
X0157193Y0128933D02*
X0162793Y0128933D01*
X0162793Y0118933D02*
X0157193Y0118933D01*
X0157193Y0108933D02*
X0162793Y0108933D01*
X0162793Y0098933D02*
X0157193Y0098933D01*
X0157193Y0088933D02*
X0162793Y0088933D01*
X0162793Y0078933D02*
X0157193Y0078933D01*
X0157193Y0068933D02*
X0162793Y0068933D01*
X0162793Y0058933D02*
X0157193Y0058933D01*
X0132793Y0058933D02*
X0127193Y0058933D01*
X0127193Y0068933D02*
X0132793Y0068933D01*
X0132793Y0078933D02*
X0127193Y0078933D01*
X0127193Y0088933D02*
X0132793Y0088933D01*
X0132793Y0098933D02*
X0127193Y0098933D01*
X0127193Y0108933D02*
X0132793Y0108933D01*
X0132793Y0118933D02*
X0127193Y0118933D01*
X0127193Y0128933D02*
X0132793Y0128933D01*
X0132793Y0138933D02*
X0127193Y0138933D01*
X0127193Y0148933D02*
X0132793Y0148933D01*
X0132793Y0158933D02*
X0127193Y0158933D01*
X0127193Y0168933D02*
X0132793Y0168933D01*
X0132793Y0178933D02*
X0127193Y0178933D01*
X0127193Y0188933D02*
X0132793Y0188933D01*
D17*
X0109993Y0184933D03*
X0109993Y0166433D03*
X0109993Y0147933D03*
D18*
X0103693Y0135333D03*
X0116293Y0135333D03*
X0116293Y0197533D03*
X0103693Y0197533D03*
M02*
